G04 MADE WITH FRITZING*
G04 WWW.FRITZING.ORG*
G04 DOUBLE SIDED*
G04 HOLES PLATED*
G04 CONTOUR ON CENTER OF CONTOUR VECTOR*
%ASAXBY*%
%FSLAX23Y23*%
%MOIN*%
%OFA0B0*%
%SFA1.0B1.0*%
%ADD10C,0.078000*%
%ADD11C,0.039370*%
%ADD12C,0.075000*%
%ADD13C,0.074000*%
%ADD14C,0.062992*%
%ADD15R,0.075000X0.075000*%
%ADD16R,0.062992X0.062992*%
%ADD17C,0.024000*%
%LNCOPPER1*%
G90*
G70*
G54D10*
X1572Y2141D03*
X1672Y2141D03*
X1772Y2141D03*
X422Y2141D03*
X522Y2141D03*
X3057Y2148D03*
X3157Y2148D03*
X3257Y2148D03*
X3357Y2148D03*
X3457Y2148D03*
X3557Y2148D03*
X3657Y2148D03*
G54D11*
X824Y1266D03*
X1640Y906D03*
X512Y1530D03*
X1922Y141D03*
G54D12*
X1122Y1391D03*
X1122Y1691D03*
X1222Y1391D03*
X1222Y1691D03*
X1322Y1391D03*
X1322Y1691D03*
X1422Y1391D03*
X1422Y1691D03*
X1522Y1391D03*
X1522Y1691D03*
X1622Y1391D03*
X1622Y1691D03*
X1722Y1391D03*
X1722Y1691D03*
X1822Y1391D03*
X1822Y1691D03*
X172Y1391D03*
X172Y1691D03*
X272Y1391D03*
X272Y1691D03*
X372Y1391D03*
X372Y1691D03*
X472Y1391D03*
X472Y1691D03*
X572Y1391D03*
X572Y1691D03*
X672Y1391D03*
X672Y1691D03*
X772Y1391D03*
X772Y1691D03*
X872Y1391D03*
X872Y1691D03*
G54D13*
X1722Y1041D03*
X1622Y1041D03*
X1522Y1041D03*
X1422Y1041D03*
X1322Y1041D03*
X1322Y241D03*
X1422Y241D03*
X1522Y241D03*
X1622Y241D03*
X1722Y241D03*
X1722Y1041D03*
X1622Y1041D03*
X1522Y1041D03*
X1422Y1041D03*
X1322Y1041D03*
X1322Y241D03*
X1422Y241D03*
X1522Y241D03*
X1622Y241D03*
X1722Y241D03*
X672Y1041D03*
X572Y1041D03*
X472Y1041D03*
X372Y1041D03*
X272Y1041D03*
X272Y241D03*
X372Y241D03*
X472Y241D03*
X572Y241D03*
X672Y241D03*
X672Y1041D03*
X572Y1041D03*
X472Y1041D03*
X372Y1041D03*
X272Y1041D03*
X272Y241D03*
X372Y241D03*
X472Y241D03*
X572Y241D03*
X672Y241D03*
G54D12*
X1072Y191D03*
X1072Y591D03*
X922Y191D03*
X922Y591D03*
X4457Y992D03*
X4457Y1248D03*
X4634Y992D03*
X4634Y1248D03*
X4057Y992D03*
X4057Y1248D03*
X4234Y992D03*
X4234Y1248D03*
X3657Y992D03*
X3657Y1248D03*
X3834Y992D03*
X3834Y1248D03*
X3257Y992D03*
X3257Y1248D03*
X3434Y992D03*
X3434Y1248D03*
X2857Y992D03*
X2857Y1248D03*
X3034Y992D03*
X3034Y1248D03*
X2457Y992D03*
X2457Y1248D03*
X2634Y992D03*
X2634Y1248D03*
X2057Y992D03*
X2057Y1248D03*
X2234Y992D03*
X2234Y1248D03*
X4534Y798D03*
X4534Y398D03*
X4134Y798D03*
X4134Y398D03*
X3734Y798D03*
X3734Y398D03*
X3334Y798D03*
X3334Y398D03*
X2934Y798D03*
X2934Y398D03*
X2534Y798D03*
X2534Y398D03*
X2134Y798D03*
X2134Y398D03*
G54D14*
X4534Y1400D03*
X4534Y1498D03*
X4134Y1400D03*
X4134Y1498D03*
X3734Y1400D03*
X3734Y1498D03*
X3334Y1400D03*
X3334Y1498D03*
X2934Y1400D03*
X2934Y1498D03*
X2534Y1400D03*
X2534Y1498D03*
X2134Y1400D03*
X2134Y1498D03*
G54D15*
X1122Y1391D03*
X172Y1391D03*
G54D16*
X4534Y1400D03*
X4134Y1400D03*
X3734Y1400D03*
X3334Y1400D03*
X2934Y1400D03*
X2534Y1400D03*
X2134Y1400D03*
G54D17*
X4534Y827D02*
X4534Y1373D01*
D02*
X2134Y827D02*
X2134Y1373D01*
D02*
X3334Y827D02*
X3334Y1373D01*
D02*
X2534Y827D02*
X2534Y1373D01*
D02*
X3734Y827D02*
X3734Y1373D01*
D02*
X2934Y827D02*
X2934Y1373D01*
D02*
X769Y1363D02*
X674Y272D01*
D02*
X4134Y827D02*
X4134Y1373D01*
D02*
X1499Y263D02*
X1208Y546D01*
D02*
X1408Y1366D02*
X992Y570D01*
D02*
X1208Y546D02*
X1099Y582D01*
D02*
X992Y570D02*
X1300Y263D01*
D02*
X3360Y2118D02*
X3432Y1277D01*
D02*
X1603Y1369D02*
X1342Y1065D01*
D02*
X650Y1372D02*
X295Y1061D01*
D02*
X2939Y426D02*
X3029Y964D01*
D02*
X200Y1362D02*
X200Y978D01*
D02*
X192Y1371D02*
X200Y1362D01*
D02*
X3250Y2119D02*
X3041Y1276D01*
D02*
X1880Y1338D02*
X1712Y1074D01*
D02*
X1880Y1458D02*
X1880Y1338D01*
D02*
X1136Y1458D02*
X1880Y1458D01*
D02*
X1128Y1419D02*
X1136Y1458D01*
D02*
X632Y978D02*
X655Y1015D01*
D02*
X200Y978D02*
X632Y978D01*
D02*
X272Y1420D02*
X272Y1458D01*
D02*
X1712Y1074D02*
X1713Y1071D01*
D02*
X277Y1663D02*
X320Y1458D01*
D02*
X152Y930D02*
X555Y268D01*
D02*
X104Y1314D02*
X152Y930D01*
D02*
X104Y1458D02*
X104Y1314D01*
D02*
X272Y1458D02*
X104Y1458D01*
D02*
X932Y1314D02*
X841Y1274D01*
D02*
X920Y1458D02*
X932Y1314D01*
D02*
X320Y1458D02*
X920Y1458D01*
D02*
X3739Y426D02*
X3829Y964D01*
D02*
X3476Y2125D02*
X3808Y1705D01*
D02*
X3808Y1705D02*
X3833Y1277D01*
D02*
X1592Y1746D02*
X1608Y1716D01*
D02*
X1573Y2111D02*
X1592Y1746D01*
D02*
X692Y1711D02*
X752Y1770D01*
D02*
X1064Y1458D02*
X1088Y1506D01*
D02*
X1064Y1314D02*
X1064Y1458D01*
D02*
X1184Y1314D02*
X1064Y1314D01*
D02*
X1209Y1365D02*
X1184Y1314D01*
D02*
X1592Y1770D02*
X1592Y1746D01*
D02*
X752Y1770D02*
X1592Y1770D01*
D02*
X1928Y1290D02*
X1784Y978D01*
D02*
X1928Y1506D02*
X1928Y1290D01*
D02*
X1088Y1506D02*
X1928Y1506D01*
D02*
X1448Y978D02*
X1614Y271D01*
D02*
X1784Y978D02*
X1448Y978D01*
D02*
X1976Y1218D02*
X1832Y906D01*
D02*
X1976Y1554D02*
X1976Y1218D01*
D02*
X1232Y1554D02*
X1976Y1554D01*
D02*
X1224Y1663D02*
X1232Y1554D01*
D02*
X2539Y426D02*
X2629Y964D01*
D02*
X1832Y906D02*
X1659Y906D01*
D02*
X1779Y2112D02*
X1880Y1746D01*
D02*
X1568Y1626D02*
X1538Y1668D01*
D02*
X1880Y1626D02*
X1568Y1626D01*
D02*
X1880Y1746D02*
X1880Y1626D01*
D02*
X4139Y426D02*
X4229Y964D01*
D02*
X3684Y2135D02*
X4624Y1681D01*
D02*
X4624Y1681D02*
X4634Y1277D01*
D02*
X2561Y1498D02*
X2907Y1498D01*
D02*
X2161Y1498D02*
X2507Y1498D01*
D02*
X4507Y1498D02*
X4161Y1498D01*
D02*
X425Y2111D02*
X468Y1720D01*
D02*
X1109Y1666D02*
X1040Y1530D01*
D02*
X1040Y1530D02*
X531Y1530D01*
D02*
X776Y1530D02*
X1040Y1530D01*
D02*
X772Y1663D02*
X776Y1530D01*
D02*
X1903Y140D02*
X1123Y93D01*
D02*
X1123Y93D02*
X1085Y166D01*
G04 End of Copper1*
M02*