G04 MADE WITH FRITZING*
G04 WWW.FRITZING.ORG*
G04 DOUBLE SIDED*
G04 HOLES PLATED*
G04 CONTOUR ON CENTER OF CONTOUR VECTOR*
%ASAXBY*%
%FSLAX23Y23*%
%MOIN*%
%OFA0B0*%
%SFA1.0B1.0*%
%ADD10C,0.078000*%
%ADD11C,0.039370*%
%ADD12C,0.075000*%
%ADD13C,0.074000*%
%ADD14C,0.062992*%
%ADD15R,0.075000X0.075000*%
%ADD16R,0.062992X0.062992*%
%ADD17C,0.024000*%
%LNCOPPER0*%
G90*
G70*
G54D10*
X1572Y2141D03*
X1672Y2141D03*
X1772Y2141D03*
X422Y2141D03*
X522Y2141D03*
X3057Y2148D03*
X3157Y2148D03*
X3257Y2148D03*
X3357Y2148D03*
X3457Y2148D03*
X3557Y2148D03*
X3657Y2148D03*
G54D11*
X824Y1266D03*
X1640Y906D03*
X512Y1530D03*
X1922Y141D03*
G54D12*
X1122Y1391D03*
X1122Y1691D03*
X1222Y1391D03*
X1222Y1691D03*
X1322Y1391D03*
X1322Y1691D03*
X1422Y1391D03*
X1422Y1691D03*
X1522Y1391D03*
X1522Y1691D03*
X1622Y1391D03*
X1622Y1691D03*
X1722Y1391D03*
X1722Y1691D03*
X1822Y1391D03*
X1822Y1691D03*
X172Y1391D03*
X172Y1691D03*
X272Y1391D03*
X272Y1691D03*
X372Y1391D03*
X372Y1691D03*
X472Y1391D03*
X472Y1691D03*
X572Y1391D03*
X572Y1691D03*
X672Y1391D03*
X672Y1691D03*
X772Y1391D03*
X772Y1691D03*
X872Y1391D03*
X872Y1691D03*
G54D13*
X1722Y1041D03*
X1622Y1041D03*
X1522Y1041D03*
X1422Y1041D03*
X1322Y1041D03*
X1322Y241D03*
X1422Y241D03*
X1522Y241D03*
X1622Y241D03*
X1722Y241D03*
X672Y1041D03*
X572Y1041D03*
X472Y1041D03*
X372Y1041D03*
X272Y1041D03*
X272Y241D03*
X372Y241D03*
X472Y241D03*
X572Y241D03*
X672Y241D03*
G54D12*
X1072Y191D03*
X1072Y591D03*
X922Y191D03*
X922Y591D03*
X4457Y992D03*
X4457Y1248D03*
X4634Y992D03*
X4634Y1248D03*
X4057Y992D03*
X4057Y1248D03*
X4234Y992D03*
X4234Y1248D03*
X3657Y992D03*
X3657Y1248D03*
X3834Y992D03*
X3834Y1248D03*
X3257Y992D03*
X3257Y1248D03*
X3434Y992D03*
X3434Y1248D03*
X2857Y992D03*
X2857Y1248D03*
X3034Y992D03*
X3034Y1248D03*
X2457Y992D03*
X2457Y1248D03*
X2634Y992D03*
X2634Y1248D03*
X2057Y992D03*
X2057Y1248D03*
X2234Y992D03*
X2234Y1248D03*
X4534Y798D03*
X4534Y398D03*
X4134Y798D03*
X4134Y398D03*
X3734Y798D03*
X3734Y398D03*
X3334Y798D03*
X3334Y398D03*
X2934Y798D03*
X2934Y398D03*
X2534Y798D03*
X2534Y398D03*
X2134Y798D03*
X2134Y398D03*
G54D14*
X4534Y1400D03*
X4534Y1498D03*
X4134Y1400D03*
X4134Y1498D03*
X3734Y1400D03*
X3734Y1498D03*
X3334Y1400D03*
X3334Y1498D03*
X2934Y1400D03*
X2934Y1498D03*
X2534Y1400D03*
X2534Y1498D03*
X2134Y1400D03*
X2134Y1498D03*
G54D15*
X1122Y1391D03*
X172Y1391D03*
G54D16*
X4534Y1400D03*
X4134Y1400D03*
X3734Y1400D03*
X3334Y1400D03*
X2934Y1400D03*
X2534Y1400D03*
X2134Y1400D03*
G54D17*
X1972Y1042D02*
X1923Y160D01*
D02*
X2072Y1241D02*
X1972Y1042D01*
D02*
X2059Y1021D02*
X2072Y1241D01*
D02*
X1743Y1373D02*
X1784Y1338D01*
D02*
X1784Y1338D02*
X1784Y978D01*
D02*
X1784Y978D02*
X1712Y978D01*
D02*
X1712Y978D02*
X1721Y272D01*
D02*
X350Y1372D02*
X200Y1242D01*
D02*
X200Y1242D02*
X200Y1002D01*
D02*
X200Y1002D02*
X224Y978D01*
D02*
X224Y978D02*
X368Y978D01*
D02*
X368Y978D02*
X371Y272D01*
D02*
X1514Y1364D02*
X1430Y1071D01*
D02*
X1303Y1713D02*
X1256Y1770D01*
D02*
X1256Y1770D02*
X1064Y1770D01*
D02*
X1064Y1770D02*
X898Y1702D01*
D02*
X496Y260D02*
X899Y574D01*
D02*
X549Y1373D02*
X392Y1242D01*
D02*
X392Y1242D02*
X375Y1072D01*
D02*
X1299Y1373D02*
X1256Y1338D01*
D02*
X1256Y1338D02*
X1256Y978D01*
D02*
X1256Y978D02*
X1415Y271D01*
D02*
X3339Y426D02*
X3429Y964D01*
D02*
X453Y1413D02*
X416Y1458D01*
D02*
X416Y1458D02*
X104Y1458D01*
D02*
X104Y1458D02*
X104Y1314D01*
D02*
X104Y1314D02*
X267Y272D01*
D02*
X810Y1254D02*
X594Y1062D01*
D02*
X1637Y925D02*
X1626Y1011D01*
D02*
X3142Y2122D02*
X2649Y1273D01*
D02*
X586Y1716D02*
X632Y1794D01*
D02*
X632Y1794D02*
X1304Y1818D01*
D02*
X1304Y1818D02*
X1496Y1722D01*
D02*
X1496Y1722D02*
X1503Y1713D01*
D02*
X3582Y2132D02*
X4216Y1729D01*
D02*
X4216Y1729D02*
X4233Y1277D01*
D02*
X387Y1715D02*
X440Y1794D01*
D02*
X440Y1794D02*
X560Y1794D01*
D02*
X560Y1794D02*
X560Y1842D01*
D02*
X560Y1842D02*
X1304Y1902D01*
D02*
X1304Y1902D02*
X1646Y2125D01*
D02*
X2139Y426D02*
X2229Y964D01*
D02*
X3035Y2128D02*
X2272Y1441D01*
D02*
X2272Y1441D02*
X2240Y1276D01*
D02*
X4539Y426D02*
X4629Y964D01*
D02*
X3707Y1498D02*
X3361Y1498D01*
D02*
X2961Y1498D02*
X3307Y1498D01*
D02*
X4107Y1498D02*
X3761Y1498D01*
D02*
X1849Y1400D02*
X2109Y1489D01*
D02*
X1444Y1674D02*
X1799Y1408D01*
D02*
X897Y1404D02*
X1400Y1650D01*
D02*
X1400Y1650D02*
X1408Y1666D01*
D02*
X494Y1674D02*
X849Y1408D01*
D02*
X950Y191D02*
X1043Y191D01*
D02*
X2430Y1240D02*
X2201Y1171D01*
D02*
X2201Y1171D02*
X2082Y1235D01*
D02*
X2829Y1241D02*
X2561Y1171D01*
D02*
X2561Y1171D02*
X2480Y1231D01*
D02*
X3230Y1259D02*
X3089Y1315D01*
D02*
X3089Y1315D02*
X2969Y1315D01*
D02*
X2969Y1315D02*
X2882Y1263D01*
D02*
X3630Y1240D02*
X3401Y1171D01*
D02*
X3401Y1171D02*
X3282Y1235D01*
D02*
X4030Y1258D02*
X3881Y1315D01*
D02*
X3881Y1315D02*
X3761Y1315D01*
D02*
X3761Y1315D02*
X3681Y1264D01*
D02*
X4429Y1241D02*
X4169Y1171D01*
D02*
X4169Y1171D02*
X4081Y1232D01*
D02*
X1728Y1663D02*
X1736Y1626D01*
D02*
X1736Y1626D02*
X1880Y1626D01*
D02*
X1880Y1626D02*
X1952Y1698D01*
D02*
X1952Y1698D02*
X2264Y1698D01*
D02*
X2264Y1698D02*
X2288Y1458D01*
D02*
X2288Y1458D02*
X2078Y1267D01*
D02*
X494Y1536D02*
X200Y1626D01*
D02*
X200Y1626D02*
X200Y1746D01*
D02*
X200Y1746D02*
X512Y1890D01*
D02*
X512Y1890D02*
X1522Y2241D01*
D02*
X1522Y2241D02*
X1872Y2241D01*
D02*
X1872Y2241D02*
X1872Y2191D01*
D02*
X1872Y2191D02*
X1730Y1719D01*
D02*
X185Y1717D02*
X200Y1746D01*
D02*
X520Y2111D02*
X512Y1890D01*
D02*
X2057Y1248D02*
X2019Y1389D01*
G04 End of Copper0*
M02*