; NON-PLATED HOLES START AT T1
; THROUGH (PLATED) HOLES START AT T100
M48
INCH
T100C0.035000
T101C0.039370
T102C0.031497
T103C0.038000
T104C0.015748
%
T100
X020570Y012481
X024570Y012481
X009215Y001911
X033342Y007981
X046342Y009922
X042342Y009922
X040570Y009922
X017215Y016912
X044570Y009922
X007715Y016912
X018215Y016912
X038342Y009922
X008715Y016912
X015215Y016912
X036570Y009922
X005715Y016912
X016215Y016912
X006715Y016912
X040570Y012481
X030342Y009922
X044570Y012481
X013215Y016912
X003715Y016912
X014215Y016912
X034342Y009922
X004715Y016912
X011215Y016912
X032570Y009922
X001715Y016912
X012215Y016912
X002715Y016912
X025342Y003981
X010715Y001911
X036570Y012481
X029342Y003981
X021342Y003981
X032570Y012481
X026342Y012481
X017215Y013912
X018215Y013912
X015215Y013912
X016215Y013912
X025342Y007981
X045342Y003981
X022342Y012481
X010715Y005911
X013215Y013912
X029342Y007981
X014215Y013912
X011215Y013912
X012215Y013912
X021342Y007981
X041342Y003981
X037342Y003981
X046342Y012481
X007715Y013912
X008715Y013912
X005715Y013912
X006715Y013912
X009215Y005911
X033342Y003981
X026342Y009922
X045342Y007981
X042342Y012481
X038342Y012481
X003715Y013912
X028570Y009922
X004715Y013912
X001715Y013912
X002715Y013912
X030342Y012481
X022342Y009922
X041342Y007981
X020570Y009922
X034342Y012481
X028570Y012481
X024570Y009922
X037342Y007981
T101
X013215Y010411
X006715Y002411
X015215Y010411
X004715Y002411
X017215Y002411
X014215Y010411
X005715Y002411
X016215Y010411
X016215Y002411
X017215Y010411
X002715Y010411
X003715Y002411
X003715Y010411
X014215Y002411
X005715Y010411
X002715Y002411
X015215Y002411
X004715Y010411
X013215Y002411
X006715Y010411
T102
X045342Y014981
X045342Y013997
X021342Y014981
X021342Y013997
X029342Y014981
X029342Y013997
X025342Y014981
X025342Y013997
X033342Y014981
X033342Y013997
X037342Y014981
X037342Y013997
X041342Y014981
X041342Y013997
T103
X031570Y021481
X033570Y021481
X035570Y021481
X016715Y021412
X032570Y021481
X034570Y021481
X030570Y021481
X005215Y021412
X036570Y021481
X015715Y021412
X017715Y021412
X004215Y021412
T104
X005119Y015302
X016399Y009062
X008239Y012662
X019215Y001412
T00
M30
