G04 MADE WITH FRITZING*
G04 WWW.FRITZING.ORG*
G04 DOUBLE SIDED*
G04 HOLES PLATED*
G04 CONTOUR ON CENTER OF CONTOUR VECTOR*
%ASAXBY*%
%FSLAX23Y23*%
%MOIN*%
%OFA0B0*%
%SFA1.0B1.0*%
%ADD10C,0.008*%
%LNCONTOUR*%
G90*
G70*
G54D10*
X368Y2969D02*
X369Y2969D01*
X370Y2969D01*
X371Y2969D01*
X372Y2969D01*
X373Y2969D01*
X374Y2969D01*
X375Y2969D01*
X376Y2969D01*
X377Y2969D01*
X378Y2969D01*
X379Y2969D01*
X380Y2969D01*
X381Y2969D01*
X382Y2969D01*
X383Y2969D01*
X384Y2969D01*
X385Y2969D01*
X386Y2969D01*
X387Y2969D01*
X388Y2969D01*
X389Y2969D01*
X390Y2969D01*
X391Y2969D01*
X392Y2969D01*
X393Y2969D01*
X394Y2969D01*
X395Y2969D01*
X396Y2969D01*
X397Y2969D01*
X398Y2969D01*
X399Y2969D01*
X400Y2969D01*
X401Y2969D01*
X402Y2969D01*
X403Y2969D01*
X404Y2969D01*
X405Y2969D01*
X406Y2969D01*
X407Y2969D01*
X408Y2969D01*
X409Y2969D01*
X410Y2969D01*
X411Y2969D01*
X412Y2969D01*
X413Y2969D01*
X414Y2969D01*
X415Y2969D01*
X416Y2969D01*
X417Y2969D01*
X418Y2969D01*
X419Y2969D01*
X420Y2969D01*
X421Y2969D01*
X422Y2969D01*
X423Y2969D01*
X424Y2969D01*
X425Y2969D01*
X426Y2969D01*
X427Y2969D01*
X428Y2969D01*
X429Y2969D01*
X430Y2969D01*
X431Y2969D01*
X432Y2969D01*
X433Y2969D01*
X434Y2969D01*
X435Y2969D01*
X436Y2969D01*
X437Y2969D01*
X438Y2969D01*
X439Y2969D01*
X440Y2969D01*
X441Y2969D01*
X442Y2969D01*
X443Y2969D01*
X444Y2969D01*
X445Y2969D01*
X446Y2969D01*
X447Y2969D01*
X448Y2969D01*
X449Y2969D01*
X450Y2969D01*
X451Y2969D01*
X452Y2969D01*
X453Y2969D01*
X454Y2969D01*
X455Y2969D01*
X456Y2969D01*
X457Y2969D01*
X458Y2969D01*
X459Y2969D01*
X460Y2969D01*
X461Y2969D01*
X462Y2969D01*
X463Y2969D01*
X464Y2969D01*
X465Y2969D01*
X466Y2969D01*
X467Y2969D01*
X468Y2969D01*
X469Y2969D01*
X470Y2969D01*
X471Y2969D01*
X472Y2969D01*
X473Y2969D01*
X474Y2969D01*
X475Y2969D01*
X476Y2969D01*
X477Y2969D01*
X478Y2969D01*
X479Y2969D01*
X480Y2969D01*
X481Y2969D01*
X482Y2969D01*
X483Y2969D01*
X484Y2969D01*
X485Y2969D01*
X486Y2969D01*
X487Y2969D01*
X488Y2969D01*
X489Y2969D01*
X490Y2969D01*
X491Y2969D01*
X492Y2969D01*
X493Y2969D01*
X494Y2969D01*
X495Y2969D01*
X496Y2969D01*
X497Y2969D01*
X498Y2969D01*
X499Y2969D01*
X500Y2969D01*
X501Y2969D01*
X502Y2969D01*
X503Y2969D01*
X504Y2969D01*
X505Y2969D01*
X506Y2969D01*
X507Y2969D01*
X508Y2969D01*
X509Y2969D01*
X510Y2969D01*
X511Y2969D01*
X512Y2969D01*
X513Y2969D01*
X514Y2969D01*
X515Y2969D01*
X516Y2969D01*
X517Y2969D01*
X518Y2969D01*
X519Y2969D01*
X520Y2969D01*
X521Y2969D01*
X522Y2969D01*
X523Y2969D01*
X524Y2969D01*
X525Y2969D01*
X526Y2969D01*
X527Y2969D01*
X528Y2969D01*
X529Y2969D01*
X530Y2969D01*
X531Y2969D01*
X532Y2969D01*
X533Y2969D01*
X534Y2969D01*
X535Y2969D01*
X536Y2969D01*
X537Y2969D01*
X538Y2969D01*
X539Y2969D01*
X540Y2969D01*
X541Y2969D01*
X542Y2969D01*
X543Y2969D01*
X544Y2969D01*
X545Y2969D01*
X546Y2969D01*
X547Y2969D01*
X548Y2969D01*
X549Y2969D01*
X550Y2969D01*
X551Y2969D01*
X552Y2969D01*
X553Y2969D01*
X554Y2969D01*
X555Y2969D01*
X556Y2969D01*
X557Y2969D01*
X558Y2969D01*
X559Y2969D01*
X560Y2969D01*
X561Y2969D01*
X562Y2969D01*
X563Y2969D01*
X564Y2969D01*
X565Y2969D01*
X566Y2969D01*
X567Y2969D01*
X568Y2969D01*
X569Y2969D01*
X570Y2969D01*
X571Y2969D01*
X572Y2969D01*
X573Y2969D01*
X574Y2969D01*
X575Y2969D01*
X576Y2969D01*
X577Y2969D01*
X578Y2969D01*
X579Y2969D01*
X580Y2969D01*
X581Y2969D01*
X582Y2969D01*
X583Y2969D01*
X584Y2969D01*
X585Y2969D01*
X586Y2969D01*
X587Y2969D01*
X588Y2969D01*
X589Y2969D01*
X590Y2969D01*
X591Y2969D01*
X592Y2969D01*
X593Y2969D01*
X594Y2969D01*
X595Y2969D01*
X596Y2969D01*
X597Y2969D01*
X598Y2969D01*
X599Y2969D01*
X600Y2969D01*
X601Y2969D01*
X602Y2969D01*
X603Y2969D01*
X604Y2969D01*
X605Y2969D01*
X606Y2969D01*
X607Y2969D01*
X608Y2969D01*
X609Y2969D01*
X610Y2969D01*
X611Y2969D01*
X612Y2969D01*
X613Y2969D01*
X614Y2969D01*
X615Y2969D01*
X616Y2969D01*
X617Y2969D01*
X618Y2969D01*
X619Y2969D01*
X620Y2969D01*
X621Y2969D01*
X622Y2969D01*
X623Y2969D01*
X624Y2969D01*
X625Y2969D01*
X626Y2969D01*
X627Y2969D01*
X628Y2969D01*
X629Y2969D01*
X630Y2969D01*
X631Y2969D01*
X632Y2969D01*
X633Y2969D01*
X634Y2969D01*
X635Y2969D01*
X636Y2969D01*
X637Y2969D01*
X638Y2969D01*
X639Y2969D01*
X640Y2969D01*
X641Y2969D01*
X642Y2969D01*
X643Y2969D01*
X644Y2969D01*
X645Y2969D01*
X646Y2969D01*
X647Y2969D01*
X648Y2969D01*
X649Y2969D01*
X650Y2969D01*
X651Y2969D01*
X652Y2969D01*
X653Y2969D01*
X654Y2969D01*
X655Y2969D01*
X656Y2969D01*
X657Y2969D01*
X658Y2969D01*
X659Y2969D01*
X660Y2969D01*
X661Y2969D01*
X662Y2969D01*
X663Y2969D01*
X664Y2969D01*
X665Y2969D01*
X666Y2969D01*
X667Y2969D01*
X668Y2969D01*
X669Y2969D01*
X670Y2969D01*
X671Y2969D01*
X672Y2969D01*
X673Y2969D01*
X674Y2969D01*
X675Y2969D01*
X676Y2969D01*
X677Y2969D01*
X678Y2969D01*
X679Y2969D01*
X680Y2969D01*
X681Y2969D01*
X682Y2969D01*
X683Y2969D01*
X684Y2969D01*
X685Y2969D01*
X686Y2969D01*
X687Y2969D01*
X688Y2969D01*
X689Y2969D01*
X690Y2969D01*
X691Y2969D01*
X692Y2969D01*
X693Y2969D01*
X694Y2969D01*
X695Y2969D01*
X696Y2969D01*
X697Y2969D01*
X698Y2969D01*
X699Y2969D01*
X700Y2969D01*
X701Y2969D01*
X702Y2969D01*
X703Y2969D01*
X704Y2969D01*
X705Y2969D01*
X706Y2969D01*
X707Y2969D01*
X708Y2969D01*
X709Y2969D01*
X710Y2969D01*
X711Y2969D01*
X712Y2969D01*
X713Y2969D01*
X714Y2969D01*
X715Y2969D01*
X716Y2969D01*
X717Y2969D01*
X718Y2969D01*
X719Y2969D01*
X720Y2969D01*
X721Y2969D01*
X722Y2969D01*
X723Y2969D01*
X724Y2969D01*
X725Y2969D01*
X726Y2969D01*
X727Y2969D01*
X728Y2969D01*
X729Y2969D01*
X730Y2969D01*
X731Y2969D01*
X732Y2969D01*
X733Y2969D01*
X734Y2969D01*
X735Y2969D01*
X736Y2969D01*
X737Y2969D01*
X738Y2969D01*
X739Y2969D01*
X740Y2969D01*
X741Y2969D01*
X742Y2969D01*
X743Y2969D01*
X744Y2969D01*
X745Y2969D01*
X746Y2969D01*
X747Y2969D01*
X748Y2969D01*
X749Y2969D01*
X750Y2969D01*
X751Y2969D01*
X752Y2969D01*
X753Y2969D01*
X754Y2969D01*
X755Y2969D01*
X756Y2969D01*
X757Y2969D01*
X758Y2969D01*
X759Y2969D01*
X760Y2969D01*
X761Y2969D01*
X762Y2969D01*
X763Y2969D01*
X764Y2969D01*
X765Y2969D01*
X766Y2969D01*
X767Y2969D01*
X768Y2969D01*
X769Y2969D01*
X770Y2969D01*
X771Y2969D01*
X772Y2969D01*
X773Y2969D01*
X774Y2969D01*
X775Y2969D01*
X776Y2969D01*
X777Y2969D01*
X778Y2969D01*
X779Y2969D01*
X780Y2969D01*
X781Y2969D01*
X782Y2969D01*
X783Y2969D01*
X784Y2969D01*
X785Y2969D01*
X786Y2969D01*
X787Y2969D01*
X788Y2969D01*
X789Y2969D01*
X790Y2969D01*
X791Y2969D01*
X792Y2969D01*
X793Y2969D01*
X794Y2969D01*
X795Y2969D01*
X796Y2969D01*
X797Y2969D01*
X798Y2969D01*
X799Y2969D01*
X800Y2969D01*
X801Y2969D01*
X802Y2969D01*
X803Y2969D01*
X804Y2969D01*
X805Y2969D01*
X806Y2969D01*
X807Y2969D01*
X808Y2969D01*
X809Y2969D01*
X810Y2969D01*
X811Y2969D01*
X812Y2969D01*
X813Y2969D01*
X814Y2969D01*
X815Y2969D01*
X816Y2969D01*
X817Y2969D01*
X818Y2969D01*
X819Y2969D01*
X820Y2969D01*
X821Y2969D01*
X822Y2969D01*
X823Y2969D01*
X824Y2969D01*
X825Y2969D01*
X826Y2969D01*
X827Y2969D01*
X828Y2969D01*
X829Y2969D01*
X830Y2969D01*
X831Y2969D01*
X832Y2969D01*
X833Y2969D01*
X834Y2969D01*
X835Y2969D01*
X836Y2969D01*
X837Y2969D01*
X838Y2969D01*
X839Y2969D01*
X840Y2969D01*
X841Y2969D01*
X842Y2969D01*
X843Y2969D01*
X844Y2969D01*
X845Y2969D01*
X846Y2969D01*
X847Y2969D01*
X848Y2969D01*
X849Y2969D01*
X850Y2969D01*
X851Y2969D01*
X852Y2969D01*
X853Y2969D01*
X854Y2969D01*
X855Y2969D01*
X856Y2969D01*
X857Y2969D01*
X858Y2969D01*
X859Y2969D01*
X860Y2969D01*
X861Y2969D01*
X862Y2969D01*
X863Y2969D01*
X864Y2969D01*
X865Y2969D01*
X866Y2969D01*
X867Y2969D01*
X868Y2969D01*
X869Y2969D01*
X870Y2969D01*
X871Y2969D01*
X872Y2969D01*
X873Y2969D01*
X874Y2969D01*
X875Y2969D01*
X876Y2969D01*
X877Y2969D01*
X878Y2969D01*
X879Y2969D01*
X880Y2969D01*
X881Y2969D01*
X882Y2969D01*
X883Y2969D01*
X884Y2969D01*
X885Y2969D01*
X886Y2969D01*
X887Y2969D01*
X888Y2969D01*
X889Y2969D01*
X890Y2969D01*
X891Y2969D01*
X892Y2969D01*
X893Y2969D01*
X894Y2969D01*
X895Y2969D01*
X896Y2969D01*
X897Y2969D01*
X898Y2969D01*
X899Y2969D01*
X900Y2969D01*
X901Y2969D01*
X902Y2969D01*
X903Y2969D01*
X904Y2969D01*
X905Y2969D01*
X906Y2969D01*
X907Y2969D01*
X908Y2969D01*
X909Y2969D01*
X910Y2969D01*
X911Y2969D01*
X912Y2969D01*
X913Y2969D01*
X914Y2969D01*
X915Y2969D01*
X916Y2969D01*
X917Y2969D01*
X918Y2969D01*
X919Y2969D01*
X920Y2969D01*
X921Y2969D01*
X922Y2969D01*
X923Y2969D01*
X924Y2969D01*
X925Y2969D01*
X926Y2969D01*
X927Y2969D01*
X928Y2969D01*
X929Y2969D01*
X930Y2969D01*
X931Y2969D01*
X932Y2969D01*
X933Y2969D01*
X934Y2969D01*
X935Y2969D01*
X936Y2969D01*
X937Y2969D01*
X938Y2969D01*
X939Y2969D01*
X940Y2969D01*
X941Y2969D01*
X942Y2969D01*
X943Y2969D01*
X944Y2969D01*
X945Y2969D01*
X946Y2969D01*
X947Y2969D01*
X948Y2969D01*
X949Y2969D01*
X950Y2969D01*
X951Y2969D01*
X952Y2969D01*
X953Y2969D01*
X954Y2969D01*
X955Y2969D01*
X956Y2969D01*
X957Y2969D01*
X958Y2969D01*
X959Y2969D01*
X960Y2969D01*
X961Y2969D01*
X962Y2969D01*
X963Y2969D01*
X964Y2969D01*
X965Y2969D01*
X966Y2969D01*
X967Y2969D01*
X968Y2969D01*
X969Y2969D01*
X970Y2969D01*
X971Y2969D01*
X972Y2969D01*
X973Y2969D01*
X974Y2969D01*
X975Y2969D01*
X976Y2969D01*
X977Y2969D01*
X978Y2969D01*
X979Y2969D01*
X980Y2969D01*
X981Y2969D01*
X982Y2969D01*
X983Y2969D01*
X984Y2969D01*
X985Y2969D01*
X986Y2969D01*
X987Y2969D01*
X988Y2969D01*
X989Y2969D01*
X990Y2969D01*
X991Y2969D01*
X992Y2969D01*
X993Y2969D01*
X994Y2969D01*
X995Y2969D01*
X996Y2969D01*
X997Y2969D01*
X998Y2969D01*
X999Y2969D01*
X1000Y2969D01*
X1001Y2969D01*
X1002Y2969D01*
X1003Y2969D01*
X1004Y2969D01*
X1005Y2969D01*
X1006Y2969D01*
X1007Y2969D01*
X1008Y2969D01*
X1009Y2969D01*
X1010Y2969D01*
X1011Y2969D01*
X1012Y2969D01*
X1013Y2969D01*
X1014Y2969D01*
X1015Y2969D01*
X1016Y2969D01*
X1017Y2969D01*
X1018Y2969D01*
X1019Y2969D01*
X1020Y2969D01*
X1021Y2969D01*
X1022Y2969D01*
X1023Y2969D01*
X1024Y2969D01*
X1025Y2969D01*
X1026Y2969D01*
X1027Y2969D01*
X1028Y2969D01*
X1029Y2969D01*
X1030Y2969D01*
X1031Y2969D01*
X1032Y2969D01*
X1033Y2969D01*
X1034Y2969D01*
X1035Y2969D01*
X1036Y2969D01*
X1037Y2969D01*
X1038Y2969D01*
X1039Y2969D01*
X1040Y2969D01*
X1041Y2969D01*
X1042Y2969D01*
X1043Y2969D01*
X1044Y2969D01*
X1045Y2969D01*
X1046Y2969D01*
X1047Y2969D01*
X1048Y2969D01*
X1049Y2969D01*
X1050Y2969D01*
X1051Y2969D01*
X1052Y2969D01*
X1053Y2969D01*
X1054Y2969D01*
X1055Y2969D01*
X1056Y2969D01*
X1057Y2969D01*
X1058Y2969D01*
X1059Y2969D01*
X1060Y2969D01*
X1061Y2969D01*
X1062Y2969D01*
X1063Y2969D01*
X1064Y2969D01*
X1065Y2969D01*
X1066Y2969D01*
X1067Y2969D01*
X1068Y2969D01*
X1069Y2969D01*
X1070Y2969D01*
X1071Y2969D01*
X1072Y2969D01*
X1073Y2969D01*
X1074Y2969D01*
X1075Y2969D01*
X1076Y2969D01*
X1077Y2969D01*
X1078Y2969D01*
X1079Y2969D01*
X1080Y2969D01*
X1081Y2969D01*
X1082Y2969D01*
X1083Y2969D01*
X1084Y2969D01*
X1085Y2969D01*
X1086Y2969D01*
X1087Y2969D01*
X1088Y2969D01*
X1089Y2969D01*
X1090Y2969D01*
X1091Y2969D01*
X1092Y2969D01*
X1093Y2969D01*
X1094Y2969D01*
X1095Y2969D01*
X1096Y2969D01*
X1097Y2969D01*
X1098Y2969D01*
X1099Y2969D01*
X1100Y2969D01*
X1101Y2969D01*
X1102Y2969D01*
X1103Y2969D01*
X1104Y2969D01*
X1105Y2969D01*
X1106Y2969D01*
X1107Y2969D01*
X1108Y2969D01*
X1109Y2969D01*
X1110Y2969D01*
X1111Y2969D01*
X1112Y2969D01*
X1113Y2969D01*
X1114Y2969D01*
X1115Y2969D01*
X1116Y2969D01*
X1117Y2969D01*
X1118Y2969D01*
X1119Y2969D01*
X1120Y2969D01*
X1121Y2969D01*
X1122Y2969D01*
X1123Y2969D01*
X1124Y2969D01*
X1125Y2969D01*
X1126Y2969D01*
X1127Y2969D01*
X1128Y2969D01*
X1129Y2969D01*
X1130Y2969D01*
X1131Y2969D01*
X1132Y2969D01*
X1133Y2969D01*
X1134Y2969D01*
X1135Y2969D01*
X1136Y2969D01*
X1137Y2969D01*
X1138Y2969D01*
X1139Y2969D01*
X1140Y2969D01*
X1141Y2969D01*
X1142Y2969D01*
X1143Y2969D01*
X1144Y2969D01*
X1145Y2969D01*
X1146Y2969D01*
X1147Y2969D01*
X1148Y2969D01*
X1149Y2969D01*
X1150Y2969D01*
X1151Y2969D01*
X1152Y2969D01*
X1153Y2969D01*
X1154Y2969D01*
X1155Y2969D01*
X1156Y2969D01*
X1157Y2969D01*
X1158Y2969D01*
X1159Y2969D01*
X1160Y2969D01*
X1161Y2969D01*
X1162Y2969D01*
X1163Y2969D01*
X1164Y2969D01*
X1165Y2969D01*
X1166Y2969D01*
X1167Y2969D01*
X1168Y2969D01*
X1169Y2969D01*
X1170Y2969D01*
X1171Y2969D01*
X1172Y2969D01*
X1173Y2969D01*
X1174Y2969D01*
X1175Y2969D01*
X1176Y2969D01*
X1177Y2969D01*
X1178Y2969D01*
X1179Y2969D01*
X1180Y2969D01*
X1181Y2969D01*
X1182Y2969D01*
X1183Y2969D01*
X1184Y2969D01*
X1185Y2969D01*
X1186Y2969D01*
X1187Y2969D01*
X1188Y2969D01*
X1189Y2969D01*
X1190Y2969D01*
X1191Y2969D01*
X1192Y2969D01*
X1193Y2969D01*
X1194Y2969D01*
X1195Y2969D01*
X1196Y2969D01*
X1197Y2969D01*
X1198Y2969D01*
X1199Y2969D01*
X1200Y2969D01*
X1201Y2969D01*
X1202Y2969D01*
X1203Y2969D01*
X1204Y2969D01*
X1205Y2969D01*
X1206Y2969D01*
X1207Y2969D01*
X1208Y2969D01*
X1209Y2969D01*
X1210Y2969D01*
X1211Y2969D01*
X1212Y2969D01*
X1213Y2969D01*
X1214Y2969D01*
X1215Y2969D01*
X1216Y2969D01*
X1217Y2969D01*
X1218Y2969D01*
X1219Y2969D01*
X1220Y2969D01*
X1221Y2969D01*
X1222Y2969D01*
X1223Y2969D01*
X1224Y2969D01*
X1225Y2969D01*
X1226Y2969D01*
X1227Y2969D01*
X1228Y2969D01*
X1229Y2969D01*
X1230Y2969D01*
X1231Y2969D01*
X1232Y2969D01*
X1233Y2969D01*
X1234Y2969D01*
X1235Y2969D01*
X1236Y2969D01*
X1237Y2969D01*
X1238Y2969D01*
X1239Y2969D01*
X1240Y2969D01*
X1241Y2969D01*
X1242Y2969D01*
X1243Y2969D01*
X1244Y2969D01*
X1245Y2969D01*
X1246Y2969D01*
X1247Y2969D01*
X1248Y2969D01*
X1249Y2969D01*
X1250Y2969D01*
X1251Y2969D01*
X1252Y2969D01*
X1253Y2969D01*
X1254Y2969D01*
X1255Y2969D01*
X1256Y2969D01*
X1257Y2969D01*
X1258Y2969D01*
X1259Y2969D01*
X1260Y2969D01*
X1261Y2969D01*
X1262Y2969D01*
X1263Y2969D01*
X1264Y2969D01*
X1265Y2969D01*
X1266Y2969D01*
X1267Y2969D01*
X1268Y2969D01*
X1269Y2969D01*
X1270Y2969D01*
X1271Y2969D01*
X1272Y2969D01*
X1273Y2969D01*
X1274Y2969D01*
X1275Y2969D01*
X1276Y2969D01*
X1277Y2969D01*
X1278Y2969D01*
X1279Y2969D01*
X1280Y2969D01*
X1281Y2969D01*
X1282Y2969D01*
X1283Y2969D01*
X1284Y2969D01*
X1285Y2969D01*
X1286Y2969D01*
X1287Y2969D01*
X1288Y2969D01*
X1289Y2969D01*
X1290Y2969D01*
X1291Y2969D01*
X1292Y2969D01*
X1293Y2969D01*
X1294Y2969D01*
X1295Y2969D01*
X1296Y2969D01*
X1297Y2969D01*
X1298Y2969D01*
X1299Y2969D01*
X1300Y2969D01*
X1301Y2969D01*
X1302Y2969D01*
X1303Y2969D01*
X1304Y2969D01*
X1305Y2969D01*
X1306Y2969D01*
X1307Y2969D01*
X1308Y2969D01*
X1309Y2969D01*
X1310Y2969D01*
X1311Y2969D01*
X1312Y2969D01*
X1313Y2969D01*
X1314Y2969D01*
X1315Y2969D01*
X1316Y2969D01*
X1317Y2969D01*
X1318Y2969D01*
X1319Y2969D01*
X1320Y2969D01*
X1321Y2969D01*
X1322Y2969D01*
X1323Y2969D01*
X1324Y2969D01*
X1325Y2969D01*
X1326Y2969D01*
X1327Y2969D01*
X1328Y2969D01*
X1329Y2969D01*
X1330Y2969D01*
X1331Y2969D01*
X1332Y2969D01*
X1333Y2969D01*
X1334Y2969D01*
X1335Y2969D01*
X1336Y2969D01*
X1337Y2969D01*
X1338Y2969D01*
X1339Y2969D01*
X1340Y2969D01*
X1341Y2969D01*
X1342Y2969D01*
X1343Y2969D01*
X1344Y2969D01*
X1345Y2969D01*
X1346Y2969D01*
X1347Y2969D01*
X1348Y2969D01*
X1349Y2969D01*
X1350Y2969D01*
X1351Y2969D01*
X1352Y2969D01*
X1353Y2969D01*
X1354Y2969D01*
X1355Y2969D01*
X1356Y2969D01*
X1357Y2969D01*
X1358Y2969D01*
X1359Y2969D01*
X1360Y2969D01*
X1361Y2969D01*
X1362Y2969D01*
X1363Y2969D01*
X1364Y2969D01*
X1365Y2969D01*
X1366Y2969D01*
X1367Y2969D01*
X1368Y2969D01*
X1369Y2969D01*
X1370Y2969D01*
X1371Y2969D01*
X1372Y2969D01*
X1373Y2969D01*
X1374Y2969D01*
X1375Y2969D01*
X1376Y2969D01*
X1377Y2969D01*
X1378Y2969D01*
X1379Y2969D01*
X1380Y2969D01*
X1381Y2969D01*
X1382Y2969D01*
X1383Y2969D01*
X1384Y2969D01*
X1385Y2969D01*
X1386Y2969D01*
X1387Y2969D01*
X1388Y2969D01*
X1389Y2969D01*
X1390Y2969D01*
X1391Y2969D01*
X1392Y2969D01*
X1393Y2969D01*
X1394Y2969D01*
X1395Y2969D01*
X1396Y2969D01*
X1397Y2969D01*
X1398Y2969D01*
X1399Y2969D01*
X1400Y2969D01*
X1401Y2969D01*
X1402Y2969D01*
X1403Y2969D01*
X1404Y2969D01*
X1405Y2969D01*
X1406Y2969D01*
X1407Y2969D01*
X1408Y2969D01*
X1409Y2969D01*
X1410Y2969D01*
X1411Y2969D01*
X1412Y2969D01*
X1413Y2969D01*
X1414Y2969D01*
X1415Y2969D01*
X1416Y2969D01*
X1417Y2969D01*
X1418Y2969D01*
X1419Y2969D01*
X1420Y2969D01*
X1421Y2969D01*
X1422Y2969D01*
X1423Y2969D01*
X1424Y2969D01*
X1425Y2969D01*
X1426Y2969D01*
X1427Y2969D01*
X1428Y2969D01*
X1429Y2969D01*
X1430Y2969D01*
X1431Y2969D01*
X1432Y2969D01*
X1433Y2969D01*
X1434Y2969D01*
X1435Y2969D01*
X1436Y2969D01*
X1437Y2969D01*
X1438Y2969D01*
X1439Y2969D01*
X1440Y2969D01*
X1441Y2969D01*
X1442Y2969D01*
X1443Y2969D01*
X1444Y2969D01*
X1445Y2969D01*
X1446Y2969D01*
X1447Y2969D01*
X1448Y2969D01*
X1449Y2969D01*
X1450Y2969D01*
X1451Y2969D01*
X1452Y2969D01*
X1453Y2969D01*
X1454Y2969D01*
X1455Y2969D01*
X1456Y2969D01*
X1457Y2969D01*
X1458Y2969D01*
X1459Y2969D01*
X1460Y2969D01*
X1461Y2969D01*
X1462Y2969D01*
X1463Y2969D01*
X1464Y2969D01*
X1465Y2969D01*
X1466Y2969D01*
X1467Y2969D01*
X1468Y2969D01*
X1469Y2969D01*
X1470Y2969D01*
X1471Y2969D01*
X1472Y2969D01*
X1473Y2969D01*
X1474Y2969D01*
X1475Y2969D01*
X1476Y2969D01*
X1477Y2969D01*
X1478Y2969D01*
X1479Y2969D01*
X1480Y2969D01*
X1481Y2969D01*
X1482Y2969D01*
X1483Y2969D01*
X1484Y2969D01*
X1485Y2969D01*
X1486Y2969D01*
X1487Y2969D01*
X1488Y2969D01*
X1489Y2969D01*
X1490Y2969D01*
X1491Y2969D01*
X1492Y2969D01*
X1493Y2969D01*
X1494Y2969D01*
X1495Y2969D01*
X1496Y2969D01*
X1497Y2969D01*
X1498Y2969D01*
X1499Y2969D01*
X1500Y2969D01*
X1501Y2969D01*
X1502Y2969D01*
X1503Y2969D01*
X1504Y2969D01*
X1505Y2969D01*
X1506Y2969D01*
X1507Y2969D01*
X1508Y2969D01*
X1509Y2969D01*
X1510Y2969D01*
X1511Y2969D01*
X1512Y2969D01*
X1513Y2969D01*
X1514Y2969D01*
X1515Y2969D01*
X1516Y2969D01*
X1517Y2969D01*
X1518Y2969D01*
X1519Y2969D01*
X1520Y2969D01*
X1521Y2969D01*
X1522Y2969D01*
X1523Y2969D01*
X1524Y2969D01*
X1525Y2969D01*
X1526Y2969D01*
X1527Y2969D01*
X1528Y2969D01*
X1529Y2969D01*
X1530Y2969D01*
X1531Y2969D01*
X1532Y2969D01*
X1533Y2969D01*
X1534Y2969D01*
X1535Y2969D01*
X1536Y2969D01*
X1537Y2969D01*
X1538Y2969D01*
X1539Y2969D01*
X1540Y2969D01*
X1541Y2969D01*
X1542Y2969D01*
X1543Y2969D01*
X1544Y2969D01*
X1545Y2969D01*
X1546Y2969D01*
X1547Y2969D01*
X1548Y2969D01*
X1549Y2969D01*
X1550Y2969D01*
X1551Y2969D01*
X1552Y2969D01*
X1553Y2969D01*
X1554Y2969D01*
X1555Y2969D01*
X1556Y2969D01*
X1557Y2969D01*
X1558Y2969D01*
X1559Y2969D01*
X1560Y2969D01*
X1561Y2969D01*
X1562Y2969D01*
X1563Y2969D01*
X1564Y2969D01*
X1565Y2969D01*
X1566Y2969D01*
X1567Y2969D01*
X1568Y2969D01*
X1569Y2969D01*
X1570Y2969D01*
X1571Y2969D01*
X1572Y2969D01*
X1573Y2969D01*
X1574Y2969D01*
X1575Y2969D01*
X1576Y2969D01*
X1577Y2969D01*
X1578Y2969D01*
X1579Y2969D01*
X1580Y2969D01*
X1581Y2969D01*
X1582Y2969D01*
X1583Y2969D01*
X1584Y2969D01*
X1585Y2969D01*
X1586Y2969D01*
X1587Y2969D01*
X1588Y2969D01*
X1589Y2969D01*
X1590Y2969D01*
X1591Y2969D01*
X1592Y2969D01*
X1593Y2969D01*
X1594Y2969D01*
X1595Y2969D01*
X1596Y2969D01*
X1597Y2969D01*
X1598Y2969D01*
X1599Y2969D01*
X1600Y2969D01*
X1601Y2969D01*
X1602Y2969D01*
X1603Y2969D01*
X1604Y2969D01*
X1605Y2969D01*
X1606Y2969D01*
X1607Y2969D01*
X1608Y2969D01*
X1609Y2969D01*
X1610Y2969D01*
X1611Y2969D01*
X1612Y2969D01*
X1613Y2969D01*
X1614Y2969D01*
X1615Y2969D01*
X1616Y2969D01*
X1617Y2969D01*
X1618Y2969D01*
X1619Y2969D01*
X1620Y2969D01*
X1621Y2969D01*
X1622Y2969D01*
X1623Y2969D01*
X1624Y2969D01*
X1625Y2969D01*
X1626Y2969D01*
X1627Y2969D01*
X1628Y2969D01*
X1629Y2969D01*
X1630Y2969D01*
X1631Y2969D01*
X1632Y2969D01*
X1633Y2969D01*
X1634Y2969D01*
X1635Y2969D01*
X1636Y2969D01*
X1637Y2969D01*
X1638Y2969D01*
X1639Y2969D01*
X1640Y2969D01*
X1641Y2969D01*
X1642Y2969D01*
X1643Y2969D01*
X1644Y2969D01*
X1645Y2969D01*
X1646Y2969D01*
X1647Y2969D01*
X1648Y2969D01*
X1649Y2969D01*
X1650Y2969D01*
X1651Y2969D01*
X1652Y2969D01*
X1653Y2969D01*
X1654Y2969D01*
X1655Y2969D01*
X1656Y2969D01*
X1657Y2969D01*
X1658Y2969D01*
X1659Y2969D01*
X1660Y2969D01*
X1661Y2969D01*
X1662Y2969D01*
X1663Y2969D01*
X1664Y2969D01*
X1665Y2969D01*
X1666Y2969D01*
X1667Y2969D01*
X1668Y2969D01*
X1669Y2969D01*
X1670Y2969D01*
X1671Y2969D01*
X1672Y2969D01*
X1673Y2969D01*
X1674Y2969D01*
X1675Y2969D01*
X1676Y2969D01*
X1677Y2969D01*
X1678Y2969D01*
X1679Y2969D01*
X1680Y2969D01*
X1681Y2969D01*
X1682Y2969D01*
X1683Y2969D01*
X1684Y2969D01*
X1685Y2969D01*
X1686Y2969D01*
X1687Y2969D01*
X1688Y2969D01*
X1689Y2969D01*
X1690Y2969D01*
X1691Y2969D01*
X1692Y2969D01*
X1693Y2969D01*
X1694Y2969D01*
X1695Y2969D01*
X1696Y2969D01*
X1697Y2969D01*
X1698Y2969D01*
X1699Y2969D01*
X1700Y2969D01*
X1701Y2969D01*
X1702Y2969D01*
X1703Y2969D01*
X1704Y2969D01*
X1705Y2969D01*
X1706Y2969D01*
X1707Y2969D01*
X1708Y2969D01*
X1709Y2969D01*
X1710Y2969D01*
X1711Y2969D01*
X1712Y2969D01*
X1713Y2969D01*
X1714Y2969D01*
X1715Y2969D01*
X1716Y2969D01*
X1717Y2969D01*
X1718Y2969D01*
X1719Y2969D01*
X1720Y2969D01*
X1721Y2969D01*
X1722Y2969D01*
X1723Y2969D01*
X1724Y2969D01*
X1725Y2969D01*
X1726Y2969D01*
X1727Y2969D01*
X1728Y2969D01*
X1729Y2969D01*
X1730Y2969D01*
X1731Y2969D01*
X1732Y2969D01*
X1733Y2969D01*
X1734Y2969D01*
X1735Y2969D01*
X1736Y2969D01*
X1737Y2969D01*
X1738Y2969D01*
X1739Y2969D01*
X1740Y2969D01*
X1741Y2969D01*
X1742Y2969D01*
X1743Y2969D01*
X1744Y2969D01*
X1745Y2969D01*
X1746Y2969D01*
X1747Y2969D01*
X1748Y2969D01*
X1749Y2969D01*
X1750Y2969D01*
X1751Y2969D01*
X1752Y2969D01*
X1753Y2969D01*
X1754Y2969D01*
X1755Y2969D01*
X1756Y2969D01*
X1757Y2969D01*
X1758Y2969D01*
X1759Y2969D01*
X1760Y2969D01*
X1761Y2969D01*
X1762Y2969D01*
X1763Y2969D01*
X1764Y2969D01*
X1765Y2969D01*
X1766Y2969D01*
X1767Y2969D01*
X1768Y2969D01*
X1769Y2969D01*
X1770Y2969D01*
X1771Y2969D01*
X1772Y2969D01*
X1773Y2969D01*
X1774Y2969D01*
X1775Y2969D01*
X1776Y2969D01*
X1777Y2969D01*
X1778Y2969D01*
X1779Y2969D01*
X1780Y2969D01*
X1781Y2969D01*
X1782Y2969D01*
X1783Y2969D01*
X1784Y2969D01*
X1785Y2969D01*
X1786Y2969D01*
X1787Y2969D01*
X1788Y2969D01*
X1789Y2969D01*
X1790Y2969D01*
X1791Y2969D01*
X1792Y2969D01*
X1793Y2969D01*
X1794Y2969D01*
X1795Y2969D01*
X1796Y2969D01*
X1797Y2969D01*
X1798Y2969D01*
X1799Y2969D01*
X1800Y2969D01*
X1801Y2969D01*
X1802Y2969D01*
X1803Y2969D01*
X1804Y2969D01*
X1805Y2969D01*
X1806Y2969D01*
X1807Y2969D01*
X1808Y2969D01*
X1809Y2969D01*
X1810Y2969D01*
X1811Y2969D01*
X1812Y2969D01*
X1813Y2969D01*
X1814Y2969D01*
X1815Y2969D01*
X1816Y2969D01*
X1817Y2969D01*
X1818Y2969D01*
X1819Y2969D01*
X1820Y2969D01*
X1821Y2969D01*
X1822Y2969D01*
X1823Y2969D01*
X1824Y2969D01*
X1825Y2969D01*
X1826Y2969D01*
X1827Y2969D01*
X1828Y2969D01*
X1829Y2969D01*
X1830Y2969D01*
X1831Y2969D01*
X1832Y2969D01*
X1833Y2969D01*
X1834Y2969D01*
X1835Y2969D01*
X1836Y2969D01*
X1837Y2969D01*
X1838Y2969D01*
X1839Y2969D01*
X1840Y2969D01*
X1841Y2969D01*
X1842Y2969D01*
X1843Y2969D01*
X1844Y2969D01*
X1845Y2969D01*
X1846Y2969D01*
X1847Y2969D01*
X1848Y2969D01*
X1849Y2969D01*
X1850Y2969D01*
X1851Y2969D01*
X1852Y2969D01*
X1853Y2969D01*
X1854Y2969D01*
X1855Y2969D01*
X1856Y2969D01*
X1857Y2969D01*
X1858Y2969D01*
X1859Y2969D01*
X1860Y2969D01*
X1861Y2969D01*
X1862Y2969D01*
X1863Y2969D01*
X1864Y2969D01*
X1865Y2969D01*
X1866Y2969D01*
X1867Y2969D01*
X1868Y2969D01*
X1869Y2969D01*
X1870Y2969D01*
X1871Y2969D01*
X1872Y2969D01*
X1873Y2969D01*
X1874Y2969D01*
X1875Y2969D01*
X1876Y2969D01*
X1877Y2969D01*
X1878Y2969D01*
X1879Y2969D01*
X1880Y2969D01*
X1881Y2969D01*
X1882Y2969D01*
X1883Y2969D01*
X1884Y2969D01*
X1885Y2969D01*
X1886Y2969D01*
X1887Y2969D01*
X1888Y2969D01*
X1889Y2969D01*
X1890Y2969D01*
X1891Y2969D01*
X1892Y2969D01*
X1893Y2969D01*
X1894Y2969D01*
X1895Y2969D01*
X1896Y2969D01*
X1897Y2969D01*
X1898Y2969D01*
X1899Y2969D01*
X1900Y2969D01*
X1901Y2969D01*
X1902Y2969D01*
X1903Y2969D01*
X1904Y2969D01*
X1905Y2969D01*
X1906Y2969D01*
X1907Y2969D01*
X1908Y2969D01*
X1909Y2969D01*
X1910Y2969D01*
X1911Y2969D01*
X1912Y2969D01*
X1913Y2969D01*
X1914Y2969D01*
X1915Y2969D01*
X1916Y2969D01*
X1917Y2969D01*
X1918Y2969D01*
X1919Y2969D01*
X1920Y2969D01*
X1921Y2969D01*
X1922Y2969D01*
X1923Y2969D01*
X1924Y2969D01*
X1925Y2969D01*
X1926Y2969D01*
X1927Y2969D01*
X1928Y2969D01*
X1929Y2969D01*
X1930Y2969D01*
X1931Y2969D01*
X1932Y2969D01*
X1933Y2969D01*
X1934Y2969D01*
X1935Y2969D01*
X1936Y2969D01*
X1937Y2969D01*
X1938Y2969D01*
X1939Y2969D01*
X1940Y2969D01*
X1941Y2969D01*
X1942Y2969D01*
X1943Y2969D01*
X1944Y2969D01*
X1945Y2969D01*
X1946Y2969D01*
X1947Y2969D01*
X1948Y2969D01*
X1949Y2969D01*
X1950Y2969D01*
X1951Y2969D01*
X1952Y2969D01*
X1953Y2969D01*
X1954Y2969D01*
X1955Y2969D01*
X1956Y2969D01*
X1957Y2969D01*
X1958Y2969D01*
X1959Y2969D01*
X1960Y2969D01*
X1961Y2969D01*
X1962Y2969D01*
X1963Y2969D01*
X1964Y2969D01*
X1965Y2969D01*
X1966Y2969D01*
X1967Y2969D01*
X1968Y2969D01*
X1969Y2969D01*
X1970Y2969D01*
X1971Y2969D01*
X1972Y2969D01*
X1973Y2969D01*
X1974Y2969D01*
X1975Y2969D01*
X1976Y2969D01*
X1977Y2969D01*
X1978Y2969D01*
X1979Y2969D01*
X1980Y2969D01*
X1981Y2969D01*
X1982Y2969D01*
X1983Y2969D01*
X1984Y2969D01*
X1985Y2969D01*
X1986Y2969D01*
X1987Y2969D01*
X1988Y2969D01*
X1989Y2969D01*
X1990Y2969D01*
X1991Y2969D01*
X1992Y2969D01*
X1993Y2969D01*
X1994Y2969D01*
X1995Y2969D01*
X1996Y2969D01*
X1997Y2969D01*
X1998Y2969D01*
X1999Y2969D01*
X2000Y2969D01*
X2001Y2969D01*
X2002Y2969D01*
X2003Y2969D01*
X2004Y2969D01*
X2005Y2969D01*
X2006Y2969D01*
X2007Y2969D01*
X2008Y2969D01*
X2009Y2969D01*
X2010Y2969D01*
X2011Y2969D01*
X2012Y2969D01*
X2013Y2969D01*
X2014Y2969D01*
X2015Y2969D01*
X2016Y2969D01*
X2017Y2969D01*
X2018Y2969D01*
X2019Y2969D01*
X2020Y2969D01*
X2021Y2969D01*
X2022Y2969D01*
X2023Y2969D01*
X2024Y2969D01*
X2025Y2969D01*
X2026Y2969D01*
X2027Y2969D01*
X2028Y2969D01*
X2029Y2969D01*
X2030Y2969D01*
X2031Y2969D01*
X2032Y2969D01*
X2033Y2969D01*
X2034Y2969D01*
X2035Y2969D01*
X2036Y2969D01*
X2037Y2969D01*
X2038Y2969D01*
X2039Y2969D01*
X2040Y2969D01*
X2041Y2969D01*
X2042Y2969D01*
X2043Y2969D01*
X2044Y2969D01*
X2045Y2969D01*
X2046Y2969D01*
X2047Y2969D01*
X2048Y2969D01*
X2049Y2969D01*
X2050Y2969D01*
X2051Y2969D01*
X2052Y2969D01*
X2053Y2969D01*
X2054Y2969D01*
X2055Y2969D01*
X2056Y2969D01*
X2057Y2969D01*
X2058Y2969D01*
X2059Y2969D01*
X2060Y2969D01*
X2061Y2969D01*
X2062Y2969D01*
X2063Y2969D01*
X2064Y2969D01*
X2065Y2969D01*
X2066Y2969D01*
X2067Y2969D01*
X2068Y2969D01*
X2069Y2969D01*
X2070Y2969D01*
X2071Y2969D01*
X2072Y2969D01*
X2073Y2969D01*
X2074Y2969D01*
X2075Y2969D01*
X2076Y2969D01*
X2077Y2969D01*
X2078Y2969D01*
X2079Y2969D01*
X2080Y2969D01*
X2081Y2969D01*
X2082Y2969D01*
X2083Y2969D01*
X2084Y2969D01*
X2085Y2969D01*
X2086Y2969D01*
X2087Y2969D01*
X2088Y2969D01*
X2089Y2969D01*
X2090Y2969D01*
X2091Y2969D01*
X2092Y2969D01*
X2093Y2969D01*
X2094Y2969D01*
X2095Y2969D01*
X2096Y2969D01*
X2097Y2969D01*
X2098Y2969D01*
X2099Y2969D01*
X2100Y2969D01*
X2101Y2969D01*
X2102Y2969D01*
X2103Y2969D01*
X2104Y2969D01*
X2105Y2969D01*
X2106Y2969D01*
X2107Y2969D01*
X2108Y2969D01*
X2109Y2969D01*
X2110Y2969D01*
X2111Y2969D01*
X2112Y2969D01*
X2113Y2969D01*
X2114Y2969D01*
X2115Y2969D01*
X2116Y2969D01*
X2117Y2969D01*
X2118Y2969D01*
X2119Y2969D01*
X2120Y2969D01*
X2121Y2969D01*
X2122Y2969D01*
X2123Y2969D01*
X2124Y2969D01*
X2125Y2969D01*
X2126Y2969D01*
X2127Y2969D01*
X2128Y2969D01*
X2129Y2969D01*
X2130Y2969D01*
X2131Y2969D01*
X2132Y2969D01*
X2133Y2969D01*
X2134Y2969D01*
X2135Y2969D01*
X2136Y2969D01*
X2137Y2969D01*
X2138Y2969D01*
X2139Y2969D01*
X2140Y2969D01*
X2141Y2969D01*
X2142Y2969D01*
X2143Y2969D01*
X2144Y2969D01*
X2145Y2969D01*
X2146Y2969D01*
X2147Y2969D01*
X2148Y2969D01*
X2149Y2969D01*
X2150Y2969D01*
X2151Y2969D01*
X2152Y2969D01*
X2153Y2969D01*
X2154Y2969D01*
X2155Y2969D01*
X2156Y2969D01*
X2157Y2969D01*
X2158Y2969D01*
X2159Y2969D01*
X2160Y2969D01*
X2161Y2969D01*
X2162Y2969D01*
X2163Y2969D01*
X2164Y2969D01*
X2165Y2969D01*
X2166Y2969D01*
X2167Y2969D01*
X2168Y2969D01*
X2169Y2969D01*
X2170Y2969D01*
X2171Y2969D01*
X2172Y2969D01*
X2173Y2969D01*
X2174Y2969D01*
X2175Y2969D01*
X2176Y2969D01*
X2177Y2969D01*
X2178Y2969D01*
X2179Y2969D01*
X2180Y2969D01*
X2181Y2969D01*
X2182Y2969D01*
X2183Y2969D01*
X2184Y2969D01*
X2185Y2969D01*
X2186Y2969D01*
X2187Y2969D01*
X2188Y2969D01*
X2189Y2969D01*
X2190Y2969D01*
X2191Y2969D01*
X2192Y2969D01*
X2193Y2969D01*
X2194Y2969D01*
X2195Y2969D01*
X2196Y2969D01*
X2197Y2969D01*
X2198Y2969D01*
X2199Y2969D01*
X2200Y2969D01*
X2201Y2969D01*
X2202Y2969D01*
X2203Y2969D01*
X2204Y2969D01*
X2205Y2969D01*
X2206Y2969D01*
X2207Y2969D01*
X2208Y2969D01*
X2209Y2969D01*
X2210Y2969D01*
X2211Y2969D01*
X2212Y2969D01*
X2213Y2969D01*
X2214Y2969D01*
X2215Y2969D01*
X2216Y2969D01*
X2217Y2969D01*
X2218Y2969D01*
X2219Y2969D01*
X2220Y2969D01*
X2221Y2969D01*
X2222Y2969D01*
X2223Y2969D01*
X2224Y2969D01*
X2225Y2969D01*
X2226Y2969D01*
X2227Y2969D01*
X2228Y2969D01*
X2229Y2969D01*
X2230Y2969D01*
X2231Y2969D01*
X2232Y2969D01*
X2233Y2969D01*
X2234Y2969D01*
X2235Y2969D01*
X2236Y2969D01*
X2237Y2969D01*
X2238Y2969D01*
X2239Y2969D01*
X2240Y2969D01*
X2241Y2969D01*
X2242Y2969D01*
X2243Y2969D01*
X2244Y2969D01*
X2245Y2969D01*
X2246Y2969D01*
X2247Y2969D01*
X2248Y2969D01*
X2249Y2969D01*
X2250Y2969D01*
X2251Y2969D01*
X2252Y2969D01*
X2253Y2969D01*
X2254Y2969D01*
X2255Y2969D01*
X2256Y2969D01*
X2257Y2969D01*
X2258Y2969D01*
X2259Y2969D01*
X2260Y2969D01*
X2261Y2969D01*
X2262Y2969D01*
X2263Y2969D01*
X2264Y2969D01*
X2265Y2969D01*
X2266Y2969D01*
X2267Y2969D01*
X2268Y2969D01*
X2269Y2969D01*
X2270Y2969D01*
X2271Y2969D01*
X2272Y2969D01*
X2273Y2969D01*
X2274Y2969D01*
X2275Y2969D01*
X2276Y2969D01*
X2277Y2969D01*
X2278Y2969D01*
X2279Y2969D01*
X2280Y2969D01*
X2281Y2969D01*
X2282Y2969D01*
X2283Y2969D01*
X2284Y2969D01*
X2285Y2969D01*
X2286Y2969D01*
X2287Y2969D01*
X2288Y2969D01*
X2289Y2969D01*
X2290Y2969D01*
X2291Y2969D01*
X2292Y2969D01*
X2293Y2969D01*
X2294Y2969D01*
X2295Y2969D01*
X2296Y2969D01*
X2297Y2969D01*
X2298Y2969D01*
X2299Y2969D01*
X2300Y2969D01*
X2301Y2969D01*
X2302Y2969D01*
X2303Y2969D01*
X2304Y2969D01*
X2305Y2969D01*
X2306Y2969D01*
X2307Y2969D01*
X2308Y2969D01*
X2309Y2969D01*
X2310Y2969D01*
X2311Y2969D01*
X2312Y2969D01*
X2313Y2969D01*
X2314Y2969D01*
X2315Y2969D01*
X2316Y2969D01*
X2317Y2969D01*
X2318Y2969D01*
X2319Y2969D01*
X2320Y2969D01*
X2321Y2969D01*
X2322Y2969D01*
X2323Y2969D01*
X2324Y2969D01*
X2325Y2969D01*
X2326Y2969D01*
X2327Y2969D01*
X2328Y2969D01*
X2329Y2969D01*
X2330Y2969D01*
X2331Y2969D01*
X2332Y2969D01*
X2333Y2969D01*
X2334Y2969D01*
X2335Y2969D01*
X2336Y2969D01*
X2337Y2969D01*
X2338Y2969D01*
X2339Y2969D01*
X2340Y2969D01*
X2341Y2969D01*
X2342Y2969D01*
X2343Y2969D01*
X2344Y2969D01*
X2345Y2969D01*
X2346Y2969D01*
X2347Y2969D01*
X2348Y2969D01*
X2349Y2969D01*
X2350Y2969D01*
X2351Y2969D01*
X2352Y2969D01*
X2353Y2969D01*
X2354Y2969D01*
X2355Y2969D01*
X2356Y2969D01*
X2357Y2969D01*
X2358Y2969D01*
X2359Y2969D01*
X2360Y2969D01*
X2361Y2969D01*
X2362Y2969D01*
X2363Y2969D01*
X2364Y2969D01*
X2365Y2969D01*
X2366Y2969D01*
X2367Y2969D01*
X2368Y2969D01*
X2369Y2969D01*
X2370Y2969D01*
X2371Y2969D01*
X2372Y2969D01*
X2373Y2969D01*
X2374Y2969D01*
X2375Y2969D01*
X2376Y2969D01*
X2377Y2969D01*
X2378Y2969D01*
X2379Y2969D01*
X2380Y2969D01*
X2381Y2969D01*
X2382Y2969D01*
X2383Y2969D01*
X2384Y2969D01*
X2385Y2969D01*
X2386Y2969D01*
X2387Y2969D01*
X2388Y2969D01*
X2389Y2969D01*
X2390Y2969D01*
X2391Y2969D01*
X2392Y2969D01*
X2393Y2969D01*
X2394Y2969D01*
X2395Y2969D01*
X2396Y2969D01*
X2397Y2969D01*
X2398Y2969D01*
X2399Y2969D01*
X2400Y2969D01*
X2401Y2969D01*
X2402Y2969D01*
X2403Y2969D01*
X2404Y2969D01*
X2405Y2969D01*
X2406Y2969D01*
X2407Y2969D01*
X2408Y2969D01*
X2409Y2969D01*
X2410Y2969D01*
X2411Y2969D01*
X2412Y2969D01*
X2413Y2969D01*
X2414Y2969D01*
X2415Y2969D01*
X2416Y2969D01*
X2417Y2969D01*
X2418Y2969D01*
X2419Y2969D01*
X2420Y2969D01*
X2421Y2969D01*
X2422Y2969D01*
X2423Y2969D01*
X2424Y2969D01*
X2425Y2969D01*
X2426Y2969D01*
X2427Y2969D01*
X2428Y2969D01*
X2429Y2969D01*
X2430Y2969D01*
X2431Y2969D01*
X2432Y2969D01*
X2433Y2969D01*
X2434Y2969D01*
X2435Y2969D01*
X2436Y2969D01*
X2437Y2969D01*
X2438Y2969D01*
X2439Y2969D01*
X2440Y2969D01*
X2441Y2969D01*
X2442Y2969D01*
X2443Y2969D01*
X2444Y2969D01*
X2445Y2969D01*
X2446Y2969D01*
X2447Y2969D01*
X2448Y2969D01*
X2449Y2969D01*
X2450Y2969D01*
X2451Y2969D01*
X2452Y2969D01*
X2453Y2969D01*
X2454Y2969D01*
X2455Y2969D01*
X2456Y2969D01*
X2457Y2969D01*
X2458Y2969D01*
X2459Y2969D01*
X2460Y2969D01*
X2461Y2969D01*
X2462Y2969D01*
X2463Y2969D01*
X2464Y2969D01*
X2465Y2969D01*
X2466Y2969D01*
X2467Y2969D01*
X2468Y2969D01*
X2469Y2969D01*
X2470Y2969D01*
X2471Y2969D01*
X2472Y2969D01*
X2473Y2969D01*
X2474Y2969D01*
X2475Y2969D01*
X2476Y2969D01*
X2477Y2969D01*
X2478Y2969D01*
X2479Y2969D01*
X2480Y2969D01*
X2481Y2969D01*
X2482Y2969D01*
X2483Y2969D01*
X2484Y2969D01*
X2485Y2969D01*
X2486Y2969D01*
X2487Y2969D01*
X2488Y2969D01*
X2489Y2969D01*
X2490Y2969D01*
X2491Y2969D01*
X2492Y2969D01*
X2493Y2969D01*
X2494Y2969D01*
X2495Y2969D01*
X2496Y2969D01*
X2497Y2969D01*
X2498Y2969D01*
X2499Y2969D01*
X2500Y2969D01*
X2501Y2969D01*
X2502Y2969D01*
X2503Y2969D01*
X2504Y2969D01*
X2505Y2969D01*
X2506Y2969D01*
X2507Y2969D01*
X2508Y2969D01*
X2509Y2969D01*
X2510Y2969D01*
X2511Y2969D01*
X2512Y2969D01*
X2513Y2969D01*
X2514Y2969D01*
X2515Y2969D01*
X2516Y2969D01*
X2517Y2969D01*
X2518Y2969D01*
X2519Y2969D01*
X2520Y2969D01*
X2521Y2969D01*
X2522Y2969D01*
X2523Y2969D01*
X2524Y2969D01*
X2525Y2969D01*
X2526Y2969D01*
X2527Y2969D01*
X2528Y2969D01*
X2529Y2969D01*
X2530Y2969D01*
X2531Y2969D01*
X2532Y2969D01*
X2533Y2969D01*
X2534Y2969D01*
X2535Y2969D01*
X2536Y2969D01*
X2537Y2969D01*
X2538Y2969D01*
X2539Y2969D01*
X2540Y2969D01*
X2541Y2969D01*
X2542Y2969D01*
X2543Y2969D01*
X2544Y2969D01*
X2545Y2969D01*
X2546Y2969D01*
X2547Y2969D01*
X2548Y2969D01*
X2549Y2969D01*
X2550Y2969D01*
X2551Y2969D01*
X2552Y2969D01*
X2553Y2969D01*
X2554Y2969D01*
X2555Y2969D01*
X2556Y2969D01*
X2557Y2969D01*
X2558Y2969D01*
X2559Y2969D01*
X2560Y2969D01*
X2561Y2969D01*
X2562Y2969D01*
X2563Y2969D01*
X2564Y2969D01*
X2565Y2969D01*
X2566Y2969D01*
X2567Y2969D01*
X2568Y2969D01*
X2569Y2969D01*
X2570Y2969D01*
X2571Y2969D01*
X2572Y2969D01*
X2573Y2969D01*
X2574Y2969D01*
X2575Y2969D01*
X2576Y2969D01*
X2577Y2969D01*
X2578Y2969D01*
X2579Y2969D01*
X2580Y2969D01*
X2581Y2969D01*
X2582Y2969D01*
X2583Y2969D01*
X2584Y2969D01*
X2585Y2969D01*
X2586Y2969D01*
X2587Y2969D01*
X2588Y2969D01*
X2589Y2969D01*
X2590Y2969D01*
X2591Y2968D01*
X2592Y2968D01*
X2593Y2968D01*
X2594Y2968D01*
X2595Y2968D01*
X2596Y2968D01*
X2597Y2968D01*
X2598Y2968D01*
X2599Y2968D01*
X2600Y2968D01*
X2601Y2968D01*
X2602Y2968D01*
X2603Y2968D01*
X2604Y2968D01*
X2605Y2967D01*
X2606Y2967D01*
X2607Y2967D01*
X2608Y2967D01*
X2609Y2967D01*
X2610Y2967D01*
X2611Y2967D01*
X2612Y2967D01*
X2613Y2967D01*
X2614Y2967D01*
X2615Y2966D01*
X2616Y2966D01*
X2617Y2966D01*
X2618Y2966D01*
X2619Y2966D01*
X2620Y2966D01*
X2621Y2966D01*
X2622Y2966D01*
X2623Y2965D01*
X2624Y2965D01*
X2625Y2965D01*
X2626Y2965D01*
X2627Y2965D01*
X2628Y2965D01*
X2629Y2965D01*
X2630Y2964D01*
X2631Y2964D01*
X2632Y2964D01*
X2633Y2964D01*
X2634Y2964D01*
X2635Y2964D01*
X2636Y2963D01*
X2637Y2963D01*
X2638Y2963D01*
X2639Y2963D01*
X2640Y2963D01*
X2641Y2963D01*
X2642Y2962D01*
X2643Y2962D01*
X2644Y2962D01*
X2645Y2962D01*
X2646Y2962D01*
X2647Y2961D01*
X2648Y2961D01*
X2649Y2961D01*
X2650Y2961D01*
X2651Y2961D01*
X2652Y2960D01*
X2653Y2960D01*
X2654Y2960D01*
X2655Y2960D01*
X2656Y2960D01*
X2657Y2959D01*
X2658Y2959D01*
X2659Y2959D01*
X2660Y2959D01*
X2661Y2958D01*
X2662Y2958D01*
X2663Y2958D01*
X2664Y2958D01*
X2665Y2957D01*
X2666Y2957D01*
X2667Y2957D01*
X2668Y2957D01*
X2669Y2956D01*
X2670Y2956D01*
X2671Y2956D01*
X2672Y2956D01*
X2673Y2955D01*
X2674Y2955D01*
X2675Y2955D01*
X2676Y2954D01*
X2677Y2954D01*
X2678Y2954D01*
X2679Y2954D01*
X2680Y2953D01*
X2681Y2953D01*
X2682Y2953D01*
X2683Y2952D01*
X2684Y2952D01*
X2685Y2952D01*
X2686Y2951D01*
X2687Y2951D01*
X2688Y2951D01*
X2689Y2950D01*
X2690Y2950D01*
X2691Y2950D01*
X2692Y2949D01*
X2693Y2949D01*
X2694Y2949D01*
X2695Y2949D01*
X2696Y2948D01*
X2697Y2948D01*
X2698Y2947D01*
X2699Y2947D01*
X2700Y2947D01*
X2701Y2946D01*
X2702Y2946D01*
X2703Y2946D01*
X2704Y2945D01*
X2705Y2945D01*
X2706Y2945D01*
X2707Y2944D01*
X2708Y2944D01*
X2709Y2943D01*
X2710Y2943D01*
X2711Y2943D01*
X2712Y2942D01*
X2713Y2942D01*
X2714Y2941D01*
X2715Y2941D01*
X2716Y2941D01*
X2717Y2940D01*
X2718Y2940D01*
X2719Y2939D01*
X2720Y2939D01*
X2721Y2939D01*
X2722Y2938D01*
X2723Y2938D01*
X2724Y2937D01*
X2725Y2937D01*
X2726Y2936D01*
X2727Y2936D01*
X2728Y2936D01*
X2729Y2935D01*
X2730Y2935D01*
X2731Y2934D01*
X2732Y2934D01*
X2733Y2933D01*
X2734Y2933D01*
X2735Y2932D01*
X2736Y2932D01*
X2737Y2931D01*
X2738Y2931D01*
X2739Y2930D01*
X2740Y2930D01*
X2741Y2929D01*
X2742Y2929D01*
X2743Y2928D01*
X2744Y2928D01*
X2745Y2927D01*
X2746Y2927D01*
X2747Y2926D01*
X2748Y2926D01*
X2749Y2925D01*
X2750Y2925D01*
X2751Y2924D01*
X2752Y2924D01*
X2753Y2923D01*
X2754Y2923D01*
X2755Y2922D01*
X2756Y2922D01*
X2757Y2921D01*
X2758Y2921D01*
X2759Y2920D01*
X2760Y2919D01*
X2761Y2919D01*
X2762Y2918D01*
X2763Y2918D01*
X2764Y2917D01*
X2765Y2917D01*
X2766Y2916D01*
X2767Y2915D01*
X2768Y2915D01*
X2769Y2914D01*
X2770Y2914D01*
X2771Y2913D01*
X2772Y2912D01*
X2773Y2912D01*
X2774Y2911D01*
X2775Y2910D01*
X2776Y2910D01*
X2777Y2909D01*
X2778Y2909D01*
X2779Y2908D01*
X2780Y2907D01*
X2781Y2907D01*
X2782Y2906D01*
X2783Y2905D01*
X2784Y2905D01*
X2785Y2904D01*
X2786Y2903D01*
X2787Y2903D01*
X2788Y2902D01*
X2789Y2901D01*
X2790Y2901D01*
X2791Y2900D01*
X2792Y2899D01*
X2793Y2899D01*
X2794Y2898D01*
X2795Y2897D01*
X2796Y2896D01*
X2797Y2896D01*
X2798Y2895D01*
X2799Y2894D01*
X2800Y2893D01*
X2801Y2893D01*
X2802Y2892D01*
X2803Y2891D01*
X2804Y2890D01*
X2805Y2890D01*
X2806Y2889D01*
X2807Y2888D01*
X2808Y2887D01*
X2809Y2887D01*
X2810Y2886D01*
X2811Y2885D01*
X2812Y2884D01*
X2813Y2883D01*
X2814Y2883D01*
X2815Y2882D01*
X2816Y2881D01*
X2817Y2880D01*
X2818Y2879D01*
X2819Y2879D01*
X2820Y2878D01*
X2821Y2877D01*
X2822Y2876D01*
X2823Y2875D01*
X2824Y2874D01*
X2825Y2873D01*
X2826Y2873D01*
X2827Y2872D01*
X2828Y2871D01*
X2829Y2870D01*
X2830Y2869D01*
X2831Y2868D01*
X2832Y2867D01*
X2833Y2866D01*
X2834Y2865D01*
X2835Y2864D01*
X2836Y2863D01*
X2837Y2862D01*
X2838Y2862D01*
X2839Y2861D01*
X2840Y2860D01*
X2841Y2859D01*
X2842Y2858D01*
X2843Y2857D01*
X2844Y2856D01*
X2845Y2855D01*
X2846Y2854D01*
X2847Y2853D01*
X2848Y2852D01*
X2849Y2851D01*
X2850Y2850D01*
X2851Y2849D01*
X2851Y2848D01*
X2852Y2847D01*
X2853Y2846D01*
X2854Y2845D01*
X2855Y2844D01*
X2856Y2843D01*
X2857Y2842D01*
X2858Y2841D01*
X2859Y2840D01*
X2860Y2839D01*
X2861Y2838D01*
X2861Y2837D01*
X2862Y2836D01*
X2863Y2835D01*
X2864Y2834D01*
X2865Y2833D01*
X2866Y2832D01*
X2867Y2831D01*
X2867Y2830D01*
X2868Y2829D01*
X2869Y2828D01*
X2870Y2827D01*
X2871Y2826D01*
X2872Y2825D01*
X2872Y2824D01*
X2873Y2823D01*
X2874Y2822D01*
X2875Y2821D01*
X2876Y2820D01*
X2876Y2819D01*
X2877Y2818D01*
X2878Y2817D01*
X2879Y2816D01*
X2879Y2815D01*
X2880Y2814D01*
X2881Y2813D01*
X2882Y2812D01*
X2882Y2811D01*
X2883Y2810D01*
X2884Y2809D01*
X2885Y2808D01*
X2885Y2807D01*
X2886Y2806D01*
X2887Y2805D01*
X2887Y2804D01*
X2888Y2803D01*
X2889Y2802D01*
X2889Y2801D01*
X2890Y2800D01*
X2891Y2799D01*
X2892Y2798D01*
X2892Y2797D01*
X2893Y2796D01*
X2894Y2795D01*
X2894Y2794D01*
X2895Y2793D01*
X2895Y2792D01*
X2896Y2791D01*
X2897Y2790D01*
X2897Y2789D01*
X2898Y2788D01*
X2899Y2787D01*
X2899Y2786D01*
X2900Y2785D01*
X2901Y2784D01*
X2901Y2783D01*
X2902Y2782D01*
X2902Y2781D01*
X2903Y2780D01*
X2904Y2779D01*
X2904Y2778D01*
X2905Y2777D01*
X2905Y2776D01*
X2906Y2775D01*
X2907Y2774D01*
X2907Y2773D01*
X2908Y2772D01*
X2908Y2771D01*
X2909Y2770D01*
X2909Y2769D01*
X2910Y2768D01*
X2910Y2767D01*
X2911Y2766D01*
X2912Y2765D01*
X2912Y2764D01*
X2913Y2763D01*
X2913Y2762D01*
X2914Y2761D01*
X2914Y2760D01*
X2915Y2759D01*
X2915Y2758D01*
X2916Y2757D01*
X2916Y2756D01*
X2917Y2755D01*
X2917Y2754D01*
X2918Y2753D01*
X2918Y2752D01*
X2919Y2751D01*
X2919Y2750D01*
X2920Y2749D01*
X2920Y2748D01*
X2921Y2747D01*
X2921Y2746D01*
X2922Y2745D01*
X2922Y2743D01*
X2923Y2742D01*
X2923Y2741D01*
X2924Y2740D01*
X2924Y2739D01*
X2925Y2738D01*
X2925Y2737D01*
X2926Y2736D01*
X2926Y2734D01*
X2927Y2733D01*
X2927Y2732D01*
X2928Y2731D01*
X2928Y2730D01*
X2929Y2729D01*
X2929Y2727D01*
X2930Y2726D01*
X2930Y2725D01*
X2931Y2724D01*
X2931Y2722D01*
X2932Y2721D01*
X2932Y2720D01*
X2933Y2719D01*
X2933Y2717D01*
X2934Y2716D01*
X2934Y2714D01*
X2935Y2713D01*
X2935Y2712D01*
X2936Y2711D01*
X2936Y2709D01*
X2937Y2708D01*
X2937Y2706D01*
X2938Y2705D01*
X2938Y2703D01*
X2939Y2702D01*
X2939Y2700D01*
X2940Y2699D01*
X2940Y2697D01*
X2941Y2696D01*
X2941Y2693D01*
X2942Y2692D01*
X2942Y2690D01*
X2943Y2689D01*
X2943Y2687D01*
X2944Y2686D01*
X2944Y2683D01*
X2945Y2682D01*
X2945Y2679D01*
X2946Y2678D01*
X2946Y2675D01*
X2947Y2674D01*
X2947Y2671D01*
X2948Y2670D01*
X2948Y2667D01*
X2949Y2666D01*
X2949Y2662D01*
X2950Y2661D01*
X2950Y2657D01*
X2951Y2656D01*
X2951Y2652D01*
X2952Y2651D01*
X2952Y2646D01*
X2953Y2645D01*
X2953Y2640D01*
X2954Y2639D01*
X2954Y2633D01*
X2955Y2632D01*
X2955Y2625D01*
X2956Y2624D01*
X2956Y2615D01*
X2957Y2614D01*
X2957Y2601D01*
X2958Y2600D01*
X2958Y371D01*
X2957Y370D01*
X2957Y357D01*
X2956Y356D01*
X2956Y347D01*
X2955Y346D01*
X2955Y339D01*
X2954Y338D01*
X2954Y332D01*
X2953Y331D01*
X2953Y326D01*
X2952Y325D01*
X2952Y320D01*
X2951Y319D01*
X2951Y315D01*
X2950Y314D01*
X2950Y310D01*
X2949Y309D01*
X2949Y305D01*
X2948Y304D01*
X2948Y301D01*
X2947Y300D01*
X2947Y297D01*
X2946Y296D01*
X2946Y293D01*
X2945Y292D01*
X2945Y289D01*
X2944Y288D01*
X2944Y286D01*
X2943Y285D01*
X2943Y282D01*
X2942Y281D01*
X2942Y279D01*
X2941Y278D01*
X2941Y275D01*
X2940Y274D01*
X2940Y272D01*
X2939Y271D01*
X2939Y269D01*
X2938Y268D01*
X2938Y266D01*
X2937Y265D01*
X2937Y263D01*
X2936Y262D01*
X2936Y260D01*
X2935Y259D01*
X2935Y258D01*
X2934Y257D01*
X2934Y255D01*
X2933Y254D01*
X2933Y252D01*
X2932Y251D01*
X2932Y250D01*
X2931Y249D01*
X2931Y247D01*
X2930Y246D01*
X2930Y245D01*
X2929Y244D01*
X2929Y242D01*
X2928Y241D01*
X2928Y240D01*
X2927Y239D01*
X2927Y238D01*
X2926Y237D01*
X2926Y235D01*
X2925Y234D01*
X2925Y233D01*
X2924Y232D01*
X2924Y231D01*
X2923Y230D01*
X2923Y229D01*
X2922Y228D01*
X2922Y226D01*
X2921Y225D01*
X2921Y224D01*
X2920Y223D01*
X2920Y222D01*
X2919Y221D01*
X2919Y220D01*
X2918Y219D01*
X2918Y218D01*
X2917Y217D01*
X2917Y216D01*
X2916Y215D01*
X2916Y214D01*
X2915Y213D01*
X2915Y212D01*
X2914Y211D01*
X2914Y210D01*
X2913Y209D01*
X2913Y208D01*
X2912Y207D01*
X2911Y206D01*
X2911Y205D01*
X2910Y204D01*
X2910Y203D01*
X2909Y202D01*
X2909Y201D01*
X2908Y200D01*
X2908Y199D01*
X2907Y198D01*
X2906Y197D01*
X2906Y196D01*
X2905Y195D01*
X2905Y194D01*
X2904Y193D01*
X2904Y192D01*
X2903Y191D01*
X2902Y190D01*
X2902Y189D01*
X2901Y188D01*
X2901Y187D01*
X2900Y186D01*
X2899Y185D01*
X2899Y184D01*
X2898Y183D01*
X2897Y182D01*
X2897Y181D01*
X2896Y180D01*
X2895Y179D01*
X2895Y178D01*
X2894Y177D01*
X2893Y176D01*
X2893Y175D01*
X2892Y174D01*
X2892Y173D01*
X2891Y172D01*
X2890Y171D01*
X2889Y170D01*
X2889Y169D01*
X2888Y168D01*
X2887Y167D01*
X2887Y166D01*
X2886Y165D01*
X2885Y164D01*
X2885Y163D01*
X2884Y162D01*
X2883Y161D01*
X2882Y160D01*
X2882Y159D01*
X2881Y158D01*
X2880Y157D01*
X2879Y156D01*
X2879Y155D01*
X2878Y154D01*
X2877Y153D01*
X2876Y152D01*
X2876Y151D01*
X2875Y150D01*
X2874Y149D01*
X2873Y148D01*
X2872Y147D01*
X2872Y146D01*
X2871Y145D01*
X2870Y144D01*
X2869Y143D01*
X2868Y142D01*
X2867Y141D01*
X2867Y140D01*
X2866Y139D01*
X2865Y138D01*
X2864Y137D01*
X2863Y136D01*
X2862Y135D01*
X2861Y134D01*
X2861Y133D01*
X2860Y132D01*
X2859Y131D01*
X2858Y130D01*
X2857Y129D01*
X2856Y128D01*
X2855Y127D01*
X2854Y126D01*
X2853Y125D01*
X2852Y124D01*
X2851Y123D01*
X2850Y122D01*
X2850Y121D01*
X2849Y120D01*
X2848Y119D01*
X2847Y118D01*
X2846Y117D01*
X2845Y116D01*
X2844Y115D01*
X2843Y114D01*
X2842Y113D01*
X2841Y112D01*
X2840Y111D01*
X2839Y110D01*
X2838Y109D01*
X2837Y109D01*
X2836Y108D01*
X2835Y107D01*
X2834Y106D01*
X2833Y105D01*
X2832Y104D01*
X2831Y103D01*
X2830Y102D01*
X2829Y101D01*
X2828Y100D01*
X2827Y99D01*
X2826Y99D01*
X2825Y98D01*
X2824Y97D01*
X2823Y96D01*
X2822Y95D01*
X2821Y94D01*
X2820Y93D01*
X2819Y93D01*
X2818Y92D01*
X2817Y91D01*
X2816Y90D01*
X2815Y89D01*
X2814Y88D01*
X2813Y88D01*
X2812Y87D01*
X2811Y86D01*
X2810Y85D01*
X2809Y84D01*
X2808Y84D01*
X2807Y83D01*
X2806Y82D01*
X2805Y81D01*
X2804Y81D01*
X2803Y80D01*
X2802Y79D01*
X2801Y78D01*
X2800Y78D01*
X2799Y77D01*
X2798Y76D01*
X2797Y75D01*
X2796Y75D01*
X2795Y74D01*
X2794Y73D01*
X2793Y73D01*
X2792Y72D01*
X2791Y71D01*
X2790Y70D01*
X2789Y70D01*
X2788Y69D01*
X2787Y68D01*
X2786Y68D01*
X2785Y67D01*
X2784Y66D01*
X2783Y66D01*
X2782Y65D01*
X2781Y64D01*
X2780Y64D01*
X2779Y63D01*
X2778Y62D01*
X2777Y62D01*
X2776Y61D01*
X2775Y61D01*
X2774Y60D01*
X2773Y59D01*
X2772Y59D01*
X2771Y58D01*
X2770Y57D01*
X2769Y57D01*
X2768Y56D01*
X2767Y56D01*
X2766Y55D01*
X2765Y55D01*
X2764Y54D01*
X2763Y53D01*
X2762Y53D01*
X2761Y52D01*
X2760Y52D01*
X2759Y51D01*
X2758Y51D01*
X2757Y50D01*
X2756Y49D01*
X2755Y49D01*
X2754Y48D01*
X2753Y48D01*
X2752Y47D01*
X2751Y47D01*
X2750Y46D01*
X2749Y46D01*
X2748Y45D01*
X2747Y45D01*
X2746Y44D01*
X2745Y44D01*
X2744Y43D01*
X2743Y43D01*
X2742Y42D01*
X2741Y42D01*
X2740Y41D01*
X2739Y41D01*
X2738Y40D01*
X2737Y40D01*
X2736Y39D01*
X2735Y39D01*
X2734Y38D01*
X2733Y38D01*
X2732Y37D01*
X2731Y37D01*
X2730Y36D01*
X2729Y36D01*
X2728Y35D01*
X2727Y35D01*
X2726Y35D01*
X2725Y34D01*
X2724Y34D01*
X2723Y33D01*
X2722Y33D01*
X2721Y32D01*
X2720Y32D01*
X2719Y32D01*
X2718Y31D01*
X2717Y31D01*
X2716Y30D01*
X2715Y30D01*
X2714Y30D01*
X2713Y29D01*
X2712Y29D01*
X2711Y28D01*
X2710Y28D01*
X2709Y28D01*
X2708Y27D01*
X2707Y27D01*
X2706Y26D01*
X2705Y26D01*
X2704Y26D01*
X2703Y25D01*
X2702Y25D01*
X2701Y25D01*
X2700Y24D01*
X2699Y24D01*
X2698Y24D01*
X2697Y23D01*
X2696Y23D01*
X2695Y23D01*
X2694Y22D01*
X2693Y22D01*
X2692Y22D01*
X2691Y21D01*
X2690Y21D01*
X2689Y21D01*
X2688Y20D01*
X2687Y20D01*
X2686Y20D01*
X2685Y19D01*
X2684Y19D01*
X2683Y19D01*
X2682Y18D01*
X2681Y18D01*
X2680Y18D01*
X2679Y17D01*
X2678Y17D01*
X2677Y17D01*
X2676Y17D01*
X2675Y16D01*
X2674Y16D01*
X2673Y16D01*
X2672Y15D01*
X2671Y15D01*
X2670Y15D01*
X2669Y15D01*
X2668Y14D01*
X2667Y14D01*
X2666Y14D01*
X2665Y14D01*
X2664Y13D01*
X2663Y13D01*
X2662Y13D01*
X2661Y13D01*
X2660Y12D01*
X2659Y12D01*
X2658Y12D01*
X2657Y12D01*
X2656Y12D01*
X2655Y11D01*
X2654Y11D01*
X2653Y11D01*
X2652Y11D01*
X2651Y10D01*
X2650Y10D01*
X2649Y10D01*
X2648Y10D01*
X2647Y10D01*
X2646Y9D01*
X2645Y9D01*
X2644Y9D01*
X2643Y9D01*
X2642Y9D01*
X2641Y8D01*
X2640Y8D01*
X2639Y8D01*
X2638Y8D01*
X2637Y8D01*
X2636Y8D01*
X2635Y7D01*
X2634Y7D01*
X2633Y7D01*
X2632Y7D01*
X2631Y7D01*
X2630Y7D01*
X2629Y6D01*
X2628Y6D01*
X2627Y6D01*
X2626Y6D01*
X2625Y6D01*
X2624Y6D01*
X2623Y6D01*
X2622Y5D01*
X2621Y5D01*
X2620Y5D01*
X2619Y5D01*
X2618Y5D01*
X2617Y5D01*
X2616Y5D01*
X2615Y5D01*
X2614Y4D01*
X2613Y4D01*
X2612Y4D01*
X2611Y4D01*
X2610Y4D01*
X2609Y4D01*
X2608Y4D01*
X2607Y4D01*
X2606Y4D01*
X2605Y4D01*
X2604Y3D01*
X2603Y3D01*
X2602Y3D01*
X2601Y3D01*
X2600Y3D01*
X2599Y3D01*
X2598Y3D01*
X2597Y3D01*
X2596Y3D01*
X2595Y3D01*
X2594Y3D01*
X2593Y3D01*
X2592Y3D01*
X2591Y3D01*
X2590Y2D01*
X2589Y2D01*
X2588Y2D01*
X2587Y2D01*
X2586Y2D01*
X2585Y2D01*
X2584Y2D01*
X2583Y2D01*
X2582Y2D01*
X2581Y2D01*
X2580Y2D01*
X2579Y2D01*
X2578Y2D01*
X2577Y2D01*
X2576Y2D01*
X2575Y2D01*
X2574Y2D01*
X2573Y2D01*
X2572Y2D01*
X2571Y2D01*
X2570Y2D01*
X2569Y2D01*
X2568Y2D01*
X2567Y2D01*
X2566Y2D01*
X2565Y2D01*
X2564Y2D01*
X2563Y2D01*
X2562Y2D01*
X2561Y2D01*
X2560Y2D01*
X2559Y2D01*
X2558Y2D01*
X2557Y2D01*
X2556Y2D01*
X2555Y2D01*
X2554Y2D01*
X2553Y2D01*
X2552Y2D01*
X2551Y2D01*
X2550Y2D01*
X2549Y2D01*
X2548Y2D01*
X2547Y2D01*
X2546Y2D01*
X2545Y2D01*
X2544Y2D01*
X2543Y2D01*
X2542Y2D01*
X2541Y2D01*
X2540Y2D01*
X2539Y2D01*
X2538Y2D01*
X2537Y2D01*
X2536Y2D01*
X2535Y2D01*
X2534Y2D01*
X2533Y2D01*
X2532Y2D01*
X2531Y2D01*
X2530Y2D01*
X2529Y2D01*
X2528Y2D01*
X2527Y2D01*
X2526Y2D01*
X2525Y2D01*
X2524Y2D01*
X2523Y2D01*
X2522Y2D01*
X2521Y2D01*
X2520Y2D01*
X2519Y2D01*
X2518Y2D01*
X2517Y2D01*
X2516Y2D01*
X2515Y2D01*
X2514Y2D01*
X2513Y2D01*
X2512Y2D01*
X2511Y2D01*
X2510Y2D01*
X2509Y2D01*
X2508Y2D01*
X2507Y2D01*
X2506Y2D01*
X2505Y2D01*
X2504Y2D01*
X2503Y2D01*
X2502Y2D01*
X2501Y2D01*
X2500Y2D01*
X2499Y2D01*
X2498Y2D01*
X2497Y2D01*
X2496Y2D01*
X2495Y2D01*
X2494Y2D01*
X2493Y2D01*
X2492Y2D01*
X2491Y2D01*
X2490Y2D01*
X2489Y2D01*
X2488Y2D01*
X2487Y2D01*
X2486Y2D01*
X2485Y2D01*
X2484Y2D01*
X2483Y2D01*
X2482Y2D01*
X2481Y2D01*
X2480Y2D01*
X2479Y2D01*
X2478Y2D01*
X2477Y2D01*
X2476Y2D01*
X2475Y2D01*
X2474Y2D01*
X2473Y2D01*
X2472Y2D01*
X2471Y2D01*
X2470Y2D01*
X2469Y2D01*
X2468Y2D01*
X2467Y2D01*
X2466Y2D01*
X2465Y2D01*
X2464Y2D01*
X2463Y2D01*
X2462Y2D01*
X2461Y2D01*
X2460Y2D01*
X2459Y2D01*
X2458Y2D01*
X2457Y2D01*
X2456Y2D01*
X2455Y2D01*
X2454Y2D01*
X2453Y2D01*
X2452Y2D01*
X2451Y2D01*
X2450Y2D01*
X2449Y2D01*
X2448Y2D01*
X2447Y2D01*
X2446Y2D01*
X2445Y2D01*
X2444Y2D01*
X2443Y2D01*
X2442Y2D01*
X2441Y2D01*
X2440Y2D01*
X2439Y2D01*
X2438Y2D01*
X2437Y2D01*
X2436Y2D01*
X2435Y2D01*
X2434Y2D01*
X2433Y2D01*
X2432Y2D01*
X2431Y2D01*
X2430Y2D01*
X2429Y2D01*
X2428Y2D01*
X2427Y2D01*
X2426Y2D01*
X2425Y2D01*
X2424Y2D01*
X2423Y2D01*
X2422Y2D01*
X2421Y2D01*
X2420Y2D01*
X2419Y2D01*
X2418Y2D01*
X2417Y2D01*
X2416Y2D01*
X2415Y2D01*
X2414Y2D01*
X2413Y2D01*
X2412Y2D01*
X2411Y2D01*
X2410Y2D01*
X2409Y2D01*
X2408Y2D01*
X2407Y2D01*
X2406Y2D01*
X2405Y2D01*
X2404Y2D01*
X2403Y2D01*
X2402Y2D01*
X2401Y2D01*
X2400Y2D01*
X2399Y2D01*
X2398Y2D01*
X2397Y2D01*
X2396Y2D01*
X2395Y2D01*
X2394Y2D01*
X2393Y2D01*
X2392Y2D01*
X2391Y2D01*
X2390Y2D01*
X2389Y2D01*
X2388Y2D01*
X2387Y2D01*
X2386Y2D01*
X2385Y2D01*
X2384Y2D01*
X2383Y2D01*
X2382Y2D01*
X2381Y2D01*
X2380Y2D01*
X2379Y2D01*
X2378Y2D01*
X2377Y2D01*
X2376Y2D01*
X2375Y2D01*
X2374Y2D01*
X2373Y2D01*
X2372Y2D01*
X2371Y2D01*
X2370Y2D01*
X2369Y2D01*
X2368Y2D01*
X2367Y2D01*
X2366Y2D01*
X2365Y2D01*
X2364Y2D01*
X2363Y2D01*
X2362Y2D01*
X2361Y2D01*
X2360Y2D01*
X2359Y2D01*
X2358Y2D01*
X2357Y2D01*
X2356Y2D01*
X2355Y2D01*
X2354Y2D01*
X2353Y2D01*
X2352Y2D01*
X2351Y2D01*
X2350Y2D01*
X2349Y2D01*
X2348Y2D01*
X2347Y2D01*
X2346Y2D01*
X2345Y2D01*
X2344Y2D01*
X2343Y2D01*
X2342Y2D01*
X2341Y2D01*
X2340Y2D01*
X2339Y2D01*
X2338Y2D01*
X2337Y2D01*
X2336Y2D01*
X2335Y2D01*
X2334Y2D01*
X2333Y2D01*
X2332Y2D01*
X2331Y2D01*
X2330Y2D01*
X2329Y2D01*
X2328Y2D01*
X2327Y2D01*
X2326Y2D01*
X2325Y2D01*
X2324Y2D01*
X2323Y2D01*
X2322Y2D01*
X2321Y2D01*
X2320Y2D01*
X2319Y2D01*
X2318Y2D01*
X2317Y2D01*
X2316Y2D01*
X2315Y2D01*
X2314Y2D01*
X2313Y2D01*
X2312Y2D01*
X2311Y2D01*
X2310Y2D01*
X2309Y2D01*
X2308Y2D01*
X2307Y2D01*
X2306Y2D01*
X2305Y2D01*
X2304Y2D01*
X2303Y2D01*
X2302Y2D01*
X2301Y2D01*
X2300Y2D01*
X2299Y2D01*
X2298Y2D01*
X2297Y2D01*
X2296Y2D01*
X2295Y2D01*
X2294Y2D01*
X2293Y2D01*
X2292Y2D01*
X2291Y2D01*
X2290Y2D01*
X2289Y2D01*
X2288Y2D01*
X2287Y2D01*
X2286Y2D01*
X2285Y2D01*
X2284Y2D01*
X2283Y2D01*
X2282Y2D01*
X2281Y2D01*
X2280Y2D01*
X2279Y2D01*
X2278Y2D01*
X2277Y2D01*
X2276Y2D01*
X2275Y2D01*
X2274Y2D01*
X2273Y2D01*
X2272Y2D01*
X2271Y2D01*
X2270Y2D01*
X2269Y2D01*
X2268Y2D01*
X2267Y2D01*
X2266Y2D01*
X2265Y2D01*
X2264Y2D01*
X2263Y2D01*
X2262Y2D01*
X2261Y2D01*
X2260Y2D01*
X2259Y2D01*
X2258Y2D01*
X2257Y2D01*
X2256Y2D01*
X2255Y2D01*
X2254Y2D01*
X2253Y2D01*
X2252Y2D01*
X2251Y2D01*
X2250Y2D01*
X2249Y2D01*
X2248Y2D01*
X2247Y2D01*
X2246Y2D01*
X2245Y2D01*
X2244Y2D01*
X2243Y2D01*
X2242Y2D01*
X2241Y2D01*
X2240Y2D01*
X2239Y2D01*
X2238Y2D01*
X2237Y2D01*
X2236Y2D01*
X2235Y2D01*
X2234Y2D01*
X2233Y2D01*
X2232Y2D01*
X2231Y2D01*
X2230Y2D01*
X2229Y2D01*
X2228Y2D01*
X2227Y2D01*
X2226Y2D01*
X2225Y2D01*
X2224Y2D01*
X2223Y2D01*
X2222Y2D01*
X2221Y2D01*
X2220Y2D01*
X2219Y2D01*
X2218Y2D01*
X2217Y2D01*
X2216Y2D01*
X2215Y2D01*
X2214Y2D01*
X2213Y2D01*
X2212Y2D01*
X2211Y2D01*
X2210Y2D01*
X2209Y2D01*
X2208Y2D01*
X2207Y2D01*
X2206Y2D01*
X2205Y2D01*
X2204Y2D01*
X2203Y2D01*
X2202Y2D01*
X2201Y2D01*
X2200Y2D01*
X2199Y2D01*
X2198Y2D01*
X2197Y2D01*
X2196Y2D01*
X2195Y2D01*
X2194Y2D01*
X2193Y2D01*
X2192Y2D01*
X2191Y2D01*
X2190Y2D01*
X2189Y2D01*
X2188Y2D01*
X2187Y2D01*
X2186Y2D01*
X2185Y2D01*
X2184Y2D01*
X2183Y2D01*
X2182Y2D01*
X2181Y2D01*
X2180Y2D01*
X2179Y2D01*
X2178Y2D01*
X2177Y2D01*
X2176Y2D01*
X2175Y2D01*
X2174Y2D01*
X2173Y2D01*
X2172Y2D01*
X2171Y2D01*
X2170Y2D01*
X2169Y2D01*
X2168Y2D01*
X2167Y2D01*
X2166Y2D01*
X2165Y2D01*
X2164Y2D01*
X2163Y2D01*
X2162Y2D01*
X2161Y2D01*
X2160Y2D01*
X2159Y2D01*
X2158Y2D01*
X2157Y2D01*
X2156Y2D01*
X2155Y2D01*
X2154Y2D01*
X2153Y2D01*
X2152Y2D01*
X2151Y2D01*
X2150Y2D01*
X2149Y2D01*
X2148Y2D01*
X2147Y2D01*
X2146Y2D01*
X2145Y2D01*
X2144Y2D01*
X2143Y2D01*
X2142Y2D01*
X2141Y2D01*
X2140Y2D01*
X2139Y2D01*
X2138Y2D01*
X2137Y2D01*
X2136Y2D01*
X2135Y2D01*
X2134Y2D01*
X2133Y2D01*
X2132Y2D01*
X2131Y2D01*
X2130Y2D01*
X2129Y2D01*
X2128Y2D01*
X2127Y2D01*
X2126Y2D01*
X2125Y2D01*
X2124Y2D01*
X2123Y2D01*
X2122Y2D01*
X2121Y2D01*
X2120Y2D01*
X2119Y2D01*
X2118Y2D01*
X2117Y2D01*
X2116Y2D01*
X2115Y2D01*
X2114Y2D01*
X2113Y2D01*
X2112Y2D01*
X2111Y2D01*
X2110Y2D01*
X2109Y2D01*
X2108Y2D01*
X2107Y2D01*
X2106Y2D01*
X2105Y2D01*
X2104Y2D01*
X2103Y2D01*
X2102Y2D01*
X2101Y2D01*
X2100Y2D01*
X2099Y2D01*
X2098Y2D01*
X2097Y2D01*
X2096Y2D01*
X2095Y2D01*
X2094Y2D01*
X2093Y2D01*
X2092Y2D01*
X2091Y2D01*
X2090Y2D01*
X2089Y2D01*
X2088Y2D01*
X2087Y2D01*
X2086Y2D01*
X2085Y2D01*
X2084Y2D01*
X2083Y2D01*
X2082Y2D01*
X2081Y2D01*
X2080Y2D01*
X2079Y2D01*
X2078Y2D01*
X2077Y2D01*
X2076Y2D01*
X2075Y2D01*
X2074Y2D01*
X2073Y2D01*
X2072Y2D01*
X2071Y2D01*
X2070Y2D01*
X2069Y2D01*
X2068Y2D01*
X2067Y2D01*
X2066Y2D01*
X2065Y2D01*
X2064Y2D01*
X2063Y2D01*
X2062Y2D01*
X2061Y2D01*
X2060Y2D01*
X2059Y2D01*
X2058Y2D01*
X2057Y2D01*
X2056Y2D01*
X2055Y2D01*
X2054Y2D01*
X2053Y2D01*
X2052Y2D01*
X2051Y2D01*
X2050Y2D01*
X2049Y2D01*
X2048Y2D01*
X2047Y2D01*
X2046Y2D01*
X2045Y2D01*
X2044Y2D01*
X2043Y2D01*
X2042Y2D01*
X2041Y2D01*
X2040Y2D01*
X2039Y2D01*
X2038Y2D01*
X2037Y2D01*
X2036Y2D01*
X2035Y2D01*
X2034Y2D01*
X2033Y2D01*
X2032Y2D01*
X2031Y2D01*
X2030Y2D01*
X2029Y2D01*
X2028Y2D01*
X2027Y2D01*
X2026Y2D01*
X2025Y2D01*
X2024Y2D01*
X2023Y2D01*
X2022Y2D01*
X2021Y2D01*
X2020Y2D01*
X2019Y2D01*
X2018Y2D01*
X2017Y2D01*
X2016Y2D01*
X2015Y2D01*
X2014Y2D01*
X2013Y2D01*
X2012Y2D01*
X2011Y2D01*
X2010Y2D01*
X2009Y2D01*
X2008Y2D01*
X2007Y2D01*
X2006Y2D01*
X2005Y2D01*
X2004Y2D01*
X2003Y2D01*
X2002Y2D01*
X2001Y2D01*
X2000Y2D01*
X1999Y2D01*
X1998Y2D01*
X1997Y2D01*
X1996Y2D01*
X1995Y2D01*
X1994Y2D01*
X1993Y2D01*
X1992Y2D01*
X1991Y2D01*
X1990Y2D01*
X1989Y2D01*
X1988Y2D01*
X1987Y2D01*
X1986Y2D01*
X1985Y2D01*
X1984Y2D01*
X1983Y2D01*
X1982Y2D01*
X1981Y2D01*
X1980Y2D01*
X1979Y2D01*
X1978Y2D01*
X1977Y2D01*
X1976Y2D01*
X1975Y2D01*
X1974Y2D01*
X1973Y2D01*
X1972Y2D01*
X1971Y2D01*
X1970Y2D01*
X1969Y2D01*
X1968Y2D01*
X1967Y2D01*
X1966Y2D01*
X1965Y2D01*
X1964Y2D01*
X1963Y2D01*
X1962Y2D01*
X1961Y2D01*
X1960Y2D01*
X1959Y2D01*
X1958Y2D01*
X1957Y2D01*
X1956Y2D01*
X1955Y2D01*
X1954Y2D01*
X1953Y2D01*
X1952Y2D01*
X1951Y2D01*
X1950Y2D01*
X1949Y2D01*
X1948Y2D01*
X1947Y2D01*
X1946Y2D01*
X1945Y2D01*
X1944Y2D01*
X1943Y2D01*
X1942Y2D01*
X1941Y2D01*
X1940Y2D01*
X1939Y2D01*
X1938Y2D01*
X1937Y2D01*
X1936Y2D01*
X1935Y2D01*
X1934Y2D01*
X1933Y2D01*
X1932Y2D01*
X1931Y2D01*
X1930Y2D01*
X1929Y2D01*
X1928Y2D01*
X1927Y2D01*
X1926Y2D01*
X1925Y2D01*
X1924Y2D01*
X1923Y2D01*
X1922Y2D01*
X1921Y2D01*
X1920Y2D01*
X1919Y2D01*
X1918Y2D01*
X1917Y2D01*
X1916Y2D01*
X1915Y2D01*
X1914Y2D01*
X1913Y2D01*
X1912Y2D01*
X1911Y2D01*
X1910Y2D01*
X1909Y2D01*
X1908Y2D01*
X1907Y2D01*
X1906Y2D01*
X1905Y2D01*
X1904Y2D01*
X1903Y2D01*
X1902Y2D01*
X1901Y2D01*
X1900Y2D01*
X1899Y2D01*
X1898Y2D01*
X1897Y2D01*
X1896Y2D01*
X1895Y2D01*
X1894Y2D01*
X1893Y2D01*
X1892Y2D01*
X1891Y2D01*
X1890Y2D01*
X1889Y2D01*
X1888Y2D01*
X1887Y2D01*
X1886Y2D01*
X1885Y2D01*
X1884Y2D01*
X1883Y2D01*
X1882Y2D01*
X1881Y2D01*
X1880Y2D01*
X1879Y2D01*
X1878Y2D01*
X1877Y2D01*
X1876Y2D01*
X1875Y2D01*
X1874Y2D01*
X1873Y2D01*
X1872Y2D01*
X1871Y2D01*
X1870Y2D01*
X1869Y2D01*
X1868Y2D01*
X1867Y2D01*
X1866Y2D01*
X1865Y2D01*
X1864Y2D01*
X1863Y2D01*
X1862Y2D01*
X1861Y2D01*
X1860Y2D01*
X1859Y2D01*
X1858Y2D01*
X1857Y2D01*
X1856Y2D01*
X1855Y2D01*
X1854Y2D01*
X1853Y2D01*
X1852Y2D01*
X1851Y2D01*
X1850Y2D01*
X1849Y2D01*
X1848Y2D01*
X1847Y2D01*
X1846Y2D01*
X1845Y2D01*
X1844Y2D01*
X1843Y2D01*
X1842Y2D01*
X1841Y2D01*
X1840Y2D01*
X1839Y2D01*
X1838Y2D01*
X1837Y2D01*
X1836Y2D01*
X1835Y2D01*
X1834Y2D01*
X1833Y2D01*
X1832Y2D01*
X1831Y2D01*
X1830Y2D01*
X1829Y2D01*
X1828Y2D01*
X1827Y2D01*
X1826Y2D01*
X1825Y2D01*
X1824Y2D01*
X1823Y2D01*
X1822Y2D01*
X1821Y2D01*
X1820Y2D01*
X1819Y2D01*
X1818Y2D01*
X1817Y2D01*
X1816Y2D01*
X1815Y2D01*
X1814Y2D01*
X1813Y2D01*
X1812Y2D01*
X1811Y2D01*
X1810Y2D01*
X1809Y2D01*
X1808Y2D01*
X1807Y2D01*
X1806Y2D01*
X1805Y2D01*
X1804Y2D01*
X1803Y2D01*
X1802Y2D01*
X1801Y2D01*
X1800Y2D01*
X1799Y2D01*
X1798Y2D01*
X1797Y2D01*
X1796Y2D01*
X1795Y2D01*
X1794Y2D01*
X1793Y2D01*
X1792Y2D01*
X1791Y2D01*
X1790Y2D01*
X1789Y2D01*
X1788Y2D01*
X1787Y2D01*
X1786Y2D01*
X1785Y2D01*
X1784Y2D01*
X1783Y2D01*
X1782Y2D01*
X1781Y2D01*
X1780Y2D01*
X1779Y2D01*
X1778Y2D01*
X1777Y2D01*
X1776Y2D01*
X1775Y2D01*
X1774Y2D01*
X1773Y2D01*
X1772Y2D01*
X1771Y2D01*
X1770Y2D01*
X1769Y2D01*
X1768Y2D01*
X1767Y2D01*
X1766Y2D01*
X1765Y2D01*
X1764Y2D01*
X1763Y2D01*
X1762Y2D01*
X1761Y2D01*
X1760Y2D01*
X1759Y2D01*
X1758Y2D01*
X1757Y2D01*
X1756Y2D01*
X1755Y2D01*
X1754Y2D01*
X1753Y2D01*
X1752Y2D01*
X1751Y2D01*
X1750Y2D01*
X1749Y2D01*
X1748Y2D01*
X1747Y2D01*
X1746Y2D01*
X1745Y2D01*
X1744Y2D01*
X1743Y2D01*
X1742Y2D01*
X1741Y2D01*
X1740Y2D01*
X1739Y2D01*
X1738Y2D01*
X1737Y2D01*
X1736Y2D01*
X1735Y2D01*
X1734Y2D01*
X1733Y2D01*
X1732Y2D01*
X1731Y2D01*
X1730Y2D01*
X1729Y2D01*
X1728Y2D01*
X1727Y2D01*
X1726Y2D01*
X1725Y2D01*
X1724Y2D01*
X1723Y2D01*
X1722Y2D01*
X1721Y2D01*
X1720Y2D01*
X1719Y2D01*
X1718Y2D01*
X1717Y2D01*
X1716Y2D01*
X1715Y2D01*
X1714Y2D01*
X1713Y2D01*
X1712Y2D01*
X1711Y2D01*
X1710Y2D01*
X1709Y2D01*
X1708Y2D01*
X1707Y2D01*
X1706Y2D01*
X1705Y2D01*
X1704Y2D01*
X1703Y2D01*
X1702Y2D01*
X1701Y2D01*
X1700Y2D01*
X1699Y2D01*
X1698Y2D01*
X1697Y2D01*
X1696Y2D01*
X1695Y2D01*
X1694Y2D01*
X1693Y2D01*
X1692Y2D01*
X1691Y2D01*
X1690Y2D01*
X1689Y2D01*
X1688Y2D01*
X1687Y2D01*
X1686Y2D01*
X1685Y2D01*
X1684Y2D01*
X1683Y2D01*
X1682Y2D01*
X1681Y2D01*
X1680Y2D01*
X1679Y2D01*
X1678Y2D01*
X1677Y2D01*
X1676Y2D01*
X1675Y2D01*
X1674Y2D01*
X1673Y2D01*
X1672Y2D01*
X1671Y2D01*
X1670Y2D01*
X1669Y2D01*
X1668Y2D01*
X1667Y2D01*
X1666Y2D01*
X1665Y2D01*
X1664Y2D01*
X1663Y2D01*
X1662Y2D01*
X1661Y2D01*
X1660Y2D01*
X1659Y2D01*
X1658Y2D01*
X1657Y2D01*
X1656Y2D01*
X1655Y2D01*
X1654Y2D01*
X1653Y2D01*
X1652Y2D01*
X1651Y2D01*
X1650Y2D01*
X1649Y2D01*
X1648Y2D01*
X1647Y2D01*
X1646Y2D01*
X1645Y2D01*
X1644Y2D01*
X1643Y2D01*
X1642Y2D01*
X1641Y2D01*
X1640Y2D01*
X1639Y2D01*
X1638Y2D01*
X1637Y2D01*
X1636Y2D01*
X1635Y2D01*
X1634Y2D01*
X1633Y2D01*
X1632Y2D01*
X1631Y2D01*
X1630Y2D01*
X1629Y2D01*
X1628Y2D01*
X1627Y2D01*
X1626Y2D01*
X1625Y2D01*
X1624Y2D01*
X1623Y2D01*
X1622Y2D01*
X1621Y2D01*
X1620Y2D01*
X1619Y2D01*
X1618Y2D01*
X1617Y2D01*
X1616Y2D01*
X1615Y2D01*
X1614Y2D01*
X1613Y2D01*
X1612Y2D01*
X1611Y2D01*
X1610Y2D01*
X1609Y2D01*
X1608Y2D01*
X1607Y2D01*
X1606Y2D01*
X1605Y2D01*
X1604Y2D01*
X1603Y2D01*
X1602Y2D01*
X1601Y2D01*
X1600Y2D01*
X1599Y2D01*
X1598Y2D01*
X1597Y2D01*
X1596Y2D01*
X1595Y2D01*
X1594Y2D01*
X1593Y2D01*
X1592Y2D01*
X1591Y2D01*
X1590Y2D01*
X1589Y2D01*
X1588Y2D01*
X1587Y2D01*
X1586Y2D01*
X1585Y2D01*
X1584Y2D01*
X1583Y2D01*
X1582Y2D01*
X1581Y2D01*
X1580Y2D01*
X1579Y2D01*
X1578Y2D01*
X1577Y2D01*
X1576Y2D01*
X1575Y2D01*
X1574Y2D01*
X1573Y2D01*
X1572Y2D01*
X1571Y2D01*
X1570Y2D01*
X1569Y2D01*
X1568Y2D01*
X1567Y2D01*
X1566Y2D01*
X1565Y2D01*
X1564Y2D01*
X1563Y2D01*
X1562Y2D01*
X1561Y2D01*
X1560Y2D01*
X1559Y2D01*
X1558Y2D01*
X1557Y2D01*
X1556Y2D01*
X1555Y2D01*
X1554Y2D01*
X1553Y2D01*
X1552Y2D01*
X1551Y2D01*
X1550Y2D01*
X1549Y2D01*
X1548Y2D01*
X1547Y2D01*
X1546Y2D01*
X1545Y2D01*
X1544Y2D01*
X1543Y2D01*
X1542Y2D01*
X1541Y2D01*
X1540Y2D01*
X1539Y2D01*
X1538Y2D01*
X1537Y2D01*
X1536Y2D01*
X1535Y2D01*
X1534Y2D01*
X1533Y2D01*
X1532Y2D01*
X1531Y2D01*
X1530Y2D01*
X1529Y2D01*
X1528Y2D01*
X1527Y2D01*
X1526Y2D01*
X1525Y2D01*
X1524Y2D01*
X1523Y2D01*
X1522Y2D01*
X1521Y2D01*
X1520Y2D01*
X1519Y2D01*
X1518Y2D01*
X1517Y2D01*
X1516Y2D01*
X1515Y2D01*
X1514Y2D01*
X1513Y2D01*
X1512Y2D01*
X1511Y2D01*
X1510Y2D01*
X1509Y2D01*
X1508Y2D01*
X1507Y2D01*
X1506Y2D01*
X1505Y2D01*
X1504Y2D01*
X1503Y2D01*
X1502Y2D01*
X1501Y2D01*
X1500Y2D01*
X1499Y2D01*
X1498Y2D01*
X1497Y2D01*
X1496Y2D01*
X1495Y2D01*
X1494Y2D01*
X1493Y2D01*
X1492Y2D01*
X1491Y2D01*
X1490Y2D01*
X1489Y2D01*
X1488Y2D01*
X1487Y2D01*
X1486Y2D01*
X1485Y2D01*
X1484Y2D01*
X1483Y2D01*
X1482Y2D01*
X1481Y2D01*
X1480Y2D01*
X1479Y2D01*
X1478Y2D01*
X1477Y2D01*
X1476Y2D01*
X1475Y2D01*
X1474Y2D01*
X1473Y2D01*
X1472Y2D01*
X1471Y2D01*
X1470Y2D01*
X1469Y2D01*
X1468Y2D01*
X1467Y2D01*
X1466Y2D01*
X1465Y2D01*
X1464Y2D01*
X1463Y2D01*
X1462Y2D01*
X1461Y2D01*
X1460Y2D01*
X1459Y2D01*
X1458Y2D01*
X1457Y2D01*
X1456Y2D01*
X1455Y2D01*
X1454Y2D01*
X1453Y2D01*
X1452Y2D01*
X1451Y2D01*
X1450Y2D01*
X1449Y2D01*
X1448Y2D01*
X1447Y2D01*
X1446Y2D01*
X1445Y2D01*
X1444Y2D01*
X1443Y2D01*
X1442Y2D01*
X1441Y2D01*
X1440Y2D01*
X1439Y2D01*
X1438Y2D01*
X1437Y2D01*
X1436Y2D01*
X1435Y2D01*
X1434Y2D01*
X1433Y2D01*
X1432Y2D01*
X1431Y2D01*
X1430Y2D01*
X1429Y2D01*
X1428Y2D01*
X1427Y2D01*
X1426Y2D01*
X1425Y2D01*
X1424Y2D01*
X1423Y2D01*
X1422Y2D01*
X1421Y2D01*
X1420Y2D01*
X1419Y2D01*
X1418Y2D01*
X1417Y2D01*
X1416Y2D01*
X1415Y2D01*
X1414Y2D01*
X1413Y2D01*
X1412Y2D01*
X1411Y2D01*
X1410Y2D01*
X1409Y2D01*
X1408Y2D01*
X1407Y2D01*
X1406Y2D01*
X1405Y2D01*
X1404Y2D01*
X1403Y2D01*
X1402Y2D01*
X1401Y2D01*
X1400Y2D01*
X1399Y2D01*
X1398Y2D01*
X1397Y2D01*
X1396Y2D01*
X1395Y2D01*
X1394Y2D01*
X1393Y2D01*
X1392Y2D01*
X1391Y2D01*
X1390Y2D01*
X1389Y2D01*
X1388Y2D01*
X1387Y2D01*
X1386Y2D01*
X1385Y2D01*
X1384Y2D01*
X1383Y2D01*
X1382Y2D01*
X1381Y2D01*
X1380Y2D01*
X1379Y2D01*
X1378Y2D01*
X1377Y2D01*
X1376Y2D01*
X1375Y2D01*
X1374Y2D01*
X1373Y2D01*
X1372Y2D01*
X1371Y2D01*
X1370Y2D01*
X1369Y2D01*
X1368Y2D01*
X1367Y2D01*
X1366Y2D01*
X1365Y2D01*
X1364Y2D01*
X1363Y2D01*
X1362Y2D01*
X1361Y2D01*
X1360Y2D01*
X1359Y2D01*
X1358Y2D01*
X1357Y2D01*
X1356Y2D01*
X1355Y2D01*
X1354Y2D01*
X1353Y2D01*
X1352Y2D01*
X1351Y2D01*
X1350Y2D01*
X1349Y2D01*
X1348Y2D01*
X1347Y2D01*
X1346Y2D01*
X1345Y2D01*
X1344Y2D01*
X1343Y2D01*
X1342Y2D01*
X1341Y2D01*
X1340Y2D01*
X1339Y2D01*
X1338Y2D01*
X1337Y2D01*
X1336Y2D01*
X1335Y2D01*
X1334Y2D01*
X1333Y2D01*
X1332Y2D01*
X1331Y2D01*
X1330Y2D01*
X1329Y2D01*
X1328Y2D01*
X1327Y2D01*
X1326Y2D01*
X1325Y2D01*
X1324Y2D01*
X1323Y2D01*
X1322Y2D01*
X1321Y2D01*
X1320Y2D01*
X1319Y2D01*
X1318Y2D01*
X1317Y2D01*
X1316Y2D01*
X1315Y2D01*
X1314Y2D01*
X1313Y2D01*
X1312Y2D01*
X1311Y2D01*
X1310Y2D01*
X1309Y2D01*
X1308Y2D01*
X1307Y2D01*
X1306Y2D01*
X1305Y2D01*
X1304Y2D01*
X1303Y2D01*
X1302Y2D01*
X1301Y2D01*
X1300Y2D01*
X1299Y2D01*
X1298Y2D01*
X1297Y2D01*
X1296Y2D01*
X1295Y2D01*
X1294Y2D01*
X1293Y2D01*
X1292Y2D01*
X1291Y2D01*
X1290Y2D01*
X1289Y2D01*
X1288Y2D01*
X1287Y2D01*
X1286Y2D01*
X1285Y2D01*
X1284Y2D01*
X1283Y2D01*
X1282Y2D01*
X1281Y2D01*
X1280Y2D01*
X1279Y2D01*
X1278Y2D01*
X1277Y2D01*
X1276Y2D01*
X1275Y2D01*
X1274Y2D01*
X1273Y2D01*
X1272Y2D01*
X1271Y2D01*
X1270Y2D01*
X1269Y2D01*
X1268Y2D01*
X1267Y2D01*
X1266Y2D01*
X1265Y2D01*
X1264Y2D01*
X1263Y2D01*
X1262Y2D01*
X1261Y2D01*
X1260Y2D01*
X1259Y2D01*
X1258Y2D01*
X1257Y2D01*
X1256Y2D01*
X1255Y2D01*
X1254Y2D01*
X1253Y2D01*
X1252Y2D01*
X1251Y2D01*
X1250Y2D01*
X1249Y2D01*
X1248Y2D01*
X1247Y2D01*
X1246Y2D01*
X1245Y2D01*
X1244Y2D01*
X1243Y2D01*
X1242Y2D01*
X1241Y2D01*
X1240Y2D01*
X1239Y2D01*
X1238Y2D01*
X1237Y2D01*
X1236Y2D01*
X1235Y2D01*
X1234Y2D01*
X1233Y2D01*
X1232Y2D01*
X1231Y2D01*
X1230Y2D01*
X1229Y2D01*
X1228Y2D01*
X1227Y2D01*
X1226Y2D01*
X1225Y2D01*
X1224Y2D01*
X1223Y2D01*
X1222Y2D01*
X1221Y2D01*
X1220Y2D01*
X1219Y2D01*
X1218Y2D01*
X1217Y2D01*
X1216Y2D01*
X1215Y2D01*
X1214Y2D01*
X1213Y2D01*
X1212Y2D01*
X1211Y2D01*
X1210Y2D01*
X1209Y2D01*
X1208Y2D01*
X1207Y2D01*
X1206Y2D01*
X1205Y2D01*
X1204Y2D01*
X1203Y2D01*
X1202Y2D01*
X1201Y2D01*
X1200Y2D01*
X1199Y2D01*
X1198Y2D01*
X1197Y2D01*
X1196Y2D01*
X1195Y2D01*
X1194Y2D01*
X1193Y2D01*
X1192Y2D01*
X1191Y2D01*
X1190Y2D01*
X1189Y2D01*
X1188Y2D01*
X1187Y2D01*
X1186Y2D01*
X1185Y2D01*
X1184Y2D01*
X1183Y2D01*
X1182Y2D01*
X1181Y2D01*
X1180Y2D01*
X1179Y2D01*
X1178Y2D01*
X1177Y2D01*
X1176Y2D01*
X1175Y2D01*
X1174Y2D01*
X1173Y2D01*
X1172Y2D01*
X1171Y2D01*
X1170Y2D01*
X1169Y2D01*
X1168Y2D01*
X1167Y2D01*
X1166Y2D01*
X1165Y2D01*
X1164Y2D01*
X1163Y2D01*
X1162Y2D01*
X1161Y2D01*
X1160Y2D01*
X1159Y2D01*
X1158Y2D01*
X1157Y2D01*
X1156Y2D01*
X1155Y2D01*
X1154Y2D01*
X1153Y2D01*
X1152Y2D01*
X1151Y2D01*
X1150Y2D01*
X1149Y2D01*
X1148Y2D01*
X1147Y2D01*
X1146Y2D01*
X1145Y2D01*
X1144Y2D01*
X1143Y2D01*
X1142Y2D01*
X1141Y2D01*
X1140Y2D01*
X1139Y2D01*
X1138Y2D01*
X1137Y2D01*
X1136Y2D01*
X1135Y2D01*
X1134Y2D01*
X1133Y2D01*
X1132Y2D01*
X1131Y2D01*
X1130Y2D01*
X1129Y2D01*
X1128Y2D01*
X1127Y2D01*
X1126Y2D01*
X1125Y2D01*
X1124Y2D01*
X1123Y2D01*
X1122Y2D01*
X1121Y2D01*
X1120Y2D01*
X1119Y2D01*
X1118Y2D01*
X1117Y2D01*
X1116Y2D01*
X1115Y2D01*
X1114Y2D01*
X1113Y2D01*
X1112Y2D01*
X1111Y2D01*
X1110Y2D01*
X1109Y2D01*
X1108Y2D01*
X1107Y2D01*
X1106Y2D01*
X1105Y2D01*
X1104Y2D01*
X1103Y2D01*
X1102Y2D01*
X1101Y2D01*
X1100Y2D01*
X1099Y2D01*
X1098Y2D01*
X1097Y2D01*
X1096Y2D01*
X1095Y2D01*
X1094Y2D01*
X1093Y2D01*
X1092Y2D01*
X1091Y2D01*
X1090Y2D01*
X1089Y2D01*
X1088Y2D01*
X1087Y2D01*
X1086Y2D01*
X1085Y2D01*
X1084Y2D01*
X1083Y2D01*
X1082Y2D01*
X1081Y2D01*
X1080Y2D01*
X1079Y2D01*
X1078Y2D01*
X1077Y2D01*
X1076Y2D01*
X1075Y2D01*
X1074Y2D01*
X1073Y2D01*
X1072Y2D01*
X1071Y2D01*
X1070Y2D01*
X1069Y2D01*
X1068Y2D01*
X1067Y2D01*
X1066Y2D01*
X1065Y2D01*
X1064Y2D01*
X1063Y2D01*
X1062Y2D01*
X1061Y2D01*
X1060Y2D01*
X1059Y2D01*
X1058Y2D01*
X1057Y2D01*
X1056Y2D01*
X1055Y2D01*
X1054Y2D01*
X1053Y2D01*
X1052Y2D01*
X1051Y2D01*
X1050Y2D01*
X1049Y2D01*
X1048Y2D01*
X1047Y2D01*
X1046Y2D01*
X1045Y2D01*
X1044Y2D01*
X1043Y2D01*
X1042Y2D01*
X1041Y2D01*
X1040Y2D01*
X1039Y2D01*
X1038Y2D01*
X1037Y2D01*
X1036Y2D01*
X1035Y2D01*
X1034Y2D01*
X1033Y2D01*
X1032Y2D01*
X1031Y2D01*
X1030Y2D01*
X1029Y2D01*
X1028Y2D01*
X1027Y2D01*
X1026Y2D01*
X1025Y2D01*
X1024Y2D01*
X1023Y2D01*
X1022Y2D01*
X1021Y2D01*
X1020Y2D01*
X1019Y2D01*
X1018Y2D01*
X1017Y2D01*
X1016Y2D01*
X1015Y2D01*
X1014Y2D01*
X1013Y2D01*
X1012Y2D01*
X1011Y2D01*
X1010Y2D01*
X1009Y2D01*
X1008Y2D01*
X1007Y2D01*
X1006Y2D01*
X1005Y2D01*
X1004Y2D01*
X1003Y2D01*
X1002Y2D01*
X1001Y2D01*
X1000Y2D01*
X999Y2D01*
X998Y2D01*
X997Y2D01*
X996Y2D01*
X995Y2D01*
X994Y2D01*
X993Y2D01*
X992Y2D01*
X991Y2D01*
X990Y2D01*
X989Y2D01*
X988Y2D01*
X987Y2D01*
X986Y2D01*
X985Y2D01*
X984Y2D01*
X983Y2D01*
X982Y2D01*
X981Y2D01*
X980Y2D01*
X979Y2D01*
X978Y2D01*
X977Y2D01*
X976Y2D01*
X975Y2D01*
X974Y2D01*
X973Y2D01*
X972Y2D01*
X971Y2D01*
X970Y2D01*
X969Y2D01*
X968Y2D01*
X967Y2D01*
X966Y2D01*
X965Y2D01*
X964Y2D01*
X963Y2D01*
X962Y2D01*
X961Y2D01*
X960Y2D01*
X959Y2D01*
X958Y2D01*
X957Y2D01*
X956Y2D01*
X955Y2D01*
X954Y2D01*
X953Y2D01*
X952Y2D01*
X951Y2D01*
X950Y2D01*
X949Y2D01*
X948Y2D01*
X947Y2D01*
X946Y2D01*
X945Y2D01*
X944Y2D01*
X943Y2D01*
X942Y2D01*
X941Y2D01*
X940Y2D01*
X939Y2D01*
X938Y2D01*
X937Y2D01*
X936Y2D01*
X935Y2D01*
X934Y2D01*
X933Y2D01*
X932Y2D01*
X931Y2D01*
X930Y2D01*
X929Y2D01*
X928Y2D01*
X927Y2D01*
X926Y2D01*
X925Y2D01*
X924Y2D01*
X923Y2D01*
X922Y2D01*
X921Y2D01*
X920Y2D01*
X919Y2D01*
X918Y2D01*
X917Y2D01*
X916Y2D01*
X915Y2D01*
X914Y2D01*
X913Y2D01*
X912Y2D01*
X911Y2D01*
X910Y2D01*
X909Y2D01*
X908Y2D01*
X907Y2D01*
X906Y2D01*
X905Y2D01*
X904Y2D01*
X903Y2D01*
X902Y2D01*
X901Y2D01*
X900Y2D01*
X899Y2D01*
X898Y2D01*
X897Y2D01*
X896Y2D01*
X895Y2D01*
X894Y2D01*
X893Y2D01*
X892Y2D01*
X891Y2D01*
X890Y2D01*
X889Y2D01*
X888Y2D01*
X887Y2D01*
X886Y2D01*
X885Y2D01*
X884Y2D01*
X883Y2D01*
X882Y2D01*
X881Y2D01*
X880Y2D01*
X879Y2D01*
X878Y2D01*
X877Y2D01*
X876Y2D01*
X875Y2D01*
X874Y2D01*
X873Y2D01*
X872Y2D01*
X871Y2D01*
X870Y2D01*
X869Y2D01*
X868Y2D01*
X867Y2D01*
X866Y2D01*
X865Y2D01*
X864Y2D01*
X863Y2D01*
X862Y2D01*
X861Y2D01*
X860Y2D01*
X859Y2D01*
X858Y2D01*
X857Y2D01*
X856Y2D01*
X855Y2D01*
X854Y2D01*
X853Y2D01*
X852Y2D01*
X851Y2D01*
X850Y2D01*
X849Y2D01*
X848Y2D01*
X847Y2D01*
X846Y2D01*
X845Y2D01*
X844Y2D01*
X843Y2D01*
X842Y2D01*
X841Y2D01*
X840Y2D01*
X839Y2D01*
X838Y2D01*
X837Y2D01*
X836Y2D01*
X835Y2D01*
X834Y2D01*
X833Y2D01*
X832Y2D01*
X831Y2D01*
X830Y2D01*
X829Y2D01*
X828Y2D01*
X827Y2D01*
X826Y2D01*
X825Y2D01*
X824Y2D01*
X823Y2D01*
X822Y2D01*
X821Y2D01*
X820Y2D01*
X819Y2D01*
X818Y2D01*
X817Y2D01*
X816Y2D01*
X815Y2D01*
X814Y2D01*
X813Y2D01*
X812Y2D01*
X811Y2D01*
X810Y2D01*
X809Y2D01*
X808Y2D01*
X807Y2D01*
X806Y2D01*
X805Y2D01*
X804Y2D01*
X803Y2D01*
X802Y2D01*
X801Y2D01*
X800Y2D01*
X799Y2D01*
X798Y2D01*
X797Y2D01*
X796Y2D01*
X795Y2D01*
X794Y2D01*
X793Y2D01*
X792Y2D01*
X791Y2D01*
X790Y2D01*
X789Y2D01*
X788Y2D01*
X787Y2D01*
X786Y2D01*
X785Y2D01*
X784Y2D01*
X783Y2D01*
X782Y2D01*
X781Y2D01*
X780Y2D01*
X779Y2D01*
X778Y2D01*
X777Y2D01*
X776Y2D01*
X775Y2D01*
X774Y2D01*
X773Y2D01*
X772Y2D01*
X771Y2D01*
X770Y2D01*
X769Y2D01*
X768Y2D01*
X767Y2D01*
X766Y2D01*
X765Y2D01*
X764Y2D01*
X763Y2D01*
X762Y2D01*
X761Y2D01*
X760Y2D01*
X759Y2D01*
X758Y2D01*
X757Y2D01*
X756Y2D01*
X755Y2D01*
X754Y2D01*
X753Y2D01*
X752Y2D01*
X751Y2D01*
X750Y2D01*
X749Y2D01*
X748Y2D01*
X747Y2D01*
X746Y2D01*
X745Y2D01*
X744Y2D01*
X743Y2D01*
X742Y2D01*
X741Y2D01*
X740Y2D01*
X739Y2D01*
X738Y2D01*
X737Y2D01*
X736Y2D01*
X735Y2D01*
X734Y2D01*
X733Y2D01*
X732Y2D01*
X731Y2D01*
X730Y2D01*
X729Y2D01*
X728Y2D01*
X727Y2D01*
X726Y2D01*
X725Y2D01*
X724Y2D01*
X723Y2D01*
X722Y2D01*
X721Y2D01*
X720Y2D01*
X719Y2D01*
X718Y2D01*
X717Y2D01*
X716Y2D01*
X715Y2D01*
X714Y2D01*
X713Y2D01*
X712Y2D01*
X711Y2D01*
X710Y2D01*
X709Y2D01*
X708Y2D01*
X707Y2D01*
X706Y2D01*
X705Y2D01*
X704Y2D01*
X703Y2D01*
X702Y2D01*
X701Y2D01*
X700Y2D01*
X699Y2D01*
X698Y2D01*
X697Y2D01*
X696Y2D01*
X695Y2D01*
X694Y2D01*
X693Y2D01*
X692Y2D01*
X691Y2D01*
X690Y2D01*
X689Y2D01*
X688Y2D01*
X687Y2D01*
X686Y2D01*
X685Y2D01*
X684Y2D01*
X683Y2D01*
X682Y2D01*
X681Y2D01*
X680Y2D01*
X679Y2D01*
X678Y2D01*
X677Y2D01*
X676Y2D01*
X675Y2D01*
X674Y2D01*
X673Y2D01*
X672Y2D01*
X671Y2D01*
X670Y2D01*
X669Y2D01*
X668Y2D01*
X667Y2D01*
X666Y2D01*
X665Y2D01*
X664Y2D01*
X663Y2D01*
X662Y2D01*
X661Y2D01*
X660Y2D01*
X659Y2D01*
X658Y2D01*
X657Y2D01*
X656Y2D01*
X655Y2D01*
X654Y2D01*
X653Y2D01*
X652Y2D01*
X651Y2D01*
X650Y2D01*
X649Y2D01*
X648Y2D01*
X647Y2D01*
X646Y2D01*
X645Y2D01*
X644Y2D01*
X643Y2D01*
X642Y2D01*
X641Y2D01*
X640Y2D01*
X639Y2D01*
X638Y2D01*
X637Y2D01*
X636Y2D01*
X635Y2D01*
X634Y2D01*
X633Y2D01*
X632Y2D01*
X631Y2D01*
X630Y2D01*
X629Y2D01*
X628Y2D01*
X627Y2D01*
X626Y2D01*
X625Y2D01*
X624Y2D01*
X623Y2D01*
X622Y2D01*
X621Y2D01*
X620Y2D01*
X619Y2D01*
X618Y2D01*
X617Y2D01*
X616Y2D01*
X615Y2D01*
X614Y2D01*
X613Y2D01*
X612Y2D01*
X611Y2D01*
X610Y2D01*
X609Y2D01*
X608Y2D01*
X607Y2D01*
X606Y2D01*
X605Y2D01*
X604Y2D01*
X603Y2D01*
X602Y2D01*
X601Y2D01*
X600Y2D01*
X599Y2D01*
X598Y2D01*
X597Y2D01*
X596Y2D01*
X595Y2D01*
X594Y2D01*
X593Y2D01*
X592Y2D01*
X591Y2D01*
X590Y2D01*
X589Y2D01*
X588Y2D01*
X587Y2D01*
X586Y2D01*
X585Y2D01*
X584Y2D01*
X583Y2D01*
X582Y2D01*
X581Y2D01*
X580Y2D01*
X579Y2D01*
X578Y2D01*
X577Y2D01*
X576Y2D01*
X575Y2D01*
X574Y2D01*
X573Y2D01*
X572Y2D01*
X571Y2D01*
X570Y2D01*
X569Y2D01*
X568Y2D01*
X567Y2D01*
X566Y2D01*
X565Y2D01*
X564Y2D01*
X563Y2D01*
X562Y2D01*
X561Y2D01*
X560Y2D01*
X559Y2D01*
X558Y2D01*
X557Y2D01*
X556Y2D01*
X555Y2D01*
X554Y2D01*
X553Y2D01*
X552Y2D01*
X551Y2D01*
X550Y2D01*
X549Y2D01*
X548Y2D01*
X547Y2D01*
X546Y2D01*
X545Y2D01*
X544Y2D01*
X543Y2D01*
X542Y2D01*
X541Y2D01*
X540Y2D01*
X539Y2D01*
X538Y2D01*
X537Y2D01*
X536Y2D01*
X535Y2D01*
X534Y2D01*
X533Y2D01*
X532Y2D01*
X531Y2D01*
X530Y2D01*
X529Y2D01*
X528Y2D01*
X527Y2D01*
X526Y2D01*
X525Y2D01*
X524Y2D01*
X523Y2D01*
X522Y2D01*
X521Y2D01*
X520Y2D01*
X519Y2D01*
X518Y2D01*
X517Y2D01*
X516Y2D01*
X515Y2D01*
X514Y2D01*
X513Y2D01*
X512Y2D01*
X511Y2D01*
X510Y2D01*
X509Y2D01*
X508Y2D01*
X507Y2D01*
X506Y2D01*
X505Y2D01*
X504Y2D01*
X503Y2D01*
X502Y2D01*
X501Y2D01*
X500Y2D01*
X499Y2D01*
X498Y2D01*
X497Y2D01*
X496Y2D01*
X495Y2D01*
X494Y2D01*
X493Y2D01*
X492Y2D01*
X491Y2D01*
X490Y2D01*
X489Y2D01*
X488Y2D01*
X487Y2D01*
X486Y2D01*
X485Y2D01*
X484Y2D01*
X483Y2D01*
X482Y2D01*
X481Y2D01*
X480Y2D01*
X479Y2D01*
X478Y2D01*
X477Y2D01*
X476Y2D01*
X475Y2D01*
X474Y2D01*
X473Y2D01*
X472Y2D01*
X471Y2D01*
X470Y2D01*
X469Y2D01*
X468Y2D01*
X467Y2D01*
X466Y2D01*
X465Y2D01*
X464Y2D01*
X463Y2D01*
X462Y2D01*
X461Y2D01*
X460Y2D01*
X459Y2D01*
X458Y2D01*
X457Y2D01*
X456Y2D01*
X455Y2D01*
X454Y2D01*
X453Y2D01*
X452Y2D01*
X451Y2D01*
X450Y2D01*
X449Y2D01*
X448Y2D01*
X447Y2D01*
X446Y2D01*
X445Y2D01*
X444Y2D01*
X443Y2D01*
X442Y2D01*
X441Y2D01*
X440Y2D01*
X439Y2D01*
X438Y2D01*
X437Y2D01*
X436Y2D01*
X435Y2D01*
X434Y2D01*
X433Y2D01*
X432Y2D01*
X431Y2D01*
X430Y2D01*
X429Y2D01*
X428Y2D01*
X427Y2D01*
X426Y2D01*
X425Y2D01*
X424Y2D01*
X423Y2D01*
X422Y2D01*
X421Y2D01*
X420Y2D01*
X419Y2D01*
X418Y2D01*
X417Y2D01*
X416Y2D01*
X415Y2D01*
X414Y2D01*
X413Y2D01*
X412Y2D01*
X411Y2D01*
X410Y2D01*
X409Y2D01*
X408Y2D01*
X407Y2D01*
X406Y2D01*
X405Y2D01*
X404Y2D01*
X403Y2D01*
X402Y2D01*
X401Y2D01*
X400Y2D01*
X399Y2D01*
X398Y2D01*
X397Y2D01*
X396Y2D01*
X395Y2D01*
X394Y2D01*
X393Y2D01*
X392Y2D01*
X391Y2D01*
X390Y2D01*
X389Y2D01*
X388Y2D01*
X387Y2D01*
X386Y2D01*
X385Y2D01*
X384Y2D01*
X383Y2D01*
X382Y2D01*
X381Y2D01*
X380Y2D01*
X379Y2D01*
X378Y2D01*
X377Y2D01*
X376Y2D01*
X375Y2D01*
X374Y2D01*
X373Y2D01*
X372Y2D01*
X371Y2D01*
X370Y2D01*
X369Y2D01*
X368Y2D01*
X367Y3D01*
X366Y3D01*
X365Y3D01*
X364Y3D01*
X363Y3D01*
X362Y3D01*
X361Y3D01*
X360Y3D01*
X359Y3D01*
X358Y3D01*
X357Y3D01*
X356Y3D01*
X355Y3D01*
X354Y3D01*
X353Y4D01*
X352Y4D01*
X351Y4D01*
X350Y4D01*
X349Y4D01*
X348Y4D01*
X347Y4D01*
X346Y4D01*
X345Y4D01*
X344Y4D01*
X343Y5D01*
X342Y5D01*
X341Y5D01*
X340Y5D01*
X339Y5D01*
X338Y5D01*
X337Y5D01*
X336Y5D01*
X335Y6D01*
X334Y6D01*
X333Y6D01*
X332Y6D01*
X331Y6D01*
X330Y6D01*
X329Y6D01*
X328Y7D01*
X327Y7D01*
X326Y7D01*
X325Y7D01*
X324Y7D01*
X323Y7D01*
X322Y8D01*
X321Y8D01*
X320Y8D01*
X319Y8D01*
X318Y8D01*
X317Y8D01*
X316Y9D01*
X315Y9D01*
X314Y9D01*
X313Y9D01*
X312Y9D01*
X311Y10D01*
X310Y10D01*
X309Y10D01*
X308Y10D01*
X307Y10D01*
X306Y11D01*
X305Y11D01*
X304Y11D01*
X303Y11D01*
X302Y11D01*
X301Y12D01*
X300Y12D01*
X299Y12D01*
X298Y12D01*
X297Y13D01*
X296Y13D01*
X295Y13D01*
X294Y13D01*
X293Y14D01*
X292Y14D01*
X291Y14D01*
X290Y14D01*
X289Y15D01*
X288Y15D01*
X287Y15D01*
X286Y15D01*
X285Y16D01*
X284Y16D01*
X283Y16D01*
X282Y17D01*
X281Y17D01*
X280Y17D01*
X279Y17D01*
X278Y18D01*
X277Y18D01*
X276Y18D01*
X275Y19D01*
X274Y19D01*
X273Y19D01*
X272Y20D01*
X271Y20D01*
X270Y20D01*
X269Y21D01*
X268Y21D01*
X267Y21D01*
X266Y22D01*
X265Y22D01*
X264Y22D01*
X263Y22D01*
X262Y23D01*
X261Y23D01*
X260Y24D01*
X259Y24D01*
X258Y24D01*
X257Y25D01*
X256Y25D01*
X255Y25D01*
X254Y26D01*
X253Y26D01*
X252Y26D01*
X251Y27D01*
X250Y27D01*
X249Y28D01*
X248Y28D01*
X247Y28D01*
X246Y29D01*
X245Y29D01*
X244Y30D01*
X243Y30D01*
X242Y30D01*
X241Y31D01*
X240Y31D01*
X239Y32D01*
X238Y32D01*
X237Y32D01*
X236Y33D01*
X235Y33D01*
X234Y34D01*
X233Y34D01*
X232Y35D01*
X231Y35D01*
X230Y35D01*
X229Y36D01*
X228Y36D01*
X227Y37D01*
X226Y37D01*
X225Y38D01*
X224Y38D01*
X223Y39D01*
X222Y39D01*
X221Y40D01*
X220Y40D01*
X219Y41D01*
X218Y41D01*
X217Y42D01*
X216Y42D01*
X215Y43D01*
X214Y43D01*
X213Y44D01*
X212Y44D01*
X211Y45D01*
X210Y45D01*
X209Y46D01*
X208Y46D01*
X207Y47D01*
X206Y47D01*
X205Y48D01*
X204Y48D01*
X203Y49D01*
X202Y49D01*
X201Y50D01*
X200Y51D01*
X199Y51D01*
X198Y52D01*
X197Y52D01*
X196Y53D01*
X195Y53D01*
X194Y54D01*
X193Y54D01*
X192Y55D01*
X191Y56D01*
X190Y56D01*
X189Y57D01*
X188Y57D01*
X187Y58D01*
X186Y59D01*
X185Y59D01*
X184Y60D01*
X183Y61D01*
X182Y61D01*
X181Y62D01*
X180Y62D01*
X179Y63D01*
X178Y64D01*
X177Y64D01*
X176Y65D01*
X175Y66D01*
X174Y66D01*
X173Y67D01*
X172Y68D01*
X171Y68D01*
X170Y69D01*
X169Y70D01*
X168Y70D01*
X167Y71D01*
X166Y72D01*
X165Y72D01*
X164Y73D01*
X163Y74D01*
X162Y75D01*
X161Y75D01*
X160Y76D01*
X159Y77D01*
X158Y78D01*
X157Y78D01*
X156Y79D01*
X155Y80D01*
X154Y81D01*
X153Y81D01*
X152Y82D01*
X151Y83D01*
X150Y84D01*
X149Y84D01*
X148Y85D01*
X147Y86D01*
X146Y87D01*
X145Y88D01*
X144Y88D01*
X143Y89D01*
X142Y90D01*
X141Y91D01*
X140Y92D01*
X139Y92D01*
X138Y93D01*
X137Y94D01*
X136Y95D01*
X135Y96D01*
X134Y97D01*
X133Y98D01*
X132Y98D01*
X131Y99D01*
X130Y100D01*
X129Y101D01*
X128Y102D01*
X127Y103D01*
X126Y104D01*
X125Y105D01*
X124Y106D01*
X123Y107D01*
X122Y108D01*
X121Y109D01*
X120Y109D01*
X119Y110D01*
X118Y111D01*
X117Y112D01*
X116Y113D01*
X115Y114D01*
X114Y115D01*
X113Y116D01*
X112Y117D01*
X111Y118D01*
X110Y119D01*
X109Y120D01*
X108Y121D01*
X107Y122D01*
X107Y123D01*
X106Y124D01*
X105Y125D01*
X104Y126D01*
X103Y127D01*
X102Y128D01*
X101Y129D01*
X100Y130D01*
X99Y131D01*
X98Y132D01*
X97Y133D01*
X97Y134D01*
X96Y135D01*
X95Y136D01*
X94Y137D01*
X93Y138D01*
X92Y139D01*
X91Y140D01*
X91Y141D01*
X90Y142D01*
X89Y143D01*
X88Y144D01*
X87Y145D01*
X86Y146D01*
X86Y147D01*
X85Y148D01*
X84Y149D01*
X83Y150D01*
X82Y151D01*
X82Y152D01*
X81Y153D01*
X80Y154D01*
X79Y155D01*
X79Y156D01*
X78Y157D01*
X77Y158D01*
X76Y159D01*
X76Y160D01*
X75Y161D01*
X74Y162D01*
X73Y163D01*
X73Y164D01*
X72Y165D01*
X71Y166D01*
X71Y167D01*
X70Y168D01*
X69Y169D01*
X69Y170D01*
X68Y171D01*
X67Y172D01*
X66Y173D01*
X66Y174D01*
X65Y175D01*
X64Y176D01*
X64Y177D01*
X63Y178D01*
X63Y179D01*
X62Y180D01*
X61Y181D01*
X61Y182D01*
X60Y183D01*
X59Y184D01*
X59Y185D01*
X58Y186D01*
X57Y187D01*
X57Y188D01*
X56Y189D01*
X56Y190D01*
X55Y191D01*
X54Y192D01*
X54Y193D01*
X53Y194D01*
X53Y195D01*
X52Y196D01*
X51Y197D01*
X51Y198D01*
X50Y199D01*
X50Y200D01*
X49Y201D01*
X49Y202D01*
X48Y203D01*
X48Y204D01*
X47Y205D01*
X46Y206D01*
X46Y207D01*
X45Y208D01*
X45Y209D01*
X44Y210D01*
X44Y211D01*
X43Y212D01*
X43Y213D01*
X42Y214D01*
X42Y215D01*
X41Y216D01*
X41Y217D01*
X40Y218D01*
X40Y219D01*
X39Y220D01*
X39Y221D01*
X38Y222D01*
X38Y223D01*
X37Y224D01*
X37Y225D01*
X36Y226D01*
X36Y228D01*
X35Y229D01*
X35Y230D01*
X34Y231D01*
X34Y232D01*
X33Y233D01*
X33Y234D01*
X32Y235D01*
X32Y236D01*
X31Y237D01*
X31Y239D01*
X30Y240D01*
X30Y241D01*
X29Y242D01*
X29Y244D01*
X28Y245D01*
X28Y246D01*
X27Y247D01*
X27Y249D01*
X26Y250D01*
X26Y251D01*
X25Y252D01*
X25Y254D01*
X24Y255D01*
X24Y257D01*
X23Y258D01*
X23Y259D01*
X22Y260D01*
X22Y262D01*
X21Y263D01*
X21Y265D01*
X20Y266D01*
X20Y268D01*
X19Y269D01*
X19Y271D01*
X18Y272D01*
X18Y274D01*
X17Y275D01*
X17Y278D01*
X16Y279D01*
X16Y281D01*
X15Y282D01*
X15Y284D01*
X14Y285D01*
X14Y288D01*
X13Y289D01*
X13Y292D01*
X12Y293D01*
X12Y296D01*
X11Y297D01*
X11Y300D01*
X10Y301D01*
X10Y304D01*
X9Y305D01*
X9Y309D01*
X8Y310D01*
X8Y314D01*
X7Y315D01*
X7Y319D01*
X6Y320D01*
X6Y325D01*
X5Y326D01*
X5Y331D01*
X4Y332D01*
X4Y338D01*
X3Y339D01*
X3Y346D01*
X2Y347D01*
X2Y356D01*
X1Y357D01*
X1Y370D01*
X0Y371D01*
X0Y2600D01*
X1Y2601D01*
X1Y2614D01*
X2Y2615D01*
X2Y2624D01*
X3Y2625D01*
X3Y2632D01*
X4Y2633D01*
X4Y2639D01*
X5Y2640D01*
X5Y2646D01*
X6Y2647D01*
X6Y2651D01*
X7Y2652D01*
X7Y2656D01*
X8Y2657D01*
X8Y2661D01*
X9Y2662D01*
X9Y2666D01*
X10Y2667D01*
X10Y2670D01*
X11Y2671D01*
X11Y2674D01*
X12Y2675D01*
X12Y2678D01*
X13Y2679D01*
X13Y2682D01*
X14Y2683D01*
X14Y2686D01*
X15Y2687D01*
X15Y2689D01*
X16Y2690D01*
X16Y2692D01*
X17Y2693D01*
X17Y2696D01*
X18Y2697D01*
X18Y2699D01*
X19Y2700D01*
X19Y2702D01*
X20Y2703D01*
X20Y2705D01*
X21Y2706D01*
X21Y2708D01*
X22Y2709D01*
X22Y2711D01*
X23Y2712D01*
X23Y2713D01*
X24Y2714D01*
X24Y2716D01*
X25Y2717D01*
X25Y2719D01*
X26Y2720D01*
X26Y2721D01*
X27Y2722D01*
X27Y2724D01*
X28Y2725D01*
X28Y2726D01*
X29Y2727D01*
X29Y2729D01*
X30Y2730D01*
X30Y2731D01*
X31Y2732D01*
X31Y2734D01*
X32Y2735D01*
X32Y2736D01*
X33Y2737D01*
X33Y2738D01*
X34Y2739D01*
X34Y2740D01*
X35Y2741D01*
X35Y2743D01*
X36Y2744D01*
X36Y2745D01*
X37Y2746D01*
X37Y2747D01*
X38Y2748D01*
X38Y2749D01*
X39Y2750D01*
X39Y2751D01*
X40Y2752D01*
X40Y2753D01*
X41Y2754D01*
X41Y2755D01*
X42Y2756D01*
X42Y2757D01*
X43Y2758D01*
X43Y2759D01*
X44Y2760D01*
X44Y2761D01*
X45Y2762D01*
X45Y2763D01*
X46Y2764D01*
X46Y2765D01*
X47Y2766D01*
X48Y2767D01*
X48Y2768D01*
X49Y2769D01*
X49Y2770D01*
X50Y2771D01*
X50Y2772D01*
X51Y2773D01*
X51Y2774D01*
X52Y2775D01*
X53Y2776D01*
X53Y2777D01*
X54Y2778D01*
X54Y2779D01*
X55Y2780D01*
X56Y2781D01*
X56Y2782D01*
X57Y2783D01*
X57Y2784D01*
X58Y2785D01*
X59Y2786D01*
X59Y2787D01*
X60Y2788D01*
X61Y2789D01*
X61Y2790D01*
X62Y2791D01*
X62Y2792D01*
X63Y2793D01*
X64Y2794D01*
X64Y2795D01*
X65Y2796D01*
X66Y2797D01*
X66Y2798D01*
X67Y2799D01*
X68Y2800D01*
X69Y2801D01*
X69Y2802D01*
X70Y2803D01*
X71Y2804D01*
X71Y2805D01*
X72Y2806D01*
X73Y2807D01*
X73Y2808D01*
X74Y2809D01*
X75Y2810D01*
X76Y2811D01*
X76Y2812D01*
X77Y2813D01*
X78Y2814D01*
X79Y2815D01*
X79Y2816D01*
X80Y2817D01*
X81Y2818D01*
X82Y2819D01*
X82Y2820D01*
X83Y2821D01*
X84Y2822D01*
X85Y2823D01*
X86Y2824D01*
X86Y2825D01*
X87Y2826D01*
X88Y2827D01*
X89Y2828D01*
X90Y2829D01*
X91Y2830D01*
X91Y2831D01*
X92Y2832D01*
X93Y2833D01*
X94Y2834D01*
X95Y2835D01*
X96Y2836D01*
X97Y2837D01*
X97Y2838D01*
X98Y2839D01*
X99Y2840D01*
X100Y2841D01*
X101Y2842D01*
X102Y2843D01*
X103Y2844D01*
X104Y2845D01*
X105Y2846D01*
X106Y2847D01*
X107Y2848D01*
X107Y2849D01*
X108Y2850D01*
X109Y2851D01*
X110Y2852D01*
X111Y2853D01*
X112Y2854D01*
X113Y2855D01*
X114Y2856D01*
X115Y2857D01*
X116Y2858D01*
X117Y2859D01*
X118Y2860D01*
X119Y2861D01*
X120Y2862D01*
X121Y2862D01*
X122Y2863D01*
X123Y2864D01*
X124Y2865D01*
X125Y2866D01*
X126Y2867D01*
X127Y2868D01*
X128Y2869D01*
X129Y2870D01*
X130Y2871D01*
X131Y2872D01*
X132Y2873D01*
X133Y2873D01*
X134Y2874D01*
X135Y2875D01*
X136Y2876D01*
X137Y2877D01*
X138Y2878D01*
X139Y2879D01*
X140Y2879D01*
X141Y2880D01*
X142Y2881D01*
X143Y2882D01*
X144Y2883D01*
X145Y2883D01*
X146Y2884D01*
X147Y2885D01*
X148Y2886D01*
X149Y2887D01*
X150Y2887D01*
X151Y2888D01*
X152Y2889D01*
X153Y2890D01*
X154Y2891D01*
X155Y2891D01*
X156Y2892D01*
X157Y2893D01*
X158Y2893D01*
X159Y2894D01*
X160Y2895D01*
X161Y2896D01*
X162Y2896D01*
X163Y2897D01*
X164Y2898D01*
X165Y2899D01*
X166Y2899D01*
X167Y2900D01*
X168Y2901D01*
X169Y2901D01*
X170Y2902D01*
X171Y2903D01*
X172Y2903D01*
X173Y2904D01*
X174Y2905D01*
X175Y2905D01*
X176Y2906D01*
X177Y2907D01*
X178Y2907D01*
X179Y2908D01*
X180Y2909D01*
X181Y2909D01*
X182Y2910D01*
X183Y2910D01*
X184Y2911D01*
X185Y2912D01*
X186Y2912D01*
X187Y2913D01*
X188Y2914D01*
X189Y2914D01*
X190Y2915D01*
X191Y2915D01*
X192Y2916D01*
X193Y2917D01*
X194Y2917D01*
X195Y2918D01*
X196Y2918D01*
X197Y2919D01*
X198Y2919D01*
X199Y2920D01*
X200Y2921D01*
X201Y2921D01*
X202Y2922D01*
X203Y2922D01*
X204Y2923D01*
X205Y2923D01*
X206Y2924D01*
X207Y2924D01*
X208Y2925D01*
X209Y2925D01*
X210Y2926D01*
X211Y2926D01*
X212Y2927D01*
X213Y2927D01*
X214Y2928D01*
X215Y2928D01*
X216Y2929D01*
X217Y2929D01*
X218Y2930D01*
X219Y2930D01*
X220Y2931D01*
X221Y2931D01*
X222Y2932D01*
X223Y2932D01*
X224Y2933D01*
X225Y2933D01*
X226Y2934D01*
X227Y2934D01*
X228Y2935D01*
X229Y2935D01*
X230Y2936D01*
X231Y2936D01*
X232Y2936D01*
X233Y2937D01*
X234Y2937D01*
X235Y2938D01*
X236Y2938D01*
X237Y2939D01*
X238Y2939D01*
X239Y2939D01*
X240Y2940D01*
X241Y2940D01*
X242Y2941D01*
X243Y2941D01*
X244Y2941D01*
X245Y2942D01*
X246Y2942D01*
X247Y2943D01*
X248Y2943D01*
X249Y2943D01*
X250Y2944D01*
X251Y2944D01*
X252Y2945D01*
X253Y2945D01*
X254Y2945D01*
X255Y2946D01*
X256Y2946D01*
X257Y2946D01*
X258Y2947D01*
X259Y2947D01*
X260Y2947D01*
X261Y2948D01*
X262Y2948D01*
X263Y2949D01*
X264Y2949D01*
X265Y2949D01*
X266Y2950D01*
X267Y2950D01*
X268Y2950D01*
X269Y2950D01*
X270Y2951D01*
X271Y2951D01*
X272Y2951D01*
X273Y2952D01*
X274Y2952D01*
X275Y2952D01*
X276Y2953D01*
X277Y2953D01*
X278Y2953D01*
X279Y2954D01*
X280Y2954D01*
X281Y2954D01*
X282Y2954D01*
X283Y2955D01*
X284Y2955D01*
X285Y2955D01*
X286Y2956D01*
X287Y2956D01*
X288Y2956D01*
X289Y2956D01*
X290Y2957D01*
X291Y2957D01*
X292Y2957D01*
X293Y2957D01*
X294Y2958D01*
X295Y2958D01*
X296Y2958D01*
X297Y2958D01*
X298Y2959D01*
X299Y2959D01*
X300Y2959D01*
X301Y2959D01*
X302Y2960D01*
X303Y2960D01*
X304Y2960D01*
X305Y2960D01*
X306Y2960D01*
X307Y2961D01*
X308Y2961D01*
X309Y2961D01*
X310Y2961D01*
X311Y2961D01*
X312Y2962D01*
X313Y2962D01*
X314Y2962D01*
X315Y2962D01*
X316Y2962D01*
X317Y2963D01*
X318Y2963D01*
X319Y2963D01*
X320Y2963D01*
X321Y2963D01*
X322Y2963D01*
X323Y2964D01*
X324Y2964D01*
X325Y2964D01*
X326Y2964D01*
X327Y2964D01*
X328Y2964D01*
X329Y2965D01*
X330Y2965D01*
X331Y2965D01*
X332Y2965D01*
X333Y2965D01*
X334Y2965D01*
X335Y2965D01*
X336Y2966D01*
X337Y2966D01*
X338Y2966D01*
X339Y2966D01*
X340Y2966D01*
X341Y2966D01*
X342Y2966D01*
X343Y2966D01*
X344Y2967D01*
X345Y2967D01*
X346Y2967D01*
X347Y2967D01*
X348Y2967D01*
X349Y2967D01*
X350Y2967D01*
X351Y2967D01*
X352Y2967D01*
X353Y2967D01*
X354Y2968D01*
X355Y2968D01*
X356Y2968D01*
X357Y2968D01*
X358Y2968D01*
X359Y2968D01*
X360Y2968D01*
X361Y2968D01*
X362Y2968D01*
X363Y2968D01*
X364Y2968D01*
X365Y2968D01*
X366Y2968D01*
X367Y2968D01*
X368Y2969D01*
D02*
G04 End of contour*
M02*