G04 MADE WITH FRITZING*
G04 WWW.FRITZING.ORG*
G04 DOUBLE SIDED*
G04 HOLES PLATED*
G04 CONTOUR ON CENTER OF CONTOUR VECTOR*
%ASAXBY*%
%FSLAX23Y23*%
%MOIN*%
%OFA0B0*%
%SFA1.0B1.0*%
%ADD10C,0.075000*%
%ADD11C,0.070925*%
%ADD12C,0.070866*%
%ADD13C,0.070000*%
%ADD14C,0.092000*%
%ADD15C,0.062992*%
%ADD16C,0.078000*%
%ADD17C,0.039370*%
%ADD18C,0.074000*%
%ADD19R,0.075000X0.075000*%
%ADD20R,0.092000X0.092000*%
%ADD21R,0.062992X0.062992*%
%ADD22R,0.078000X0.078000*%
%ADD23C,0.024000*%
%LNCOPPER0*%
G90*
G70*
G54D10*
X2166Y1321D03*
X2166Y1021D03*
X2066Y1321D03*
X2066Y1021D03*
X1966Y1321D03*
X1966Y1021D03*
X1866Y1321D03*
X1866Y1021D03*
X1766Y1321D03*
X1766Y1021D03*
X1666Y1321D03*
X1666Y1021D03*
X1566Y1321D03*
X1566Y1021D03*
X1466Y1321D03*
X1466Y1021D03*
X1366Y1321D03*
X1366Y1021D03*
X1266Y1321D03*
X1266Y1021D03*
X1166Y1321D03*
X1166Y1021D03*
X1066Y1321D03*
X1066Y1021D03*
X966Y1321D03*
X966Y1021D03*
X866Y1321D03*
X866Y1021D03*
G54D11*
X609Y1121D03*
G54D12*
X416Y1121D03*
G54D13*
X916Y1571D03*
X916Y1471D03*
X1066Y1571D03*
X1066Y1471D03*
G54D10*
X2366Y1171D03*
X2766Y1171D03*
G54D14*
X2416Y1371D03*
X2716Y1371D03*
G54D15*
X566Y1522D03*
X566Y1621D03*
G54D10*
X266Y1321D03*
X266Y1721D03*
G54D16*
X2666Y1671D03*
X2566Y1671D03*
G54D17*
X2076Y2117D03*
X1452Y1949D03*
X1668Y1541D03*
X924Y701D03*
X252Y965D03*
X468Y2069D03*
X2076Y509D03*
X2772Y2405D03*
X708Y2477D03*
G54D10*
X2340Y2603D03*
X2640Y2603D03*
X2340Y2503D03*
X2640Y2503D03*
X2340Y2403D03*
X2640Y2403D03*
X2340Y2303D03*
X2640Y2303D03*
X2340Y2203D03*
X2640Y2203D03*
X2340Y2103D03*
X2640Y2103D03*
X2340Y2003D03*
X2640Y2003D03*
X2340Y1903D03*
X2640Y1903D03*
X316Y2621D03*
X616Y2621D03*
X316Y2521D03*
X616Y2521D03*
X316Y2421D03*
X616Y2421D03*
X316Y2321D03*
X616Y2321D03*
X316Y2221D03*
X616Y2221D03*
X316Y2121D03*
X616Y2121D03*
X316Y2021D03*
X616Y2021D03*
X316Y1921D03*
X616Y1921D03*
G54D18*
X2066Y2721D03*
X1966Y2721D03*
X1866Y2721D03*
X1766Y2721D03*
X1666Y2721D03*
X1666Y1921D03*
X1766Y1921D03*
X1866Y1921D03*
X1966Y1921D03*
X2066Y1921D03*
X1316Y2721D03*
X1216Y2721D03*
X1116Y2721D03*
X1016Y2721D03*
X916Y2721D03*
X916Y1921D03*
X1016Y1921D03*
X1116Y1921D03*
X1216Y1921D03*
X1316Y1921D03*
G54D10*
X1666Y1721D03*
X2066Y1721D03*
X916Y1721D03*
X1316Y1721D03*
X2566Y315D03*
X2566Y571D03*
X2743Y315D03*
X2743Y571D03*
X2166Y315D03*
X2166Y571D03*
X2343Y315D03*
X2343Y571D03*
X1766Y315D03*
X1766Y571D03*
X1943Y315D03*
X1943Y571D03*
X1366Y315D03*
X1366Y571D03*
X1543Y315D03*
X1543Y571D03*
X966Y315D03*
X966Y571D03*
X1143Y315D03*
X1143Y571D03*
X566Y315D03*
X566Y571D03*
X743Y315D03*
X743Y571D03*
X166Y315D03*
X166Y571D03*
X343Y315D03*
X343Y571D03*
X2866Y821D03*
X2866Y421D03*
X2461Y819D03*
X2461Y419D03*
X2061Y819D03*
X2061Y419D03*
X1660Y824D03*
X1660Y424D03*
X1259Y824D03*
X1259Y424D03*
X864Y829D03*
X864Y429D03*
X461Y826D03*
X461Y426D03*
G54D15*
X2666Y722D03*
X2666Y821D03*
X2266Y722D03*
X2266Y821D03*
X1866Y722D03*
X1866Y821D03*
X1466Y722D03*
X1466Y821D03*
X1066Y722D03*
X1066Y821D03*
X666Y722D03*
X666Y821D03*
X266Y722D03*
X266Y821D03*
G54D19*
X2166Y1321D03*
G54D20*
X2416Y1371D03*
G54D21*
X566Y1522D03*
G54D22*
X2666Y1671D03*
G54D19*
X2340Y2603D03*
X316Y2621D03*
G54D21*
X2666Y722D03*
X2266Y722D03*
X1866Y722D03*
X1466Y722D03*
X1066Y722D03*
X666Y722D03*
X266Y722D03*
G54D23*
X2094Y2709D02*
X2313Y2614D01*
D02*
X2840Y808D02*
X2690Y734D01*
D02*
X1090Y735D02*
X1234Y811D01*
D02*
X435Y812D02*
X289Y735D01*
D02*
X2194Y1326D02*
X2379Y1363D01*
D02*
X643Y2529D02*
X1212Y2693D01*
X1212Y2693D02*
X1212Y2690D01*
D02*
X343Y2629D02*
X852Y2789D01*
X852Y2789D02*
X1260Y2789D01*
X1260Y2789D02*
X1296Y2745D01*
D02*
X1789Y2700D02*
X2318Y2222D01*
D02*
X1360Y1349D02*
X1356Y1373D01*
X1356Y1373D02*
X948Y1421D01*
X948Y1421D02*
X930Y1449D01*
D02*
X427Y1145D02*
X444Y1181D01*
X444Y1181D02*
X1260Y1277D01*
X1260Y1277D02*
X1262Y1292D01*
D02*
X1049Y998D02*
X760Y594D01*
D02*
X2364Y2387D02*
X2412Y2357D01*
D02*
X2412Y2357D02*
X2388Y1829D01*
X2388Y1829D02*
X2148Y1829D01*
X2148Y1829D02*
X2100Y1997D01*
D02*
X2100Y1997D02*
X1812Y1997D01*
D02*
X1812Y1997D02*
X1782Y1947D01*
D02*
X1683Y1946D02*
X1740Y2033D01*
D02*
X1740Y2033D02*
X2058Y2112D01*
D02*
X1688Y2700D02*
X2318Y2122D01*
D02*
X338Y2303D02*
X540Y2141D01*
D02*
X540Y2141D02*
X540Y1877D01*
X540Y1877D02*
X564Y1853D01*
X564Y1853D02*
X886Y1915D01*
D02*
X292Y2406D02*
X252Y2381D01*
D02*
X252Y2381D02*
X252Y1877D01*
X252Y1877D02*
X276Y1853D01*
X276Y1853D02*
X492Y1853D01*
X492Y1853D02*
X516Y1805D01*
X516Y1805D02*
X996Y1877D01*
X996Y1877D02*
X1003Y1893D01*
D02*
X291Y2506D02*
X204Y2453D01*
D02*
X204Y2453D02*
X204Y1829D01*
X204Y1829D02*
X468Y1757D01*
X468Y1757D02*
X1212Y1853D01*
X1212Y1853D02*
X1214Y1890D01*
D02*
X364Y334D02*
X440Y406D01*
D02*
X840Y1008D02*
X612Y893D01*
X612Y893D02*
X612Y653D01*
X612Y653D02*
X684Y509D01*
X684Y509D02*
X1308Y485D01*
X1308Y485D02*
X1516Y561D01*
D02*
X1744Y1340D02*
X1596Y1469D01*
X1596Y1469D02*
X1596Y1973D01*
D02*
X1596Y1973D02*
X1632Y1997D01*
D02*
X1632Y1997D02*
X642Y2410D01*
D02*
X642Y2110D02*
X684Y2093D01*
D02*
X684Y2093D02*
X684Y1997D01*
D02*
X684Y1997D02*
X1356Y1997D01*
D02*
X1356Y1997D02*
X1380Y1973D01*
D02*
X1380Y1973D02*
X1380Y1589D01*
X1380Y1589D02*
X1645Y1340D01*
D02*
X2617Y2186D02*
X2460Y2069D01*
D02*
X2460Y2069D02*
X2460Y1805D01*
X2460Y1805D02*
X1896Y1493D01*
X1896Y1493D02*
X1871Y1349D01*
D02*
X644Y2214D02*
X1428Y2021D01*
D02*
X1428Y2021D02*
X1446Y1967D01*
D02*
X1687Y1537D02*
X1896Y1493D01*
D02*
X838Y1315D02*
X348Y1205D01*
X348Y1205D02*
X348Y1085D01*
X348Y1085D02*
X372Y1061D01*
X372Y1061D02*
X588Y1061D01*
X588Y1061D02*
X492Y533D01*
X492Y533D02*
X636Y461D01*
X636Y461D02*
X804Y461D01*
X804Y461D02*
X804Y365D01*
X804Y365D02*
X924Y389D01*
X924Y389D02*
X1212Y389D01*
X1212Y389D02*
X1212Y365D01*
X1212Y365D02*
X1404Y389D01*
X1404Y389D02*
X1716Y629D01*
X1716Y629D02*
X1908Y629D01*
X1908Y629D02*
X1928Y595D01*
D02*
X947Y1342D02*
X900Y1397D01*
X900Y1397D02*
X300Y1253D01*
X300Y1253D02*
X300Y1037D01*
X300Y1037D02*
X492Y893D01*
X492Y893D02*
X204Y893D01*
X204Y893D02*
X204Y653D01*
X204Y653D02*
X276Y653D01*
X276Y653D02*
X276Y269D01*
X276Y269D02*
X300Y257D01*
X300Y257D02*
X1476Y245D01*
X1476Y245D02*
X1476Y365D01*
X1476Y365D02*
X1500Y389D01*
X1500Y389D02*
X1596Y365D01*
X1596Y365D02*
X1716Y365D01*
X1716Y365D02*
X2100Y605D01*
X2100Y605D02*
X2100Y629D01*
X2100Y629D02*
X2316Y629D01*
X2316Y629D02*
X2331Y597D01*
D02*
X942Y1571D02*
X1040Y1571D01*
D02*
X1453Y1346D02*
X1428Y1397D01*
X1428Y1397D02*
X1089Y1559D01*
D02*
X1557Y1048D02*
X1475Y1294D01*
D02*
X2241Y831D02*
X2100Y893D01*
X2100Y893D02*
X2004Y893D01*
X2004Y893D02*
X1890Y833D01*
D02*
X1090Y833D02*
X1212Y893D01*
X1212Y893D02*
X1332Y893D01*
X1332Y893D02*
X1332Y845D01*
X1332Y845D02*
X1439Y826D01*
D02*
X938Y713D02*
X1045Y803D01*
D02*
X252Y984D02*
X252Y1301D01*
X252Y1301D02*
X892Y1561D01*
D02*
X250Y1297D02*
X252Y1301D01*
D02*
X2712Y1334D02*
X2668Y848D01*
D02*
X2579Y1644D02*
X2699Y1404D01*
D02*
X2315Y1918D02*
X2268Y1949D01*
X2268Y1949D02*
X2268Y2093D01*
D02*
X2268Y2093D02*
X1596Y2621D01*
D02*
X1596Y2621D02*
X1596Y2765D01*
X1596Y2765D02*
X1620Y2789D01*
X1620Y2789D02*
X2580Y2789D01*
X2580Y2789D02*
X2580Y2333D01*
D02*
X2580Y2333D02*
X2700Y2333D01*
D02*
X2700Y2333D02*
X2700Y1853D01*
X2700Y1853D02*
X2532Y1709D01*
X2532Y1709D02*
X2546Y1693D01*
D02*
X2665Y2315D02*
X2700Y2333D01*
D02*
X454Y2055D02*
X336Y1941D01*
D02*
X1437Y1021D02*
X1394Y1021D01*
D02*
X2095Y509D02*
X2412Y509D01*
X2412Y509D02*
X2412Y629D01*
X2412Y629D02*
X2316Y917D01*
X2316Y917D02*
X2148Y941D01*
X2148Y941D02*
X1428Y941D01*
X1428Y941D02*
X1383Y998D01*
D02*
X2142Y554D02*
X2076Y509D01*
D02*
X2539Y581D02*
X2412Y629D01*
D02*
X2360Y1143D02*
X2316Y917D01*
D02*
X2655Y2579D02*
X2761Y2420D01*
D02*
X726Y2482D02*
X1380Y2669D01*
D02*
X1380Y2669D02*
X1380Y2765D01*
X1380Y2765D02*
X1308Y2837D01*
D02*
X364Y2821D02*
X215Y2771D01*
D02*
X1308Y2837D02*
X364Y2821D01*
D02*
X165Y2622D02*
X156Y1781D01*
D02*
X215Y2771D02*
X165Y2622D01*
D02*
X156Y1781D02*
X204Y1661D01*
X204Y1661D02*
X887Y1718D01*
G04 End of Copper0*
M02*