; NON-PLATED HOLES START AT T1
; THROUGH (PLATED) HOLES START AT T100
M48
INCH
T100C0.035000
T101C0.039370
T102C0.031555
T103C0.030000
T104C0.031496
T105C0.031497
T106C0.038000
T107C0.052000
T108C0.015748
%
T100
X016657Y010207
X005657Y005707
X013157Y017207
X006157Y020207
X003157Y021207
X026395Y025027
X019657Y010207
X024613Y008191
X023395Y026027
X009657Y005707
X010657Y010207
X013657Y010207
X003157Y020207
X003429Y005707
X014657Y010207
X011657Y010207
X023395Y025027
X012657Y010207
X001657Y005707
X007429Y003148
X008635Y004291
X005657Y003148
X003429Y003148
X009657Y003148
X027429Y005707
X025657Y005707
X012592Y008241
X001657Y003148
X026395Y019027
X024613Y004191
X002657Y017207
X016599Y008241
X023429Y005707
X023395Y019027
X026395Y020027
X015429Y005707
X021657Y005707
X027429Y003148
X028657Y008207
X019429Y005707
X020606Y008191
X017657Y005707
X023395Y020027
X025657Y003148
X008657Y013207
X011429Y005707
X006157Y019207
X023429Y003148
X015429Y003148
X009657Y013207
X013657Y005707
X020657Y017207
X019429Y003148
X027657Y011707
X003157Y019207
X012592Y004241
X021657Y003148
X002657Y013207
X016599Y004241
X011429Y003148
X017657Y003148
X016657Y017207
X004607Y008256
X009157Y017207
X026395Y024027
X023657Y011707
X008657Y010207
X028657Y004207
X006157Y026207
X020606Y004191
X026395Y023027
X009657Y010207
X013657Y003148
X023395Y024027
X006157Y025207
X003157Y026207
X026395Y022027
X023395Y023027
X020657Y013207
X006157Y024207
X003157Y025207
X026395Y021027
X021657Y013207
X023395Y022027
X017657Y013207
X018657Y013207
X015657Y013207
X016657Y013207
X006157Y023207
X004607Y004256
X003157Y024207
X019657Y013207
X023395Y021027
X010657Y013207
X006157Y022207
X013657Y013207
X003157Y023207
X014657Y013207
X011657Y013207
X012657Y013207
X008635Y008291
X020657Y010207
X006157Y021207
X003157Y022207
X026395Y026027
X021657Y010207
X017657Y010207
X007429Y005707
X018657Y010207
X015657Y010207
T101
X011157Y019207
X019657Y019207
X019657Y027207
X009157Y027207
X012157Y027207
X016657Y019207
X020657Y019207
X016657Y027207
X020657Y027207
X009157Y019207
X013157Y027207
X012157Y019207
X017657Y019207
X017657Y027207
X010157Y027207
X013157Y019207
X010157Y019207
X018657Y019207
X018657Y027207
X011157Y027207
T102
X006088Y011208
T103
X010657Y015707
X010657Y014705
X009157Y014705
X009157Y015707
T104
X004157Y011207
T105
X022657Y008207
X002657Y007223
X026657Y008207
X006657Y007223
X005657Y016207
X014657Y007223
X010657Y007223
X002657Y008207
X018657Y007223
X006657Y008207
X022657Y007223
X014657Y008207
X026657Y007223
X010657Y008207
X005657Y015223
X018657Y008207
T106
X025657Y016707
X026657Y016707
T107
X027157Y013707
X024157Y013707
T108
X007080Y024766
X009240Y007006
X016680Y015406
X014520Y019486
X020760Y005086
X004680Y020686
X002520Y009646
X027720Y024046
X020760Y021166
T00
M30
