G04 MADE WITH FRITZING*
G04 WWW.FRITZING.ORG*
G04 DOUBLE SIDED*
G04 HOLES PLATED*
G04 CONTOUR ON CENTER OF CONTOUR VECTOR*
%ASAXBY*%
%FSLAX23Y23*%
%MOIN*%
%OFA0B0*%
%SFA1.0B1.0*%
%ADD10C,0.075000*%
%ADD11C,0.070925*%
%ADD12C,0.070866*%
%ADD13C,0.070000*%
%ADD14C,0.092000*%
%ADD15C,0.062992*%
%ADD16C,0.078000*%
%ADD17C,0.039370*%
%ADD18C,0.074000*%
%ADD19R,0.075000X0.075000*%
%ADD20R,0.092000X0.092000*%
%ADD21R,0.062992X0.062992*%
%ADD22R,0.078000X0.078000*%
%ADD23C,0.024000*%
%LNCOPPER1*%
G90*
G70*
G54D10*
X2166Y1321D03*
X2166Y1021D03*
X2066Y1321D03*
X2066Y1021D03*
X1966Y1321D03*
X1966Y1021D03*
X1866Y1321D03*
X1866Y1021D03*
X1766Y1321D03*
X1766Y1021D03*
X1666Y1321D03*
X1666Y1021D03*
X1566Y1321D03*
X1566Y1021D03*
X1466Y1321D03*
X1466Y1021D03*
X1366Y1321D03*
X1366Y1021D03*
X1266Y1321D03*
X1266Y1021D03*
X1166Y1321D03*
X1166Y1021D03*
X1066Y1321D03*
X1066Y1021D03*
X966Y1321D03*
X966Y1021D03*
X866Y1321D03*
X866Y1021D03*
G54D11*
X609Y1121D03*
G54D12*
X416Y1121D03*
G54D13*
X916Y1571D03*
X916Y1471D03*
X1066Y1571D03*
X1066Y1471D03*
G54D10*
X2366Y1171D03*
X2766Y1171D03*
G54D14*
X2416Y1371D03*
X2716Y1371D03*
G54D15*
X566Y1522D03*
X566Y1621D03*
G54D10*
X266Y1321D03*
X266Y1721D03*
G54D16*
X2666Y1671D03*
X2566Y1671D03*
G54D17*
X2076Y2117D03*
X1452Y1949D03*
X1668Y1541D03*
X924Y701D03*
X252Y965D03*
X468Y2069D03*
X2076Y509D03*
X2772Y2405D03*
X708Y2477D03*
G54D10*
X2340Y2603D03*
X2640Y2603D03*
X2340Y2503D03*
X2640Y2503D03*
X2340Y2403D03*
X2640Y2403D03*
X2340Y2303D03*
X2640Y2303D03*
X2340Y2203D03*
X2640Y2203D03*
X2340Y2103D03*
X2640Y2103D03*
X2340Y2003D03*
X2640Y2003D03*
X2340Y1903D03*
X2640Y1903D03*
X316Y2621D03*
X616Y2621D03*
X316Y2521D03*
X616Y2521D03*
X316Y2421D03*
X616Y2421D03*
X316Y2321D03*
X616Y2321D03*
X316Y2221D03*
X616Y2221D03*
X316Y2121D03*
X616Y2121D03*
X316Y2021D03*
X616Y2021D03*
X316Y1921D03*
X616Y1921D03*
G54D18*
X2066Y2721D03*
X1966Y2721D03*
X1866Y2721D03*
X1766Y2721D03*
X1666Y2721D03*
X1666Y1921D03*
X1766Y1921D03*
X1866Y1921D03*
X1966Y1921D03*
X2066Y1921D03*
X2066Y2721D03*
X1966Y2721D03*
X1866Y2721D03*
X1766Y2721D03*
X1666Y2721D03*
X1666Y1921D03*
X1766Y1921D03*
X1866Y1921D03*
X1966Y1921D03*
X2066Y1921D03*
X1316Y2721D03*
X1216Y2721D03*
X1116Y2721D03*
X1016Y2721D03*
X916Y2721D03*
X916Y1921D03*
X1016Y1921D03*
X1116Y1921D03*
X1216Y1921D03*
X1316Y1921D03*
X1316Y2721D03*
X1216Y2721D03*
X1116Y2721D03*
X1016Y2721D03*
X916Y2721D03*
X916Y1921D03*
X1016Y1921D03*
X1116Y1921D03*
X1216Y1921D03*
X1316Y1921D03*
G54D10*
X1666Y1721D03*
X2066Y1721D03*
X916Y1721D03*
X1316Y1721D03*
X2566Y315D03*
X2566Y571D03*
X2743Y315D03*
X2743Y571D03*
X2166Y315D03*
X2166Y571D03*
X2343Y315D03*
X2343Y571D03*
X1766Y315D03*
X1766Y571D03*
X1943Y315D03*
X1943Y571D03*
X1366Y315D03*
X1366Y571D03*
X1543Y315D03*
X1543Y571D03*
X966Y315D03*
X966Y571D03*
X1143Y315D03*
X1143Y571D03*
X566Y315D03*
X566Y571D03*
X743Y315D03*
X743Y571D03*
X166Y315D03*
X166Y571D03*
X343Y315D03*
X343Y571D03*
X2866Y821D03*
X2866Y421D03*
X2461Y819D03*
X2461Y419D03*
X2061Y819D03*
X2061Y419D03*
X1660Y824D03*
X1660Y424D03*
X1259Y824D03*
X1259Y424D03*
X864Y829D03*
X864Y429D03*
X461Y826D03*
X461Y426D03*
G54D15*
X2666Y722D03*
X2666Y821D03*
X2266Y722D03*
X2266Y821D03*
X1866Y722D03*
X1866Y821D03*
X1466Y722D03*
X1466Y821D03*
X1066Y722D03*
X1066Y821D03*
X666Y722D03*
X666Y821D03*
X266Y722D03*
X266Y821D03*
G54D19*
X2166Y1321D03*
G54D20*
X2416Y1371D03*
G54D21*
X566Y1522D03*
G54D22*
X2666Y1671D03*
G54D19*
X2340Y2603D03*
X316Y2621D03*
G54D21*
X2666Y722D03*
X2266Y722D03*
X1866Y722D03*
X1466Y722D03*
X1066Y722D03*
X666Y722D03*
X266Y722D03*
G54D23*
X1490Y735D02*
X1635Y811D01*
D02*
X564Y1661D02*
X294Y1715D01*
D02*
X565Y1648D02*
X564Y1661D01*
D02*
X2095Y1930D02*
X2312Y1995D01*
D02*
X689Y735D02*
X838Y816D01*
D02*
X1890Y734D02*
X2035Y806D01*
D02*
X2436Y806D02*
X2290Y734D01*
D02*
X1296Y1741D02*
X1138Y1899D01*
D02*
X2046Y1741D02*
X1888Y1899D01*
D02*
X2741Y1185D02*
X2448Y1352D01*
D02*
X2412Y2669D02*
X2616Y2520D01*
D02*
X2100Y2669D02*
X2412Y2669D01*
D02*
X2004Y2645D02*
X2100Y2669D01*
D02*
X1980Y2693D02*
X2004Y2645D01*
D02*
X338Y2003D02*
X564Y1829D01*
D02*
X1380Y1661D02*
X1380Y1877D01*
D02*
X1164Y1661D02*
X1380Y1661D01*
D02*
X1068Y1829D02*
X1164Y1661D01*
D02*
X564Y1829D02*
X1068Y1829D01*
D02*
X2004Y2189D02*
X2319Y2483D01*
D02*
X2004Y1949D02*
X2004Y2189D01*
D02*
X1991Y1939D02*
X2004Y1949D01*
D02*
X1380Y1877D02*
X1341Y1903D01*
D02*
X804Y1373D02*
X896Y1453D01*
D02*
X804Y1301D02*
X804Y1373D01*
D02*
X629Y1139D02*
X804Y1301D01*
D02*
X1243Y1338D02*
X1087Y1455D01*
D02*
X2092Y2128D02*
X2316Y2286D01*
D02*
X843Y410D02*
X764Y335D01*
D02*
X1238Y405D02*
X1164Y334D01*
D02*
X979Y996D02*
X996Y965D01*
D02*
X396Y2261D02*
X564Y2693D01*
D02*
X341Y2234D02*
X396Y2261D01*
D02*
X996Y653D02*
X1118Y585D01*
D02*
X996Y965D02*
X996Y653D01*
D02*
X564Y2693D02*
X948Y2645D01*
D02*
X252Y2693D02*
X516Y2741D01*
D02*
X252Y2165D02*
X252Y2693D01*
D02*
X292Y2137D02*
X252Y2165D01*
D02*
X948Y2645D02*
X995Y2698D01*
D02*
X540Y1061D02*
X540Y1157D01*
D02*
X660Y1061D02*
X540Y1061D01*
D02*
X660Y1085D02*
X660Y1061D01*
D02*
X1212Y1085D02*
X660Y1085D01*
D02*
X1247Y1043D02*
X1212Y1085D01*
D02*
X516Y2741D02*
X885Y2722D01*
D02*
X540Y1157D02*
X804Y1469D01*
D02*
X1168Y992D02*
X1200Y533D01*
D02*
X804Y1469D02*
X592Y1516D01*
D02*
X852Y509D02*
X489Y432D01*
D02*
X1188Y509D02*
X852Y509D01*
D02*
X1200Y533D02*
X1188Y509D01*
D02*
X1639Y405D02*
X1564Y334D01*
D02*
X637Y1940D02*
X1596Y2789D01*
D02*
X2124Y2789D02*
X2700Y2669D01*
D02*
X1596Y2789D02*
X2124Y2789D01*
D02*
X2612Y2096D02*
X2412Y2045D01*
D02*
X2700Y2453D02*
X2662Y2421D01*
D02*
X2700Y2669D02*
X2700Y2453D01*
D02*
X2412Y1829D02*
X1668Y1349D01*
D02*
X2412Y2045D02*
X2412Y1829D01*
D02*
X2039Y400D02*
X1964Y334D01*
D02*
X1620Y1541D02*
X1649Y1541D01*
D02*
X1459Y1931D02*
X1620Y1541D01*
D02*
X1668Y1349D02*
X1668Y1349D01*
D02*
X2844Y402D02*
X2765Y334D01*
D02*
X2440Y400D02*
X2364Y334D01*
D02*
X1044Y1339D02*
X972Y1397D01*
D02*
X324Y1781D02*
X204Y1781D01*
D02*
X972Y1637D02*
X324Y1781D01*
D02*
X972Y1397D02*
X972Y1637D01*
D02*
X204Y1661D02*
X492Y1229D01*
D02*
X204Y1781D02*
X204Y1661D01*
D02*
X732Y1013D02*
X420Y701D01*
D02*
X492Y1013D02*
X732Y1013D01*
D02*
X492Y1229D02*
X492Y1013D01*
D02*
X684Y245D02*
X900Y245D01*
D02*
X684Y389D02*
X684Y245D01*
D02*
X396Y365D02*
X684Y389D01*
D02*
X396Y533D02*
X396Y365D01*
D02*
X420Y701D02*
X396Y533D01*
D02*
X1092Y245D02*
X1308Y245D01*
D02*
X1068Y389D02*
X1092Y245D01*
D02*
X924Y389D02*
X1068Y389D01*
D02*
X900Y365D02*
X924Y389D01*
D02*
X900Y245D02*
X900Y365D01*
D02*
X1489Y834D02*
X1548Y869D01*
D02*
X2628Y629D02*
X2717Y584D01*
D02*
X1308Y629D02*
X2628Y629D01*
D02*
X1308Y461D02*
X1308Y629D01*
D02*
X1332Y461D02*
X1308Y461D01*
D02*
X1308Y365D02*
X1332Y461D01*
D02*
X1308Y245D02*
X1308Y365D01*
D02*
X1548Y869D02*
X1562Y992D01*
D02*
X1548Y893D02*
X1548Y869D01*
D02*
X1716Y893D02*
X1548Y893D01*
D02*
X1842Y832D02*
X1716Y893D01*
D02*
X2412Y893D02*
X2290Y833D01*
D02*
X2532Y893D02*
X2412Y893D01*
D02*
X2642Y833D02*
X2532Y893D01*
D02*
X690Y833D02*
X804Y893D01*
D02*
X924Y893D02*
X924Y720D01*
D02*
X804Y893D02*
X924Y893D01*
D02*
X263Y848D02*
X254Y946D01*
D02*
X291Y1906D02*
X156Y1829D01*
D02*
X156Y1421D02*
X245Y1340D01*
D02*
X156Y1829D02*
X156Y1421D01*
D02*
X595Y2302D02*
X576Y2285D01*
D02*
X1557Y1294D02*
X1475Y1048D01*
D02*
X576Y2285D02*
X476Y2086D01*
D02*
X1674Y1693D02*
X1740Y1469D01*
X1740Y1469D02*
X1588Y1339D01*
D02*
X1380Y509D02*
X2057Y509D01*
D02*
X1372Y543D02*
X1380Y509D01*
D02*
X1764Y509D02*
X2076Y509D01*
D02*
X1765Y542D02*
X1764Y509D01*
D02*
X978Y289D02*
X1020Y197D01*
D02*
X1356Y197D02*
X1363Y286D01*
D02*
X1020Y197D02*
X1356Y197D01*
D02*
X948Y197D02*
X961Y287D01*
D02*
X636Y197D02*
X948Y197D01*
D02*
X580Y290D02*
X636Y197D01*
D02*
X175Y544D02*
X276Y245D01*
D02*
X396Y245D02*
X539Y304D01*
D02*
X276Y245D02*
X396Y245D01*
D02*
X2340Y1229D02*
X2354Y1197D01*
D02*
X2340Y1445D02*
X2340Y1229D01*
D02*
X2641Y1654D02*
X2340Y1445D01*
D02*
X2580Y1733D02*
X2641Y1688D01*
D02*
X2580Y1973D02*
X2580Y1733D01*
D02*
X2614Y1990D02*
X2580Y1973D01*
D02*
X2768Y2386D02*
X2700Y2045D01*
D02*
X2700Y2045D02*
X2663Y2019D01*
D02*
X1068Y1637D02*
X1740Y1469D01*
D02*
X941Y1707D02*
X1068Y1637D01*
D02*
X684Y2069D02*
X707Y2458D01*
D02*
X639Y2037D02*
X684Y2069D01*
D02*
X636Y2597D02*
X698Y2493D01*
D02*
X634Y2599D02*
X636Y2597D01*
G04 End of Copper1*
M02*