G04 MADE WITH FRITZING*
G04 WWW.FRITZING.ORG*
G04 DOUBLE SIDED*
G04 HOLES PLATED*
G04 CONTOUR ON CENTER OF CONTOUR VECTOR*
%ASAXBY*%
%FSLAX23Y23*%
%MOIN*%
%OFA0B0*%
%SFA1.0B1.0*%
%ADD10R,0.001000X0.001000*%
%LNSILK0*%
G90*
G70*
G54D10*
X368Y2969D02*
X2590Y2969D01*
X354Y2968D02*
X2604Y2968D01*
X344Y2967D02*
X2614Y2967D01*
X336Y2966D02*
X2622Y2966D01*
X329Y2965D02*
X2629Y2965D01*
X323Y2964D02*
X2635Y2964D01*
X317Y2963D02*
X2641Y2963D01*
X312Y2962D02*
X2646Y2962D01*
X307Y2961D02*
X367Y2961D01*
X2591Y2961D02*
X2651Y2961D01*
X302Y2960D02*
X353Y2960D01*
X2605Y2960D02*
X2656Y2960D01*
X298Y2959D02*
X343Y2959D01*
X2615Y2959D02*
X2660Y2959D01*
X294Y2958D02*
X335Y2958D01*
X2623Y2958D02*
X2664Y2958D01*
X290Y2957D02*
X328Y2957D01*
X2630Y2957D02*
X2668Y2957D01*
X286Y2956D02*
X322Y2956D01*
X2636Y2956D02*
X2672Y2956D01*
X283Y2955D02*
X316Y2955D01*
X2642Y2955D02*
X2675Y2955D01*
X279Y2954D02*
X311Y2954D01*
X2647Y2954D02*
X2679Y2954D01*
X276Y2953D02*
X306Y2953D01*
X2652Y2953D02*
X2682Y2953D01*
X273Y2952D02*
X302Y2952D01*
X2656Y2952D02*
X2685Y2952D01*
X270Y2951D02*
X297Y2951D01*
X2661Y2951D02*
X2688Y2951D01*
X266Y2950D02*
X293Y2950D01*
X2665Y2950D02*
X2691Y2950D01*
X263Y2949D02*
X289Y2949D01*
X2669Y2949D02*
X2695Y2949D01*
X261Y2948D02*
X286Y2948D01*
X2672Y2948D02*
X2697Y2948D01*
X258Y2947D02*
X282Y2947D01*
X2676Y2947D02*
X2700Y2947D01*
X255Y2946D02*
X279Y2946D01*
X2679Y2946D02*
X2703Y2946D01*
X252Y2945D02*
X275Y2945D01*
X2683Y2945D02*
X2706Y2945D01*
X250Y2944D02*
X272Y2944D01*
X2686Y2944D02*
X2708Y2944D01*
X247Y2943D02*
X269Y2943D01*
X2689Y2943D02*
X2711Y2943D01*
X245Y2942D02*
X266Y2942D01*
X2692Y2942D02*
X2713Y2942D01*
X242Y2941D02*
X263Y2941D01*
X2695Y2941D02*
X2716Y2941D01*
X240Y2940D02*
X260Y2940D01*
X2698Y2940D02*
X2718Y2940D01*
X237Y2939D02*
X257Y2939D01*
X2701Y2939D02*
X2721Y2939D01*
X235Y2938D02*
X255Y2938D01*
X2703Y2938D02*
X2723Y2938D01*
X233Y2937D02*
X252Y2937D01*
X2706Y2937D02*
X2725Y2937D01*
X230Y2936D02*
X249Y2936D01*
X2709Y2936D02*
X2728Y2936D01*
X228Y2935D02*
X247Y2935D01*
X2711Y2935D02*
X2730Y2935D01*
X226Y2934D02*
X244Y2934D01*
X2714Y2934D02*
X2732Y2934D01*
X224Y2933D02*
X242Y2933D01*
X2716Y2933D02*
X2734Y2933D01*
X222Y2932D02*
X239Y2932D01*
X2719Y2932D02*
X2736Y2932D01*
X220Y2931D02*
X237Y2931D01*
X2721Y2931D02*
X2738Y2931D01*
X218Y2930D02*
X235Y2930D01*
X2723Y2930D02*
X2740Y2930D01*
X216Y2929D02*
X233Y2929D01*
X2725Y2929D02*
X2742Y2929D01*
X214Y2928D02*
X230Y2928D01*
X2728Y2928D02*
X2744Y2928D01*
X212Y2927D02*
X228Y2927D01*
X2730Y2927D02*
X2746Y2927D01*
X210Y2926D02*
X226Y2926D01*
X2732Y2926D02*
X2748Y2926D01*
X208Y2925D02*
X224Y2925D01*
X2734Y2925D02*
X2750Y2925D01*
X206Y2924D02*
X222Y2924D01*
X2736Y2924D02*
X2752Y2924D01*
X204Y2923D02*
X220Y2923D01*
X2738Y2923D02*
X2754Y2923D01*
X202Y2922D02*
X218Y2922D01*
X2740Y2922D02*
X2756Y2922D01*
X200Y2921D02*
X216Y2921D01*
X2742Y2921D02*
X2758Y2921D01*
X199Y2920D02*
X214Y2920D01*
X2744Y2920D02*
X2759Y2920D01*
X197Y2919D02*
X212Y2919D01*
X2746Y2919D02*
X2761Y2919D01*
X195Y2918D02*
X210Y2918D01*
X2748Y2918D02*
X2763Y2918D01*
X193Y2917D02*
X208Y2917D01*
X2750Y2917D02*
X2765Y2917D01*
X192Y2916D02*
X206Y2916D01*
X2752Y2916D02*
X2766Y2916D01*
X190Y2915D02*
X204Y2915D01*
X2754Y2915D02*
X2768Y2915D01*
X188Y2914D02*
X202Y2914D01*
X2756Y2914D02*
X2770Y2914D01*
X187Y2913D02*
X201Y2913D01*
X2757Y2913D02*
X2771Y2913D01*
X185Y2912D02*
X199Y2912D01*
X2759Y2912D02*
X2773Y2912D01*
X184Y2911D02*
X197Y2911D01*
X2761Y2911D02*
X2774Y2911D01*
X182Y2910D02*
X195Y2910D01*
X2763Y2910D02*
X2776Y2910D01*
X180Y2909D02*
X194Y2909D01*
X2764Y2909D02*
X2778Y2909D01*
X179Y2908D02*
X192Y2908D01*
X2766Y2908D02*
X2779Y2908D01*
X177Y2907D02*
X190Y2907D01*
X2768Y2907D02*
X2781Y2907D01*
X176Y2906D02*
X189Y2906D01*
X2769Y2906D02*
X2782Y2906D01*
X174Y2905D02*
X187Y2905D01*
X2771Y2905D02*
X2784Y2905D01*
X173Y2904D02*
X185Y2904D01*
X2772Y2904D02*
X2785Y2904D01*
X171Y2903D02*
X184Y2903D01*
X2774Y2903D02*
X2787Y2903D01*
X170Y2902D02*
X182Y2902D01*
X2776Y2902D02*
X2788Y2902D01*
X168Y2901D02*
X181Y2901D01*
X2777Y2901D02*
X2790Y2901D01*
X167Y2900D02*
X179Y2900D01*
X2779Y2900D02*
X2791Y2900D01*
X165Y2899D02*
X178Y2899D01*
X2780Y2899D02*
X2793Y2899D01*
X164Y2898D02*
X176Y2898D01*
X2782Y2898D02*
X2794Y2898D01*
X163Y2897D02*
X175Y2897D01*
X2783Y2897D02*
X2795Y2897D01*
X161Y2896D02*
X173Y2896D01*
X2785Y2896D02*
X2797Y2896D01*
X160Y2895D02*
X172Y2895D01*
X2786Y2895D02*
X2798Y2895D01*
X159Y2894D02*
X170Y2894D01*
X2788Y2894D02*
X2799Y2894D01*
X157Y2893D02*
X169Y2893D01*
X2789Y2893D02*
X2801Y2893D01*
X156Y2892D02*
X167Y2892D01*
X2791Y2892D02*
X2802Y2892D01*
X154Y2891D02*
X166Y2891D01*
X2792Y2891D02*
X2803Y2891D01*
X153Y2890D02*
X165Y2890D01*
X2793Y2890D02*
X2805Y2890D01*
X152Y2889D02*
X163Y2889D01*
X2795Y2889D02*
X2806Y2889D01*
X151Y2888D02*
X162Y2888D01*
X2796Y2888D02*
X2807Y2888D01*
X149Y2887D02*
X161Y2887D01*
X2797Y2887D02*
X2809Y2887D01*
X148Y2886D02*
X159Y2886D01*
X2799Y2886D02*
X2810Y2886D01*
X147Y2885D02*
X158Y2885D01*
X2800Y2885D02*
X2811Y2885D01*
X146Y2884D02*
X157Y2884D01*
X2801Y2884D02*
X2812Y2884D01*
X144Y2883D02*
X155Y2883D01*
X2803Y2883D02*
X2814Y2883D01*
X143Y2882D02*
X154Y2882D01*
X2804Y2882D02*
X2815Y2882D01*
X142Y2881D02*
X153Y2881D01*
X2805Y2881D02*
X2816Y2881D01*
X141Y2880D02*
X151Y2880D01*
X2807Y2880D02*
X2817Y2880D01*
X139Y2879D02*
X150Y2879D01*
X2808Y2879D02*
X2819Y2879D01*
X138Y2878D02*
X149Y2878D01*
X2809Y2878D02*
X2820Y2878D01*
X137Y2877D02*
X148Y2877D01*
X2810Y2877D02*
X2821Y2877D01*
X136Y2876D02*
X146Y2876D01*
X2812Y2876D02*
X2822Y2876D01*
X135Y2875D02*
X145Y2875D01*
X2813Y2875D02*
X2823Y2875D01*
X134Y2874D02*
X144Y2874D01*
X2814Y2874D02*
X2824Y2874D01*
X132Y2873D02*
X143Y2873D01*
X2815Y2873D02*
X2826Y2873D01*
X131Y2872D02*
X142Y2872D01*
X2816Y2872D02*
X2827Y2872D01*
X130Y2871D02*
X140Y2871D01*
X2817Y2871D02*
X2828Y2871D01*
X129Y2870D02*
X139Y2870D01*
X2819Y2870D02*
X2829Y2870D01*
X128Y2869D02*
X138Y2869D01*
X2820Y2869D02*
X2830Y2869D01*
X127Y2868D02*
X137Y2868D01*
X2821Y2868D02*
X2831Y2868D01*
X126Y2867D02*
X136Y2867D01*
X2822Y2867D02*
X2832Y2867D01*
X125Y2866D02*
X135Y2866D01*
X2823Y2866D02*
X2833Y2866D01*
X124Y2865D02*
X134Y2865D01*
X2824Y2865D02*
X2834Y2865D01*
X123Y2864D02*
X133Y2864D01*
X2825Y2864D02*
X2835Y2864D01*
X122Y2863D02*
X131Y2863D01*
X2827Y2863D02*
X2836Y2863D01*
X120Y2862D02*
X130Y2862D01*
X2828Y2862D02*
X2838Y2862D01*
X119Y2861D02*
X129Y2861D01*
X2829Y2861D02*
X2839Y2861D01*
X118Y2860D02*
X128Y2860D01*
X2830Y2860D02*
X2840Y2860D01*
X117Y2859D02*
X127Y2859D01*
X2831Y2859D02*
X2841Y2859D01*
X116Y2858D02*
X126Y2858D01*
X2832Y2858D02*
X2842Y2858D01*
X115Y2857D02*
X125Y2857D01*
X2833Y2857D02*
X2843Y2857D01*
X114Y2856D02*
X124Y2856D01*
X2834Y2856D02*
X2844Y2856D01*
X113Y2855D02*
X123Y2855D01*
X2835Y2855D02*
X2845Y2855D01*
X112Y2854D02*
X122Y2854D01*
X2836Y2854D02*
X2846Y2854D01*
X111Y2853D02*
X121Y2853D01*
X2837Y2853D02*
X2847Y2853D01*
X110Y2852D02*
X120Y2852D01*
X2838Y2852D02*
X2848Y2852D01*
X109Y2851D02*
X119Y2851D01*
X2839Y2851D02*
X2849Y2851D01*
X108Y2850D02*
X118Y2850D01*
X2840Y2850D02*
X2850Y2850D01*
X107Y2849D02*
X117Y2849D01*
X2841Y2849D02*
X2851Y2849D01*
X107Y2848D02*
X116Y2848D01*
X2842Y2848D02*
X2851Y2848D01*
X106Y2847D02*
X115Y2847D01*
X2843Y2847D02*
X2852Y2847D01*
X105Y2846D02*
X114Y2846D01*
X2844Y2846D02*
X2853Y2846D01*
X104Y2845D02*
X113Y2845D01*
X2845Y2845D02*
X2854Y2845D01*
X103Y2844D02*
X112Y2844D01*
X2846Y2844D02*
X2855Y2844D01*
X102Y2843D02*
X111Y2843D01*
X2847Y2843D02*
X2856Y2843D01*
X101Y2842D02*
X110Y2842D01*
X2848Y2842D02*
X2857Y2842D01*
X100Y2841D02*
X109Y2841D01*
X2849Y2841D02*
X2858Y2841D01*
X99Y2840D02*
X108Y2840D01*
X2850Y2840D02*
X2859Y2840D01*
X98Y2839D02*
X107Y2839D01*
X2851Y2839D02*
X2860Y2839D01*
X97Y2838D02*
X106Y2838D01*
X2852Y2838D02*
X2861Y2838D01*
X97Y2837D02*
X105Y2837D01*
X2853Y2837D02*
X2861Y2837D01*
X96Y2836D02*
X105Y2836D01*
X2853Y2836D02*
X2862Y2836D01*
X95Y2835D02*
X104Y2835D01*
X2854Y2835D02*
X2863Y2835D01*
X94Y2834D02*
X103Y2834D01*
X2855Y2834D02*
X2864Y2834D01*
X93Y2833D02*
X102Y2833D01*
X2856Y2833D02*
X2865Y2833D01*
X92Y2832D02*
X101Y2832D01*
X2857Y2832D02*
X2866Y2832D01*
X91Y2831D02*
X100Y2831D01*
X2858Y2831D02*
X2867Y2831D01*
X91Y2830D02*
X99Y2830D01*
X2859Y2830D02*
X2867Y2830D01*
X90Y2829D02*
X98Y2829D01*
X2860Y2829D02*
X2868Y2829D01*
X89Y2828D02*
X98Y2828D01*
X2860Y2828D02*
X2869Y2828D01*
X88Y2827D02*
X97Y2827D01*
X2861Y2827D02*
X2870Y2827D01*
X87Y2826D02*
X96Y2826D01*
X2862Y2826D02*
X2871Y2826D01*
X86Y2825D02*
X95Y2825D01*
X2863Y2825D02*
X2872Y2825D01*
X86Y2824D02*
X94Y2824D01*
X2864Y2824D02*
X2872Y2824D01*
X85Y2823D02*
X93Y2823D01*
X2865Y2823D02*
X2873Y2823D01*
X84Y2822D02*
X93Y2822D01*
X2865Y2822D02*
X2874Y2822D01*
X83Y2821D02*
X92Y2821D01*
X2866Y2821D02*
X2875Y2821D01*
X82Y2820D02*
X91Y2820D01*
X2867Y2820D02*
X2876Y2820D01*
X82Y2819D02*
X90Y2819D01*
X2868Y2819D02*
X2876Y2819D01*
X81Y2818D02*
X89Y2818D01*
X2869Y2818D02*
X2877Y2818D01*
X80Y2817D02*
X89Y2817D01*
X2869Y2817D02*
X2878Y2817D01*
X79Y2816D02*
X88Y2816D01*
X2870Y2816D02*
X2879Y2816D01*
X79Y2815D02*
X87Y2815D01*
X2871Y2815D02*
X2879Y2815D01*
X78Y2814D02*
X86Y2814D01*
X2872Y2814D02*
X2880Y2814D01*
X77Y2813D02*
X85Y2813D01*
X2873Y2813D02*
X2881Y2813D01*
X76Y2812D02*
X85Y2812D01*
X2873Y2812D02*
X2882Y2812D01*
X76Y2811D02*
X84Y2811D01*
X2874Y2811D02*
X2882Y2811D01*
X75Y2810D02*
X83Y2810D01*
X2875Y2810D02*
X2883Y2810D01*
X74Y2809D02*
X82Y2809D01*
X2876Y2809D02*
X2884Y2809D01*
X73Y2808D02*
X82Y2808D01*
X2876Y2808D02*
X2885Y2808D01*
X73Y2807D02*
X81Y2807D01*
X2877Y2807D02*
X2885Y2807D01*
X72Y2806D02*
X80Y2806D01*
X2878Y2806D02*
X2886Y2806D01*
X71Y2805D02*
X79Y2805D01*
X2878Y2805D02*
X2887Y2805D01*
X71Y2804D02*
X79Y2804D01*
X2879Y2804D02*
X2887Y2804D01*
X70Y2803D02*
X78Y2803D01*
X2880Y2803D02*
X2888Y2803D01*
X69Y2802D02*
X77Y2802D01*
X2881Y2802D02*
X2889Y2802D01*
X69Y2801D02*
X77Y2801D01*
X2881Y2801D02*
X2889Y2801D01*
X68Y2800D02*
X76Y2800D01*
X2882Y2800D02*
X2890Y2800D01*
X67Y2799D02*
X75Y2799D01*
X2883Y2799D02*
X2891Y2799D01*
X66Y2798D02*
X75Y2798D01*
X2883Y2798D02*
X2892Y2798D01*
X66Y2797D02*
X74Y2797D01*
X2884Y2797D02*
X2892Y2797D01*
X65Y2796D02*
X73Y2796D01*
X2885Y2796D02*
X2893Y2796D01*
X64Y2795D02*
X72Y2795D01*
X2886Y2795D02*
X2894Y2795D01*
X64Y2794D02*
X72Y2794D01*
X2886Y2794D02*
X2894Y2794D01*
X63Y2793D02*
X71Y2793D01*
X2887Y2793D02*
X2895Y2793D01*
X62Y2792D02*
X70Y2792D01*
X2888Y2792D02*
X2895Y2792D01*
X62Y2791D02*
X70Y2791D01*
X2888Y2791D02*
X2896Y2791D01*
X61Y2790D02*
X69Y2790D01*
X2889Y2790D02*
X2897Y2790D01*
X61Y2789D02*
X68Y2789D01*
X2889Y2789D02*
X2897Y2789D01*
X60Y2788D02*
X68Y2788D01*
X2890Y2788D02*
X2898Y2788D01*
X59Y2787D02*
X67Y2787D01*
X2891Y2787D02*
X2899Y2787D01*
X59Y2786D02*
X67Y2786D01*
X2891Y2786D02*
X2899Y2786D01*
X58Y2785D02*
X66Y2785D01*
X2892Y2785D02*
X2900Y2785D01*
X57Y2784D02*
X65Y2784D01*
X2893Y2784D02*
X2901Y2784D01*
X57Y2783D02*
X65Y2783D01*
X2893Y2783D02*
X2901Y2783D01*
X56Y2782D02*
X64Y2782D01*
X2894Y2782D02*
X2902Y2782D01*
X56Y2781D02*
X63Y2781D01*
X2895Y2781D02*
X2902Y2781D01*
X55Y2780D02*
X63Y2780D01*
X2895Y2780D02*
X2903Y2780D01*
X54Y2779D02*
X62Y2779D01*
X2896Y2779D02*
X2904Y2779D01*
X54Y2778D02*
X62Y2778D01*
X2896Y2778D02*
X2904Y2778D01*
X53Y2777D02*
X61Y2777D01*
X2897Y2777D02*
X2905Y2777D01*
X53Y2776D02*
X60Y2776D01*
X2898Y2776D02*
X2905Y2776D01*
X52Y2775D02*
X60Y2775D01*
X2898Y2775D02*
X2906Y2775D01*
X51Y2774D02*
X59Y2774D01*
X2899Y2774D02*
X2907Y2774D01*
X51Y2773D02*
X59Y2773D01*
X2899Y2773D02*
X2907Y2773D01*
X50Y2772D02*
X58Y2772D01*
X2900Y2772D02*
X2908Y2772D01*
X50Y2771D02*
X57Y2771D01*
X2901Y2771D02*
X2908Y2771D01*
X49Y2770D02*
X57Y2770D01*
X2901Y2770D02*
X2909Y2770D01*
X49Y2769D02*
X56Y2769D01*
X2902Y2769D02*
X2909Y2769D01*
X48Y2768D02*
X56Y2768D01*
X2902Y2768D02*
X2910Y2768D01*
X48Y2767D02*
X55Y2767D01*
X2903Y2767D02*
X2910Y2767D01*
X47Y2766D02*
X55Y2766D01*
X2903Y2766D02*
X2911Y2766D01*
X46Y2765D02*
X54Y2765D01*
X2904Y2765D02*
X2912Y2765D01*
X46Y2764D02*
X54Y2764D01*
X2904Y2764D02*
X2912Y2764D01*
X45Y2763D02*
X53Y2763D01*
X2905Y2763D02*
X2913Y2763D01*
X45Y2762D02*
X52Y2762D01*
X2906Y2762D02*
X2913Y2762D01*
X44Y2761D02*
X52Y2761D01*
X2906Y2761D02*
X2914Y2761D01*
X44Y2760D02*
X51Y2760D01*
X2907Y2760D02*
X2914Y2760D01*
X43Y2759D02*
X51Y2759D01*
X2907Y2759D02*
X2915Y2759D01*
X43Y2758D02*
X50Y2758D01*
X2908Y2758D02*
X2915Y2758D01*
X42Y2757D02*
X50Y2757D01*
X2908Y2757D02*
X2916Y2757D01*
X42Y2756D02*
X49Y2756D01*
X2909Y2756D02*
X2916Y2756D01*
X41Y2755D02*
X49Y2755D01*
X2909Y2755D02*
X2917Y2755D01*
X41Y2754D02*
X48Y2754D01*
X2910Y2754D02*
X2917Y2754D01*
X40Y2753D02*
X48Y2753D01*
X2910Y2753D02*
X2918Y2753D01*
X40Y2752D02*
X47Y2752D01*
X2911Y2752D02*
X2918Y2752D01*
X39Y2751D02*
X47Y2751D01*
X2911Y2751D02*
X2919Y2751D01*
X39Y2750D02*
X46Y2750D01*
X2912Y2750D02*
X2919Y2750D01*
X38Y2749D02*
X46Y2749D01*
X2912Y2749D02*
X2920Y2749D01*
X38Y2748D02*
X45Y2748D01*
X2913Y2748D02*
X2920Y2748D01*
X37Y2747D02*
X45Y2747D01*
X2913Y2747D02*
X2921Y2747D01*
X37Y2746D02*
X44Y2746D01*
X2914Y2746D02*
X2921Y2746D01*
X36Y2745D02*
X44Y2745D01*
X2914Y2745D02*
X2922Y2745D01*
X36Y2744D02*
X43Y2744D01*
X2915Y2744D02*
X2922Y2744D01*
X35Y2743D02*
X43Y2743D01*
X2915Y2743D02*
X2922Y2743D01*
X35Y2742D02*
X42Y2742D01*
X2916Y2742D02*
X2923Y2742D01*
X35Y2741D02*
X42Y2741D01*
X2916Y2741D02*
X2923Y2741D01*
X34Y2740D02*
X42Y2740D01*
X2916Y2740D02*
X2924Y2740D01*
X34Y2739D02*
X41Y2739D01*
X2917Y2739D02*
X2924Y2739D01*
X33Y2738D02*
X41Y2738D01*
X2917Y2738D02*
X2925Y2738D01*
X33Y2737D02*
X40Y2737D01*
X2918Y2737D02*
X2925Y2737D01*
X32Y2736D02*
X40Y2736D01*
X2918Y2736D02*
X2926Y2736D01*
X32Y2735D02*
X39Y2735D01*
X2919Y2735D02*
X2926Y2735D01*
X31Y2734D02*
X39Y2734D01*
X2919Y2734D02*
X2926Y2734D01*
X31Y2733D02*
X38Y2733D01*
X2920Y2733D02*
X2927Y2733D01*
X31Y2732D02*
X38Y2732D01*
X2920Y2732D02*
X2927Y2732D01*
X30Y2731D02*
X38Y2731D01*
X2920Y2731D02*
X2928Y2731D01*
X30Y2730D02*
X37Y2730D01*
X2921Y2730D02*
X2928Y2730D01*
X29Y2729D02*
X37Y2729D01*
X2921Y2729D02*
X2929Y2729D01*
X29Y2728D02*
X36Y2728D01*
X2922Y2728D02*
X2929Y2728D01*
X29Y2727D02*
X36Y2727D01*
X2922Y2727D02*
X2929Y2727D01*
X28Y2726D02*
X35Y2726D01*
X2923Y2726D02*
X2930Y2726D01*
X28Y2725D02*
X35Y2725D01*
X2923Y2725D02*
X2930Y2725D01*
X27Y2724D02*
X35Y2724D01*
X2923Y2724D02*
X2931Y2724D01*
X27Y2723D02*
X34Y2723D01*
X2924Y2723D02*
X2931Y2723D01*
X27Y2722D02*
X34Y2722D01*
X2924Y2722D02*
X2931Y2722D01*
X26Y2721D02*
X33Y2721D01*
X2925Y2721D02*
X2932Y2721D01*
X26Y2720D02*
X33Y2720D01*
X2925Y2720D02*
X2932Y2720D01*
X25Y2719D02*
X33Y2719D01*
X2925Y2719D02*
X2933Y2719D01*
X25Y2718D02*
X32Y2718D01*
X2926Y2718D02*
X2933Y2718D01*
X25Y2717D02*
X32Y2717D01*
X2926Y2717D02*
X2933Y2717D01*
X24Y2716D02*
X32Y2716D01*
X2926Y2716D02*
X2934Y2716D01*
X24Y2715D02*
X31Y2715D01*
X2927Y2715D02*
X2934Y2715D01*
X24Y2714D02*
X31Y2714D01*
X2927Y2714D02*
X2934Y2714D01*
X23Y2713D02*
X30Y2713D01*
X2928Y2713D02*
X2935Y2713D01*
X23Y2712D02*
X30Y2712D01*
X2928Y2712D02*
X2935Y2712D01*
X22Y2711D02*
X30Y2711D01*
X2928Y2711D02*
X2936Y2711D01*
X22Y2710D02*
X29Y2710D01*
X2929Y2710D02*
X2936Y2710D01*
X22Y2709D02*
X29Y2709D01*
X2929Y2709D02*
X2936Y2709D01*
X21Y2708D02*
X29Y2708D01*
X2929Y2708D02*
X2937Y2708D01*
X21Y2707D02*
X28Y2707D01*
X2930Y2707D02*
X2937Y2707D01*
X21Y2706D02*
X28Y2706D01*
X2930Y2706D02*
X2937Y2706D01*
X20Y2705D02*
X28Y2705D01*
X2930Y2705D02*
X2938Y2705D01*
X20Y2704D02*
X27Y2704D01*
X2931Y2704D02*
X2938Y2704D01*
X20Y2703D02*
X27Y2703D01*
X2931Y2703D02*
X2938Y2703D01*
X19Y2702D02*
X27Y2702D01*
X2931Y2702D02*
X2939Y2702D01*
X19Y2701D02*
X26Y2701D01*
X2932Y2701D02*
X2939Y2701D01*
X19Y2700D02*
X26Y2700D01*
X2932Y2700D02*
X2939Y2700D01*
X18Y2699D02*
X26Y2699D01*
X2932Y2699D02*
X2940Y2699D01*
X18Y2698D02*
X25Y2698D01*
X2933Y2698D02*
X2940Y2698D01*
X18Y2697D02*
X25Y2697D01*
X2933Y2697D02*
X2940Y2697D01*
X17Y2696D02*
X25Y2696D01*
X2933Y2696D02*
X2941Y2696D01*
X17Y2695D02*
X24Y2695D01*
X2934Y2695D02*
X2941Y2695D01*
X17Y2694D02*
X24Y2694D01*
X2934Y2694D02*
X2941Y2694D01*
X17Y2693D02*
X24Y2693D01*
X2934Y2693D02*
X2941Y2693D01*
X16Y2692D02*
X23Y2692D01*
X2935Y2692D02*
X2942Y2692D01*
X16Y2691D02*
X23Y2691D01*
X2935Y2691D02*
X2942Y2691D01*
X16Y2690D02*
X23Y2690D01*
X2935Y2690D02*
X2942Y2690D01*
X15Y2689D02*
X22Y2689D01*
X2935Y2689D02*
X2943Y2689D01*
X15Y2688D02*
X22Y2688D01*
X2936Y2688D02*
X2943Y2688D01*
X15Y2687D02*
X22Y2687D01*
X2936Y2687D02*
X2943Y2687D01*
X14Y2686D02*
X22Y2686D01*
X2936Y2686D02*
X2944Y2686D01*
X14Y2685D02*
X21Y2685D01*
X2937Y2685D02*
X2944Y2685D01*
X14Y2684D02*
X21Y2684D01*
X2937Y2684D02*
X2944Y2684D01*
X14Y2683D02*
X21Y2683D01*
X2937Y2683D02*
X2944Y2683D01*
X13Y2682D02*
X20Y2682D01*
X2937Y2682D02*
X2945Y2682D01*
X13Y2681D02*
X20Y2681D01*
X2938Y2681D02*
X2945Y2681D01*
X13Y2680D02*
X20Y2680D01*
X2938Y2680D02*
X2945Y2680D01*
X13Y2679D02*
X20Y2679D01*
X2938Y2679D02*
X2945Y2679D01*
X12Y2678D02*
X19Y2678D01*
X2939Y2678D02*
X2946Y2678D01*
X12Y2677D02*
X19Y2677D01*
X2939Y2677D02*
X2946Y2677D01*
X12Y2676D02*
X19Y2676D01*
X2939Y2676D02*
X2946Y2676D01*
X12Y2675D02*
X19Y2675D01*
X2939Y2675D02*
X2946Y2675D01*
X11Y2674D02*
X18Y2674D01*
X2940Y2674D02*
X2947Y2674D01*
X11Y2673D02*
X18Y2673D01*
X2940Y2673D02*
X2947Y2673D01*
X11Y2672D02*
X18Y2672D01*
X2940Y2672D02*
X2947Y2672D01*
X11Y2671D02*
X18Y2671D01*
X2940Y2671D02*
X2947Y2671D01*
X10Y2670D02*
X17Y2670D01*
X2941Y2670D02*
X2948Y2670D01*
X10Y2669D02*
X17Y2669D01*
X2941Y2669D02*
X2948Y2669D01*
X10Y2668D02*
X17Y2668D01*
X2941Y2668D02*
X2948Y2668D01*
X10Y2667D02*
X17Y2667D01*
X2941Y2667D02*
X2948Y2667D01*
X9Y2666D02*
X16Y2666D01*
X2941Y2666D02*
X2949Y2666D01*
X9Y2665D02*
X16Y2665D01*
X2942Y2665D02*
X2949Y2665D01*
X9Y2664D02*
X16Y2664D01*
X2942Y2664D02*
X2949Y2664D01*
X9Y2663D02*
X16Y2663D01*
X2942Y2663D02*
X2949Y2663D01*
X9Y2662D02*
X16Y2662D01*
X2942Y2662D02*
X2949Y2662D01*
X8Y2661D02*
X15Y2661D01*
X2943Y2661D02*
X2950Y2661D01*
X8Y2660D02*
X15Y2660D01*
X2943Y2660D02*
X2950Y2660D01*
X8Y2659D02*
X15Y2659D01*
X2943Y2659D02*
X2950Y2659D01*
X8Y2658D02*
X15Y2658D01*
X2943Y2658D02*
X2950Y2658D01*
X8Y2657D02*
X15Y2657D01*
X2943Y2657D02*
X2950Y2657D01*
X7Y2656D02*
X14Y2656D01*
X2944Y2656D02*
X2951Y2656D01*
X7Y2655D02*
X14Y2655D01*
X2944Y2655D02*
X2951Y2655D01*
X7Y2654D02*
X14Y2654D01*
X2944Y2654D02*
X2951Y2654D01*
X7Y2653D02*
X14Y2653D01*
X2944Y2653D02*
X2951Y2653D01*
X7Y2652D02*
X14Y2652D01*
X2944Y2652D02*
X2951Y2652D01*
X6Y2651D02*
X13Y2651D01*
X2945Y2651D02*
X2952Y2651D01*
X6Y2650D02*
X13Y2650D01*
X2945Y2650D02*
X2952Y2650D01*
X6Y2649D02*
X13Y2649D01*
X2945Y2649D02*
X2952Y2649D01*
X6Y2648D02*
X13Y2648D01*
X2945Y2648D02*
X2952Y2648D01*
X6Y2647D02*
X13Y2647D01*
X2945Y2647D02*
X2952Y2647D01*
X5Y2646D02*
X13Y2646D01*
X2945Y2646D02*
X2952Y2646D01*
X5Y2645D02*
X12Y2645D01*
X2946Y2645D02*
X2953Y2645D01*
X5Y2644D02*
X12Y2644D01*
X2946Y2644D02*
X2953Y2644D01*
X5Y2643D02*
X12Y2643D01*
X2946Y2643D02*
X2953Y2643D01*
X5Y2642D02*
X12Y2642D01*
X2946Y2642D02*
X2953Y2642D01*
X5Y2641D02*
X12Y2641D01*
X2946Y2641D02*
X2953Y2641D01*
X5Y2640D02*
X12Y2640D01*
X2946Y2640D02*
X2953Y2640D01*
X4Y2639D02*
X11Y2639D01*
X2947Y2639D02*
X2954Y2639D01*
X4Y2638D02*
X11Y2638D01*
X2947Y2638D02*
X2954Y2638D01*
X4Y2637D02*
X11Y2637D01*
X2947Y2637D02*
X2954Y2637D01*
X4Y2636D02*
X11Y2636D01*
X2947Y2636D02*
X2954Y2636D01*
X4Y2635D02*
X11Y2635D01*
X2947Y2635D02*
X2954Y2635D01*
X4Y2634D02*
X11Y2634D01*
X2947Y2634D02*
X2954Y2634D01*
X4Y2633D02*
X11Y2633D01*
X2947Y2633D02*
X2954Y2633D01*
X3Y2632D02*
X10Y2632D01*
X2948Y2632D02*
X2955Y2632D01*
X3Y2631D02*
X10Y2631D01*
X2948Y2631D02*
X2955Y2631D01*
X3Y2630D02*
X10Y2630D01*
X2948Y2630D02*
X2955Y2630D01*
X3Y2629D02*
X10Y2629D01*
X2948Y2629D02*
X2955Y2629D01*
X3Y2628D02*
X10Y2628D01*
X2948Y2628D02*
X2955Y2628D01*
X3Y2627D02*
X10Y2627D01*
X2948Y2627D02*
X2955Y2627D01*
X3Y2626D02*
X10Y2626D01*
X2948Y2626D02*
X2955Y2626D01*
X3Y2625D02*
X10Y2625D01*
X2948Y2625D02*
X2955Y2625D01*
X2Y2624D02*
X9Y2624D01*
X2949Y2624D02*
X2956Y2624D01*
X2Y2623D02*
X9Y2623D01*
X2949Y2623D02*
X2956Y2623D01*
X2Y2622D02*
X9Y2622D01*
X2949Y2622D02*
X2956Y2622D01*
X2Y2621D02*
X9Y2621D01*
X2949Y2621D02*
X2956Y2621D01*
X2Y2620D02*
X9Y2620D01*
X2949Y2620D02*
X2956Y2620D01*
X2Y2619D02*
X9Y2619D01*
X2949Y2619D02*
X2956Y2619D01*
X2Y2618D02*
X9Y2618D01*
X2949Y2618D02*
X2956Y2618D01*
X2Y2617D02*
X9Y2617D01*
X2949Y2617D02*
X2956Y2617D01*
X2Y2616D02*
X9Y2616D01*
X2949Y2616D02*
X2956Y2616D01*
X2Y2615D02*
X9Y2615D01*
X2949Y2615D02*
X2956Y2615D01*
X1Y2614D02*
X8Y2614D01*
X2950Y2614D02*
X2957Y2614D01*
X1Y2613D02*
X8Y2613D01*
X2950Y2613D02*
X2957Y2613D01*
X1Y2612D02*
X8Y2612D01*
X2950Y2612D02*
X2957Y2612D01*
X1Y2611D02*
X8Y2611D01*
X2950Y2611D02*
X2957Y2611D01*
X1Y2610D02*
X8Y2610D01*
X2950Y2610D02*
X2957Y2610D01*
X1Y2609D02*
X8Y2609D01*
X2950Y2609D02*
X2957Y2609D01*
X1Y2608D02*
X8Y2608D01*
X2950Y2608D02*
X2957Y2608D01*
X1Y2607D02*
X8Y2607D01*
X2950Y2607D02*
X2957Y2607D01*
X1Y2606D02*
X8Y2606D01*
X2950Y2606D02*
X2957Y2606D01*
X1Y2605D02*
X8Y2605D01*
X2950Y2605D02*
X2957Y2605D01*
X1Y2604D02*
X8Y2604D01*
X2950Y2604D02*
X2957Y2604D01*
X1Y2603D02*
X8Y2603D01*
X2950Y2603D02*
X2957Y2603D01*
X1Y2602D02*
X8Y2602D01*
X2950Y2602D02*
X2957Y2602D01*
X1Y2601D02*
X8Y2601D01*
X2950Y2601D02*
X2957Y2601D01*
X0Y2600D02*
X7Y2600D01*
X2951Y2600D02*
X2958Y2600D01*
X0Y2599D02*
X7Y2599D01*
X2951Y2599D02*
X2958Y2599D01*
X0Y2598D02*
X7Y2598D01*
X2951Y2598D02*
X2958Y2598D01*
X0Y2597D02*
X7Y2597D01*
X2951Y2597D02*
X2958Y2597D01*
X0Y2596D02*
X7Y2596D01*
X2951Y2596D02*
X2958Y2596D01*
X0Y2595D02*
X7Y2595D01*
X2951Y2595D02*
X2958Y2595D01*
X0Y2594D02*
X7Y2594D01*
X2951Y2594D02*
X2958Y2594D01*
X0Y2593D02*
X7Y2593D01*
X2951Y2593D02*
X2958Y2593D01*
X0Y2592D02*
X7Y2592D01*
X2951Y2592D02*
X2958Y2592D01*
X0Y2591D02*
X7Y2591D01*
X2951Y2591D02*
X2958Y2591D01*
X0Y2590D02*
X7Y2590D01*
X2951Y2590D02*
X2958Y2590D01*
X0Y2589D02*
X7Y2589D01*
X2951Y2589D02*
X2958Y2589D01*
X0Y2588D02*
X7Y2588D01*
X2951Y2588D02*
X2958Y2588D01*
X0Y2587D02*
X7Y2587D01*
X2951Y2587D02*
X2958Y2587D01*
X0Y2586D02*
X7Y2586D01*
X2951Y2586D02*
X2958Y2586D01*
X0Y2585D02*
X7Y2585D01*
X2951Y2585D02*
X2958Y2585D01*
X0Y2584D02*
X7Y2584D01*
X2951Y2584D02*
X2958Y2584D01*
X0Y2583D02*
X7Y2583D01*
X2951Y2583D02*
X2958Y2583D01*
X0Y2582D02*
X7Y2582D01*
X2951Y2582D02*
X2958Y2582D01*
X0Y2581D02*
X7Y2581D01*
X2951Y2581D02*
X2958Y2581D01*
X0Y2580D02*
X7Y2580D01*
X2951Y2580D02*
X2958Y2580D01*
X0Y2579D02*
X7Y2579D01*
X2951Y2579D02*
X2958Y2579D01*
X0Y2578D02*
X7Y2578D01*
X2951Y2578D02*
X2958Y2578D01*
X0Y2577D02*
X7Y2577D01*
X2951Y2577D02*
X2958Y2577D01*
X0Y2576D02*
X7Y2576D01*
X2951Y2576D02*
X2958Y2576D01*
X0Y2575D02*
X7Y2575D01*
X2951Y2575D02*
X2958Y2575D01*
X0Y2574D02*
X7Y2574D01*
X2951Y2574D02*
X2958Y2574D01*
X0Y2573D02*
X7Y2573D01*
X2951Y2573D02*
X2958Y2573D01*
X0Y2572D02*
X7Y2572D01*
X2951Y2572D02*
X2958Y2572D01*
X0Y2571D02*
X7Y2571D01*
X2951Y2571D02*
X2958Y2571D01*
X0Y2570D02*
X7Y2570D01*
X2951Y2570D02*
X2958Y2570D01*
X0Y2569D02*
X7Y2569D01*
X2951Y2569D02*
X2958Y2569D01*
X0Y2568D02*
X7Y2568D01*
X2951Y2568D02*
X2958Y2568D01*
X0Y2567D02*
X7Y2567D01*
X2951Y2567D02*
X2958Y2567D01*
X0Y2566D02*
X7Y2566D01*
X2951Y2566D02*
X2958Y2566D01*
X0Y2565D02*
X7Y2565D01*
X2951Y2565D02*
X2958Y2565D01*
X0Y2564D02*
X7Y2564D01*
X2951Y2564D02*
X2958Y2564D01*
X0Y2563D02*
X7Y2563D01*
X2951Y2563D02*
X2958Y2563D01*
X0Y2562D02*
X7Y2562D01*
X2951Y2562D02*
X2958Y2562D01*
X0Y2561D02*
X7Y2561D01*
X2951Y2561D02*
X2958Y2561D01*
X0Y2560D02*
X7Y2560D01*
X2951Y2560D02*
X2958Y2560D01*
X0Y2559D02*
X7Y2559D01*
X2951Y2559D02*
X2958Y2559D01*
X0Y2558D02*
X7Y2558D01*
X2951Y2558D02*
X2958Y2558D01*
X0Y2557D02*
X7Y2557D01*
X2951Y2557D02*
X2958Y2557D01*
X0Y2556D02*
X7Y2556D01*
X2951Y2556D02*
X2958Y2556D01*
X0Y2555D02*
X7Y2555D01*
X2951Y2555D02*
X2958Y2555D01*
X0Y2554D02*
X7Y2554D01*
X2951Y2554D02*
X2958Y2554D01*
X0Y2553D02*
X7Y2553D01*
X2951Y2553D02*
X2958Y2553D01*
X0Y2552D02*
X7Y2552D01*
X2951Y2552D02*
X2958Y2552D01*
X0Y2551D02*
X7Y2551D01*
X2951Y2551D02*
X2958Y2551D01*
X0Y2550D02*
X7Y2550D01*
X2951Y2550D02*
X2958Y2550D01*
X0Y2549D02*
X7Y2549D01*
X2951Y2549D02*
X2958Y2549D01*
X0Y2548D02*
X7Y2548D01*
X2951Y2548D02*
X2958Y2548D01*
X0Y2547D02*
X7Y2547D01*
X2951Y2547D02*
X2958Y2547D01*
X0Y2546D02*
X7Y2546D01*
X2951Y2546D02*
X2958Y2546D01*
X0Y2545D02*
X7Y2545D01*
X2951Y2545D02*
X2958Y2545D01*
X0Y2544D02*
X7Y2544D01*
X2951Y2544D02*
X2958Y2544D01*
X0Y2543D02*
X7Y2543D01*
X2951Y2543D02*
X2958Y2543D01*
X0Y2542D02*
X7Y2542D01*
X2951Y2542D02*
X2958Y2542D01*
X0Y2541D02*
X7Y2541D01*
X2951Y2541D02*
X2958Y2541D01*
X0Y2540D02*
X7Y2540D01*
X2951Y2540D02*
X2958Y2540D01*
X0Y2539D02*
X7Y2539D01*
X2951Y2539D02*
X2958Y2539D01*
X0Y2538D02*
X7Y2538D01*
X2951Y2538D02*
X2958Y2538D01*
X0Y2537D02*
X7Y2537D01*
X2951Y2537D02*
X2958Y2537D01*
X0Y2536D02*
X7Y2536D01*
X2951Y2536D02*
X2958Y2536D01*
X0Y2535D02*
X7Y2535D01*
X2951Y2535D02*
X2958Y2535D01*
X0Y2534D02*
X7Y2534D01*
X2951Y2534D02*
X2958Y2534D01*
X0Y2533D02*
X7Y2533D01*
X2951Y2533D02*
X2958Y2533D01*
X0Y2532D02*
X7Y2532D01*
X2951Y2532D02*
X2958Y2532D01*
X0Y2531D02*
X7Y2531D01*
X2951Y2531D02*
X2958Y2531D01*
X0Y2530D02*
X7Y2530D01*
X2951Y2530D02*
X2958Y2530D01*
X0Y2529D02*
X7Y2529D01*
X2951Y2529D02*
X2958Y2529D01*
X0Y2528D02*
X7Y2528D01*
X2951Y2528D02*
X2958Y2528D01*
X0Y2527D02*
X7Y2527D01*
X2951Y2527D02*
X2958Y2527D01*
X0Y2526D02*
X7Y2526D01*
X2951Y2526D02*
X2958Y2526D01*
X0Y2525D02*
X7Y2525D01*
X2951Y2525D02*
X2958Y2525D01*
X0Y2524D02*
X7Y2524D01*
X2951Y2524D02*
X2958Y2524D01*
X0Y2523D02*
X7Y2523D01*
X2951Y2523D02*
X2958Y2523D01*
X0Y2522D02*
X7Y2522D01*
X2951Y2522D02*
X2958Y2522D01*
X0Y2521D02*
X7Y2521D01*
X2951Y2521D02*
X2958Y2521D01*
X0Y2520D02*
X7Y2520D01*
X2951Y2520D02*
X2958Y2520D01*
X0Y2519D02*
X7Y2519D01*
X2951Y2519D02*
X2958Y2519D01*
X0Y2518D02*
X7Y2518D01*
X2951Y2518D02*
X2958Y2518D01*
X0Y2517D02*
X7Y2517D01*
X2951Y2517D02*
X2958Y2517D01*
X0Y2516D02*
X7Y2516D01*
X2951Y2516D02*
X2958Y2516D01*
X0Y2515D02*
X7Y2515D01*
X2951Y2515D02*
X2958Y2515D01*
X0Y2514D02*
X7Y2514D01*
X2951Y2514D02*
X2958Y2514D01*
X0Y2513D02*
X7Y2513D01*
X2951Y2513D02*
X2958Y2513D01*
X0Y2512D02*
X7Y2512D01*
X2951Y2512D02*
X2958Y2512D01*
X0Y2511D02*
X7Y2511D01*
X2951Y2511D02*
X2958Y2511D01*
X0Y2510D02*
X7Y2510D01*
X2951Y2510D02*
X2958Y2510D01*
X0Y2509D02*
X7Y2509D01*
X2951Y2509D02*
X2958Y2509D01*
X0Y2508D02*
X7Y2508D01*
X2951Y2508D02*
X2958Y2508D01*
X0Y2507D02*
X7Y2507D01*
X2951Y2507D02*
X2958Y2507D01*
X0Y2506D02*
X7Y2506D01*
X2951Y2506D02*
X2958Y2506D01*
X0Y2505D02*
X7Y2505D01*
X2951Y2505D02*
X2958Y2505D01*
X0Y2504D02*
X7Y2504D01*
X2951Y2504D02*
X2958Y2504D01*
X0Y2503D02*
X7Y2503D01*
X2951Y2503D02*
X2958Y2503D01*
X0Y2502D02*
X7Y2502D01*
X2951Y2502D02*
X2958Y2502D01*
X0Y2501D02*
X7Y2501D01*
X2951Y2501D02*
X2958Y2501D01*
X0Y2500D02*
X7Y2500D01*
X2951Y2500D02*
X2958Y2500D01*
X0Y2499D02*
X7Y2499D01*
X2951Y2499D02*
X2958Y2499D01*
X0Y2498D02*
X7Y2498D01*
X2951Y2498D02*
X2958Y2498D01*
X0Y2497D02*
X7Y2497D01*
X2951Y2497D02*
X2958Y2497D01*
X0Y2496D02*
X7Y2496D01*
X2951Y2496D02*
X2958Y2496D01*
X0Y2495D02*
X7Y2495D01*
X2951Y2495D02*
X2958Y2495D01*
X0Y2494D02*
X7Y2494D01*
X2951Y2494D02*
X2958Y2494D01*
X0Y2493D02*
X7Y2493D01*
X2951Y2493D02*
X2958Y2493D01*
X0Y2492D02*
X7Y2492D01*
X2951Y2492D02*
X2958Y2492D01*
X0Y2491D02*
X7Y2491D01*
X2951Y2491D02*
X2958Y2491D01*
X0Y2490D02*
X7Y2490D01*
X2951Y2490D02*
X2958Y2490D01*
X0Y2489D02*
X7Y2489D01*
X2951Y2489D02*
X2958Y2489D01*
X0Y2488D02*
X7Y2488D01*
X2951Y2488D02*
X2958Y2488D01*
X0Y2487D02*
X7Y2487D01*
X2951Y2487D02*
X2958Y2487D01*
X0Y2486D02*
X7Y2486D01*
X2951Y2486D02*
X2958Y2486D01*
X0Y2485D02*
X7Y2485D01*
X2951Y2485D02*
X2958Y2485D01*
X0Y2484D02*
X7Y2484D01*
X2951Y2484D02*
X2958Y2484D01*
X0Y2483D02*
X7Y2483D01*
X2951Y2483D02*
X2958Y2483D01*
X0Y2482D02*
X7Y2482D01*
X2951Y2482D02*
X2958Y2482D01*
X0Y2481D02*
X7Y2481D01*
X2951Y2481D02*
X2958Y2481D01*
X0Y2480D02*
X7Y2480D01*
X2951Y2480D02*
X2958Y2480D01*
X0Y2479D02*
X7Y2479D01*
X2951Y2479D02*
X2958Y2479D01*
X0Y2478D02*
X7Y2478D01*
X2951Y2478D02*
X2958Y2478D01*
X0Y2477D02*
X7Y2477D01*
X2951Y2477D02*
X2958Y2477D01*
X0Y2476D02*
X7Y2476D01*
X2951Y2476D02*
X2958Y2476D01*
X0Y2475D02*
X7Y2475D01*
X2951Y2475D02*
X2958Y2475D01*
X0Y2474D02*
X7Y2474D01*
X2951Y2474D02*
X2958Y2474D01*
X0Y2473D02*
X7Y2473D01*
X2951Y2473D02*
X2958Y2473D01*
X0Y2472D02*
X7Y2472D01*
X2951Y2472D02*
X2958Y2472D01*
X0Y2471D02*
X7Y2471D01*
X2951Y2471D02*
X2958Y2471D01*
X0Y2470D02*
X7Y2470D01*
X2951Y2470D02*
X2958Y2470D01*
X0Y2469D02*
X7Y2469D01*
X2951Y2469D02*
X2958Y2469D01*
X0Y2468D02*
X7Y2468D01*
X2951Y2468D02*
X2958Y2468D01*
X0Y2467D02*
X7Y2467D01*
X2951Y2467D02*
X2958Y2467D01*
X0Y2466D02*
X7Y2466D01*
X2951Y2466D02*
X2958Y2466D01*
X0Y2465D02*
X7Y2465D01*
X2951Y2465D02*
X2958Y2465D01*
X0Y2464D02*
X7Y2464D01*
X2951Y2464D02*
X2958Y2464D01*
X0Y2463D02*
X7Y2463D01*
X2951Y2463D02*
X2958Y2463D01*
X0Y2462D02*
X7Y2462D01*
X2951Y2462D02*
X2958Y2462D01*
X0Y2461D02*
X7Y2461D01*
X2951Y2461D02*
X2958Y2461D01*
X0Y2460D02*
X7Y2460D01*
X2951Y2460D02*
X2958Y2460D01*
X0Y2459D02*
X7Y2459D01*
X2951Y2459D02*
X2958Y2459D01*
X0Y2458D02*
X7Y2458D01*
X2951Y2458D02*
X2958Y2458D01*
X0Y2457D02*
X7Y2457D01*
X2951Y2457D02*
X2958Y2457D01*
X0Y2456D02*
X7Y2456D01*
X2951Y2456D02*
X2958Y2456D01*
X0Y2455D02*
X7Y2455D01*
X2951Y2455D02*
X2958Y2455D01*
X0Y2454D02*
X7Y2454D01*
X2951Y2454D02*
X2958Y2454D01*
X0Y2453D02*
X7Y2453D01*
X2951Y2453D02*
X2958Y2453D01*
X0Y2452D02*
X7Y2452D01*
X2951Y2452D02*
X2958Y2452D01*
X0Y2451D02*
X7Y2451D01*
X2951Y2451D02*
X2958Y2451D01*
X0Y2450D02*
X7Y2450D01*
X2951Y2450D02*
X2958Y2450D01*
X0Y2449D02*
X7Y2449D01*
X2951Y2449D02*
X2958Y2449D01*
X0Y2448D02*
X7Y2448D01*
X2951Y2448D02*
X2958Y2448D01*
X0Y2447D02*
X7Y2447D01*
X2951Y2447D02*
X2958Y2447D01*
X0Y2446D02*
X7Y2446D01*
X2951Y2446D02*
X2958Y2446D01*
X0Y2445D02*
X7Y2445D01*
X2951Y2445D02*
X2958Y2445D01*
X0Y2444D02*
X7Y2444D01*
X2951Y2444D02*
X2958Y2444D01*
X0Y2443D02*
X7Y2443D01*
X2951Y2443D02*
X2958Y2443D01*
X0Y2442D02*
X7Y2442D01*
X2951Y2442D02*
X2958Y2442D01*
X0Y2441D02*
X7Y2441D01*
X2951Y2441D02*
X2958Y2441D01*
X0Y2440D02*
X7Y2440D01*
X2951Y2440D02*
X2958Y2440D01*
X0Y2439D02*
X7Y2439D01*
X2951Y2439D02*
X2958Y2439D01*
X0Y2438D02*
X7Y2438D01*
X2951Y2438D02*
X2958Y2438D01*
X0Y2437D02*
X7Y2437D01*
X2951Y2437D02*
X2958Y2437D01*
X0Y2436D02*
X7Y2436D01*
X2951Y2436D02*
X2958Y2436D01*
X0Y2435D02*
X7Y2435D01*
X2951Y2435D02*
X2958Y2435D01*
X0Y2434D02*
X7Y2434D01*
X2951Y2434D02*
X2958Y2434D01*
X0Y2433D02*
X7Y2433D01*
X2951Y2433D02*
X2958Y2433D01*
X0Y2432D02*
X7Y2432D01*
X2951Y2432D02*
X2958Y2432D01*
X0Y2431D02*
X7Y2431D01*
X2951Y2431D02*
X2958Y2431D01*
X0Y2430D02*
X7Y2430D01*
X2951Y2430D02*
X2958Y2430D01*
X0Y2429D02*
X7Y2429D01*
X2951Y2429D02*
X2958Y2429D01*
X0Y2428D02*
X7Y2428D01*
X2951Y2428D02*
X2958Y2428D01*
X0Y2427D02*
X7Y2427D01*
X2951Y2427D02*
X2958Y2427D01*
X0Y2426D02*
X7Y2426D01*
X2951Y2426D02*
X2958Y2426D01*
X0Y2425D02*
X7Y2425D01*
X2951Y2425D02*
X2958Y2425D01*
X0Y2424D02*
X7Y2424D01*
X2951Y2424D02*
X2958Y2424D01*
X0Y2423D02*
X7Y2423D01*
X2951Y2423D02*
X2958Y2423D01*
X0Y2422D02*
X7Y2422D01*
X2951Y2422D02*
X2958Y2422D01*
X0Y2421D02*
X7Y2421D01*
X2951Y2421D02*
X2958Y2421D01*
X0Y2420D02*
X7Y2420D01*
X2951Y2420D02*
X2958Y2420D01*
X0Y2419D02*
X7Y2419D01*
X2951Y2419D02*
X2958Y2419D01*
X0Y2418D02*
X7Y2418D01*
X2951Y2418D02*
X2958Y2418D01*
X0Y2417D02*
X7Y2417D01*
X2951Y2417D02*
X2958Y2417D01*
X0Y2416D02*
X7Y2416D01*
X2951Y2416D02*
X2958Y2416D01*
X0Y2415D02*
X7Y2415D01*
X2951Y2415D02*
X2958Y2415D01*
X0Y2414D02*
X7Y2414D01*
X2951Y2414D02*
X2958Y2414D01*
X0Y2413D02*
X7Y2413D01*
X2951Y2413D02*
X2958Y2413D01*
X0Y2412D02*
X7Y2412D01*
X2951Y2412D02*
X2958Y2412D01*
X0Y2411D02*
X7Y2411D01*
X2951Y2411D02*
X2958Y2411D01*
X0Y2410D02*
X7Y2410D01*
X2951Y2410D02*
X2958Y2410D01*
X0Y2409D02*
X7Y2409D01*
X2951Y2409D02*
X2958Y2409D01*
X0Y2408D02*
X7Y2408D01*
X2951Y2408D02*
X2958Y2408D01*
X0Y2407D02*
X7Y2407D01*
X2951Y2407D02*
X2958Y2407D01*
X0Y2406D02*
X7Y2406D01*
X2951Y2406D02*
X2958Y2406D01*
X0Y2405D02*
X7Y2405D01*
X2951Y2405D02*
X2958Y2405D01*
X0Y2404D02*
X7Y2404D01*
X2951Y2404D02*
X2958Y2404D01*
X0Y2403D02*
X7Y2403D01*
X2951Y2403D02*
X2958Y2403D01*
X0Y2402D02*
X7Y2402D01*
X2951Y2402D02*
X2958Y2402D01*
X0Y2401D02*
X7Y2401D01*
X2951Y2401D02*
X2958Y2401D01*
X0Y2400D02*
X7Y2400D01*
X2951Y2400D02*
X2958Y2400D01*
X0Y2399D02*
X7Y2399D01*
X2951Y2399D02*
X2958Y2399D01*
X0Y2398D02*
X7Y2398D01*
X2951Y2398D02*
X2958Y2398D01*
X0Y2397D02*
X7Y2397D01*
X2951Y2397D02*
X2958Y2397D01*
X0Y2396D02*
X7Y2396D01*
X2951Y2396D02*
X2958Y2396D01*
X0Y2395D02*
X7Y2395D01*
X2951Y2395D02*
X2958Y2395D01*
X0Y2394D02*
X7Y2394D01*
X2951Y2394D02*
X2958Y2394D01*
X0Y2393D02*
X7Y2393D01*
X2951Y2393D02*
X2958Y2393D01*
X0Y2392D02*
X7Y2392D01*
X2951Y2392D02*
X2958Y2392D01*
X0Y2391D02*
X7Y2391D01*
X2951Y2391D02*
X2958Y2391D01*
X0Y2390D02*
X7Y2390D01*
X2951Y2390D02*
X2958Y2390D01*
X0Y2389D02*
X7Y2389D01*
X2951Y2389D02*
X2958Y2389D01*
X0Y2388D02*
X7Y2388D01*
X2951Y2388D02*
X2958Y2388D01*
X0Y2387D02*
X7Y2387D01*
X2951Y2387D02*
X2958Y2387D01*
X0Y2386D02*
X7Y2386D01*
X2951Y2386D02*
X2958Y2386D01*
X0Y2385D02*
X7Y2385D01*
X2951Y2385D02*
X2958Y2385D01*
X0Y2384D02*
X7Y2384D01*
X2951Y2384D02*
X2958Y2384D01*
X0Y2383D02*
X7Y2383D01*
X2951Y2383D02*
X2958Y2383D01*
X0Y2382D02*
X7Y2382D01*
X2951Y2382D02*
X2958Y2382D01*
X0Y2381D02*
X7Y2381D01*
X2951Y2381D02*
X2958Y2381D01*
X0Y2380D02*
X7Y2380D01*
X2951Y2380D02*
X2958Y2380D01*
X0Y2379D02*
X7Y2379D01*
X2951Y2379D02*
X2958Y2379D01*
X0Y2378D02*
X7Y2378D01*
X2951Y2378D02*
X2958Y2378D01*
X0Y2377D02*
X7Y2377D01*
X2951Y2377D02*
X2958Y2377D01*
X0Y2376D02*
X7Y2376D01*
X2951Y2376D02*
X2958Y2376D01*
X0Y2375D02*
X7Y2375D01*
X2951Y2375D02*
X2958Y2375D01*
X0Y2374D02*
X7Y2374D01*
X2951Y2374D02*
X2958Y2374D01*
X0Y2373D02*
X7Y2373D01*
X2951Y2373D02*
X2958Y2373D01*
X0Y2372D02*
X7Y2372D01*
X2951Y2372D02*
X2958Y2372D01*
X0Y2371D02*
X7Y2371D01*
X2951Y2371D02*
X2958Y2371D01*
X0Y2370D02*
X7Y2370D01*
X2951Y2370D02*
X2958Y2370D01*
X0Y2369D02*
X7Y2369D01*
X2951Y2369D02*
X2958Y2369D01*
X0Y2368D02*
X7Y2368D01*
X2951Y2368D02*
X2958Y2368D01*
X0Y2367D02*
X7Y2367D01*
X2951Y2367D02*
X2958Y2367D01*
X0Y2366D02*
X7Y2366D01*
X2951Y2366D02*
X2958Y2366D01*
X0Y2365D02*
X7Y2365D01*
X2951Y2365D02*
X2958Y2365D01*
X0Y2364D02*
X7Y2364D01*
X2951Y2364D02*
X2958Y2364D01*
X0Y2363D02*
X7Y2363D01*
X2951Y2363D02*
X2958Y2363D01*
X0Y2362D02*
X7Y2362D01*
X2951Y2362D02*
X2958Y2362D01*
X0Y2361D02*
X7Y2361D01*
X2951Y2361D02*
X2958Y2361D01*
X0Y2360D02*
X7Y2360D01*
X2951Y2360D02*
X2958Y2360D01*
X0Y2359D02*
X7Y2359D01*
X2951Y2359D02*
X2958Y2359D01*
X0Y2358D02*
X7Y2358D01*
X2951Y2358D02*
X2958Y2358D01*
X0Y2357D02*
X7Y2357D01*
X2951Y2357D02*
X2958Y2357D01*
X0Y2356D02*
X7Y2356D01*
X2951Y2356D02*
X2958Y2356D01*
X0Y2355D02*
X7Y2355D01*
X2951Y2355D02*
X2958Y2355D01*
X0Y2354D02*
X7Y2354D01*
X2951Y2354D02*
X2958Y2354D01*
X0Y2353D02*
X7Y2353D01*
X2951Y2353D02*
X2958Y2353D01*
X0Y2352D02*
X7Y2352D01*
X2951Y2352D02*
X2958Y2352D01*
X0Y2351D02*
X7Y2351D01*
X2951Y2351D02*
X2958Y2351D01*
X0Y2350D02*
X7Y2350D01*
X2951Y2350D02*
X2958Y2350D01*
X0Y2349D02*
X7Y2349D01*
X2951Y2349D02*
X2958Y2349D01*
X0Y2348D02*
X7Y2348D01*
X2951Y2348D02*
X2958Y2348D01*
X0Y2347D02*
X7Y2347D01*
X2951Y2347D02*
X2958Y2347D01*
X0Y2346D02*
X7Y2346D01*
X2951Y2346D02*
X2958Y2346D01*
X0Y2345D02*
X7Y2345D01*
X2951Y2345D02*
X2958Y2345D01*
X0Y2344D02*
X7Y2344D01*
X2951Y2344D02*
X2958Y2344D01*
X0Y2343D02*
X7Y2343D01*
X2951Y2343D02*
X2958Y2343D01*
X0Y2342D02*
X7Y2342D01*
X2951Y2342D02*
X2958Y2342D01*
X0Y2341D02*
X7Y2341D01*
X2951Y2341D02*
X2958Y2341D01*
X0Y2340D02*
X7Y2340D01*
X2951Y2340D02*
X2958Y2340D01*
X0Y2339D02*
X7Y2339D01*
X2951Y2339D02*
X2958Y2339D01*
X0Y2338D02*
X7Y2338D01*
X2951Y2338D02*
X2958Y2338D01*
X0Y2337D02*
X7Y2337D01*
X2951Y2337D02*
X2958Y2337D01*
X0Y2336D02*
X7Y2336D01*
X2951Y2336D02*
X2958Y2336D01*
X0Y2335D02*
X7Y2335D01*
X2951Y2335D02*
X2958Y2335D01*
X0Y2334D02*
X7Y2334D01*
X2951Y2334D02*
X2958Y2334D01*
X0Y2333D02*
X7Y2333D01*
X2951Y2333D02*
X2958Y2333D01*
X0Y2332D02*
X7Y2332D01*
X2951Y2332D02*
X2958Y2332D01*
X0Y2331D02*
X7Y2331D01*
X2951Y2331D02*
X2958Y2331D01*
X0Y2330D02*
X7Y2330D01*
X2951Y2330D02*
X2958Y2330D01*
X0Y2329D02*
X7Y2329D01*
X2951Y2329D02*
X2958Y2329D01*
X0Y2328D02*
X7Y2328D01*
X2951Y2328D02*
X2958Y2328D01*
X0Y2327D02*
X7Y2327D01*
X2951Y2327D02*
X2958Y2327D01*
X0Y2326D02*
X7Y2326D01*
X2951Y2326D02*
X2958Y2326D01*
X0Y2325D02*
X7Y2325D01*
X2951Y2325D02*
X2958Y2325D01*
X0Y2324D02*
X7Y2324D01*
X2951Y2324D02*
X2958Y2324D01*
X0Y2323D02*
X7Y2323D01*
X2951Y2323D02*
X2958Y2323D01*
X0Y2322D02*
X7Y2322D01*
X2951Y2322D02*
X2958Y2322D01*
X0Y2321D02*
X7Y2321D01*
X2951Y2321D02*
X2958Y2321D01*
X0Y2320D02*
X7Y2320D01*
X2951Y2320D02*
X2958Y2320D01*
X0Y2319D02*
X7Y2319D01*
X2951Y2319D02*
X2958Y2319D01*
X0Y2318D02*
X7Y2318D01*
X2951Y2318D02*
X2958Y2318D01*
X0Y2317D02*
X7Y2317D01*
X2951Y2317D02*
X2958Y2317D01*
X0Y2316D02*
X7Y2316D01*
X2951Y2316D02*
X2958Y2316D01*
X0Y2315D02*
X7Y2315D01*
X2951Y2315D02*
X2958Y2315D01*
X0Y2314D02*
X7Y2314D01*
X2951Y2314D02*
X2958Y2314D01*
X0Y2313D02*
X7Y2313D01*
X2951Y2313D02*
X2958Y2313D01*
X0Y2312D02*
X7Y2312D01*
X2951Y2312D02*
X2958Y2312D01*
X0Y2311D02*
X7Y2311D01*
X2951Y2311D02*
X2958Y2311D01*
X0Y2310D02*
X7Y2310D01*
X2951Y2310D02*
X2958Y2310D01*
X0Y2309D02*
X7Y2309D01*
X2951Y2309D02*
X2958Y2309D01*
X0Y2308D02*
X7Y2308D01*
X2951Y2308D02*
X2958Y2308D01*
X0Y2307D02*
X7Y2307D01*
X2951Y2307D02*
X2958Y2307D01*
X0Y2306D02*
X7Y2306D01*
X2951Y2306D02*
X2958Y2306D01*
X0Y2305D02*
X7Y2305D01*
X2951Y2305D02*
X2958Y2305D01*
X0Y2304D02*
X7Y2304D01*
X2951Y2304D02*
X2958Y2304D01*
X0Y2303D02*
X7Y2303D01*
X2951Y2303D02*
X2958Y2303D01*
X0Y2302D02*
X7Y2302D01*
X2951Y2302D02*
X2958Y2302D01*
X0Y2301D02*
X7Y2301D01*
X2951Y2301D02*
X2958Y2301D01*
X0Y2300D02*
X7Y2300D01*
X2951Y2300D02*
X2958Y2300D01*
X0Y2299D02*
X7Y2299D01*
X2951Y2299D02*
X2958Y2299D01*
X0Y2298D02*
X7Y2298D01*
X2951Y2298D02*
X2958Y2298D01*
X0Y2297D02*
X7Y2297D01*
X2951Y2297D02*
X2958Y2297D01*
X0Y2296D02*
X7Y2296D01*
X2951Y2296D02*
X2958Y2296D01*
X0Y2295D02*
X7Y2295D01*
X2951Y2295D02*
X2958Y2295D01*
X0Y2294D02*
X7Y2294D01*
X2951Y2294D02*
X2958Y2294D01*
X0Y2293D02*
X7Y2293D01*
X2951Y2293D02*
X2958Y2293D01*
X0Y2292D02*
X7Y2292D01*
X2951Y2292D02*
X2958Y2292D01*
X0Y2291D02*
X7Y2291D01*
X2951Y2291D02*
X2958Y2291D01*
X0Y2290D02*
X7Y2290D01*
X2951Y2290D02*
X2958Y2290D01*
X0Y2289D02*
X7Y2289D01*
X2951Y2289D02*
X2958Y2289D01*
X0Y2288D02*
X7Y2288D01*
X2951Y2288D02*
X2958Y2288D01*
X0Y2287D02*
X7Y2287D01*
X2951Y2287D02*
X2958Y2287D01*
X0Y2286D02*
X7Y2286D01*
X2951Y2286D02*
X2958Y2286D01*
X0Y2285D02*
X7Y2285D01*
X2951Y2285D02*
X2958Y2285D01*
X0Y2284D02*
X7Y2284D01*
X2951Y2284D02*
X2958Y2284D01*
X0Y2283D02*
X7Y2283D01*
X2951Y2283D02*
X2958Y2283D01*
X0Y2282D02*
X7Y2282D01*
X2951Y2282D02*
X2958Y2282D01*
X0Y2281D02*
X7Y2281D01*
X2951Y2281D02*
X2958Y2281D01*
X0Y2280D02*
X7Y2280D01*
X2951Y2280D02*
X2958Y2280D01*
X0Y2279D02*
X7Y2279D01*
X2951Y2279D02*
X2958Y2279D01*
X0Y2278D02*
X7Y2278D01*
X2951Y2278D02*
X2958Y2278D01*
X0Y2277D02*
X7Y2277D01*
X2951Y2277D02*
X2958Y2277D01*
X0Y2276D02*
X7Y2276D01*
X2951Y2276D02*
X2958Y2276D01*
X0Y2275D02*
X7Y2275D01*
X2951Y2275D02*
X2958Y2275D01*
X0Y2274D02*
X7Y2274D01*
X2951Y2274D02*
X2958Y2274D01*
X0Y2273D02*
X7Y2273D01*
X2951Y2273D02*
X2958Y2273D01*
X0Y2272D02*
X7Y2272D01*
X2951Y2272D02*
X2958Y2272D01*
X0Y2271D02*
X7Y2271D01*
X2951Y2271D02*
X2958Y2271D01*
X0Y2270D02*
X7Y2270D01*
X2951Y2270D02*
X2958Y2270D01*
X0Y2269D02*
X7Y2269D01*
X2951Y2269D02*
X2958Y2269D01*
X0Y2268D02*
X7Y2268D01*
X2951Y2268D02*
X2958Y2268D01*
X0Y2267D02*
X7Y2267D01*
X2951Y2267D02*
X2958Y2267D01*
X0Y2266D02*
X7Y2266D01*
X2951Y2266D02*
X2958Y2266D01*
X0Y2265D02*
X7Y2265D01*
X2951Y2265D02*
X2958Y2265D01*
X0Y2264D02*
X7Y2264D01*
X2951Y2264D02*
X2958Y2264D01*
X0Y2263D02*
X7Y2263D01*
X2951Y2263D02*
X2958Y2263D01*
X0Y2262D02*
X7Y2262D01*
X2951Y2262D02*
X2958Y2262D01*
X0Y2261D02*
X7Y2261D01*
X2951Y2261D02*
X2958Y2261D01*
X0Y2260D02*
X7Y2260D01*
X2951Y2260D02*
X2958Y2260D01*
X0Y2259D02*
X7Y2259D01*
X2951Y2259D02*
X2958Y2259D01*
X0Y2258D02*
X7Y2258D01*
X2951Y2258D02*
X2958Y2258D01*
X0Y2257D02*
X7Y2257D01*
X2951Y2257D02*
X2958Y2257D01*
X0Y2256D02*
X7Y2256D01*
X2951Y2256D02*
X2958Y2256D01*
X0Y2255D02*
X7Y2255D01*
X2951Y2255D02*
X2958Y2255D01*
X0Y2254D02*
X7Y2254D01*
X2951Y2254D02*
X2958Y2254D01*
X0Y2253D02*
X7Y2253D01*
X2951Y2253D02*
X2958Y2253D01*
X0Y2252D02*
X7Y2252D01*
X2951Y2252D02*
X2958Y2252D01*
X0Y2251D02*
X7Y2251D01*
X2951Y2251D02*
X2958Y2251D01*
X0Y2250D02*
X7Y2250D01*
X2951Y2250D02*
X2958Y2250D01*
X0Y2249D02*
X7Y2249D01*
X2951Y2249D02*
X2958Y2249D01*
X0Y2248D02*
X7Y2248D01*
X2951Y2248D02*
X2958Y2248D01*
X0Y2247D02*
X7Y2247D01*
X2951Y2247D02*
X2958Y2247D01*
X0Y2246D02*
X7Y2246D01*
X2951Y2246D02*
X2958Y2246D01*
X0Y2245D02*
X7Y2245D01*
X2951Y2245D02*
X2958Y2245D01*
X0Y2244D02*
X7Y2244D01*
X2951Y2244D02*
X2958Y2244D01*
X0Y2243D02*
X7Y2243D01*
X2951Y2243D02*
X2958Y2243D01*
X0Y2242D02*
X7Y2242D01*
X2951Y2242D02*
X2958Y2242D01*
X0Y2241D02*
X7Y2241D01*
X2951Y2241D02*
X2958Y2241D01*
X0Y2240D02*
X7Y2240D01*
X2951Y2240D02*
X2958Y2240D01*
X0Y2239D02*
X7Y2239D01*
X2951Y2239D02*
X2958Y2239D01*
X0Y2238D02*
X7Y2238D01*
X2951Y2238D02*
X2958Y2238D01*
X0Y2237D02*
X7Y2237D01*
X2951Y2237D02*
X2958Y2237D01*
X0Y2236D02*
X7Y2236D01*
X2951Y2236D02*
X2958Y2236D01*
X0Y2235D02*
X7Y2235D01*
X2951Y2235D02*
X2958Y2235D01*
X0Y2234D02*
X7Y2234D01*
X2951Y2234D02*
X2958Y2234D01*
X0Y2233D02*
X7Y2233D01*
X2951Y2233D02*
X2958Y2233D01*
X0Y2232D02*
X7Y2232D01*
X2951Y2232D02*
X2958Y2232D01*
X0Y2231D02*
X7Y2231D01*
X2951Y2231D02*
X2958Y2231D01*
X0Y2230D02*
X7Y2230D01*
X2951Y2230D02*
X2958Y2230D01*
X0Y2229D02*
X7Y2229D01*
X2951Y2229D02*
X2958Y2229D01*
X0Y2228D02*
X7Y2228D01*
X2951Y2228D02*
X2958Y2228D01*
X0Y2227D02*
X7Y2227D01*
X2951Y2227D02*
X2958Y2227D01*
X0Y2226D02*
X7Y2226D01*
X2951Y2226D02*
X2958Y2226D01*
X0Y2225D02*
X7Y2225D01*
X2951Y2225D02*
X2958Y2225D01*
X0Y2224D02*
X7Y2224D01*
X2951Y2224D02*
X2958Y2224D01*
X0Y2223D02*
X7Y2223D01*
X2951Y2223D02*
X2958Y2223D01*
X0Y2222D02*
X7Y2222D01*
X2951Y2222D02*
X2958Y2222D01*
X0Y2221D02*
X7Y2221D01*
X2951Y2221D02*
X2958Y2221D01*
X0Y2220D02*
X7Y2220D01*
X2951Y2220D02*
X2958Y2220D01*
X0Y2219D02*
X7Y2219D01*
X2951Y2219D02*
X2958Y2219D01*
X0Y2218D02*
X7Y2218D01*
X2951Y2218D02*
X2958Y2218D01*
X0Y2217D02*
X7Y2217D01*
X2951Y2217D02*
X2958Y2217D01*
X0Y2216D02*
X7Y2216D01*
X2951Y2216D02*
X2958Y2216D01*
X0Y2215D02*
X7Y2215D01*
X2951Y2215D02*
X2958Y2215D01*
X0Y2214D02*
X7Y2214D01*
X2951Y2214D02*
X2958Y2214D01*
X0Y2213D02*
X7Y2213D01*
X2951Y2213D02*
X2958Y2213D01*
X0Y2212D02*
X7Y2212D01*
X2951Y2212D02*
X2958Y2212D01*
X0Y2211D02*
X7Y2211D01*
X2951Y2211D02*
X2958Y2211D01*
X0Y2210D02*
X7Y2210D01*
X2951Y2210D02*
X2958Y2210D01*
X0Y2209D02*
X7Y2209D01*
X2951Y2209D02*
X2958Y2209D01*
X0Y2208D02*
X7Y2208D01*
X2951Y2208D02*
X2958Y2208D01*
X0Y2207D02*
X7Y2207D01*
X2951Y2207D02*
X2958Y2207D01*
X0Y2206D02*
X7Y2206D01*
X2951Y2206D02*
X2958Y2206D01*
X0Y2205D02*
X7Y2205D01*
X2951Y2205D02*
X2958Y2205D01*
X0Y2204D02*
X7Y2204D01*
X2951Y2204D02*
X2958Y2204D01*
X0Y2203D02*
X7Y2203D01*
X2951Y2203D02*
X2958Y2203D01*
X0Y2202D02*
X7Y2202D01*
X2951Y2202D02*
X2958Y2202D01*
X0Y2201D02*
X7Y2201D01*
X2951Y2201D02*
X2958Y2201D01*
X0Y2200D02*
X7Y2200D01*
X2951Y2200D02*
X2958Y2200D01*
X0Y2199D02*
X7Y2199D01*
X2951Y2199D02*
X2958Y2199D01*
X0Y2198D02*
X7Y2198D01*
X2951Y2198D02*
X2958Y2198D01*
X0Y2197D02*
X7Y2197D01*
X2951Y2197D02*
X2958Y2197D01*
X0Y2196D02*
X7Y2196D01*
X2951Y2196D02*
X2958Y2196D01*
X0Y2195D02*
X7Y2195D01*
X2951Y2195D02*
X2958Y2195D01*
X0Y2194D02*
X7Y2194D01*
X2951Y2194D02*
X2958Y2194D01*
X0Y2193D02*
X7Y2193D01*
X2951Y2193D02*
X2958Y2193D01*
X0Y2192D02*
X7Y2192D01*
X2951Y2192D02*
X2958Y2192D01*
X0Y2191D02*
X7Y2191D01*
X2951Y2191D02*
X2958Y2191D01*
X0Y2190D02*
X7Y2190D01*
X2951Y2190D02*
X2958Y2190D01*
X0Y2189D02*
X7Y2189D01*
X2951Y2189D02*
X2958Y2189D01*
X0Y2188D02*
X7Y2188D01*
X2951Y2188D02*
X2958Y2188D01*
X0Y2187D02*
X7Y2187D01*
X2951Y2187D02*
X2958Y2187D01*
X0Y2186D02*
X7Y2186D01*
X2951Y2186D02*
X2958Y2186D01*
X0Y2185D02*
X7Y2185D01*
X2951Y2185D02*
X2958Y2185D01*
X0Y2184D02*
X7Y2184D01*
X2951Y2184D02*
X2958Y2184D01*
X0Y2183D02*
X7Y2183D01*
X2951Y2183D02*
X2958Y2183D01*
X0Y2182D02*
X7Y2182D01*
X2951Y2182D02*
X2958Y2182D01*
X0Y2181D02*
X7Y2181D01*
X2951Y2181D02*
X2958Y2181D01*
X0Y2180D02*
X7Y2180D01*
X2951Y2180D02*
X2958Y2180D01*
X0Y2179D02*
X7Y2179D01*
X2951Y2179D02*
X2958Y2179D01*
X0Y2178D02*
X7Y2178D01*
X2951Y2178D02*
X2958Y2178D01*
X0Y2177D02*
X7Y2177D01*
X2951Y2177D02*
X2958Y2177D01*
X0Y2176D02*
X7Y2176D01*
X2951Y2176D02*
X2958Y2176D01*
X0Y2175D02*
X7Y2175D01*
X2951Y2175D02*
X2958Y2175D01*
X0Y2174D02*
X7Y2174D01*
X2951Y2174D02*
X2958Y2174D01*
X0Y2173D02*
X7Y2173D01*
X2951Y2173D02*
X2958Y2173D01*
X0Y2172D02*
X7Y2172D01*
X2951Y2172D02*
X2958Y2172D01*
X0Y2171D02*
X7Y2171D01*
X2951Y2171D02*
X2958Y2171D01*
X0Y2170D02*
X7Y2170D01*
X2951Y2170D02*
X2958Y2170D01*
X0Y2169D02*
X7Y2169D01*
X2951Y2169D02*
X2958Y2169D01*
X0Y2168D02*
X7Y2168D01*
X2951Y2168D02*
X2958Y2168D01*
X0Y2167D02*
X7Y2167D01*
X2951Y2167D02*
X2958Y2167D01*
X0Y2166D02*
X7Y2166D01*
X2951Y2166D02*
X2958Y2166D01*
X0Y2165D02*
X7Y2165D01*
X2951Y2165D02*
X2958Y2165D01*
X0Y2164D02*
X7Y2164D01*
X2951Y2164D02*
X2958Y2164D01*
X0Y2163D02*
X7Y2163D01*
X2951Y2163D02*
X2958Y2163D01*
X0Y2162D02*
X7Y2162D01*
X2951Y2162D02*
X2958Y2162D01*
X0Y2161D02*
X7Y2161D01*
X2951Y2161D02*
X2958Y2161D01*
X0Y2160D02*
X7Y2160D01*
X2951Y2160D02*
X2958Y2160D01*
X0Y2159D02*
X7Y2159D01*
X2951Y2159D02*
X2958Y2159D01*
X0Y2158D02*
X7Y2158D01*
X2951Y2158D02*
X2958Y2158D01*
X0Y2157D02*
X7Y2157D01*
X2951Y2157D02*
X2958Y2157D01*
X0Y2156D02*
X7Y2156D01*
X2951Y2156D02*
X2958Y2156D01*
X0Y2155D02*
X7Y2155D01*
X2951Y2155D02*
X2958Y2155D01*
X0Y2154D02*
X7Y2154D01*
X2951Y2154D02*
X2958Y2154D01*
X0Y2153D02*
X7Y2153D01*
X2951Y2153D02*
X2958Y2153D01*
X0Y2152D02*
X7Y2152D01*
X2951Y2152D02*
X2958Y2152D01*
X0Y2151D02*
X7Y2151D01*
X2951Y2151D02*
X2958Y2151D01*
X0Y2150D02*
X7Y2150D01*
X2951Y2150D02*
X2958Y2150D01*
X0Y2149D02*
X7Y2149D01*
X2951Y2149D02*
X2958Y2149D01*
X0Y2148D02*
X7Y2148D01*
X2951Y2148D02*
X2958Y2148D01*
X0Y2147D02*
X7Y2147D01*
X2951Y2147D02*
X2958Y2147D01*
X0Y2146D02*
X7Y2146D01*
X2951Y2146D02*
X2958Y2146D01*
X0Y2145D02*
X7Y2145D01*
X2951Y2145D02*
X2958Y2145D01*
X0Y2144D02*
X7Y2144D01*
X2951Y2144D02*
X2958Y2144D01*
X0Y2143D02*
X7Y2143D01*
X2951Y2143D02*
X2958Y2143D01*
X0Y2142D02*
X7Y2142D01*
X2951Y2142D02*
X2958Y2142D01*
X0Y2141D02*
X7Y2141D01*
X2951Y2141D02*
X2958Y2141D01*
X0Y2140D02*
X7Y2140D01*
X2951Y2140D02*
X2958Y2140D01*
X0Y2139D02*
X7Y2139D01*
X2951Y2139D02*
X2958Y2139D01*
X0Y2138D02*
X7Y2138D01*
X2951Y2138D02*
X2958Y2138D01*
X0Y2137D02*
X7Y2137D01*
X2951Y2137D02*
X2958Y2137D01*
X0Y2136D02*
X7Y2136D01*
X2951Y2136D02*
X2958Y2136D01*
X0Y2135D02*
X7Y2135D01*
X2951Y2135D02*
X2958Y2135D01*
X0Y2134D02*
X7Y2134D01*
X2951Y2134D02*
X2958Y2134D01*
X0Y2133D02*
X7Y2133D01*
X2951Y2133D02*
X2958Y2133D01*
X0Y2132D02*
X7Y2132D01*
X2951Y2132D02*
X2958Y2132D01*
X0Y2131D02*
X7Y2131D01*
X2951Y2131D02*
X2958Y2131D01*
X0Y2130D02*
X7Y2130D01*
X2951Y2130D02*
X2958Y2130D01*
X0Y2129D02*
X7Y2129D01*
X2951Y2129D02*
X2958Y2129D01*
X0Y2128D02*
X7Y2128D01*
X2951Y2128D02*
X2958Y2128D01*
X0Y2127D02*
X7Y2127D01*
X2951Y2127D02*
X2958Y2127D01*
X0Y2126D02*
X7Y2126D01*
X2951Y2126D02*
X2958Y2126D01*
X0Y2125D02*
X7Y2125D01*
X2951Y2125D02*
X2958Y2125D01*
X0Y2124D02*
X7Y2124D01*
X2951Y2124D02*
X2958Y2124D01*
X0Y2123D02*
X7Y2123D01*
X2951Y2123D02*
X2958Y2123D01*
X0Y2122D02*
X7Y2122D01*
X2951Y2122D02*
X2958Y2122D01*
X0Y2121D02*
X7Y2121D01*
X2951Y2121D02*
X2958Y2121D01*
X0Y2120D02*
X7Y2120D01*
X2951Y2120D02*
X2958Y2120D01*
X0Y2119D02*
X7Y2119D01*
X2951Y2119D02*
X2958Y2119D01*
X0Y2118D02*
X7Y2118D01*
X2951Y2118D02*
X2958Y2118D01*
X0Y2117D02*
X7Y2117D01*
X2951Y2117D02*
X2958Y2117D01*
X0Y2116D02*
X7Y2116D01*
X2951Y2116D02*
X2958Y2116D01*
X0Y2115D02*
X7Y2115D01*
X2951Y2115D02*
X2958Y2115D01*
X0Y2114D02*
X7Y2114D01*
X2951Y2114D02*
X2958Y2114D01*
X0Y2113D02*
X7Y2113D01*
X2951Y2113D02*
X2958Y2113D01*
X0Y2112D02*
X7Y2112D01*
X2951Y2112D02*
X2958Y2112D01*
X0Y2111D02*
X7Y2111D01*
X2951Y2111D02*
X2958Y2111D01*
X0Y2110D02*
X7Y2110D01*
X2951Y2110D02*
X2958Y2110D01*
X0Y2109D02*
X7Y2109D01*
X2951Y2109D02*
X2958Y2109D01*
X0Y2108D02*
X7Y2108D01*
X2951Y2108D02*
X2958Y2108D01*
X0Y2107D02*
X7Y2107D01*
X2951Y2107D02*
X2958Y2107D01*
X0Y2106D02*
X7Y2106D01*
X2951Y2106D02*
X2958Y2106D01*
X0Y2105D02*
X7Y2105D01*
X2951Y2105D02*
X2958Y2105D01*
X0Y2104D02*
X7Y2104D01*
X2951Y2104D02*
X2958Y2104D01*
X0Y2103D02*
X7Y2103D01*
X2951Y2103D02*
X2958Y2103D01*
X0Y2102D02*
X7Y2102D01*
X2951Y2102D02*
X2958Y2102D01*
X0Y2101D02*
X7Y2101D01*
X2951Y2101D02*
X2958Y2101D01*
X0Y2100D02*
X7Y2100D01*
X2951Y2100D02*
X2958Y2100D01*
X0Y2099D02*
X7Y2099D01*
X2951Y2099D02*
X2958Y2099D01*
X0Y2098D02*
X7Y2098D01*
X2951Y2098D02*
X2958Y2098D01*
X0Y2097D02*
X7Y2097D01*
X2951Y2097D02*
X2958Y2097D01*
X0Y2096D02*
X7Y2096D01*
X2951Y2096D02*
X2958Y2096D01*
X0Y2095D02*
X7Y2095D01*
X2951Y2095D02*
X2958Y2095D01*
X0Y2094D02*
X7Y2094D01*
X2951Y2094D02*
X2958Y2094D01*
X0Y2093D02*
X7Y2093D01*
X2951Y2093D02*
X2958Y2093D01*
X0Y2092D02*
X7Y2092D01*
X2951Y2092D02*
X2958Y2092D01*
X0Y2091D02*
X7Y2091D01*
X2951Y2091D02*
X2958Y2091D01*
X0Y2090D02*
X7Y2090D01*
X2951Y2090D02*
X2958Y2090D01*
X0Y2089D02*
X7Y2089D01*
X2951Y2089D02*
X2958Y2089D01*
X0Y2088D02*
X7Y2088D01*
X2951Y2088D02*
X2958Y2088D01*
X0Y2087D02*
X7Y2087D01*
X2951Y2087D02*
X2958Y2087D01*
X0Y2086D02*
X7Y2086D01*
X2951Y2086D02*
X2958Y2086D01*
X0Y2085D02*
X7Y2085D01*
X2951Y2085D02*
X2958Y2085D01*
X0Y2084D02*
X7Y2084D01*
X2951Y2084D02*
X2958Y2084D01*
X0Y2083D02*
X7Y2083D01*
X2951Y2083D02*
X2958Y2083D01*
X0Y2082D02*
X7Y2082D01*
X2951Y2082D02*
X2958Y2082D01*
X0Y2081D02*
X7Y2081D01*
X2951Y2081D02*
X2958Y2081D01*
X0Y2080D02*
X7Y2080D01*
X2951Y2080D02*
X2958Y2080D01*
X0Y2079D02*
X7Y2079D01*
X2951Y2079D02*
X2958Y2079D01*
X0Y2078D02*
X7Y2078D01*
X2951Y2078D02*
X2958Y2078D01*
X0Y2077D02*
X7Y2077D01*
X2951Y2077D02*
X2958Y2077D01*
X0Y2076D02*
X7Y2076D01*
X2951Y2076D02*
X2958Y2076D01*
X0Y2075D02*
X7Y2075D01*
X2951Y2075D02*
X2958Y2075D01*
X0Y2074D02*
X7Y2074D01*
X2951Y2074D02*
X2958Y2074D01*
X0Y2073D02*
X7Y2073D01*
X2951Y2073D02*
X2958Y2073D01*
X0Y2072D02*
X7Y2072D01*
X2951Y2072D02*
X2958Y2072D01*
X0Y2071D02*
X7Y2071D01*
X2951Y2071D02*
X2958Y2071D01*
X0Y2070D02*
X7Y2070D01*
X2951Y2070D02*
X2958Y2070D01*
X0Y2069D02*
X7Y2069D01*
X2951Y2069D02*
X2958Y2069D01*
X0Y2068D02*
X7Y2068D01*
X2951Y2068D02*
X2958Y2068D01*
X0Y2067D02*
X7Y2067D01*
X2951Y2067D02*
X2958Y2067D01*
X0Y2066D02*
X7Y2066D01*
X2951Y2066D02*
X2958Y2066D01*
X0Y2065D02*
X7Y2065D01*
X2951Y2065D02*
X2958Y2065D01*
X0Y2064D02*
X7Y2064D01*
X2951Y2064D02*
X2958Y2064D01*
X0Y2063D02*
X7Y2063D01*
X2951Y2063D02*
X2958Y2063D01*
X0Y2062D02*
X7Y2062D01*
X2951Y2062D02*
X2958Y2062D01*
X0Y2061D02*
X7Y2061D01*
X2951Y2061D02*
X2958Y2061D01*
X0Y2060D02*
X7Y2060D01*
X2951Y2060D02*
X2958Y2060D01*
X0Y2059D02*
X7Y2059D01*
X2951Y2059D02*
X2958Y2059D01*
X0Y2058D02*
X7Y2058D01*
X2951Y2058D02*
X2958Y2058D01*
X0Y2057D02*
X7Y2057D01*
X2951Y2057D02*
X2958Y2057D01*
X0Y2056D02*
X7Y2056D01*
X2951Y2056D02*
X2958Y2056D01*
X0Y2055D02*
X7Y2055D01*
X2951Y2055D02*
X2958Y2055D01*
X0Y2054D02*
X7Y2054D01*
X2951Y2054D02*
X2958Y2054D01*
X0Y2053D02*
X7Y2053D01*
X2951Y2053D02*
X2958Y2053D01*
X0Y2052D02*
X7Y2052D01*
X2951Y2052D02*
X2958Y2052D01*
X0Y2051D02*
X7Y2051D01*
X2951Y2051D02*
X2958Y2051D01*
X0Y2050D02*
X7Y2050D01*
X2951Y2050D02*
X2958Y2050D01*
X0Y2049D02*
X7Y2049D01*
X2951Y2049D02*
X2958Y2049D01*
X0Y2048D02*
X7Y2048D01*
X2951Y2048D02*
X2958Y2048D01*
X0Y2047D02*
X7Y2047D01*
X2951Y2047D02*
X2958Y2047D01*
X0Y2046D02*
X7Y2046D01*
X2951Y2046D02*
X2958Y2046D01*
X0Y2045D02*
X7Y2045D01*
X2951Y2045D02*
X2958Y2045D01*
X0Y2044D02*
X7Y2044D01*
X2951Y2044D02*
X2958Y2044D01*
X0Y2043D02*
X7Y2043D01*
X2951Y2043D02*
X2958Y2043D01*
X0Y2042D02*
X7Y2042D01*
X2951Y2042D02*
X2958Y2042D01*
X0Y2041D02*
X7Y2041D01*
X2951Y2041D02*
X2958Y2041D01*
X0Y2040D02*
X7Y2040D01*
X2951Y2040D02*
X2958Y2040D01*
X0Y2039D02*
X7Y2039D01*
X2951Y2039D02*
X2958Y2039D01*
X0Y2038D02*
X7Y2038D01*
X2951Y2038D02*
X2958Y2038D01*
X0Y2037D02*
X7Y2037D01*
X2951Y2037D02*
X2958Y2037D01*
X0Y2036D02*
X7Y2036D01*
X2951Y2036D02*
X2958Y2036D01*
X0Y2035D02*
X7Y2035D01*
X2951Y2035D02*
X2958Y2035D01*
X0Y2034D02*
X7Y2034D01*
X2951Y2034D02*
X2958Y2034D01*
X0Y2033D02*
X7Y2033D01*
X2951Y2033D02*
X2958Y2033D01*
X0Y2032D02*
X7Y2032D01*
X2951Y2032D02*
X2958Y2032D01*
X0Y2031D02*
X7Y2031D01*
X2951Y2031D02*
X2958Y2031D01*
X0Y2030D02*
X7Y2030D01*
X2951Y2030D02*
X2958Y2030D01*
X0Y2029D02*
X7Y2029D01*
X2951Y2029D02*
X2958Y2029D01*
X0Y2028D02*
X7Y2028D01*
X2951Y2028D02*
X2958Y2028D01*
X0Y2027D02*
X7Y2027D01*
X2951Y2027D02*
X2958Y2027D01*
X0Y2026D02*
X7Y2026D01*
X2951Y2026D02*
X2958Y2026D01*
X0Y2025D02*
X7Y2025D01*
X2951Y2025D02*
X2958Y2025D01*
X0Y2024D02*
X7Y2024D01*
X2951Y2024D02*
X2958Y2024D01*
X0Y2023D02*
X7Y2023D01*
X2951Y2023D02*
X2958Y2023D01*
X0Y2022D02*
X7Y2022D01*
X2951Y2022D02*
X2958Y2022D01*
X0Y2021D02*
X7Y2021D01*
X2951Y2021D02*
X2958Y2021D01*
X0Y2020D02*
X7Y2020D01*
X2951Y2020D02*
X2958Y2020D01*
X0Y2019D02*
X7Y2019D01*
X2951Y2019D02*
X2958Y2019D01*
X0Y2018D02*
X7Y2018D01*
X2951Y2018D02*
X2958Y2018D01*
X0Y2017D02*
X7Y2017D01*
X2951Y2017D02*
X2958Y2017D01*
X0Y2016D02*
X7Y2016D01*
X2951Y2016D02*
X2958Y2016D01*
X0Y2015D02*
X7Y2015D01*
X2951Y2015D02*
X2958Y2015D01*
X0Y2014D02*
X7Y2014D01*
X2951Y2014D02*
X2958Y2014D01*
X0Y2013D02*
X7Y2013D01*
X2951Y2013D02*
X2958Y2013D01*
X0Y2012D02*
X7Y2012D01*
X2951Y2012D02*
X2958Y2012D01*
X0Y2011D02*
X7Y2011D01*
X2951Y2011D02*
X2958Y2011D01*
X0Y2010D02*
X7Y2010D01*
X2951Y2010D02*
X2958Y2010D01*
X0Y2009D02*
X7Y2009D01*
X2951Y2009D02*
X2958Y2009D01*
X0Y2008D02*
X7Y2008D01*
X2951Y2008D02*
X2958Y2008D01*
X0Y2007D02*
X7Y2007D01*
X2951Y2007D02*
X2958Y2007D01*
X0Y2006D02*
X7Y2006D01*
X2951Y2006D02*
X2958Y2006D01*
X0Y2005D02*
X7Y2005D01*
X2951Y2005D02*
X2958Y2005D01*
X0Y2004D02*
X7Y2004D01*
X2951Y2004D02*
X2958Y2004D01*
X0Y2003D02*
X7Y2003D01*
X2951Y2003D02*
X2958Y2003D01*
X0Y2002D02*
X7Y2002D01*
X2951Y2002D02*
X2958Y2002D01*
X0Y2001D02*
X7Y2001D01*
X2951Y2001D02*
X2958Y2001D01*
X0Y2000D02*
X7Y2000D01*
X2951Y2000D02*
X2958Y2000D01*
X0Y1999D02*
X7Y1999D01*
X2951Y1999D02*
X2958Y1999D01*
X0Y1998D02*
X7Y1998D01*
X2951Y1998D02*
X2958Y1998D01*
X0Y1997D02*
X7Y1997D01*
X2951Y1997D02*
X2958Y1997D01*
X0Y1996D02*
X7Y1996D01*
X2951Y1996D02*
X2958Y1996D01*
X0Y1995D02*
X7Y1995D01*
X2951Y1995D02*
X2958Y1995D01*
X0Y1994D02*
X7Y1994D01*
X2951Y1994D02*
X2958Y1994D01*
X0Y1993D02*
X7Y1993D01*
X2951Y1993D02*
X2958Y1993D01*
X0Y1992D02*
X7Y1992D01*
X2951Y1992D02*
X2958Y1992D01*
X0Y1991D02*
X7Y1991D01*
X2951Y1991D02*
X2958Y1991D01*
X0Y1990D02*
X7Y1990D01*
X2951Y1990D02*
X2958Y1990D01*
X0Y1989D02*
X7Y1989D01*
X2951Y1989D02*
X2958Y1989D01*
X0Y1988D02*
X7Y1988D01*
X2951Y1988D02*
X2958Y1988D01*
X0Y1987D02*
X7Y1987D01*
X2951Y1987D02*
X2958Y1987D01*
X0Y1986D02*
X7Y1986D01*
X2951Y1986D02*
X2958Y1986D01*
X0Y1985D02*
X7Y1985D01*
X2951Y1985D02*
X2958Y1985D01*
X0Y1984D02*
X7Y1984D01*
X2951Y1984D02*
X2958Y1984D01*
X0Y1983D02*
X7Y1983D01*
X2951Y1983D02*
X2958Y1983D01*
X0Y1982D02*
X7Y1982D01*
X2951Y1982D02*
X2958Y1982D01*
X0Y1981D02*
X7Y1981D01*
X2951Y1981D02*
X2958Y1981D01*
X0Y1980D02*
X7Y1980D01*
X2951Y1980D02*
X2958Y1980D01*
X0Y1979D02*
X7Y1979D01*
X2951Y1979D02*
X2958Y1979D01*
X0Y1978D02*
X7Y1978D01*
X2951Y1978D02*
X2958Y1978D01*
X0Y1977D02*
X7Y1977D01*
X2951Y1977D02*
X2958Y1977D01*
X0Y1976D02*
X7Y1976D01*
X2951Y1976D02*
X2958Y1976D01*
X0Y1975D02*
X7Y1975D01*
X2951Y1975D02*
X2958Y1975D01*
X0Y1974D02*
X7Y1974D01*
X2951Y1974D02*
X2958Y1974D01*
X0Y1973D02*
X7Y1973D01*
X2951Y1973D02*
X2958Y1973D01*
X0Y1972D02*
X7Y1972D01*
X2951Y1972D02*
X2958Y1972D01*
X0Y1971D02*
X7Y1971D01*
X2951Y1971D02*
X2958Y1971D01*
X0Y1970D02*
X7Y1970D01*
X2951Y1970D02*
X2958Y1970D01*
X0Y1969D02*
X7Y1969D01*
X2951Y1969D02*
X2958Y1969D01*
X0Y1968D02*
X7Y1968D01*
X2951Y1968D02*
X2958Y1968D01*
X0Y1967D02*
X7Y1967D01*
X2951Y1967D02*
X2958Y1967D01*
X0Y1966D02*
X7Y1966D01*
X2951Y1966D02*
X2958Y1966D01*
X0Y1965D02*
X7Y1965D01*
X2951Y1965D02*
X2958Y1965D01*
X0Y1964D02*
X7Y1964D01*
X2951Y1964D02*
X2958Y1964D01*
X0Y1963D02*
X7Y1963D01*
X2951Y1963D02*
X2958Y1963D01*
X0Y1962D02*
X7Y1962D01*
X2951Y1962D02*
X2958Y1962D01*
X0Y1961D02*
X7Y1961D01*
X2951Y1961D02*
X2958Y1961D01*
X0Y1960D02*
X7Y1960D01*
X2951Y1960D02*
X2958Y1960D01*
X0Y1959D02*
X7Y1959D01*
X2951Y1959D02*
X2958Y1959D01*
X0Y1958D02*
X7Y1958D01*
X2951Y1958D02*
X2958Y1958D01*
X0Y1957D02*
X7Y1957D01*
X2951Y1957D02*
X2958Y1957D01*
X0Y1956D02*
X7Y1956D01*
X2951Y1956D02*
X2958Y1956D01*
X0Y1955D02*
X7Y1955D01*
X2951Y1955D02*
X2958Y1955D01*
X0Y1954D02*
X7Y1954D01*
X2951Y1954D02*
X2958Y1954D01*
X0Y1953D02*
X7Y1953D01*
X2951Y1953D02*
X2958Y1953D01*
X0Y1952D02*
X7Y1952D01*
X2951Y1952D02*
X2958Y1952D01*
X0Y1951D02*
X7Y1951D01*
X2951Y1951D02*
X2958Y1951D01*
X0Y1950D02*
X7Y1950D01*
X2951Y1950D02*
X2958Y1950D01*
X0Y1949D02*
X7Y1949D01*
X2951Y1949D02*
X2958Y1949D01*
X0Y1948D02*
X7Y1948D01*
X2951Y1948D02*
X2958Y1948D01*
X0Y1947D02*
X7Y1947D01*
X2951Y1947D02*
X2958Y1947D01*
X0Y1946D02*
X7Y1946D01*
X2951Y1946D02*
X2958Y1946D01*
X0Y1945D02*
X7Y1945D01*
X2951Y1945D02*
X2958Y1945D01*
X0Y1944D02*
X7Y1944D01*
X2951Y1944D02*
X2958Y1944D01*
X0Y1943D02*
X7Y1943D01*
X2951Y1943D02*
X2958Y1943D01*
X0Y1942D02*
X7Y1942D01*
X2951Y1942D02*
X2958Y1942D01*
X0Y1941D02*
X7Y1941D01*
X2951Y1941D02*
X2958Y1941D01*
X0Y1940D02*
X7Y1940D01*
X2951Y1940D02*
X2958Y1940D01*
X0Y1939D02*
X7Y1939D01*
X2951Y1939D02*
X2958Y1939D01*
X0Y1938D02*
X7Y1938D01*
X2951Y1938D02*
X2958Y1938D01*
X0Y1937D02*
X7Y1937D01*
X2951Y1937D02*
X2958Y1937D01*
X0Y1936D02*
X7Y1936D01*
X2951Y1936D02*
X2958Y1936D01*
X0Y1935D02*
X7Y1935D01*
X2951Y1935D02*
X2958Y1935D01*
X0Y1934D02*
X7Y1934D01*
X2951Y1934D02*
X2958Y1934D01*
X0Y1933D02*
X7Y1933D01*
X2951Y1933D02*
X2958Y1933D01*
X0Y1932D02*
X7Y1932D01*
X2951Y1932D02*
X2958Y1932D01*
X0Y1931D02*
X7Y1931D01*
X2951Y1931D02*
X2958Y1931D01*
X0Y1930D02*
X7Y1930D01*
X2951Y1930D02*
X2958Y1930D01*
X0Y1929D02*
X7Y1929D01*
X2951Y1929D02*
X2958Y1929D01*
X0Y1928D02*
X7Y1928D01*
X2951Y1928D02*
X2958Y1928D01*
X0Y1927D02*
X7Y1927D01*
X2951Y1927D02*
X2958Y1927D01*
X0Y1926D02*
X7Y1926D01*
X2951Y1926D02*
X2958Y1926D01*
X0Y1925D02*
X7Y1925D01*
X2951Y1925D02*
X2958Y1925D01*
X0Y1924D02*
X7Y1924D01*
X2951Y1924D02*
X2958Y1924D01*
X0Y1923D02*
X7Y1923D01*
X2951Y1923D02*
X2958Y1923D01*
X0Y1922D02*
X7Y1922D01*
X2951Y1922D02*
X2958Y1922D01*
X0Y1921D02*
X7Y1921D01*
X2951Y1921D02*
X2958Y1921D01*
X0Y1920D02*
X7Y1920D01*
X2951Y1920D02*
X2958Y1920D01*
X0Y1919D02*
X7Y1919D01*
X2951Y1919D02*
X2958Y1919D01*
X0Y1918D02*
X7Y1918D01*
X2951Y1918D02*
X2958Y1918D01*
X0Y1917D02*
X7Y1917D01*
X2951Y1917D02*
X2958Y1917D01*
X0Y1916D02*
X7Y1916D01*
X2951Y1916D02*
X2958Y1916D01*
X0Y1915D02*
X7Y1915D01*
X2951Y1915D02*
X2958Y1915D01*
X0Y1914D02*
X7Y1914D01*
X2951Y1914D02*
X2958Y1914D01*
X0Y1913D02*
X7Y1913D01*
X2951Y1913D02*
X2958Y1913D01*
X0Y1912D02*
X7Y1912D01*
X2951Y1912D02*
X2958Y1912D01*
X0Y1911D02*
X7Y1911D01*
X2951Y1911D02*
X2958Y1911D01*
X0Y1910D02*
X7Y1910D01*
X2951Y1910D02*
X2958Y1910D01*
X0Y1909D02*
X7Y1909D01*
X2951Y1909D02*
X2958Y1909D01*
X0Y1908D02*
X7Y1908D01*
X2951Y1908D02*
X2958Y1908D01*
X0Y1907D02*
X7Y1907D01*
X2951Y1907D02*
X2958Y1907D01*
X0Y1906D02*
X7Y1906D01*
X2951Y1906D02*
X2958Y1906D01*
X0Y1905D02*
X7Y1905D01*
X2951Y1905D02*
X2958Y1905D01*
X0Y1904D02*
X7Y1904D01*
X2951Y1904D02*
X2958Y1904D01*
X0Y1903D02*
X7Y1903D01*
X2951Y1903D02*
X2958Y1903D01*
X0Y1902D02*
X7Y1902D01*
X2951Y1902D02*
X2958Y1902D01*
X0Y1901D02*
X7Y1901D01*
X2951Y1901D02*
X2958Y1901D01*
X0Y1900D02*
X7Y1900D01*
X2951Y1900D02*
X2958Y1900D01*
X0Y1899D02*
X7Y1899D01*
X2951Y1899D02*
X2958Y1899D01*
X0Y1898D02*
X7Y1898D01*
X2951Y1898D02*
X2958Y1898D01*
X0Y1897D02*
X7Y1897D01*
X2951Y1897D02*
X2958Y1897D01*
X0Y1896D02*
X7Y1896D01*
X2951Y1896D02*
X2958Y1896D01*
X0Y1895D02*
X7Y1895D01*
X2951Y1895D02*
X2958Y1895D01*
X0Y1894D02*
X7Y1894D01*
X2951Y1894D02*
X2958Y1894D01*
X0Y1893D02*
X7Y1893D01*
X2951Y1893D02*
X2958Y1893D01*
X0Y1892D02*
X7Y1892D01*
X2951Y1892D02*
X2958Y1892D01*
X0Y1891D02*
X7Y1891D01*
X2951Y1891D02*
X2958Y1891D01*
X0Y1890D02*
X7Y1890D01*
X2951Y1890D02*
X2958Y1890D01*
X0Y1889D02*
X7Y1889D01*
X2951Y1889D02*
X2958Y1889D01*
X0Y1888D02*
X7Y1888D01*
X2951Y1888D02*
X2958Y1888D01*
X0Y1887D02*
X7Y1887D01*
X2951Y1887D02*
X2958Y1887D01*
X0Y1886D02*
X7Y1886D01*
X2951Y1886D02*
X2958Y1886D01*
X0Y1885D02*
X7Y1885D01*
X2951Y1885D02*
X2958Y1885D01*
X0Y1884D02*
X7Y1884D01*
X2951Y1884D02*
X2958Y1884D01*
X0Y1883D02*
X7Y1883D01*
X2951Y1883D02*
X2958Y1883D01*
X0Y1882D02*
X7Y1882D01*
X2951Y1882D02*
X2958Y1882D01*
X0Y1881D02*
X7Y1881D01*
X2951Y1881D02*
X2958Y1881D01*
X0Y1880D02*
X7Y1880D01*
X2951Y1880D02*
X2958Y1880D01*
X0Y1879D02*
X7Y1879D01*
X2951Y1879D02*
X2958Y1879D01*
X0Y1878D02*
X7Y1878D01*
X2951Y1878D02*
X2958Y1878D01*
X0Y1877D02*
X7Y1877D01*
X2951Y1877D02*
X2958Y1877D01*
X0Y1876D02*
X7Y1876D01*
X2951Y1876D02*
X2958Y1876D01*
X0Y1875D02*
X7Y1875D01*
X2951Y1875D02*
X2958Y1875D01*
X0Y1874D02*
X7Y1874D01*
X2951Y1874D02*
X2958Y1874D01*
X0Y1873D02*
X7Y1873D01*
X2951Y1873D02*
X2958Y1873D01*
X0Y1872D02*
X7Y1872D01*
X2951Y1872D02*
X2958Y1872D01*
X0Y1871D02*
X7Y1871D01*
X2951Y1871D02*
X2958Y1871D01*
X0Y1870D02*
X7Y1870D01*
X2951Y1870D02*
X2958Y1870D01*
X0Y1869D02*
X7Y1869D01*
X2951Y1869D02*
X2958Y1869D01*
X0Y1868D02*
X7Y1868D01*
X2951Y1868D02*
X2958Y1868D01*
X0Y1867D02*
X7Y1867D01*
X2951Y1867D02*
X2958Y1867D01*
X0Y1866D02*
X7Y1866D01*
X2951Y1866D02*
X2958Y1866D01*
X0Y1865D02*
X7Y1865D01*
X2951Y1865D02*
X2958Y1865D01*
X0Y1864D02*
X7Y1864D01*
X2951Y1864D02*
X2958Y1864D01*
X0Y1863D02*
X7Y1863D01*
X2951Y1863D02*
X2958Y1863D01*
X0Y1862D02*
X7Y1862D01*
X2951Y1862D02*
X2958Y1862D01*
X0Y1861D02*
X7Y1861D01*
X2951Y1861D02*
X2958Y1861D01*
X0Y1860D02*
X7Y1860D01*
X2951Y1860D02*
X2958Y1860D01*
X0Y1859D02*
X7Y1859D01*
X2951Y1859D02*
X2958Y1859D01*
X0Y1858D02*
X7Y1858D01*
X2951Y1858D02*
X2958Y1858D01*
X0Y1857D02*
X7Y1857D01*
X2951Y1857D02*
X2958Y1857D01*
X0Y1856D02*
X7Y1856D01*
X2951Y1856D02*
X2958Y1856D01*
X0Y1855D02*
X7Y1855D01*
X2951Y1855D02*
X2958Y1855D01*
X0Y1854D02*
X7Y1854D01*
X2951Y1854D02*
X2958Y1854D01*
X0Y1853D02*
X7Y1853D01*
X2951Y1853D02*
X2958Y1853D01*
X0Y1852D02*
X7Y1852D01*
X2951Y1852D02*
X2958Y1852D01*
X0Y1851D02*
X7Y1851D01*
X2951Y1851D02*
X2958Y1851D01*
X0Y1850D02*
X7Y1850D01*
X2951Y1850D02*
X2958Y1850D01*
X0Y1849D02*
X7Y1849D01*
X2951Y1849D02*
X2958Y1849D01*
X0Y1848D02*
X7Y1848D01*
X2951Y1848D02*
X2958Y1848D01*
X0Y1847D02*
X7Y1847D01*
X2951Y1847D02*
X2958Y1847D01*
X0Y1846D02*
X7Y1846D01*
X2951Y1846D02*
X2958Y1846D01*
X0Y1845D02*
X7Y1845D01*
X2951Y1845D02*
X2958Y1845D01*
X0Y1844D02*
X7Y1844D01*
X2951Y1844D02*
X2958Y1844D01*
X0Y1843D02*
X7Y1843D01*
X2951Y1843D02*
X2958Y1843D01*
X0Y1842D02*
X7Y1842D01*
X2951Y1842D02*
X2958Y1842D01*
X0Y1841D02*
X7Y1841D01*
X2951Y1841D02*
X2958Y1841D01*
X0Y1840D02*
X7Y1840D01*
X2951Y1840D02*
X2958Y1840D01*
X0Y1839D02*
X7Y1839D01*
X2951Y1839D02*
X2958Y1839D01*
X0Y1838D02*
X7Y1838D01*
X2951Y1838D02*
X2958Y1838D01*
X0Y1837D02*
X7Y1837D01*
X2951Y1837D02*
X2958Y1837D01*
X0Y1836D02*
X7Y1836D01*
X2951Y1836D02*
X2958Y1836D01*
X0Y1835D02*
X7Y1835D01*
X2951Y1835D02*
X2958Y1835D01*
X0Y1834D02*
X7Y1834D01*
X2951Y1834D02*
X2958Y1834D01*
X0Y1833D02*
X7Y1833D01*
X2951Y1833D02*
X2958Y1833D01*
X0Y1832D02*
X7Y1832D01*
X2951Y1832D02*
X2958Y1832D01*
X0Y1831D02*
X7Y1831D01*
X2951Y1831D02*
X2958Y1831D01*
X0Y1830D02*
X7Y1830D01*
X2951Y1830D02*
X2958Y1830D01*
X0Y1829D02*
X7Y1829D01*
X2951Y1829D02*
X2958Y1829D01*
X0Y1828D02*
X7Y1828D01*
X2951Y1828D02*
X2958Y1828D01*
X0Y1827D02*
X7Y1827D01*
X2951Y1827D02*
X2958Y1827D01*
X0Y1826D02*
X7Y1826D01*
X2951Y1826D02*
X2958Y1826D01*
X0Y1825D02*
X7Y1825D01*
X2951Y1825D02*
X2958Y1825D01*
X0Y1824D02*
X7Y1824D01*
X2951Y1824D02*
X2958Y1824D01*
X0Y1823D02*
X7Y1823D01*
X2951Y1823D02*
X2958Y1823D01*
X0Y1822D02*
X7Y1822D01*
X2951Y1822D02*
X2958Y1822D01*
X0Y1821D02*
X7Y1821D01*
X2951Y1821D02*
X2958Y1821D01*
X0Y1820D02*
X7Y1820D01*
X2951Y1820D02*
X2958Y1820D01*
X0Y1819D02*
X7Y1819D01*
X2951Y1819D02*
X2958Y1819D01*
X0Y1818D02*
X7Y1818D01*
X2951Y1818D02*
X2958Y1818D01*
X0Y1817D02*
X7Y1817D01*
X2951Y1817D02*
X2958Y1817D01*
X0Y1816D02*
X7Y1816D01*
X2951Y1816D02*
X2958Y1816D01*
X0Y1815D02*
X7Y1815D01*
X2951Y1815D02*
X2958Y1815D01*
X0Y1814D02*
X7Y1814D01*
X2951Y1814D02*
X2958Y1814D01*
X0Y1813D02*
X7Y1813D01*
X2951Y1813D02*
X2958Y1813D01*
X0Y1812D02*
X7Y1812D01*
X2951Y1812D02*
X2958Y1812D01*
X0Y1811D02*
X7Y1811D01*
X2951Y1811D02*
X2958Y1811D01*
X0Y1810D02*
X7Y1810D01*
X2951Y1810D02*
X2958Y1810D01*
X0Y1809D02*
X7Y1809D01*
X2951Y1809D02*
X2958Y1809D01*
X0Y1808D02*
X7Y1808D01*
X2951Y1808D02*
X2958Y1808D01*
X0Y1807D02*
X7Y1807D01*
X2951Y1807D02*
X2958Y1807D01*
X0Y1806D02*
X7Y1806D01*
X2951Y1806D02*
X2958Y1806D01*
X0Y1805D02*
X7Y1805D01*
X2951Y1805D02*
X2958Y1805D01*
X0Y1804D02*
X7Y1804D01*
X2951Y1804D02*
X2958Y1804D01*
X0Y1803D02*
X7Y1803D01*
X2951Y1803D02*
X2958Y1803D01*
X0Y1802D02*
X7Y1802D01*
X2951Y1802D02*
X2958Y1802D01*
X0Y1801D02*
X7Y1801D01*
X2951Y1801D02*
X2958Y1801D01*
X0Y1800D02*
X7Y1800D01*
X2951Y1800D02*
X2958Y1800D01*
X0Y1799D02*
X7Y1799D01*
X2951Y1799D02*
X2958Y1799D01*
X0Y1798D02*
X7Y1798D01*
X2951Y1798D02*
X2958Y1798D01*
X0Y1797D02*
X7Y1797D01*
X2951Y1797D02*
X2958Y1797D01*
X0Y1796D02*
X7Y1796D01*
X2951Y1796D02*
X2958Y1796D01*
X0Y1795D02*
X7Y1795D01*
X2951Y1795D02*
X2958Y1795D01*
X0Y1794D02*
X7Y1794D01*
X2951Y1794D02*
X2958Y1794D01*
X0Y1793D02*
X7Y1793D01*
X2951Y1793D02*
X2958Y1793D01*
X0Y1792D02*
X7Y1792D01*
X2951Y1792D02*
X2958Y1792D01*
X0Y1791D02*
X7Y1791D01*
X2951Y1791D02*
X2958Y1791D01*
X0Y1790D02*
X7Y1790D01*
X2951Y1790D02*
X2958Y1790D01*
X0Y1789D02*
X7Y1789D01*
X2951Y1789D02*
X2958Y1789D01*
X0Y1788D02*
X7Y1788D01*
X2951Y1788D02*
X2958Y1788D01*
X0Y1787D02*
X7Y1787D01*
X2951Y1787D02*
X2958Y1787D01*
X0Y1786D02*
X7Y1786D01*
X2951Y1786D02*
X2958Y1786D01*
X0Y1785D02*
X7Y1785D01*
X2951Y1785D02*
X2958Y1785D01*
X0Y1784D02*
X7Y1784D01*
X2951Y1784D02*
X2958Y1784D01*
X0Y1783D02*
X7Y1783D01*
X2951Y1783D02*
X2958Y1783D01*
X0Y1782D02*
X7Y1782D01*
X2951Y1782D02*
X2958Y1782D01*
X0Y1781D02*
X7Y1781D01*
X2951Y1781D02*
X2958Y1781D01*
X0Y1780D02*
X7Y1780D01*
X2951Y1780D02*
X2958Y1780D01*
X0Y1779D02*
X7Y1779D01*
X2951Y1779D02*
X2958Y1779D01*
X0Y1778D02*
X7Y1778D01*
X2951Y1778D02*
X2958Y1778D01*
X0Y1777D02*
X7Y1777D01*
X2951Y1777D02*
X2958Y1777D01*
X0Y1776D02*
X7Y1776D01*
X2951Y1776D02*
X2958Y1776D01*
X0Y1775D02*
X7Y1775D01*
X2951Y1775D02*
X2958Y1775D01*
X0Y1774D02*
X7Y1774D01*
X2951Y1774D02*
X2958Y1774D01*
X0Y1773D02*
X7Y1773D01*
X2951Y1773D02*
X2958Y1773D01*
X0Y1772D02*
X7Y1772D01*
X2951Y1772D02*
X2958Y1772D01*
X0Y1771D02*
X7Y1771D01*
X2951Y1771D02*
X2958Y1771D01*
X0Y1770D02*
X7Y1770D01*
X2951Y1770D02*
X2958Y1770D01*
X0Y1769D02*
X7Y1769D01*
X2951Y1769D02*
X2958Y1769D01*
X0Y1768D02*
X7Y1768D01*
X2951Y1768D02*
X2958Y1768D01*
X0Y1767D02*
X7Y1767D01*
X2951Y1767D02*
X2958Y1767D01*
X0Y1766D02*
X7Y1766D01*
X2951Y1766D02*
X2958Y1766D01*
X0Y1765D02*
X7Y1765D01*
X2951Y1765D02*
X2958Y1765D01*
X0Y1764D02*
X7Y1764D01*
X2951Y1764D02*
X2958Y1764D01*
X0Y1763D02*
X7Y1763D01*
X2951Y1763D02*
X2958Y1763D01*
X0Y1762D02*
X7Y1762D01*
X2951Y1762D02*
X2958Y1762D01*
X0Y1761D02*
X7Y1761D01*
X2951Y1761D02*
X2958Y1761D01*
X0Y1760D02*
X7Y1760D01*
X2951Y1760D02*
X2958Y1760D01*
X0Y1759D02*
X7Y1759D01*
X2951Y1759D02*
X2958Y1759D01*
X0Y1758D02*
X7Y1758D01*
X2951Y1758D02*
X2958Y1758D01*
X0Y1757D02*
X7Y1757D01*
X2951Y1757D02*
X2958Y1757D01*
X0Y1756D02*
X7Y1756D01*
X2951Y1756D02*
X2958Y1756D01*
X0Y1755D02*
X7Y1755D01*
X2951Y1755D02*
X2958Y1755D01*
X0Y1754D02*
X7Y1754D01*
X2951Y1754D02*
X2958Y1754D01*
X0Y1753D02*
X7Y1753D01*
X2951Y1753D02*
X2958Y1753D01*
X0Y1752D02*
X7Y1752D01*
X2951Y1752D02*
X2958Y1752D01*
X0Y1751D02*
X7Y1751D01*
X2951Y1751D02*
X2958Y1751D01*
X0Y1750D02*
X7Y1750D01*
X2951Y1750D02*
X2958Y1750D01*
X0Y1749D02*
X7Y1749D01*
X2951Y1749D02*
X2958Y1749D01*
X0Y1748D02*
X7Y1748D01*
X2951Y1748D02*
X2958Y1748D01*
X0Y1747D02*
X7Y1747D01*
X2951Y1747D02*
X2958Y1747D01*
X0Y1746D02*
X7Y1746D01*
X2951Y1746D02*
X2958Y1746D01*
X0Y1745D02*
X7Y1745D01*
X2951Y1745D02*
X2958Y1745D01*
X0Y1744D02*
X7Y1744D01*
X2951Y1744D02*
X2958Y1744D01*
X0Y1743D02*
X7Y1743D01*
X2951Y1743D02*
X2958Y1743D01*
X0Y1742D02*
X7Y1742D01*
X2951Y1742D02*
X2958Y1742D01*
X0Y1741D02*
X7Y1741D01*
X2951Y1741D02*
X2958Y1741D01*
X0Y1740D02*
X7Y1740D01*
X2951Y1740D02*
X2958Y1740D01*
X0Y1739D02*
X7Y1739D01*
X2951Y1739D02*
X2958Y1739D01*
X0Y1738D02*
X7Y1738D01*
X2951Y1738D02*
X2958Y1738D01*
X0Y1737D02*
X7Y1737D01*
X2951Y1737D02*
X2958Y1737D01*
X0Y1736D02*
X7Y1736D01*
X2951Y1736D02*
X2958Y1736D01*
X0Y1735D02*
X7Y1735D01*
X2951Y1735D02*
X2958Y1735D01*
X0Y1734D02*
X7Y1734D01*
X2951Y1734D02*
X2958Y1734D01*
X0Y1733D02*
X7Y1733D01*
X2951Y1733D02*
X2958Y1733D01*
X0Y1732D02*
X7Y1732D01*
X2951Y1732D02*
X2958Y1732D01*
X0Y1731D02*
X7Y1731D01*
X2951Y1731D02*
X2958Y1731D01*
X0Y1730D02*
X7Y1730D01*
X2951Y1730D02*
X2958Y1730D01*
X0Y1729D02*
X7Y1729D01*
X2951Y1729D02*
X2958Y1729D01*
X0Y1728D02*
X7Y1728D01*
X2951Y1728D02*
X2958Y1728D01*
X0Y1727D02*
X7Y1727D01*
X2951Y1727D02*
X2958Y1727D01*
X0Y1726D02*
X7Y1726D01*
X2951Y1726D02*
X2958Y1726D01*
X0Y1725D02*
X7Y1725D01*
X2951Y1725D02*
X2958Y1725D01*
X0Y1724D02*
X7Y1724D01*
X2951Y1724D02*
X2958Y1724D01*
X0Y1723D02*
X7Y1723D01*
X2951Y1723D02*
X2958Y1723D01*
X0Y1722D02*
X7Y1722D01*
X2951Y1722D02*
X2958Y1722D01*
X0Y1721D02*
X7Y1721D01*
X2951Y1721D02*
X2958Y1721D01*
X0Y1720D02*
X7Y1720D01*
X2951Y1720D02*
X2958Y1720D01*
X0Y1719D02*
X7Y1719D01*
X2951Y1719D02*
X2958Y1719D01*
X0Y1718D02*
X7Y1718D01*
X2951Y1718D02*
X2958Y1718D01*
X0Y1717D02*
X7Y1717D01*
X2951Y1717D02*
X2958Y1717D01*
X0Y1716D02*
X7Y1716D01*
X2951Y1716D02*
X2958Y1716D01*
X0Y1715D02*
X7Y1715D01*
X2951Y1715D02*
X2958Y1715D01*
X0Y1714D02*
X7Y1714D01*
X2951Y1714D02*
X2958Y1714D01*
X0Y1713D02*
X7Y1713D01*
X2951Y1713D02*
X2958Y1713D01*
X0Y1712D02*
X7Y1712D01*
X2951Y1712D02*
X2958Y1712D01*
X0Y1711D02*
X7Y1711D01*
X2951Y1711D02*
X2958Y1711D01*
X0Y1710D02*
X7Y1710D01*
X2951Y1710D02*
X2958Y1710D01*
X0Y1709D02*
X7Y1709D01*
X2951Y1709D02*
X2958Y1709D01*
X0Y1708D02*
X7Y1708D01*
X2951Y1708D02*
X2958Y1708D01*
X0Y1707D02*
X7Y1707D01*
X2951Y1707D02*
X2958Y1707D01*
X0Y1706D02*
X7Y1706D01*
X2951Y1706D02*
X2958Y1706D01*
X0Y1705D02*
X7Y1705D01*
X2951Y1705D02*
X2958Y1705D01*
X0Y1704D02*
X7Y1704D01*
X2951Y1704D02*
X2958Y1704D01*
X0Y1703D02*
X7Y1703D01*
X2951Y1703D02*
X2958Y1703D01*
X0Y1702D02*
X7Y1702D01*
X2951Y1702D02*
X2958Y1702D01*
X0Y1701D02*
X7Y1701D01*
X2951Y1701D02*
X2958Y1701D01*
X0Y1700D02*
X7Y1700D01*
X2951Y1700D02*
X2958Y1700D01*
X0Y1699D02*
X7Y1699D01*
X2951Y1699D02*
X2958Y1699D01*
X0Y1698D02*
X7Y1698D01*
X2951Y1698D02*
X2958Y1698D01*
X0Y1697D02*
X7Y1697D01*
X2951Y1697D02*
X2958Y1697D01*
X0Y1696D02*
X7Y1696D01*
X2951Y1696D02*
X2958Y1696D01*
X0Y1695D02*
X7Y1695D01*
X2951Y1695D02*
X2958Y1695D01*
X0Y1694D02*
X7Y1694D01*
X2951Y1694D02*
X2958Y1694D01*
X0Y1693D02*
X7Y1693D01*
X2951Y1693D02*
X2958Y1693D01*
X0Y1692D02*
X7Y1692D01*
X2951Y1692D02*
X2958Y1692D01*
X0Y1691D02*
X7Y1691D01*
X2951Y1691D02*
X2958Y1691D01*
X0Y1690D02*
X7Y1690D01*
X2951Y1690D02*
X2958Y1690D01*
X0Y1689D02*
X7Y1689D01*
X2951Y1689D02*
X2958Y1689D01*
X0Y1688D02*
X7Y1688D01*
X2951Y1688D02*
X2958Y1688D01*
X0Y1687D02*
X7Y1687D01*
X2951Y1687D02*
X2958Y1687D01*
X0Y1686D02*
X7Y1686D01*
X2951Y1686D02*
X2958Y1686D01*
X0Y1685D02*
X7Y1685D01*
X2951Y1685D02*
X2958Y1685D01*
X0Y1684D02*
X7Y1684D01*
X2951Y1684D02*
X2958Y1684D01*
X0Y1683D02*
X7Y1683D01*
X2951Y1683D02*
X2958Y1683D01*
X0Y1682D02*
X7Y1682D01*
X2951Y1682D02*
X2958Y1682D01*
X0Y1681D02*
X7Y1681D01*
X2951Y1681D02*
X2958Y1681D01*
X0Y1680D02*
X7Y1680D01*
X2951Y1680D02*
X2958Y1680D01*
X0Y1679D02*
X7Y1679D01*
X2951Y1679D02*
X2958Y1679D01*
X0Y1678D02*
X7Y1678D01*
X2951Y1678D02*
X2958Y1678D01*
X0Y1677D02*
X7Y1677D01*
X2951Y1677D02*
X2958Y1677D01*
X0Y1676D02*
X7Y1676D01*
X2951Y1676D02*
X2958Y1676D01*
X0Y1675D02*
X7Y1675D01*
X2951Y1675D02*
X2958Y1675D01*
X0Y1674D02*
X7Y1674D01*
X2951Y1674D02*
X2958Y1674D01*
X0Y1673D02*
X7Y1673D01*
X2951Y1673D02*
X2958Y1673D01*
X0Y1672D02*
X7Y1672D01*
X2951Y1672D02*
X2958Y1672D01*
X0Y1671D02*
X7Y1671D01*
X2951Y1671D02*
X2958Y1671D01*
X0Y1670D02*
X7Y1670D01*
X2951Y1670D02*
X2958Y1670D01*
X0Y1669D02*
X7Y1669D01*
X2951Y1669D02*
X2958Y1669D01*
X0Y1668D02*
X7Y1668D01*
X2951Y1668D02*
X2958Y1668D01*
X0Y1667D02*
X7Y1667D01*
X2951Y1667D02*
X2958Y1667D01*
X0Y1666D02*
X7Y1666D01*
X2951Y1666D02*
X2958Y1666D01*
X0Y1665D02*
X7Y1665D01*
X2951Y1665D02*
X2958Y1665D01*
X0Y1664D02*
X7Y1664D01*
X2951Y1664D02*
X2958Y1664D01*
X0Y1663D02*
X7Y1663D01*
X2951Y1663D02*
X2958Y1663D01*
X0Y1662D02*
X7Y1662D01*
X2951Y1662D02*
X2958Y1662D01*
X0Y1661D02*
X7Y1661D01*
X2951Y1661D02*
X2958Y1661D01*
X0Y1660D02*
X7Y1660D01*
X2951Y1660D02*
X2958Y1660D01*
X0Y1659D02*
X7Y1659D01*
X2951Y1659D02*
X2958Y1659D01*
X0Y1658D02*
X7Y1658D01*
X2951Y1658D02*
X2958Y1658D01*
X0Y1657D02*
X7Y1657D01*
X2951Y1657D02*
X2958Y1657D01*
X0Y1656D02*
X7Y1656D01*
X2951Y1656D02*
X2958Y1656D01*
X0Y1655D02*
X7Y1655D01*
X2951Y1655D02*
X2958Y1655D01*
X0Y1654D02*
X7Y1654D01*
X2951Y1654D02*
X2958Y1654D01*
X0Y1653D02*
X7Y1653D01*
X2951Y1653D02*
X2958Y1653D01*
X0Y1652D02*
X7Y1652D01*
X2951Y1652D02*
X2958Y1652D01*
X0Y1651D02*
X7Y1651D01*
X2951Y1651D02*
X2958Y1651D01*
X0Y1650D02*
X7Y1650D01*
X2951Y1650D02*
X2958Y1650D01*
X0Y1649D02*
X7Y1649D01*
X2951Y1649D02*
X2958Y1649D01*
X0Y1648D02*
X7Y1648D01*
X2951Y1648D02*
X2958Y1648D01*
X0Y1647D02*
X7Y1647D01*
X2951Y1647D02*
X2958Y1647D01*
X0Y1646D02*
X7Y1646D01*
X2951Y1646D02*
X2958Y1646D01*
X0Y1645D02*
X7Y1645D01*
X2951Y1645D02*
X2958Y1645D01*
X0Y1644D02*
X7Y1644D01*
X2951Y1644D02*
X2958Y1644D01*
X0Y1643D02*
X7Y1643D01*
X2951Y1643D02*
X2958Y1643D01*
X0Y1642D02*
X7Y1642D01*
X2951Y1642D02*
X2958Y1642D01*
X0Y1641D02*
X7Y1641D01*
X2951Y1641D02*
X2958Y1641D01*
X0Y1640D02*
X7Y1640D01*
X2951Y1640D02*
X2958Y1640D01*
X0Y1639D02*
X7Y1639D01*
X2951Y1639D02*
X2958Y1639D01*
X0Y1638D02*
X7Y1638D01*
X2951Y1638D02*
X2958Y1638D01*
X0Y1637D02*
X7Y1637D01*
X2951Y1637D02*
X2958Y1637D01*
X0Y1636D02*
X7Y1636D01*
X2951Y1636D02*
X2958Y1636D01*
X0Y1635D02*
X7Y1635D01*
X2951Y1635D02*
X2958Y1635D01*
X0Y1634D02*
X7Y1634D01*
X2951Y1634D02*
X2958Y1634D01*
X0Y1633D02*
X7Y1633D01*
X2951Y1633D02*
X2958Y1633D01*
X0Y1632D02*
X7Y1632D01*
X2951Y1632D02*
X2958Y1632D01*
X0Y1631D02*
X7Y1631D01*
X2951Y1631D02*
X2958Y1631D01*
X0Y1630D02*
X7Y1630D01*
X2951Y1630D02*
X2958Y1630D01*
X0Y1629D02*
X7Y1629D01*
X2951Y1629D02*
X2958Y1629D01*
X0Y1628D02*
X7Y1628D01*
X2951Y1628D02*
X2958Y1628D01*
X0Y1627D02*
X7Y1627D01*
X2951Y1627D02*
X2958Y1627D01*
X0Y1626D02*
X7Y1626D01*
X2951Y1626D02*
X2958Y1626D01*
X0Y1625D02*
X7Y1625D01*
X2951Y1625D02*
X2958Y1625D01*
X0Y1624D02*
X7Y1624D01*
X2951Y1624D02*
X2958Y1624D01*
X0Y1623D02*
X7Y1623D01*
X2951Y1623D02*
X2958Y1623D01*
X0Y1622D02*
X7Y1622D01*
X2951Y1622D02*
X2958Y1622D01*
X0Y1621D02*
X7Y1621D01*
X2951Y1621D02*
X2958Y1621D01*
X0Y1620D02*
X7Y1620D01*
X2951Y1620D02*
X2958Y1620D01*
X0Y1619D02*
X7Y1619D01*
X2951Y1619D02*
X2958Y1619D01*
X0Y1618D02*
X7Y1618D01*
X2951Y1618D02*
X2958Y1618D01*
X0Y1617D02*
X7Y1617D01*
X2951Y1617D02*
X2958Y1617D01*
X0Y1616D02*
X7Y1616D01*
X2951Y1616D02*
X2958Y1616D01*
X0Y1615D02*
X7Y1615D01*
X2951Y1615D02*
X2958Y1615D01*
X0Y1614D02*
X7Y1614D01*
X2951Y1614D02*
X2958Y1614D01*
X0Y1613D02*
X7Y1613D01*
X2951Y1613D02*
X2958Y1613D01*
X0Y1612D02*
X7Y1612D01*
X2951Y1612D02*
X2958Y1612D01*
X0Y1611D02*
X7Y1611D01*
X2951Y1611D02*
X2958Y1611D01*
X0Y1610D02*
X7Y1610D01*
X2951Y1610D02*
X2958Y1610D01*
X0Y1609D02*
X7Y1609D01*
X2951Y1609D02*
X2958Y1609D01*
X0Y1608D02*
X7Y1608D01*
X2951Y1608D02*
X2958Y1608D01*
X0Y1607D02*
X7Y1607D01*
X2951Y1607D02*
X2958Y1607D01*
X0Y1606D02*
X7Y1606D01*
X2951Y1606D02*
X2958Y1606D01*
X0Y1605D02*
X7Y1605D01*
X2951Y1605D02*
X2958Y1605D01*
X0Y1604D02*
X7Y1604D01*
X2951Y1604D02*
X2958Y1604D01*
X0Y1603D02*
X7Y1603D01*
X2951Y1603D02*
X2958Y1603D01*
X0Y1602D02*
X7Y1602D01*
X2951Y1602D02*
X2958Y1602D01*
X0Y1601D02*
X7Y1601D01*
X2951Y1601D02*
X2958Y1601D01*
X0Y1600D02*
X7Y1600D01*
X2951Y1600D02*
X2958Y1600D01*
X0Y1599D02*
X7Y1599D01*
X2951Y1599D02*
X2958Y1599D01*
X0Y1598D02*
X7Y1598D01*
X2951Y1598D02*
X2958Y1598D01*
X0Y1597D02*
X7Y1597D01*
X2951Y1597D02*
X2958Y1597D01*
X0Y1596D02*
X7Y1596D01*
X2951Y1596D02*
X2958Y1596D01*
X0Y1595D02*
X7Y1595D01*
X2951Y1595D02*
X2958Y1595D01*
X0Y1594D02*
X7Y1594D01*
X2951Y1594D02*
X2958Y1594D01*
X0Y1593D02*
X7Y1593D01*
X2951Y1593D02*
X2958Y1593D01*
X0Y1592D02*
X7Y1592D01*
X2951Y1592D02*
X2958Y1592D01*
X0Y1591D02*
X7Y1591D01*
X2951Y1591D02*
X2958Y1591D01*
X0Y1590D02*
X7Y1590D01*
X2951Y1590D02*
X2958Y1590D01*
X0Y1589D02*
X7Y1589D01*
X2951Y1589D02*
X2958Y1589D01*
X0Y1588D02*
X7Y1588D01*
X2951Y1588D02*
X2958Y1588D01*
X0Y1587D02*
X7Y1587D01*
X2951Y1587D02*
X2958Y1587D01*
X0Y1586D02*
X7Y1586D01*
X2951Y1586D02*
X2958Y1586D01*
X0Y1585D02*
X7Y1585D01*
X2951Y1585D02*
X2958Y1585D01*
X0Y1584D02*
X7Y1584D01*
X2951Y1584D02*
X2958Y1584D01*
X0Y1583D02*
X7Y1583D01*
X2951Y1583D02*
X2958Y1583D01*
X0Y1582D02*
X7Y1582D01*
X2951Y1582D02*
X2958Y1582D01*
X0Y1581D02*
X7Y1581D01*
X2951Y1581D02*
X2958Y1581D01*
X0Y1580D02*
X7Y1580D01*
X2951Y1580D02*
X2958Y1580D01*
X0Y1579D02*
X7Y1579D01*
X2951Y1579D02*
X2958Y1579D01*
X0Y1578D02*
X7Y1578D01*
X2951Y1578D02*
X2958Y1578D01*
X0Y1577D02*
X7Y1577D01*
X2951Y1577D02*
X2958Y1577D01*
X0Y1576D02*
X7Y1576D01*
X2951Y1576D02*
X2958Y1576D01*
X0Y1575D02*
X7Y1575D01*
X2951Y1575D02*
X2958Y1575D01*
X0Y1574D02*
X7Y1574D01*
X2951Y1574D02*
X2958Y1574D01*
X0Y1573D02*
X7Y1573D01*
X2951Y1573D02*
X2958Y1573D01*
X0Y1572D02*
X7Y1572D01*
X2951Y1572D02*
X2958Y1572D01*
X0Y1571D02*
X7Y1571D01*
X2951Y1571D02*
X2958Y1571D01*
X0Y1570D02*
X7Y1570D01*
X2951Y1570D02*
X2958Y1570D01*
X0Y1569D02*
X7Y1569D01*
X2951Y1569D02*
X2958Y1569D01*
X0Y1568D02*
X7Y1568D01*
X2951Y1568D02*
X2958Y1568D01*
X0Y1567D02*
X7Y1567D01*
X2951Y1567D02*
X2958Y1567D01*
X0Y1566D02*
X7Y1566D01*
X2951Y1566D02*
X2958Y1566D01*
X0Y1565D02*
X7Y1565D01*
X2951Y1565D02*
X2958Y1565D01*
X0Y1564D02*
X7Y1564D01*
X2951Y1564D02*
X2958Y1564D01*
X0Y1563D02*
X7Y1563D01*
X2951Y1563D02*
X2958Y1563D01*
X0Y1562D02*
X7Y1562D01*
X2951Y1562D02*
X2958Y1562D01*
X0Y1561D02*
X7Y1561D01*
X2951Y1561D02*
X2958Y1561D01*
X0Y1560D02*
X7Y1560D01*
X2951Y1560D02*
X2958Y1560D01*
X0Y1559D02*
X7Y1559D01*
X2951Y1559D02*
X2958Y1559D01*
X0Y1558D02*
X7Y1558D01*
X2951Y1558D02*
X2958Y1558D01*
X0Y1557D02*
X7Y1557D01*
X2951Y1557D02*
X2958Y1557D01*
X0Y1556D02*
X7Y1556D01*
X2951Y1556D02*
X2958Y1556D01*
X0Y1555D02*
X7Y1555D01*
X2951Y1555D02*
X2958Y1555D01*
X0Y1554D02*
X7Y1554D01*
X2951Y1554D02*
X2958Y1554D01*
X0Y1553D02*
X7Y1553D01*
X2951Y1553D02*
X2958Y1553D01*
X0Y1552D02*
X7Y1552D01*
X2951Y1552D02*
X2958Y1552D01*
X0Y1551D02*
X7Y1551D01*
X2951Y1551D02*
X2958Y1551D01*
X0Y1550D02*
X7Y1550D01*
X2951Y1550D02*
X2958Y1550D01*
X0Y1549D02*
X7Y1549D01*
X2951Y1549D02*
X2958Y1549D01*
X0Y1548D02*
X7Y1548D01*
X2951Y1548D02*
X2958Y1548D01*
X0Y1547D02*
X7Y1547D01*
X2951Y1547D02*
X2958Y1547D01*
X0Y1546D02*
X7Y1546D01*
X2951Y1546D02*
X2958Y1546D01*
X0Y1545D02*
X7Y1545D01*
X2951Y1545D02*
X2958Y1545D01*
X0Y1544D02*
X7Y1544D01*
X2951Y1544D02*
X2958Y1544D01*
X0Y1543D02*
X7Y1543D01*
X2951Y1543D02*
X2958Y1543D01*
X0Y1542D02*
X7Y1542D01*
X2951Y1542D02*
X2958Y1542D01*
X0Y1541D02*
X7Y1541D01*
X2951Y1541D02*
X2958Y1541D01*
X0Y1540D02*
X7Y1540D01*
X2951Y1540D02*
X2958Y1540D01*
X0Y1539D02*
X7Y1539D01*
X2951Y1539D02*
X2958Y1539D01*
X0Y1538D02*
X7Y1538D01*
X2951Y1538D02*
X2958Y1538D01*
X0Y1537D02*
X7Y1537D01*
X2951Y1537D02*
X2958Y1537D01*
X0Y1536D02*
X7Y1536D01*
X2951Y1536D02*
X2958Y1536D01*
X0Y1535D02*
X7Y1535D01*
X2951Y1535D02*
X2958Y1535D01*
X0Y1534D02*
X7Y1534D01*
X2951Y1534D02*
X2958Y1534D01*
X0Y1533D02*
X7Y1533D01*
X2951Y1533D02*
X2958Y1533D01*
X0Y1532D02*
X7Y1532D01*
X2951Y1532D02*
X2958Y1532D01*
X0Y1531D02*
X7Y1531D01*
X2951Y1531D02*
X2958Y1531D01*
X0Y1530D02*
X7Y1530D01*
X2951Y1530D02*
X2958Y1530D01*
X0Y1529D02*
X7Y1529D01*
X2951Y1529D02*
X2958Y1529D01*
X0Y1528D02*
X7Y1528D01*
X2951Y1528D02*
X2958Y1528D01*
X0Y1527D02*
X7Y1527D01*
X2951Y1527D02*
X2958Y1527D01*
X0Y1526D02*
X7Y1526D01*
X2951Y1526D02*
X2958Y1526D01*
X0Y1525D02*
X7Y1525D01*
X2951Y1525D02*
X2958Y1525D01*
X0Y1524D02*
X7Y1524D01*
X2951Y1524D02*
X2958Y1524D01*
X0Y1523D02*
X7Y1523D01*
X2951Y1523D02*
X2958Y1523D01*
X0Y1522D02*
X7Y1522D01*
X2951Y1522D02*
X2958Y1522D01*
X0Y1521D02*
X7Y1521D01*
X2951Y1521D02*
X2958Y1521D01*
X0Y1520D02*
X7Y1520D01*
X2951Y1520D02*
X2958Y1520D01*
X0Y1519D02*
X7Y1519D01*
X2951Y1519D02*
X2958Y1519D01*
X0Y1518D02*
X7Y1518D01*
X2951Y1518D02*
X2958Y1518D01*
X0Y1517D02*
X7Y1517D01*
X2951Y1517D02*
X2958Y1517D01*
X0Y1516D02*
X7Y1516D01*
X2951Y1516D02*
X2958Y1516D01*
X0Y1515D02*
X7Y1515D01*
X2951Y1515D02*
X2958Y1515D01*
X0Y1514D02*
X7Y1514D01*
X2951Y1514D02*
X2958Y1514D01*
X0Y1513D02*
X7Y1513D01*
X2951Y1513D02*
X2958Y1513D01*
X0Y1512D02*
X7Y1512D01*
X2951Y1512D02*
X2958Y1512D01*
X0Y1511D02*
X7Y1511D01*
X2951Y1511D02*
X2958Y1511D01*
X0Y1510D02*
X7Y1510D01*
X2951Y1510D02*
X2958Y1510D01*
X0Y1509D02*
X7Y1509D01*
X2951Y1509D02*
X2958Y1509D01*
X0Y1508D02*
X7Y1508D01*
X2951Y1508D02*
X2958Y1508D01*
X0Y1507D02*
X7Y1507D01*
X2951Y1507D02*
X2958Y1507D01*
X0Y1506D02*
X7Y1506D01*
X2951Y1506D02*
X2958Y1506D01*
X0Y1505D02*
X7Y1505D01*
X2951Y1505D02*
X2958Y1505D01*
X0Y1504D02*
X7Y1504D01*
X2951Y1504D02*
X2958Y1504D01*
X0Y1503D02*
X7Y1503D01*
X2951Y1503D02*
X2958Y1503D01*
X0Y1502D02*
X7Y1502D01*
X2951Y1502D02*
X2958Y1502D01*
X0Y1501D02*
X7Y1501D01*
X2951Y1501D02*
X2958Y1501D01*
X0Y1500D02*
X7Y1500D01*
X2951Y1500D02*
X2958Y1500D01*
X0Y1499D02*
X7Y1499D01*
X2951Y1499D02*
X2958Y1499D01*
X0Y1498D02*
X7Y1498D01*
X2951Y1498D02*
X2958Y1498D01*
X0Y1497D02*
X7Y1497D01*
X2951Y1497D02*
X2958Y1497D01*
X0Y1496D02*
X7Y1496D01*
X2951Y1496D02*
X2958Y1496D01*
X0Y1495D02*
X7Y1495D01*
X2951Y1495D02*
X2958Y1495D01*
X0Y1494D02*
X7Y1494D01*
X2951Y1494D02*
X2958Y1494D01*
X0Y1493D02*
X7Y1493D01*
X2951Y1493D02*
X2958Y1493D01*
X0Y1492D02*
X7Y1492D01*
X2951Y1492D02*
X2958Y1492D01*
X0Y1491D02*
X7Y1491D01*
X2951Y1491D02*
X2958Y1491D01*
X0Y1490D02*
X7Y1490D01*
X2951Y1490D02*
X2958Y1490D01*
X0Y1489D02*
X7Y1489D01*
X2951Y1489D02*
X2958Y1489D01*
X0Y1488D02*
X7Y1488D01*
X2951Y1488D02*
X2958Y1488D01*
X0Y1487D02*
X7Y1487D01*
X2951Y1487D02*
X2958Y1487D01*
X0Y1486D02*
X7Y1486D01*
X2951Y1486D02*
X2958Y1486D01*
X0Y1485D02*
X7Y1485D01*
X2951Y1485D02*
X2958Y1485D01*
X0Y1484D02*
X7Y1484D01*
X2951Y1484D02*
X2958Y1484D01*
X0Y1483D02*
X7Y1483D01*
X2951Y1483D02*
X2958Y1483D01*
X0Y1482D02*
X7Y1482D01*
X2951Y1482D02*
X2958Y1482D01*
X0Y1481D02*
X7Y1481D01*
X2951Y1481D02*
X2958Y1481D01*
X0Y1480D02*
X7Y1480D01*
X2951Y1480D02*
X2958Y1480D01*
X0Y1479D02*
X7Y1479D01*
X2951Y1479D02*
X2958Y1479D01*
X0Y1478D02*
X7Y1478D01*
X2951Y1478D02*
X2958Y1478D01*
X0Y1477D02*
X7Y1477D01*
X2951Y1477D02*
X2958Y1477D01*
X0Y1476D02*
X7Y1476D01*
X2951Y1476D02*
X2958Y1476D01*
X0Y1475D02*
X7Y1475D01*
X2951Y1475D02*
X2958Y1475D01*
X0Y1474D02*
X7Y1474D01*
X2951Y1474D02*
X2958Y1474D01*
X0Y1473D02*
X7Y1473D01*
X2951Y1473D02*
X2958Y1473D01*
X0Y1472D02*
X7Y1472D01*
X2951Y1472D02*
X2958Y1472D01*
X0Y1471D02*
X7Y1471D01*
X2951Y1471D02*
X2958Y1471D01*
X0Y1470D02*
X7Y1470D01*
X2951Y1470D02*
X2958Y1470D01*
X0Y1469D02*
X7Y1469D01*
X2951Y1469D02*
X2958Y1469D01*
X0Y1468D02*
X7Y1468D01*
X2951Y1468D02*
X2958Y1468D01*
X0Y1467D02*
X7Y1467D01*
X2951Y1467D02*
X2958Y1467D01*
X0Y1466D02*
X7Y1466D01*
X2951Y1466D02*
X2958Y1466D01*
X0Y1465D02*
X7Y1465D01*
X2951Y1465D02*
X2958Y1465D01*
X0Y1464D02*
X7Y1464D01*
X2951Y1464D02*
X2958Y1464D01*
X0Y1463D02*
X7Y1463D01*
X2951Y1463D02*
X2958Y1463D01*
X0Y1462D02*
X7Y1462D01*
X2951Y1462D02*
X2958Y1462D01*
X0Y1461D02*
X7Y1461D01*
X2951Y1461D02*
X2958Y1461D01*
X0Y1460D02*
X7Y1460D01*
X2951Y1460D02*
X2958Y1460D01*
X0Y1459D02*
X7Y1459D01*
X2951Y1459D02*
X2958Y1459D01*
X0Y1458D02*
X7Y1458D01*
X2951Y1458D02*
X2958Y1458D01*
X0Y1457D02*
X7Y1457D01*
X2951Y1457D02*
X2958Y1457D01*
X0Y1456D02*
X7Y1456D01*
X2951Y1456D02*
X2958Y1456D01*
X0Y1455D02*
X7Y1455D01*
X2951Y1455D02*
X2958Y1455D01*
X0Y1454D02*
X7Y1454D01*
X2951Y1454D02*
X2958Y1454D01*
X0Y1453D02*
X7Y1453D01*
X2951Y1453D02*
X2958Y1453D01*
X0Y1452D02*
X7Y1452D01*
X2951Y1452D02*
X2958Y1452D01*
X0Y1451D02*
X7Y1451D01*
X2951Y1451D02*
X2958Y1451D01*
X0Y1450D02*
X7Y1450D01*
X2951Y1450D02*
X2958Y1450D01*
X0Y1449D02*
X7Y1449D01*
X2951Y1449D02*
X2958Y1449D01*
X0Y1448D02*
X7Y1448D01*
X2951Y1448D02*
X2958Y1448D01*
X0Y1447D02*
X7Y1447D01*
X2951Y1447D02*
X2958Y1447D01*
X0Y1446D02*
X7Y1446D01*
X2951Y1446D02*
X2958Y1446D01*
X0Y1445D02*
X7Y1445D01*
X2951Y1445D02*
X2958Y1445D01*
X0Y1444D02*
X7Y1444D01*
X2951Y1444D02*
X2958Y1444D01*
X0Y1443D02*
X7Y1443D01*
X2951Y1443D02*
X2958Y1443D01*
X0Y1442D02*
X7Y1442D01*
X2951Y1442D02*
X2958Y1442D01*
X0Y1441D02*
X7Y1441D01*
X2951Y1441D02*
X2958Y1441D01*
X0Y1440D02*
X7Y1440D01*
X2951Y1440D02*
X2958Y1440D01*
X0Y1439D02*
X7Y1439D01*
X2951Y1439D02*
X2958Y1439D01*
X0Y1438D02*
X7Y1438D01*
X2951Y1438D02*
X2958Y1438D01*
X0Y1437D02*
X7Y1437D01*
X2951Y1437D02*
X2958Y1437D01*
X0Y1436D02*
X7Y1436D01*
X2951Y1436D02*
X2958Y1436D01*
X0Y1435D02*
X7Y1435D01*
X2951Y1435D02*
X2958Y1435D01*
X0Y1434D02*
X7Y1434D01*
X2951Y1434D02*
X2958Y1434D01*
X0Y1433D02*
X7Y1433D01*
X2951Y1433D02*
X2958Y1433D01*
X0Y1432D02*
X7Y1432D01*
X2951Y1432D02*
X2958Y1432D01*
X0Y1431D02*
X7Y1431D01*
X2951Y1431D02*
X2958Y1431D01*
X0Y1430D02*
X7Y1430D01*
X2951Y1430D02*
X2958Y1430D01*
X0Y1429D02*
X7Y1429D01*
X2951Y1429D02*
X2958Y1429D01*
X0Y1428D02*
X7Y1428D01*
X2951Y1428D02*
X2958Y1428D01*
X0Y1427D02*
X7Y1427D01*
X2951Y1427D02*
X2958Y1427D01*
X0Y1426D02*
X7Y1426D01*
X2951Y1426D02*
X2958Y1426D01*
X0Y1425D02*
X7Y1425D01*
X2951Y1425D02*
X2958Y1425D01*
X0Y1424D02*
X7Y1424D01*
X2951Y1424D02*
X2958Y1424D01*
X0Y1423D02*
X7Y1423D01*
X2951Y1423D02*
X2958Y1423D01*
X0Y1422D02*
X7Y1422D01*
X2951Y1422D02*
X2958Y1422D01*
X0Y1421D02*
X7Y1421D01*
X2951Y1421D02*
X2958Y1421D01*
X0Y1420D02*
X7Y1420D01*
X2951Y1420D02*
X2958Y1420D01*
X0Y1419D02*
X7Y1419D01*
X2951Y1419D02*
X2958Y1419D01*
X0Y1418D02*
X7Y1418D01*
X2951Y1418D02*
X2958Y1418D01*
X0Y1417D02*
X7Y1417D01*
X2951Y1417D02*
X2958Y1417D01*
X0Y1416D02*
X7Y1416D01*
X2951Y1416D02*
X2958Y1416D01*
X0Y1415D02*
X7Y1415D01*
X2951Y1415D02*
X2958Y1415D01*
X0Y1414D02*
X7Y1414D01*
X2951Y1414D02*
X2958Y1414D01*
X0Y1413D02*
X7Y1413D01*
X2951Y1413D02*
X2958Y1413D01*
X0Y1412D02*
X7Y1412D01*
X2951Y1412D02*
X2958Y1412D01*
X0Y1411D02*
X7Y1411D01*
X2951Y1411D02*
X2958Y1411D01*
X0Y1410D02*
X7Y1410D01*
X2951Y1410D02*
X2958Y1410D01*
X0Y1409D02*
X7Y1409D01*
X2951Y1409D02*
X2958Y1409D01*
X0Y1408D02*
X7Y1408D01*
X2951Y1408D02*
X2958Y1408D01*
X0Y1407D02*
X7Y1407D01*
X2951Y1407D02*
X2958Y1407D01*
X0Y1406D02*
X7Y1406D01*
X2951Y1406D02*
X2958Y1406D01*
X0Y1405D02*
X7Y1405D01*
X2951Y1405D02*
X2958Y1405D01*
X0Y1404D02*
X7Y1404D01*
X2951Y1404D02*
X2958Y1404D01*
X0Y1403D02*
X7Y1403D01*
X2951Y1403D02*
X2958Y1403D01*
X0Y1402D02*
X7Y1402D01*
X2951Y1402D02*
X2958Y1402D01*
X0Y1401D02*
X7Y1401D01*
X2951Y1401D02*
X2958Y1401D01*
X0Y1400D02*
X7Y1400D01*
X2951Y1400D02*
X2958Y1400D01*
X0Y1399D02*
X7Y1399D01*
X2951Y1399D02*
X2958Y1399D01*
X0Y1398D02*
X7Y1398D01*
X2951Y1398D02*
X2958Y1398D01*
X0Y1397D02*
X7Y1397D01*
X2951Y1397D02*
X2958Y1397D01*
X0Y1396D02*
X7Y1396D01*
X2951Y1396D02*
X2958Y1396D01*
X0Y1395D02*
X7Y1395D01*
X2951Y1395D02*
X2958Y1395D01*
X0Y1394D02*
X7Y1394D01*
X2951Y1394D02*
X2958Y1394D01*
X0Y1393D02*
X7Y1393D01*
X2951Y1393D02*
X2958Y1393D01*
X0Y1392D02*
X7Y1392D01*
X2951Y1392D02*
X2958Y1392D01*
X0Y1391D02*
X7Y1391D01*
X2951Y1391D02*
X2958Y1391D01*
X0Y1390D02*
X7Y1390D01*
X2951Y1390D02*
X2958Y1390D01*
X0Y1389D02*
X7Y1389D01*
X2951Y1389D02*
X2958Y1389D01*
X0Y1388D02*
X7Y1388D01*
X2951Y1388D02*
X2958Y1388D01*
X0Y1387D02*
X7Y1387D01*
X2951Y1387D02*
X2958Y1387D01*
X0Y1386D02*
X7Y1386D01*
X2951Y1386D02*
X2958Y1386D01*
X0Y1385D02*
X7Y1385D01*
X2951Y1385D02*
X2958Y1385D01*
X0Y1384D02*
X7Y1384D01*
X2951Y1384D02*
X2958Y1384D01*
X0Y1383D02*
X7Y1383D01*
X2951Y1383D02*
X2958Y1383D01*
X0Y1382D02*
X7Y1382D01*
X2951Y1382D02*
X2958Y1382D01*
X0Y1381D02*
X7Y1381D01*
X2951Y1381D02*
X2958Y1381D01*
X0Y1380D02*
X7Y1380D01*
X2951Y1380D02*
X2958Y1380D01*
X0Y1379D02*
X7Y1379D01*
X2951Y1379D02*
X2958Y1379D01*
X0Y1378D02*
X7Y1378D01*
X2951Y1378D02*
X2958Y1378D01*
X0Y1377D02*
X7Y1377D01*
X2951Y1377D02*
X2958Y1377D01*
X0Y1376D02*
X7Y1376D01*
X2951Y1376D02*
X2958Y1376D01*
X0Y1375D02*
X7Y1375D01*
X2951Y1375D02*
X2958Y1375D01*
X0Y1374D02*
X7Y1374D01*
X2951Y1374D02*
X2958Y1374D01*
X0Y1373D02*
X7Y1373D01*
X2951Y1373D02*
X2958Y1373D01*
X0Y1372D02*
X7Y1372D01*
X2951Y1372D02*
X2958Y1372D01*
X0Y1371D02*
X7Y1371D01*
X2951Y1371D02*
X2958Y1371D01*
X0Y1370D02*
X7Y1370D01*
X2951Y1370D02*
X2958Y1370D01*
X0Y1369D02*
X7Y1369D01*
X2951Y1369D02*
X2958Y1369D01*
X0Y1368D02*
X7Y1368D01*
X2951Y1368D02*
X2958Y1368D01*
X0Y1367D02*
X7Y1367D01*
X2951Y1367D02*
X2958Y1367D01*
X0Y1366D02*
X7Y1366D01*
X2951Y1366D02*
X2958Y1366D01*
X0Y1365D02*
X7Y1365D01*
X2951Y1365D02*
X2958Y1365D01*
X0Y1364D02*
X7Y1364D01*
X2951Y1364D02*
X2958Y1364D01*
X0Y1363D02*
X7Y1363D01*
X2951Y1363D02*
X2958Y1363D01*
X0Y1362D02*
X7Y1362D01*
X2951Y1362D02*
X2958Y1362D01*
X0Y1361D02*
X7Y1361D01*
X2951Y1361D02*
X2958Y1361D01*
X0Y1360D02*
X7Y1360D01*
X2951Y1360D02*
X2958Y1360D01*
X0Y1359D02*
X7Y1359D01*
X2951Y1359D02*
X2958Y1359D01*
X0Y1358D02*
X7Y1358D01*
X2951Y1358D02*
X2958Y1358D01*
X0Y1357D02*
X7Y1357D01*
X2951Y1357D02*
X2958Y1357D01*
X0Y1356D02*
X7Y1356D01*
X2951Y1356D02*
X2958Y1356D01*
X0Y1355D02*
X7Y1355D01*
X2951Y1355D02*
X2958Y1355D01*
X0Y1354D02*
X7Y1354D01*
X2951Y1354D02*
X2958Y1354D01*
X0Y1353D02*
X7Y1353D01*
X2951Y1353D02*
X2958Y1353D01*
X0Y1352D02*
X7Y1352D01*
X2951Y1352D02*
X2958Y1352D01*
X0Y1351D02*
X7Y1351D01*
X2951Y1351D02*
X2958Y1351D01*
X0Y1350D02*
X7Y1350D01*
X2951Y1350D02*
X2958Y1350D01*
X0Y1349D02*
X7Y1349D01*
X2951Y1349D02*
X2958Y1349D01*
X0Y1348D02*
X7Y1348D01*
X2951Y1348D02*
X2958Y1348D01*
X0Y1347D02*
X7Y1347D01*
X2951Y1347D02*
X2958Y1347D01*
X0Y1346D02*
X7Y1346D01*
X2951Y1346D02*
X2958Y1346D01*
X0Y1345D02*
X7Y1345D01*
X2951Y1345D02*
X2958Y1345D01*
X0Y1344D02*
X7Y1344D01*
X2951Y1344D02*
X2958Y1344D01*
X0Y1343D02*
X7Y1343D01*
X2951Y1343D02*
X2958Y1343D01*
X0Y1342D02*
X7Y1342D01*
X2951Y1342D02*
X2958Y1342D01*
X0Y1341D02*
X7Y1341D01*
X2951Y1341D02*
X2958Y1341D01*
X0Y1340D02*
X7Y1340D01*
X2951Y1340D02*
X2958Y1340D01*
X0Y1339D02*
X7Y1339D01*
X2951Y1339D02*
X2958Y1339D01*
X0Y1338D02*
X7Y1338D01*
X2951Y1338D02*
X2958Y1338D01*
X0Y1337D02*
X7Y1337D01*
X2951Y1337D02*
X2958Y1337D01*
X0Y1336D02*
X7Y1336D01*
X2951Y1336D02*
X2958Y1336D01*
X0Y1335D02*
X7Y1335D01*
X2951Y1335D02*
X2958Y1335D01*
X0Y1334D02*
X7Y1334D01*
X2951Y1334D02*
X2958Y1334D01*
X0Y1333D02*
X7Y1333D01*
X2951Y1333D02*
X2958Y1333D01*
X0Y1332D02*
X7Y1332D01*
X2951Y1332D02*
X2958Y1332D01*
X0Y1331D02*
X7Y1331D01*
X2951Y1331D02*
X2958Y1331D01*
X0Y1330D02*
X7Y1330D01*
X2951Y1330D02*
X2958Y1330D01*
X0Y1329D02*
X7Y1329D01*
X2951Y1329D02*
X2958Y1329D01*
X0Y1328D02*
X7Y1328D01*
X2951Y1328D02*
X2958Y1328D01*
X0Y1327D02*
X7Y1327D01*
X2951Y1327D02*
X2958Y1327D01*
X0Y1326D02*
X7Y1326D01*
X2951Y1326D02*
X2958Y1326D01*
X0Y1325D02*
X7Y1325D01*
X2951Y1325D02*
X2958Y1325D01*
X0Y1324D02*
X7Y1324D01*
X2951Y1324D02*
X2958Y1324D01*
X0Y1323D02*
X7Y1323D01*
X2951Y1323D02*
X2958Y1323D01*
X0Y1322D02*
X7Y1322D01*
X2951Y1322D02*
X2958Y1322D01*
X0Y1321D02*
X7Y1321D01*
X2951Y1321D02*
X2958Y1321D01*
X0Y1320D02*
X7Y1320D01*
X2951Y1320D02*
X2958Y1320D01*
X0Y1319D02*
X7Y1319D01*
X2951Y1319D02*
X2958Y1319D01*
X0Y1318D02*
X7Y1318D01*
X2951Y1318D02*
X2958Y1318D01*
X0Y1317D02*
X7Y1317D01*
X2951Y1317D02*
X2958Y1317D01*
X0Y1316D02*
X7Y1316D01*
X2951Y1316D02*
X2958Y1316D01*
X0Y1315D02*
X7Y1315D01*
X2951Y1315D02*
X2958Y1315D01*
X0Y1314D02*
X7Y1314D01*
X2951Y1314D02*
X2958Y1314D01*
X0Y1313D02*
X7Y1313D01*
X2951Y1313D02*
X2958Y1313D01*
X0Y1312D02*
X7Y1312D01*
X2951Y1312D02*
X2958Y1312D01*
X0Y1311D02*
X7Y1311D01*
X2951Y1311D02*
X2958Y1311D01*
X0Y1310D02*
X7Y1310D01*
X2951Y1310D02*
X2958Y1310D01*
X0Y1309D02*
X7Y1309D01*
X2951Y1309D02*
X2958Y1309D01*
X0Y1308D02*
X7Y1308D01*
X2951Y1308D02*
X2958Y1308D01*
X0Y1307D02*
X7Y1307D01*
X2951Y1307D02*
X2958Y1307D01*
X0Y1306D02*
X7Y1306D01*
X2951Y1306D02*
X2958Y1306D01*
X0Y1305D02*
X7Y1305D01*
X2951Y1305D02*
X2958Y1305D01*
X0Y1304D02*
X7Y1304D01*
X2951Y1304D02*
X2958Y1304D01*
X0Y1303D02*
X7Y1303D01*
X2951Y1303D02*
X2958Y1303D01*
X0Y1302D02*
X7Y1302D01*
X2951Y1302D02*
X2958Y1302D01*
X0Y1301D02*
X7Y1301D01*
X2951Y1301D02*
X2958Y1301D01*
X0Y1300D02*
X7Y1300D01*
X2951Y1300D02*
X2958Y1300D01*
X0Y1299D02*
X7Y1299D01*
X2951Y1299D02*
X2958Y1299D01*
X0Y1298D02*
X7Y1298D01*
X2951Y1298D02*
X2958Y1298D01*
X0Y1297D02*
X7Y1297D01*
X2951Y1297D02*
X2958Y1297D01*
X0Y1296D02*
X7Y1296D01*
X2951Y1296D02*
X2958Y1296D01*
X0Y1295D02*
X7Y1295D01*
X2951Y1295D02*
X2958Y1295D01*
X0Y1294D02*
X7Y1294D01*
X2951Y1294D02*
X2958Y1294D01*
X0Y1293D02*
X7Y1293D01*
X2951Y1293D02*
X2958Y1293D01*
X0Y1292D02*
X7Y1292D01*
X2951Y1292D02*
X2958Y1292D01*
X0Y1291D02*
X7Y1291D01*
X2951Y1291D02*
X2958Y1291D01*
X0Y1290D02*
X7Y1290D01*
X2951Y1290D02*
X2958Y1290D01*
X0Y1289D02*
X7Y1289D01*
X2951Y1289D02*
X2958Y1289D01*
X0Y1288D02*
X7Y1288D01*
X2951Y1288D02*
X2958Y1288D01*
X0Y1287D02*
X7Y1287D01*
X2951Y1287D02*
X2958Y1287D01*
X0Y1286D02*
X7Y1286D01*
X2951Y1286D02*
X2958Y1286D01*
X0Y1285D02*
X7Y1285D01*
X2951Y1285D02*
X2958Y1285D01*
X0Y1284D02*
X7Y1284D01*
X2951Y1284D02*
X2958Y1284D01*
X0Y1283D02*
X7Y1283D01*
X2951Y1283D02*
X2958Y1283D01*
X0Y1282D02*
X7Y1282D01*
X2951Y1282D02*
X2958Y1282D01*
X0Y1281D02*
X7Y1281D01*
X2951Y1281D02*
X2958Y1281D01*
X0Y1280D02*
X7Y1280D01*
X2951Y1280D02*
X2958Y1280D01*
X0Y1279D02*
X7Y1279D01*
X2951Y1279D02*
X2958Y1279D01*
X0Y1278D02*
X7Y1278D01*
X2951Y1278D02*
X2958Y1278D01*
X0Y1277D02*
X7Y1277D01*
X2951Y1277D02*
X2958Y1277D01*
X0Y1276D02*
X7Y1276D01*
X2951Y1276D02*
X2958Y1276D01*
X0Y1275D02*
X7Y1275D01*
X2951Y1275D02*
X2958Y1275D01*
X0Y1274D02*
X7Y1274D01*
X2951Y1274D02*
X2958Y1274D01*
X0Y1273D02*
X7Y1273D01*
X2951Y1273D02*
X2958Y1273D01*
X0Y1272D02*
X7Y1272D01*
X2951Y1272D02*
X2958Y1272D01*
X0Y1271D02*
X7Y1271D01*
X2951Y1271D02*
X2958Y1271D01*
X0Y1270D02*
X7Y1270D01*
X2951Y1270D02*
X2958Y1270D01*
X0Y1269D02*
X7Y1269D01*
X2951Y1269D02*
X2958Y1269D01*
X0Y1268D02*
X7Y1268D01*
X2951Y1268D02*
X2958Y1268D01*
X0Y1267D02*
X7Y1267D01*
X2951Y1267D02*
X2958Y1267D01*
X0Y1266D02*
X7Y1266D01*
X2951Y1266D02*
X2958Y1266D01*
X0Y1265D02*
X7Y1265D01*
X2951Y1265D02*
X2958Y1265D01*
X0Y1264D02*
X7Y1264D01*
X2951Y1264D02*
X2958Y1264D01*
X0Y1263D02*
X7Y1263D01*
X2951Y1263D02*
X2958Y1263D01*
X0Y1262D02*
X7Y1262D01*
X2951Y1262D02*
X2958Y1262D01*
X0Y1261D02*
X7Y1261D01*
X2951Y1261D02*
X2958Y1261D01*
X0Y1260D02*
X7Y1260D01*
X2951Y1260D02*
X2958Y1260D01*
X0Y1259D02*
X7Y1259D01*
X2951Y1259D02*
X2958Y1259D01*
X0Y1258D02*
X7Y1258D01*
X2951Y1258D02*
X2958Y1258D01*
X0Y1257D02*
X7Y1257D01*
X2951Y1257D02*
X2958Y1257D01*
X0Y1256D02*
X7Y1256D01*
X2951Y1256D02*
X2958Y1256D01*
X0Y1255D02*
X7Y1255D01*
X2951Y1255D02*
X2958Y1255D01*
X0Y1254D02*
X7Y1254D01*
X2951Y1254D02*
X2958Y1254D01*
X0Y1253D02*
X7Y1253D01*
X2951Y1253D02*
X2958Y1253D01*
X0Y1252D02*
X7Y1252D01*
X2951Y1252D02*
X2958Y1252D01*
X0Y1251D02*
X7Y1251D01*
X2951Y1251D02*
X2958Y1251D01*
X0Y1250D02*
X7Y1250D01*
X2951Y1250D02*
X2958Y1250D01*
X0Y1249D02*
X7Y1249D01*
X2951Y1249D02*
X2958Y1249D01*
X0Y1248D02*
X7Y1248D01*
X2951Y1248D02*
X2958Y1248D01*
X0Y1247D02*
X7Y1247D01*
X2951Y1247D02*
X2958Y1247D01*
X0Y1246D02*
X7Y1246D01*
X2951Y1246D02*
X2958Y1246D01*
X0Y1245D02*
X7Y1245D01*
X2951Y1245D02*
X2958Y1245D01*
X0Y1244D02*
X7Y1244D01*
X2951Y1244D02*
X2958Y1244D01*
X0Y1243D02*
X7Y1243D01*
X2951Y1243D02*
X2958Y1243D01*
X0Y1242D02*
X7Y1242D01*
X2951Y1242D02*
X2958Y1242D01*
X0Y1241D02*
X7Y1241D01*
X2951Y1241D02*
X2958Y1241D01*
X0Y1240D02*
X7Y1240D01*
X2951Y1240D02*
X2958Y1240D01*
X0Y1239D02*
X7Y1239D01*
X2951Y1239D02*
X2958Y1239D01*
X0Y1238D02*
X7Y1238D01*
X2951Y1238D02*
X2958Y1238D01*
X0Y1237D02*
X7Y1237D01*
X2951Y1237D02*
X2958Y1237D01*
X0Y1236D02*
X7Y1236D01*
X2951Y1236D02*
X2958Y1236D01*
X0Y1235D02*
X7Y1235D01*
X2951Y1235D02*
X2958Y1235D01*
X0Y1234D02*
X7Y1234D01*
X2951Y1234D02*
X2958Y1234D01*
X0Y1233D02*
X7Y1233D01*
X2951Y1233D02*
X2958Y1233D01*
X0Y1232D02*
X7Y1232D01*
X2951Y1232D02*
X2958Y1232D01*
X0Y1231D02*
X7Y1231D01*
X2951Y1231D02*
X2958Y1231D01*
X0Y1230D02*
X7Y1230D01*
X2951Y1230D02*
X2958Y1230D01*
X0Y1229D02*
X7Y1229D01*
X2951Y1229D02*
X2958Y1229D01*
X0Y1228D02*
X7Y1228D01*
X2951Y1228D02*
X2958Y1228D01*
X0Y1227D02*
X7Y1227D01*
X2951Y1227D02*
X2958Y1227D01*
X0Y1226D02*
X7Y1226D01*
X2951Y1226D02*
X2958Y1226D01*
X0Y1225D02*
X7Y1225D01*
X2951Y1225D02*
X2958Y1225D01*
X0Y1224D02*
X7Y1224D01*
X2951Y1224D02*
X2958Y1224D01*
X0Y1223D02*
X7Y1223D01*
X2951Y1223D02*
X2958Y1223D01*
X0Y1222D02*
X7Y1222D01*
X2951Y1222D02*
X2958Y1222D01*
X0Y1221D02*
X7Y1221D01*
X2951Y1221D02*
X2958Y1221D01*
X0Y1220D02*
X7Y1220D01*
X2951Y1220D02*
X2958Y1220D01*
X0Y1219D02*
X7Y1219D01*
X2951Y1219D02*
X2958Y1219D01*
X0Y1218D02*
X7Y1218D01*
X2951Y1218D02*
X2958Y1218D01*
X0Y1217D02*
X7Y1217D01*
X2951Y1217D02*
X2958Y1217D01*
X0Y1216D02*
X7Y1216D01*
X2951Y1216D02*
X2958Y1216D01*
X0Y1215D02*
X7Y1215D01*
X2951Y1215D02*
X2958Y1215D01*
X0Y1214D02*
X7Y1214D01*
X2951Y1214D02*
X2958Y1214D01*
X0Y1213D02*
X7Y1213D01*
X2951Y1213D02*
X2958Y1213D01*
X0Y1212D02*
X7Y1212D01*
X2951Y1212D02*
X2958Y1212D01*
X0Y1211D02*
X7Y1211D01*
X2951Y1211D02*
X2958Y1211D01*
X0Y1210D02*
X7Y1210D01*
X2951Y1210D02*
X2958Y1210D01*
X0Y1209D02*
X7Y1209D01*
X2951Y1209D02*
X2958Y1209D01*
X0Y1208D02*
X7Y1208D01*
X2951Y1208D02*
X2958Y1208D01*
X0Y1207D02*
X7Y1207D01*
X2951Y1207D02*
X2958Y1207D01*
X0Y1206D02*
X7Y1206D01*
X2951Y1206D02*
X2958Y1206D01*
X0Y1205D02*
X7Y1205D01*
X2951Y1205D02*
X2958Y1205D01*
X0Y1204D02*
X7Y1204D01*
X2951Y1204D02*
X2958Y1204D01*
X0Y1203D02*
X7Y1203D01*
X2951Y1203D02*
X2958Y1203D01*
X0Y1202D02*
X7Y1202D01*
X2951Y1202D02*
X2958Y1202D01*
X0Y1201D02*
X7Y1201D01*
X2951Y1201D02*
X2958Y1201D01*
X0Y1200D02*
X7Y1200D01*
X2951Y1200D02*
X2958Y1200D01*
X0Y1199D02*
X7Y1199D01*
X2951Y1199D02*
X2958Y1199D01*
X0Y1198D02*
X7Y1198D01*
X2951Y1198D02*
X2958Y1198D01*
X0Y1197D02*
X7Y1197D01*
X2951Y1197D02*
X2958Y1197D01*
X0Y1196D02*
X7Y1196D01*
X2951Y1196D02*
X2958Y1196D01*
X0Y1195D02*
X7Y1195D01*
X2951Y1195D02*
X2958Y1195D01*
X0Y1194D02*
X7Y1194D01*
X2951Y1194D02*
X2958Y1194D01*
X0Y1193D02*
X7Y1193D01*
X2951Y1193D02*
X2958Y1193D01*
X0Y1192D02*
X7Y1192D01*
X2951Y1192D02*
X2958Y1192D01*
X0Y1191D02*
X7Y1191D01*
X2951Y1191D02*
X2958Y1191D01*
X0Y1190D02*
X7Y1190D01*
X2951Y1190D02*
X2958Y1190D01*
X0Y1189D02*
X7Y1189D01*
X2951Y1189D02*
X2958Y1189D01*
X0Y1188D02*
X7Y1188D01*
X2951Y1188D02*
X2958Y1188D01*
X0Y1187D02*
X7Y1187D01*
X2951Y1187D02*
X2958Y1187D01*
X0Y1186D02*
X7Y1186D01*
X2951Y1186D02*
X2958Y1186D01*
X0Y1185D02*
X7Y1185D01*
X2951Y1185D02*
X2958Y1185D01*
X0Y1184D02*
X7Y1184D01*
X2951Y1184D02*
X2958Y1184D01*
X0Y1183D02*
X7Y1183D01*
X2951Y1183D02*
X2958Y1183D01*
X0Y1182D02*
X7Y1182D01*
X2951Y1182D02*
X2958Y1182D01*
X0Y1181D02*
X7Y1181D01*
X2951Y1181D02*
X2958Y1181D01*
X0Y1180D02*
X7Y1180D01*
X2951Y1180D02*
X2958Y1180D01*
X0Y1179D02*
X7Y1179D01*
X2951Y1179D02*
X2958Y1179D01*
X0Y1178D02*
X7Y1178D01*
X2951Y1178D02*
X2958Y1178D01*
X0Y1177D02*
X7Y1177D01*
X2951Y1177D02*
X2958Y1177D01*
X0Y1176D02*
X7Y1176D01*
X2951Y1176D02*
X2958Y1176D01*
X0Y1175D02*
X7Y1175D01*
X2951Y1175D02*
X2958Y1175D01*
X0Y1174D02*
X7Y1174D01*
X2951Y1174D02*
X2958Y1174D01*
X0Y1173D02*
X7Y1173D01*
X2951Y1173D02*
X2958Y1173D01*
X0Y1172D02*
X7Y1172D01*
X2951Y1172D02*
X2958Y1172D01*
X0Y1171D02*
X7Y1171D01*
X2951Y1171D02*
X2958Y1171D01*
X0Y1170D02*
X7Y1170D01*
X2951Y1170D02*
X2958Y1170D01*
X0Y1169D02*
X7Y1169D01*
X2951Y1169D02*
X2958Y1169D01*
X0Y1168D02*
X7Y1168D01*
X2951Y1168D02*
X2958Y1168D01*
X0Y1167D02*
X7Y1167D01*
X2951Y1167D02*
X2958Y1167D01*
X0Y1166D02*
X7Y1166D01*
X2951Y1166D02*
X2958Y1166D01*
X0Y1165D02*
X7Y1165D01*
X2951Y1165D02*
X2958Y1165D01*
X0Y1164D02*
X7Y1164D01*
X2951Y1164D02*
X2958Y1164D01*
X0Y1163D02*
X7Y1163D01*
X2951Y1163D02*
X2958Y1163D01*
X0Y1162D02*
X7Y1162D01*
X2951Y1162D02*
X2958Y1162D01*
X0Y1161D02*
X7Y1161D01*
X2951Y1161D02*
X2958Y1161D01*
X0Y1160D02*
X7Y1160D01*
X2951Y1160D02*
X2958Y1160D01*
X0Y1159D02*
X7Y1159D01*
X2951Y1159D02*
X2958Y1159D01*
X0Y1158D02*
X7Y1158D01*
X2951Y1158D02*
X2958Y1158D01*
X0Y1157D02*
X7Y1157D01*
X2951Y1157D02*
X2958Y1157D01*
X0Y1156D02*
X7Y1156D01*
X2951Y1156D02*
X2958Y1156D01*
X0Y1155D02*
X7Y1155D01*
X2951Y1155D02*
X2958Y1155D01*
X0Y1154D02*
X7Y1154D01*
X2951Y1154D02*
X2958Y1154D01*
X0Y1153D02*
X7Y1153D01*
X2951Y1153D02*
X2958Y1153D01*
X0Y1152D02*
X7Y1152D01*
X2951Y1152D02*
X2958Y1152D01*
X0Y1151D02*
X7Y1151D01*
X2951Y1151D02*
X2958Y1151D01*
X0Y1150D02*
X7Y1150D01*
X2951Y1150D02*
X2958Y1150D01*
X0Y1149D02*
X7Y1149D01*
X2951Y1149D02*
X2958Y1149D01*
X0Y1148D02*
X7Y1148D01*
X2951Y1148D02*
X2958Y1148D01*
X0Y1147D02*
X7Y1147D01*
X2951Y1147D02*
X2958Y1147D01*
X0Y1146D02*
X7Y1146D01*
X2951Y1146D02*
X2958Y1146D01*
X0Y1145D02*
X7Y1145D01*
X2951Y1145D02*
X2958Y1145D01*
X0Y1144D02*
X7Y1144D01*
X2951Y1144D02*
X2958Y1144D01*
X0Y1143D02*
X7Y1143D01*
X2951Y1143D02*
X2958Y1143D01*
X0Y1142D02*
X7Y1142D01*
X2951Y1142D02*
X2958Y1142D01*
X0Y1141D02*
X7Y1141D01*
X2951Y1141D02*
X2958Y1141D01*
X0Y1140D02*
X7Y1140D01*
X2951Y1140D02*
X2958Y1140D01*
X0Y1139D02*
X7Y1139D01*
X2951Y1139D02*
X2958Y1139D01*
X0Y1138D02*
X7Y1138D01*
X2951Y1138D02*
X2958Y1138D01*
X0Y1137D02*
X7Y1137D01*
X2951Y1137D02*
X2958Y1137D01*
X0Y1136D02*
X7Y1136D01*
X2951Y1136D02*
X2958Y1136D01*
X0Y1135D02*
X7Y1135D01*
X2951Y1135D02*
X2958Y1135D01*
X0Y1134D02*
X7Y1134D01*
X2951Y1134D02*
X2958Y1134D01*
X0Y1133D02*
X7Y1133D01*
X2951Y1133D02*
X2958Y1133D01*
X0Y1132D02*
X7Y1132D01*
X2951Y1132D02*
X2958Y1132D01*
X0Y1131D02*
X7Y1131D01*
X2951Y1131D02*
X2958Y1131D01*
X0Y1130D02*
X7Y1130D01*
X2951Y1130D02*
X2958Y1130D01*
X0Y1129D02*
X7Y1129D01*
X2951Y1129D02*
X2958Y1129D01*
X0Y1128D02*
X7Y1128D01*
X2951Y1128D02*
X2958Y1128D01*
X0Y1127D02*
X7Y1127D01*
X2951Y1127D02*
X2958Y1127D01*
X0Y1126D02*
X7Y1126D01*
X2951Y1126D02*
X2958Y1126D01*
X0Y1125D02*
X7Y1125D01*
X2951Y1125D02*
X2958Y1125D01*
X0Y1124D02*
X7Y1124D01*
X2951Y1124D02*
X2958Y1124D01*
X0Y1123D02*
X7Y1123D01*
X2951Y1123D02*
X2958Y1123D01*
X0Y1122D02*
X7Y1122D01*
X2951Y1122D02*
X2958Y1122D01*
X0Y1121D02*
X7Y1121D01*
X2951Y1121D02*
X2958Y1121D01*
X0Y1120D02*
X7Y1120D01*
X2951Y1120D02*
X2958Y1120D01*
X0Y1119D02*
X7Y1119D01*
X2951Y1119D02*
X2958Y1119D01*
X0Y1118D02*
X7Y1118D01*
X2951Y1118D02*
X2958Y1118D01*
X0Y1117D02*
X7Y1117D01*
X2951Y1117D02*
X2958Y1117D01*
X0Y1116D02*
X7Y1116D01*
X2951Y1116D02*
X2958Y1116D01*
X0Y1115D02*
X7Y1115D01*
X2951Y1115D02*
X2958Y1115D01*
X0Y1114D02*
X7Y1114D01*
X2951Y1114D02*
X2958Y1114D01*
X0Y1113D02*
X7Y1113D01*
X2951Y1113D02*
X2958Y1113D01*
X0Y1112D02*
X7Y1112D01*
X2951Y1112D02*
X2958Y1112D01*
X0Y1111D02*
X7Y1111D01*
X2951Y1111D02*
X2958Y1111D01*
X0Y1110D02*
X7Y1110D01*
X2951Y1110D02*
X2958Y1110D01*
X0Y1109D02*
X7Y1109D01*
X2951Y1109D02*
X2958Y1109D01*
X0Y1108D02*
X7Y1108D01*
X2951Y1108D02*
X2958Y1108D01*
X0Y1107D02*
X7Y1107D01*
X2951Y1107D02*
X2958Y1107D01*
X0Y1106D02*
X7Y1106D01*
X2951Y1106D02*
X2958Y1106D01*
X0Y1105D02*
X7Y1105D01*
X2951Y1105D02*
X2958Y1105D01*
X0Y1104D02*
X7Y1104D01*
X2951Y1104D02*
X2958Y1104D01*
X0Y1103D02*
X7Y1103D01*
X2951Y1103D02*
X2958Y1103D01*
X0Y1102D02*
X7Y1102D01*
X2951Y1102D02*
X2958Y1102D01*
X0Y1101D02*
X7Y1101D01*
X2951Y1101D02*
X2958Y1101D01*
X0Y1100D02*
X7Y1100D01*
X2951Y1100D02*
X2958Y1100D01*
X0Y1099D02*
X7Y1099D01*
X2951Y1099D02*
X2958Y1099D01*
X0Y1098D02*
X7Y1098D01*
X2951Y1098D02*
X2958Y1098D01*
X0Y1097D02*
X7Y1097D01*
X2951Y1097D02*
X2958Y1097D01*
X0Y1096D02*
X7Y1096D01*
X2951Y1096D02*
X2958Y1096D01*
X0Y1095D02*
X7Y1095D01*
X2951Y1095D02*
X2958Y1095D01*
X0Y1094D02*
X7Y1094D01*
X2951Y1094D02*
X2958Y1094D01*
X0Y1093D02*
X7Y1093D01*
X2951Y1093D02*
X2958Y1093D01*
X0Y1092D02*
X7Y1092D01*
X2951Y1092D02*
X2958Y1092D01*
X0Y1091D02*
X7Y1091D01*
X2951Y1091D02*
X2958Y1091D01*
X0Y1090D02*
X7Y1090D01*
X2951Y1090D02*
X2958Y1090D01*
X0Y1089D02*
X7Y1089D01*
X2951Y1089D02*
X2958Y1089D01*
X0Y1088D02*
X7Y1088D01*
X2951Y1088D02*
X2958Y1088D01*
X0Y1087D02*
X7Y1087D01*
X2951Y1087D02*
X2958Y1087D01*
X0Y1086D02*
X7Y1086D01*
X2951Y1086D02*
X2958Y1086D01*
X0Y1085D02*
X7Y1085D01*
X2951Y1085D02*
X2958Y1085D01*
X0Y1084D02*
X7Y1084D01*
X2951Y1084D02*
X2958Y1084D01*
X0Y1083D02*
X7Y1083D01*
X2951Y1083D02*
X2958Y1083D01*
X0Y1082D02*
X7Y1082D01*
X2951Y1082D02*
X2958Y1082D01*
X0Y1081D02*
X7Y1081D01*
X2951Y1081D02*
X2958Y1081D01*
X0Y1080D02*
X7Y1080D01*
X2951Y1080D02*
X2958Y1080D01*
X0Y1079D02*
X7Y1079D01*
X2951Y1079D02*
X2958Y1079D01*
X0Y1078D02*
X7Y1078D01*
X2951Y1078D02*
X2958Y1078D01*
X0Y1077D02*
X7Y1077D01*
X2951Y1077D02*
X2958Y1077D01*
X0Y1076D02*
X7Y1076D01*
X2951Y1076D02*
X2958Y1076D01*
X0Y1075D02*
X7Y1075D01*
X2951Y1075D02*
X2958Y1075D01*
X0Y1074D02*
X7Y1074D01*
X2951Y1074D02*
X2958Y1074D01*
X0Y1073D02*
X7Y1073D01*
X2951Y1073D02*
X2958Y1073D01*
X0Y1072D02*
X7Y1072D01*
X2951Y1072D02*
X2958Y1072D01*
X0Y1071D02*
X7Y1071D01*
X2951Y1071D02*
X2958Y1071D01*
X0Y1070D02*
X7Y1070D01*
X2951Y1070D02*
X2958Y1070D01*
X0Y1069D02*
X7Y1069D01*
X2951Y1069D02*
X2958Y1069D01*
X0Y1068D02*
X7Y1068D01*
X2951Y1068D02*
X2958Y1068D01*
X0Y1067D02*
X7Y1067D01*
X2951Y1067D02*
X2958Y1067D01*
X0Y1066D02*
X7Y1066D01*
X2951Y1066D02*
X2958Y1066D01*
X0Y1065D02*
X7Y1065D01*
X2951Y1065D02*
X2958Y1065D01*
X0Y1064D02*
X7Y1064D01*
X2951Y1064D02*
X2958Y1064D01*
X0Y1063D02*
X7Y1063D01*
X2951Y1063D02*
X2958Y1063D01*
X0Y1062D02*
X7Y1062D01*
X2951Y1062D02*
X2958Y1062D01*
X0Y1061D02*
X7Y1061D01*
X2951Y1061D02*
X2958Y1061D01*
X0Y1060D02*
X7Y1060D01*
X2951Y1060D02*
X2958Y1060D01*
X0Y1059D02*
X7Y1059D01*
X2951Y1059D02*
X2958Y1059D01*
X0Y1058D02*
X7Y1058D01*
X2951Y1058D02*
X2958Y1058D01*
X0Y1057D02*
X7Y1057D01*
X2951Y1057D02*
X2958Y1057D01*
X0Y1056D02*
X7Y1056D01*
X2951Y1056D02*
X2958Y1056D01*
X0Y1055D02*
X7Y1055D01*
X2951Y1055D02*
X2958Y1055D01*
X0Y1054D02*
X7Y1054D01*
X2951Y1054D02*
X2958Y1054D01*
X0Y1053D02*
X7Y1053D01*
X2951Y1053D02*
X2958Y1053D01*
X0Y1052D02*
X7Y1052D01*
X2951Y1052D02*
X2958Y1052D01*
X0Y1051D02*
X7Y1051D01*
X2951Y1051D02*
X2958Y1051D01*
X0Y1050D02*
X7Y1050D01*
X2951Y1050D02*
X2958Y1050D01*
X0Y1049D02*
X7Y1049D01*
X2951Y1049D02*
X2958Y1049D01*
X0Y1048D02*
X7Y1048D01*
X2951Y1048D02*
X2958Y1048D01*
X0Y1047D02*
X7Y1047D01*
X2951Y1047D02*
X2958Y1047D01*
X0Y1046D02*
X7Y1046D01*
X2951Y1046D02*
X2958Y1046D01*
X0Y1045D02*
X7Y1045D01*
X2951Y1045D02*
X2958Y1045D01*
X0Y1044D02*
X7Y1044D01*
X2951Y1044D02*
X2958Y1044D01*
X0Y1043D02*
X7Y1043D01*
X2951Y1043D02*
X2958Y1043D01*
X0Y1042D02*
X7Y1042D01*
X2951Y1042D02*
X2958Y1042D01*
X0Y1041D02*
X7Y1041D01*
X2951Y1041D02*
X2958Y1041D01*
X0Y1040D02*
X7Y1040D01*
X2951Y1040D02*
X2958Y1040D01*
X0Y1039D02*
X7Y1039D01*
X2951Y1039D02*
X2958Y1039D01*
X0Y1038D02*
X7Y1038D01*
X2951Y1038D02*
X2958Y1038D01*
X0Y1037D02*
X7Y1037D01*
X2951Y1037D02*
X2958Y1037D01*
X0Y1036D02*
X7Y1036D01*
X2951Y1036D02*
X2958Y1036D01*
X0Y1035D02*
X7Y1035D01*
X2951Y1035D02*
X2958Y1035D01*
X0Y1034D02*
X7Y1034D01*
X2951Y1034D02*
X2958Y1034D01*
X0Y1033D02*
X7Y1033D01*
X2951Y1033D02*
X2958Y1033D01*
X0Y1032D02*
X7Y1032D01*
X2951Y1032D02*
X2958Y1032D01*
X0Y1031D02*
X7Y1031D01*
X2951Y1031D02*
X2958Y1031D01*
X0Y1030D02*
X7Y1030D01*
X2951Y1030D02*
X2958Y1030D01*
X0Y1029D02*
X7Y1029D01*
X2951Y1029D02*
X2958Y1029D01*
X0Y1028D02*
X7Y1028D01*
X2951Y1028D02*
X2958Y1028D01*
X0Y1027D02*
X7Y1027D01*
X2951Y1027D02*
X2958Y1027D01*
X0Y1026D02*
X7Y1026D01*
X2951Y1026D02*
X2958Y1026D01*
X0Y1025D02*
X7Y1025D01*
X2951Y1025D02*
X2958Y1025D01*
X0Y1024D02*
X7Y1024D01*
X2951Y1024D02*
X2958Y1024D01*
X0Y1023D02*
X7Y1023D01*
X2951Y1023D02*
X2958Y1023D01*
X0Y1022D02*
X7Y1022D01*
X2951Y1022D02*
X2958Y1022D01*
X0Y1021D02*
X7Y1021D01*
X2951Y1021D02*
X2958Y1021D01*
X0Y1020D02*
X7Y1020D01*
X2951Y1020D02*
X2958Y1020D01*
X0Y1019D02*
X7Y1019D01*
X2951Y1019D02*
X2958Y1019D01*
X0Y1018D02*
X7Y1018D01*
X2951Y1018D02*
X2958Y1018D01*
X0Y1017D02*
X7Y1017D01*
X2951Y1017D02*
X2958Y1017D01*
X0Y1016D02*
X7Y1016D01*
X2951Y1016D02*
X2958Y1016D01*
X0Y1015D02*
X7Y1015D01*
X2951Y1015D02*
X2958Y1015D01*
X0Y1014D02*
X7Y1014D01*
X2951Y1014D02*
X2958Y1014D01*
X0Y1013D02*
X7Y1013D01*
X2951Y1013D02*
X2958Y1013D01*
X0Y1012D02*
X7Y1012D01*
X2951Y1012D02*
X2958Y1012D01*
X0Y1011D02*
X7Y1011D01*
X2951Y1011D02*
X2958Y1011D01*
X0Y1010D02*
X7Y1010D01*
X2951Y1010D02*
X2958Y1010D01*
X0Y1009D02*
X7Y1009D01*
X2951Y1009D02*
X2958Y1009D01*
X0Y1008D02*
X7Y1008D01*
X2951Y1008D02*
X2958Y1008D01*
X0Y1007D02*
X7Y1007D01*
X2951Y1007D02*
X2958Y1007D01*
X0Y1006D02*
X7Y1006D01*
X2951Y1006D02*
X2958Y1006D01*
X0Y1005D02*
X7Y1005D01*
X2951Y1005D02*
X2958Y1005D01*
X0Y1004D02*
X7Y1004D01*
X2951Y1004D02*
X2958Y1004D01*
X0Y1003D02*
X7Y1003D01*
X2951Y1003D02*
X2958Y1003D01*
X0Y1002D02*
X7Y1002D01*
X2951Y1002D02*
X2958Y1002D01*
X0Y1001D02*
X7Y1001D01*
X2951Y1001D02*
X2958Y1001D01*
X0Y1000D02*
X7Y1000D01*
X2951Y1000D02*
X2958Y1000D01*
X0Y999D02*
X7Y999D01*
X2951Y999D02*
X2958Y999D01*
X0Y998D02*
X7Y998D01*
X2951Y998D02*
X2958Y998D01*
X0Y997D02*
X7Y997D01*
X2951Y997D02*
X2958Y997D01*
X0Y996D02*
X7Y996D01*
X2951Y996D02*
X2958Y996D01*
X0Y995D02*
X7Y995D01*
X2951Y995D02*
X2958Y995D01*
X0Y994D02*
X7Y994D01*
X2951Y994D02*
X2958Y994D01*
X0Y993D02*
X7Y993D01*
X2951Y993D02*
X2958Y993D01*
X0Y992D02*
X7Y992D01*
X2951Y992D02*
X2958Y992D01*
X0Y991D02*
X7Y991D01*
X2951Y991D02*
X2958Y991D01*
X0Y990D02*
X7Y990D01*
X2951Y990D02*
X2958Y990D01*
X0Y989D02*
X7Y989D01*
X2951Y989D02*
X2958Y989D01*
X0Y988D02*
X7Y988D01*
X2951Y988D02*
X2958Y988D01*
X0Y987D02*
X7Y987D01*
X2951Y987D02*
X2958Y987D01*
X0Y986D02*
X7Y986D01*
X2951Y986D02*
X2958Y986D01*
X0Y985D02*
X7Y985D01*
X2951Y985D02*
X2958Y985D01*
X0Y984D02*
X7Y984D01*
X2951Y984D02*
X2958Y984D01*
X0Y983D02*
X7Y983D01*
X2951Y983D02*
X2958Y983D01*
X0Y982D02*
X7Y982D01*
X2951Y982D02*
X2958Y982D01*
X0Y981D02*
X7Y981D01*
X2951Y981D02*
X2958Y981D01*
X0Y980D02*
X7Y980D01*
X2951Y980D02*
X2958Y980D01*
X0Y979D02*
X7Y979D01*
X2951Y979D02*
X2958Y979D01*
X0Y978D02*
X7Y978D01*
X2951Y978D02*
X2958Y978D01*
X0Y977D02*
X7Y977D01*
X2951Y977D02*
X2958Y977D01*
X0Y976D02*
X7Y976D01*
X2951Y976D02*
X2958Y976D01*
X0Y975D02*
X7Y975D01*
X2951Y975D02*
X2958Y975D01*
X0Y974D02*
X7Y974D01*
X2951Y974D02*
X2958Y974D01*
X0Y973D02*
X7Y973D01*
X2951Y973D02*
X2958Y973D01*
X0Y972D02*
X7Y972D01*
X2951Y972D02*
X2958Y972D01*
X0Y971D02*
X7Y971D01*
X2951Y971D02*
X2958Y971D01*
X0Y970D02*
X7Y970D01*
X2951Y970D02*
X2958Y970D01*
X0Y969D02*
X7Y969D01*
X2951Y969D02*
X2958Y969D01*
X0Y968D02*
X7Y968D01*
X2951Y968D02*
X2958Y968D01*
X0Y967D02*
X7Y967D01*
X2951Y967D02*
X2958Y967D01*
X0Y966D02*
X7Y966D01*
X2951Y966D02*
X2958Y966D01*
X0Y965D02*
X7Y965D01*
X2951Y965D02*
X2958Y965D01*
X0Y964D02*
X7Y964D01*
X2951Y964D02*
X2958Y964D01*
X0Y963D02*
X7Y963D01*
X2951Y963D02*
X2958Y963D01*
X0Y962D02*
X7Y962D01*
X2951Y962D02*
X2958Y962D01*
X0Y961D02*
X7Y961D01*
X2951Y961D02*
X2958Y961D01*
X0Y960D02*
X7Y960D01*
X2951Y960D02*
X2958Y960D01*
X0Y959D02*
X7Y959D01*
X2951Y959D02*
X2958Y959D01*
X0Y958D02*
X7Y958D01*
X2951Y958D02*
X2958Y958D01*
X0Y957D02*
X7Y957D01*
X2951Y957D02*
X2958Y957D01*
X0Y956D02*
X7Y956D01*
X2951Y956D02*
X2958Y956D01*
X0Y955D02*
X7Y955D01*
X2951Y955D02*
X2958Y955D01*
X0Y954D02*
X7Y954D01*
X2951Y954D02*
X2958Y954D01*
X0Y953D02*
X7Y953D01*
X2951Y953D02*
X2958Y953D01*
X0Y952D02*
X7Y952D01*
X2951Y952D02*
X2958Y952D01*
X0Y951D02*
X7Y951D01*
X2951Y951D02*
X2958Y951D01*
X0Y950D02*
X7Y950D01*
X2951Y950D02*
X2958Y950D01*
X0Y949D02*
X7Y949D01*
X2951Y949D02*
X2958Y949D01*
X0Y948D02*
X7Y948D01*
X2951Y948D02*
X2958Y948D01*
X0Y947D02*
X7Y947D01*
X2951Y947D02*
X2958Y947D01*
X0Y946D02*
X7Y946D01*
X2951Y946D02*
X2958Y946D01*
X0Y945D02*
X7Y945D01*
X2951Y945D02*
X2958Y945D01*
X0Y944D02*
X7Y944D01*
X2951Y944D02*
X2958Y944D01*
X0Y943D02*
X7Y943D01*
X2951Y943D02*
X2958Y943D01*
X0Y942D02*
X7Y942D01*
X2951Y942D02*
X2958Y942D01*
X0Y941D02*
X7Y941D01*
X2951Y941D02*
X2958Y941D01*
X0Y940D02*
X7Y940D01*
X2951Y940D02*
X2958Y940D01*
X0Y939D02*
X7Y939D01*
X2951Y939D02*
X2958Y939D01*
X0Y938D02*
X7Y938D01*
X2951Y938D02*
X2958Y938D01*
X0Y937D02*
X7Y937D01*
X2951Y937D02*
X2958Y937D01*
X0Y936D02*
X7Y936D01*
X2951Y936D02*
X2958Y936D01*
X0Y935D02*
X7Y935D01*
X2951Y935D02*
X2958Y935D01*
X0Y934D02*
X7Y934D01*
X2951Y934D02*
X2958Y934D01*
X0Y933D02*
X7Y933D01*
X2951Y933D02*
X2958Y933D01*
X0Y932D02*
X7Y932D01*
X2951Y932D02*
X2958Y932D01*
X0Y931D02*
X7Y931D01*
X2951Y931D02*
X2958Y931D01*
X0Y930D02*
X7Y930D01*
X2951Y930D02*
X2958Y930D01*
X0Y929D02*
X7Y929D01*
X2951Y929D02*
X2958Y929D01*
X0Y928D02*
X7Y928D01*
X2951Y928D02*
X2958Y928D01*
X0Y927D02*
X7Y927D01*
X2951Y927D02*
X2958Y927D01*
X0Y926D02*
X7Y926D01*
X2951Y926D02*
X2958Y926D01*
X0Y925D02*
X7Y925D01*
X2951Y925D02*
X2958Y925D01*
X0Y924D02*
X7Y924D01*
X2951Y924D02*
X2958Y924D01*
X0Y923D02*
X7Y923D01*
X2951Y923D02*
X2958Y923D01*
X0Y922D02*
X7Y922D01*
X2951Y922D02*
X2958Y922D01*
X0Y921D02*
X7Y921D01*
X2951Y921D02*
X2958Y921D01*
X0Y920D02*
X7Y920D01*
X2951Y920D02*
X2958Y920D01*
X0Y919D02*
X7Y919D01*
X2951Y919D02*
X2958Y919D01*
X0Y918D02*
X7Y918D01*
X2951Y918D02*
X2958Y918D01*
X0Y917D02*
X7Y917D01*
X2951Y917D02*
X2958Y917D01*
X0Y916D02*
X7Y916D01*
X2951Y916D02*
X2958Y916D01*
X0Y915D02*
X7Y915D01*
X2951Y915D02*
X2958Y915D01*
X0Y914D02*
X7Y914D01*
X2951Y914D02*
X2958Y914D01*
X0Y913D02*
X7Y913D01*
X2951Y913D02*
X2958Y913D01*
X0Y912D02*
X7Y912D01*
X2951Y912D02*
X2958Y912D01*
X0Y911D02*
X7Y911D01*
X2951Y911D02*
X2958Y911D01*
X0Y910D02*
X7Y910D01*
X2951Y910D02*
X2958Y910D01*
X0Y909D02*
X7Y909D01*
X2951Y909D02*
X2958Y909D01*
X0Y908D02*
X7Y908D01*
X2951Y908D02*
X2958Y908D01*
X0Y907D02*
X7Y907D01*
X2951Y907D02*
X2958Y907D01*
X0Y906D02*
X7Y906D01*
X2951Y906D02*
X2958Y906D01*
X0Y905D02*
X7Y905D01*
X2951Y905D02*
X2958Y905D01*
X0Y904D02*
X7Y904D01*
X2951Y904D02*
X2958Y904D01*
X0Y903D02*
X7Y903D01*
X2951Y903D02*
X2958Y903D01*
X0Y902D02*
X7Y902D01*
X2951Y902D02*
X2958Y902D01*
X0Y901D02*
X7Y901D01*
X2951Y901D02*
X2958Y901D01*
X0Y900D02*
X7Y900D01*
X2951Y900D02*
X2958Y900D01*
X0Y899D02*
X7Y899D01*
X2951Y899D02*
X2958Y899D01*
X0Y898D02*
X7Y898D01*
X2951Y898D02*
X2958Y898D01*
X0Y897D02*
X7Y897D01*
X2951Y897D02*
X2958Y897D01*
X0Y896D02*
X7Y896D01*
X2951Y896D02*
X2958Y896D01*
X0Y895D02*
X7Y895D01*
X2951Y895D02*
X2958Y895D01*
X0Y894D02*
X7Y894D01*
X2951Y894D02*
X2958Y894D01*
X0Y893D02*
X7Y893D01*
X2951Y893D02*
X2958Y893D01*
X0Y892D02*
X7Y892D01*
X2951Y892D02*
X2958Y892D01*
X0Y891D02*
X7Y891D01*
X2951Y891D02*
X2958Y891D01*
X0Y890D02*
X7Y890D01*
X2951Y890D02*
X2958Y890D01*
X0Y889D02*
X7Y889D01*
X2951Y889D02*
X2958Y889D01*
X0Y888D02*
X7Y888D01*
X2951Y888D02*
X2958Y888D01*
X0Y887D02*
X7Y887D01*
X2951Y887D02*
X2958Y887D01*
X0Y886D02*
X7Y886D01*
X2951Y886D02*
X2958Y886D01*
X0Y885D02*
X7Y885D01*
X2951Y885D02*
X2958Y885D01*
X0Y884D02*
X7Y884D01*
X2951Y884D02*
X2958Y884D01*
X0Y883D02*
X7Y883D01*
X2951Y883D02*
X2958Y883D01*
X0Y882D02*
X7Y882D01*
X2951Y882D02*
X2958Y882D01*
X0Y881D02*
X7Y881D01*
X2951Y881D02*
X2958Y881D01*
X0Y880D02*
X7Y880D01*
X2951Y880D02*
X2958Y880D01*
X0Y879D02*
X7Y879D01*
X2951Y879D02*
X2958Y879D01*
X0Y878D02*
X7Y878D01*
X2951Y878D02*
X2958Y878D01*
X0Y877D02*
X7Y877D01*
X2951Y877D02*
X2958Y877D01*
X0Y876D02*
X7Y876D01*
X2951Y876D02*
X2958Y876D01*
X0Y875D02*
X7Y875D01*
X2951Y875D02*
X2958Y875D01*
X0Y874D02*
X7Y874D01*
X2951Y874D02*
X2958Y874D01*
X0Y873D02*
X7Y873D01*
X2951Y873D02*
X2958Y873D01*
X0Y872D02*
X7Y872D01*
X2951Y872D02*
X2958Y872D01*
X0Y871D02*
X7Y871D01*
X2951Y871D02*
X2958Y871D01*
X0Y870D02*
X7Y870D01*
X2951Y870D02*
X2958Y870D01*
X0Y869D02*
X7Y869D01*
X2951Y869D02*
X2958Y869D01*
X0Y868D02*
X7Y868D01*
X2951Y868D02*
X2958Y868D01*
X0Y867D02*
X7Y867D01*
X2951Y867D02*
X2958Y867D01*
X0Y866D02*
X7Y866D01*
X2951Y866D02*
X2958Y866D01*
X0Y865D02*
X7Y865D01*
X2951Y865D02*
X2958Y865D01*
X0Y864D02*
X7Y864D01*
X2951Y864D02*
X2958Y864D01*
X0Y863D02*
X7Y863D01*
X2951Y863D02*
X2958Y863D01*
X0Y862D02*
X7Y862D01*
X2951Y862D02*
X2958Y862D01*
X0Y861D02*
X7Y861D01*
X2951Y861D02*
X2958Y861D01*
X0Y860D02*
X7Y860D01*
X2951Y860D02*
X2958Y860D01*
X0Y859D02*
X7Y859D01*
X2951Y859D02*
X2958Y859D01*
X0Y858D02*
X7Y858D01*
X2951Y858D02*
X2958Y858D01*
X0Y857D02*
X7Y857D01*
X2951Y857D02*
X2958Y857D01*
X0Y856D02*
X7Y856D01*
X2951Y856D02*
X2958Y856D01*
X0Y855D02*
X7Y855D01*
X2951Y855D02*
X2958Y855D01*
X0Y854D02*
X7Y854D01*
X2951Y854D02*
X2958Y854D01*
X0Y853D02*
X7Y853D01*
X2951Y853D02*
X2958Y853D01*
X0Y852D02*
X7Y852D01*
X2951Y852D02*
X2958Y852D01*
X0Y851D02*
X7Y851D01*
X2951Y851D02*
X2958Y851D01*
X0Y850D02*
X7Y850D01*
X2951Y850D02*
X2958Y850D01*
X0Y849D02*
X7Y849D01*
X2951Y849D02*
X2958Y849D01*
X0Y848D02*
X7Y848D01*
X2951Y848D02*
X2958Y848D01*
X0Y847D02*
X7Y847D01*
X2951Y847D02*
X2958Y847D01*
X0Y846D02*
X7Y846D01*
X2951Y846D02*
X2958Y846D01*
X0Y845D02*
X7Y845D01*
X2951Y845D02*
X2958Y845D01*
X0Y844D02*
X7Y844D01*
X2951Y844D02*
X2958Y844D01*
X0Y843D02*
X7Y843D01*
X2951Y843D02*
X2958Y843D01*
X0Y842D02*
X7Y842D01*
X2951Y842D02*
X2958Y842D01*
X0Y841D02*
X7Y841D01*
X2951Y841D02*
X2958Y841D01*
X0Y840D02*
X7Y840D01*
X2951Y840D02*
X2958Y840D01*
X0Y839D02*
X7Y839D01*
X2951Y839D02*
X2958Y839D01*
X0Y838D02*
X7Y838D01*
X2951Y838D02*
X2958Y838D01*
X0Y837D02*
X7Y837D01*
X2951Y837D02*
X2958Y837D01*
X0Y836D02*
X7Y836D01*
X2951Y836D02*
X2958Y836D01*
X0Y835D02*
X7Y835D01*
X2951Y835D02*
X2958Y835D01*
X0Y834D02*
X7Y834D01*
X2951Y834D02*
X2958Y834D01*
X0Y833D02*
X7Y833D01*
X2951Y833D02*
X2958Y833D01*
X0Y832D02*
X7Y832D01*
X2951Y832D02*
X2958Y832D01*
X0Y831D02*
X7Y831D01*
X2951Y831D02*
X2958Y831D01*
X0Y830D02*
X7Y830D01*
X2951Y830D02*
X2958Y830D01*
X0Y829D02*
X7Y829D01*
X2951Y829D02*
X2958Y829D01*
X0Y828D02*
X7Y828D01*
X2951Y828D02*
X2958Y828D01*
X0Y827D02*
X7Y827D01*
X2951Y827D02*
X2958Y827D01*
X0Y826D02*
X7Y826D01*
X2951Y826D02*
X2958Y826D01*
X0Y825D02*
X7Y825D01*
X2951Y825D02*
X2958Y825D01*
X0Y824D02*
X7Y824D01*
X2951Y824D02*
X2958Y824D01*
X0Y823D02*
X7Y823D01*
X2951Y823D02*
X2958Y823D01*
X0Y822D02*
X7Y822D01*
X2951Y822D02*
X2958Y822D01*
X0Y821D02*
X7Y821D01*
X2951Y821D02*
X2958Y821D01*
X0Y820D02*
X7Y820D01*
X2951Y820D02*
X2958Y820D01*
X0Y819D02*
X7Y819D01*
X2951Y819D02*
X2958Y819D01*
X0Y818D02*
X7Y818D01*
X2951Y818D02*
X2958Y818D01*
X0Y817D02*
X7Y817D01*
X2951Y817D02*
X2958Y817D01*
X0Y816D02*
X7Y816D01*
X2951Y816D02*
X2958Y816D01*
X0Y815D02*
X7Y815D01*
X2951Y815D02*
X2958Y815D01*
X0Y814D02*
X7Y814D01*
X2951Y814D02*
X2958Y814D01*
X0Y813D02*
X7Y813D01*
X2951Y813D02*
X2958Y813D01*
X0Y812D02*
X7Y812D01*
X2951Y812D02*
X2958Y812D01*
X0Y811D02*
X7Y811D01*
X2951Y811D02*
X2958Y811D01*
X0Y810D02*
X7Y810D01*
X2951Y810D02*
X2958Y810D01*
X0Y809D02*
X7Y809D01*
X2951Y809D02*
X2958Y809D01*
X0Y808D02*
X7Y808D01*
X2951Y808D02*
X2958Y808D01*
X0Y807D02*
X7Y807D01*
X2951Y807D02*
X2958Y807D01*
X0Y806D02*
X7Y806D01*
X2951Y806D02*
X2958Y806D01*
X0Y805D02*
X7Y805D01*
X2951Y805D02*
X2958Y805D01*
X0Y804D02*
X7Y804D01*
X2951Y804D02*
X2958Y804D01*
X0Y803D02*
X7Y803D01*
X2951Y803D02*
X2958Y803D01*
X0Y802D02*
X7Y802D01*
X2951Y802D02*
X2958Y802D01*
X0Y801D02*
X7Y801D01*
X2951Y801D02*
X2958Y801D01*
X0Y800D02*
X7Y800D01*
X2951Y800D02*
X2958Y800D01*
X0Y799D02*
X7Y799D01*
X2951Y799D02*
X2958Y799D01*
X0Y798D02*
X7Y798D01*
X2951Y798D02*
X2958Y798D01*
X0Y797D02*
X7Y797D01*
X2951Y797D02*
X2958Y797D01*
X0Y796D02*
X7Y796D01*
X2951Y796D02*
X2958Y796D01*
X0Y795D02*
X7Y795D01*
X2951Y795D02*
X2958Y795D01*
X0Y794D02*
X7Y794D01*
X2951Y794D02*
X2958Y794D01*
X0Y793D02*
X7Y793D01*
X2951Y793D02*
X2958Y793D01*
X0Y792D02*
X7Y792D01*
X2951Y792D02*
X2958Y792D01*
X0Y791D02*
X7Y791D01*
X2951Y791D02*
X2958Y791D01*
X0Y790D02*
X7Y790D01*
X2951Y790D02*
X2958Y790D01*
X0Y789D02*
X7Y789D01*
X2951Y789D02*
X2958Y789D01*
X0Y788D02*
X7Y788D01*
X2951Y788D02*
X2958Y788D01*
X0Y787D02*
X7Y787D01*
X2951Y787D02*
X2958Y787D01*
X0Y786D02*
X7Y786D01*
X2951Y786D02*
X2958Y786D01*
X0Y785D02*
X7Y785D01*
X2951Y785D02*
X2958Y785D01*
X0Y784D02*
X7Y784D01*
X2951Y784D02*
X2958Y784D01*
X0Y783D02*
X7Y783D01*
X2951Y783D02*
X2958Y783D01*
X0Y782D02*
X7Y782D01*
X2951Y782D02*
X2958Y782D01*
X0Y781D02*
X7Y781D01*
X2951Y781D02*
X2958Y781D01*
X0Y780D02*
X7Y780D01*
X2951Y780D02*
X2958Y780D01*
X0Y779D02*
X7Y779D01*
X2951Y779D02*
X2958Y779D01*
X0Y778D02*
X7Y778D01*
X2951Y778D02*
X2958Y778D01*
X0Y777D02*
X7Y777D01*
X2951Y777D02*
X2958Y777D01*
X0Y776D02*
X7Y776D01*
X2951Y776D02*
X2958Y776D01*
X0Y775D02*
X7Y775D01*
X2951Y775D02*
X2958Y775D01*
X0Y774D02*
X7Y774D01*
X2951Y774D02*
X2958Y774D01*
X0Y773D02*
X7Y773D01*
X2951Y773D02*
X2958Y773D01*
X0Y772D02*
X7Y772D01*
X2951Y772D02*
X2958Y772D01*
X0Y771D02*
X7Y771D01*
X2951Y771D02*
X2958Y771D01*
X0Y770D02*
X7Y770D01*
X2951Y770D02*
X2958Y770D01*
X0Y769D02*
X7Y769D01*
X2951Y769D02*
X2958Y769D01*
X0Y768D02*
X7Y768D01*
X2951Y768D02*
X2958Y768D01*
X0Y767D02*
X7Y767D01*
X2951Y767D02*
X2958Y767D01*
X0Y766D02*
X7Y766D01*
X2951Y766D02*
X2958Y766D01*
X0Y765D02*
X7Y765D01*
X2951Y765D02*
X2958Y765D01*
X0Y764D02*
X7Y764D01*
X2951Y764D02*
X2958Y764D01*
X0Y763D02*
X7Y763D01*
X2951Y763D02*
X2958Y763D01*
X0Y762D02*
X7Y762D01*
X2951Y762D02*
X2958Y762D01*
X0Y761D02*
X7Y761D01*
X2951Y761D02*
X2958Y761D01*
X0Y760D02*
X7Y760D01*
X2951Y760D02*
X2958Y760D01*
X0Y759D02*
X7Y759D01*
X2951Y759D02*
X2958Y759D01*
X0Y758D02*
X7Y758D01*
X2951Y758D02*
X2958Y758D01*
X0Y757D02*
X7Y757D01*
X2951Y757D02*
X2958Y757D01*
X0Y756D02*
X7Y756D01*
X2951Y756D02*
X2958Y756D01*
X0Y755D02*
X7Y755D01*
X2951Y755D02*
X2958Y755D01*
X0Y754D02*
X7Y754D01*
X2951Y754D02*
X2958Y754D01*
X0Y753D02*
X7Y753D01*
X2951Y753D02*
X2958Y753D01*
X0Y752D02*
X7Y752D01*
X2951Y752D02*
X2958Y752D01*
X0Y751D02*
X7Y751D01*
X2951Y751D02*
X2958Y751D01*
X0Y750D02*
X7Y750D01*
X2951Y750D02*
X2958Y750D01*
X0Y749D02*
X7Y749D01*
X2951Y749D02*
X2958Y749D01*
X0Y748D02*
X7Y748D01*
X2951Y748D02*
X2958Y748D01*
X0Y747D02*
X7Y747D01*
X2951Y747D02*
X2958Y747D01*
X0Y746D02*
X7Y746D01*
X2951Y746D02*
X2958Y746D01*
X0Y745D02*
X7Y745D01*
X2951Y745D02*
X2958Y745D01*
X0Y744D02*
X7Y744D01*
X2951Y744D02*
X2958Y744D01*
X0Y743D02*
X7Y743D01*
X2951Y743D02*
X2958Y743D01*
X0Y742D02*
X7Y742D01*
X2951Y742D02*
X2958Y742D01*
X0Y741D02*
X7Y741D01*
X2951Y741D02*
X2958Y741D01*
X0Y740D02*
X7Y740D01*
X2951Y740D02*
X2958Y740D01*
X0Y739D02*
X7Y739D01*
X2951Y739D02*
X2958Y739D01*
X0Y738D02*
X7Y738D01*
X2951Y738D02*
X2958Y738D01*
X0Y737D02*
X7Y737D01*
X2951Y737D02*
X2958Y737D01*
X0Y736D02*
X7Y736D01*
X2951Y736D02*
X2958Y736D01*
X0Y735D02*
X7Y735D01*
X2951Y735D02*
X2958Y735D01*
X0Y734D02*
X7Y734D01*
X2951Y734D02*
X2958Y734D01*
X0Y733D02*
X7Y733D01*
X2951Y733D02*
X2958Y733D01*
X0Y732D02*
X7Y732D01*
X2951Y732D02*
X2958Y732D01*
X0Y731D02*
X7Y731D01*
X2951Y731D02*
X2958Y731D01*
X0Y730D02*
X7Y730D01*
X2951Y730D02*
X2958Y730D01*
X0Y729D02*
X7Y729D01*
X2951Y729D02*
X2958Y729D01*
X0Y728D02*
X7Y728D01*
X2951Y728D02*
X2958Y728D01*
X0Y727D02*
X7Y727D01*
X2951Y727D02*
X2958Y727D01*
X0Y726D02*
X7Y726D01*
X2951Y726D02*
X2958Y726D01*
X0Y725D02*
X7Y725D01*
X2951Y725D02*
X2958Y725D01*
X0Y724D02*
X7Y724D01*
X2951Y724D02*
X2958Y724D01*
X0Y723D02*
X7Y723D01*
X2951Y723D02*
X2958Y723D01*
X0Y722D02*
X7Y722D01*
X2951Y722D02*
X2958Y722D01*
X0Y721D02*
X7Y721D01*
X2951Y721D02*
X2958Y721D01*
X0Y720D02*
X7Y720D01*
X2951Y720D02*
X2958Y720D01*
X0Y719D02*
X7Y719D01*
X2951Y719D02*
X2958Y719D01*
X0Y718D02*
X7Y718D01*
X2951Y718D02*
X2958Y718D01*
X0Y717D02*
X7Y717D01*
X2951Y717D02*
X2958Y717D01*
X0Y716D02*
X7Y716D01*
X2951Y716D02*
X2958Y716D01*
X0Y715D02*
X7Y715D01*
X2951Y715D02*
X2958Y715D01*
X0Y714D02*
X7Y714D01*
X2951Y714D02*
X2958Y714D01*
X0Y713D02*
X7Y713D01*
X2951Y713D02*
X2958Y713D01*
X0Y712D02*
X7Y712D01*
X2951Y712D02*
X2958Y712D01*
X0Y711D02*
X7Y711D01*
X2951Y711D02*
X2958Y711D01*
X0Y710D02*
X7Y710D01*
X2951Y710D02*
X2958Y710D01*
X0Y709D02*
X7Y709D01*
X2951Y709D02*
X2958Y709D01*
X0Y708D02*
X7Y708D01*
X2951Y708D02*
X2958Y708D01*
X0Y707D02*
X7Y707D01*
X2951Y707D02*
X2958Y707D01*
X0Y706D02*
X7Y706D01*
X2951Y706D02*
X2958Y706D01*
X0Y705D02*
X7Y705D01*
X2951Y705D02*
X2958Y705D01*
X0Y704D02*
X7Y704D01*
X2951Y704D02*
X2958Y704D01*
X0Y703D02*
X7Y703D01*
X2951Y703D02*
X2958Y703D01*
X0Y702D02*
X7Y702D01*
X2951Y702D02*
X2958Y702D01*
X0Y701D02*
X7Y701D01*
X2951Y701D02*
X2958Y701D01*
X0Y700D02*
X7Y700D01*
X2951Y700D02*
X2958Y700D01*
X0Y699D02*
X7Y699D01*
X2951Y699D02*
X2958Y699D01*
X0Y698D02*
X7Y698D01*
X2951Y698D02*
X2958Y698D01*
X0Y697D02*
X7Y697D01*
X2951Y697D02*
X2958Y697D01*
X0Y696D02*
X7Y696D01*
X2951Y696D02*
X2958Y696D01*
X0Y695D02*
X7Y695D01*
X2951Y695D02*
X2958Y695D01*
X0Y694D02*
X7Y694D01*
X2951Y694D02*
X2958Y694D01*
X0Y693D02*
X7Y693D01*
X2951Y693D02*
X2958Y693D01*
X0Y692D02*
X7Y692D01*
X2951Y692D02*
X2958Y692D01*
X0Y691D02*
X7Y691D01*
X2951Y691D02*
X2958Y691D01*
X0Y690D02*
X7Y690D01*
X2951Y690D02*
X2958Y690D01*
X0Y689D02*
X7Y689D01*
X2951Y689D02*
X2958Y689D01*
X0Y688D02*
X7Y688D01*
X2951Y688D02*
X2958Y688D01*
X0Y687D02*
X7Y687D01*
X2951Y687D02*
X2958Y687D01*
X0Y686D02*
X7Y686D01*
X2951Y686D02*
X2958Y686D01*
X0Y685D02*
X7Y685D01*
X2951Y685D02*
X2958Y685D01*
X0Y684D02*
X7Y684D01*
X2951Y684D02*
X2958Y684D01*
X0Y683D02*
X7Y683D01*
X2951Y683D02*
X2958Y683D01*
X0Y682D02*
X7Y682D01*
X2951Y682D02*
X2958Y682D01*
X0Y681D02*
X7Y681D01*
X2951Y681D02*
X2958Y681D01*
X0Y680D02*
X7Y680D01*
X2951Y680D02*
X2958Y680D01*
X0Y679D02*
X7Y679D01*
X2951Y679D02*
X2958Y679D01*
X0Y678D02*
X7Y678D01*
X2951Y678D02*
X2958Y678D01*
X0Y677D02*
X7Y677D01*
X2951Y677D02*
X2958Y677D01*
X0Y676D02*
X7Y676D01*
X2951Y676D02*
X2958Y676D01*
X0Y675D02*
X7Y675D01*
X2951Y675D02*
X2958Y675D01*
X0Y674D02*
X7Y674D01*
X2951Y674D02*
X2958Y674D01*
X0Y673D02*
X7Y673D01*
X2951Y673D02*
X2958Y673D01*
X0Y672D02*
X7Y672D01*
X2951Y672D02*
X2958Y672D01*
X0Y671D02*
X7Y671D01*
X2951Y671D02*
X2958Y671D01*
X0Y670D02*
X7Y670D01*
X2951Y670D02*
X2958Y670D01*
X0Y669D02*
X7Y669D01*
X2951Y669D02*
X2958Y669D01*
X0Y668D02*
X7Y668D01*
X2951Y668D02*
X2958Y668D01*
X0Y667D02*
X7Y667D01*
X2951Y667D02*
X2958Y667D01*
X0Y666D02*
X7Y666D01*
X2951Y666D02*
X2958Y666D01*
X0Y665D02*
X7Y665D01*
X2951Y665D02*
X2958Y665D01*
X0Y664D02*
X7Y664D01*
X2951Y664D02*
X2958Y664D01*
X0Y663D02*
X7Y663D01*
X2951Y663D02*
X2958Y663D01*
X0Y662D02*
X7Y662D01*
X2951Y662D02*
X2958Y662D01*
X0Y661D02*
X7Y661D01*
X2951Y661D02*
X2958Y661D01*
X0Y660D02*
X7Y660D01*
X2951Y660D02*
X2958Y660D01*
X0Y659D02*
X7Y659D01*
X2951Y659D02*
X2958Y659D01*
X0Y658D02*
X7Y658D01*
X2951Y658D02*
X2958Y658D01*
X0Y657D02*
X7Y657D01*
X2951Y657D02*
X2958Y657D01*
X0Y656D02*
X7Y656D01*
X2951Y656D02*
X2958Y656D01*
X0Y655D02*
X7Y655D01*
X2951Y655D02*
X2958Y655D01*
X0Y654D02*
X7Y654D01*
X2951Y654D02*
X2958Y654D01*
X0Y653D02*
X7Y653D01*
X2951Y653D02*
X2958Y653D01*
X0Y652D02*
X7Y652D01*
X2951Y652D02*
X2958Y652D01*
X0Y651D02*
X7Y651D01*
X2951Y651D02*
X2958Y651D01*
X0Y650D02*
X7Y650D01*
X2951Y650D02*
X2958Y650D01*
X0Y649D02*
X7Y649D01*
X2951Y649D02*
X2958Y649D01*
X0Y648D02*
X7Y648D01*
X2951Y648D02*
X2958Y648D01*
X0Y647D02*
X7Y647D01*
X2951Y647D02*
X2958Y647D01*
X0Y646D02*
X7Y646D01*
X2951Y646D02*
X2958Y646D01*
X0Y645D02*
X7Y645D01*
X2951Y645D02*
X2958Y645D01*
X0Y644D02*
X7Y644D01*
X2951Y644D02*
X2958Y644D01*
X0Y643D02*
X7Y643D01*
X2951Y643D02*
X2958Y643D01*
X0Y642D02*
X7Y642D01*
X2951Y642D02*
X2958Y642D01*
X0Y641D02*
X7Y641D01*
X2951Y641D02*
X2958Y641D01*
X0Y640D02*
X7Y640D01*
X2951Y640D02*
X2958Y640D01*
X0Y639D02*
X7Y639D01*
X2951Y639D02*
X2958Y639D01*
X0Y638D02*
X7Y638D01*
X2951Y638D02*
X2958Y638D01*
X0Y637D02*
X7Y637D01*
X2951Y637D02*
X2958Y637D01*
X0Y636D02*
X7Y636D01*
X2951Y636D02*
X2958Y636D01*
X0Y635D02*
X7Y635D01*
X2951Y635D02*
X2958Y635D01*
X0Y634D02*
X7Y634D01*
X2951Y634D02*
X2958Y634D01*
X0Y633D02*
X7Y633D01*
X2951Y633D02*
X2958Y633D01*
X0Y632D02*
X7Y632D01*
X2951Y632D02*
X2958Y632D01*
X0Y631D02*
X7Y631D01*
X2951Y631D02*
X2958Y631D01*
X0Y630D02*
X7Y630D01*
X2951Y630D02*
X2958Y630D01*
X0Y629D02*
X7Y629D01*
X2951Y629D02*
X2958Y629D01*
X0Y628D02*
X7Y628D01*
X2951Y628D02*
X2958Y628D01*
X0Y627D02*
X7Y627D01*
X2951Y627D02*
X2958Y627D01*
X0Y626D02*
X7Y626D01*
X2951Y626D02*
X2958Y626D01*
X0Y625D02*
X7Y625D01*
X2951Y625D02*
X2958Y625D01*
X0Y624D02*
X7Y624D01*
X2951Y624D02*
X2958Y624D01*
X0Y623D02*
X7Y623D01*
X2951Y623D02*
X2958Y623D01*
X0Y622D02*
X7Y622D01*
X2951Y622D02*
X2958Y622D01*
X0Y621D02*
X7Y621D01*
X2951Y621D02*
X2958Y621D01*
X0Y620D02*
X7Y620D01*
X2951Y620D02*
X2958Y620D01*
X0Y619D02*
X7Y619D01*
X2951Y619D02*
X2958Y619D01*
X0Y618D02*
X7Y618D01*
X2951Y618D02*
X2958Y618D01*
X0Y617D02*
X7Y617D01*
X2951Y617D02*
X2958Y617D01*
X0Y616D02*
X7Y616D01*
X2951Y616D02*
X2958Y616D01*
X0Y615D02*
X7Y615D01*
X2951Y615D02*
X2958Y615D01*
X0Y614D02*
X7Y614D01*
X2951Y614D02*
X2958Y614D01*
X0Y613D02*
X7Y613D01*
X2951Y613D02*
X2958Y613D01*
X0Y612D02*
X7Y612D01*
X2951Y612D02*
X2958Y612D01*
X0Y611D02*
X7Y611D01*
X2951Y611D02*
X2958Y611D01*
X0Y610D02*
X7Y610D01*
X2951Y610D02*
X2958Y610D01*
X0Y609D02*
X7Y609D01*
X2951Y609D02*
X2958Y609D01*
X0Y608D02*
X7Y608D01*
X2951Y608D02*
X2958Y608D01*
X0Y607D02*
X7Y607D01*
X2951Y607D02*
X2958Y607D01*
X0Y606D02*
X7Y606D01*
X2951Y606D02*
X2958Y606D01*
X0Y605D02*
X7Y605D01*
X2951Y605D02*
X2958Y605D01*
X0Y604D02*
X7Y604D01*
X2951Y604D02*
X2958Y604D01*
X0Y603D02*
X7Y603D01*
X2951Y603D02*
X2958Y603D01*
X0Y602D02*
X7Y602D01*
X2951Y602D02*
X2958Y602D01*
X0Y601D02*
X7Y601D01*
X2951Y601D02*
X2958Y601D01*
X0Y600D02*
X7Y600D01*
X2951Y600D02*
X2958Y600D01*
X0Y599D02*
X7Y599D01*
X2951Y599D02*
X2958Y599D01*
X0Y598D02*
X7Y598D01*
X2951Y598D02*
X2958Y598D01*
X0Y597D02*
X7Y597D01*
X2951Y597D02*
X2958Y597D01*
X0Y596D02*
X7Y596D01*
X2951Y596D02*
X2958Y596D01*
X0Y595D02*
X7Y595D01*
X2951Y595D02*
X2958Y595D01*
X0Y594D02*
X7Y594D01*
X2951Y594D02*
X2958Y594D01*
X0Y593D02*
X7Y593D01*
X2951Y593D02*
X2958Y593D01*
X0Y592D02*
X7Y592D01*
X2951Y592D02*
X2958Y592D01*
X0Y591D02*
X7Y591D01*
X2951Y591D02*
X2958Y591D01*
X0Y590D02*
X7Y590D01*
X2951Y590D02*
X2958Y590D01*
X0Y589D02*
X7Y589D01*
X2951Y589D02*
X2958Y589D01*
X0Y588D02*
X7Y588D01*
X2951Y588D02*
X2958Y588D01*
X0Y587D02*
X7Y587D01*
X2951Y587D02*
X2958Y587D01*
X0Y586D02*
X7Y586D01*
X2951Y586D02*
X2958Y586D01*
X0Y585D02*
X7Y585D01*
X2951Y585D02*
X2958Y585D01*
X0Y584D02*
X7Y584D01*
X2951Y584D02*
X2958Y584D01*
X0Y583D02*
X7Y583D01*
X2951Y583D02*
X2958Y583D01*
X0Y582D02*
X7Y582D01*
X2951Y582D02*
X2958Y582D01*
X0Y581D02*
X7Y581D01*
X2951Y581D02*
X2958Y581D01*
X0Y580D02*
X7Y580D01*
X2951Y580D02*
X2958Y580D01*
X0Y579D02*
X7Y579D01*
X2951Y579D02*
X2958Y579D01*
X0Y578D02*
X7Y578D01*
X2951Y578D02*
X2958Y578D01*
X0Y577D02*
X7Y577D01*
X2951Y577D02*
X2958Y577D01*
X0Y576D02*
X7Y576D01*
X2951Y576D02*
X2958Y576D01*
X0Y575D02*
X7Y575D01*
X2951Y575D02*
X2958Y575D01*
X0Y574D02*
X7Y574D01*
X2951Y574D02*
X2958Y574D01*
X0Y573D02*
X7Y573D01*
X2951Y573D02*
X2958Y573D01*
X0Y572D02*
X7Y572D01*
X2951Y572D02*
X2958Y572D01*
X0Y571D02*
X7Y571D01*
X2951Y571D02*
X2958Y571D01*
X0Y570D02*
X7Y570D01*
X2951Y570D02*
X2958Y570D01*
X0Y569D02*
X7Y569D01*
X2951Y569D02*
X2958Y569D01*
X0Y568D02*
X7Y568D01*
X2951Y568D02*
X2958Y568D01*
X0Y567D02*
X7Y567D01*
X2951Y567D02*
X2958Y567D01*
X0Y566D02*
X7Y566D01*
X2951Y566D02*
X2958Y566D01*
X0Y565D02*
X7Y565D01*
X2951Y565D02*
X2958Y565D01*
X0Y564D02*
X7Y564D01*
X2951Y564D02*
X2958Y564D01*
X0Y563D02*
X7Y563D01*
X2951Y563D02*
X2958Y563D01*
X0Y562D02*
X7Y562D01*
X2951Y562D02*
X2958Y562D01*
X0Y561D02*
X7Y561D01*
X2951Y561D02*
X2958Y561D01*
X0Y560D02*
X7Y560D01*
X2951Y560D02*
X2958Y560D01*
X0Y559D02*
X7Y559D01*
X2951Y559D02*
X2958Y559D01*
X0Y558D02*
X7Y558D01*
X2951Y558D02*
X2958Y558D01*
X0Y557D02*
X7Y557D01*
X2951Y557D02*
X2958Y557D01*
X0Y556D02*
X7Y556D01*
X2951Y556D02*
X2958Y556D01*
X0Y555D02*
X7Y555D01*
X2951Y555D02*
X2958Y555D01*
X0Y554D02*
X7Y554D01*
X2951Y554D02*
X2958Y554D01*
X0Y553D02*
X7Y553D01*
X2951Y553D02*
X2958Y553D01*
X0Y552D02*
X7Y552D01*
X2951Y552D02*
X2958Y552D01*
X0Y551D02*
X7Y551D01*
X2951Y551D02*
X2958Y551D01*
X0Y550D02*
X7Y550D01*
X2951Y550D02*
X2958Y550D01*
X0Y549D02*
X7Y549D01*
X2951Y549D02*
X2958Y549D01*
X0Y548D02*
X7Y548D01*
X2951Y548D02*
X2958Y548D01*
X0Y547D02*
X7Y547D01*
X2951Y547D02*
X2958Y547D01*
X0Y546D02*
X7Y546D01*
X2951Y546D02*
X2958Y546D01*
X0Y545D02*
X7Y545D01*
X2951Y545D02*
X2958Y545D01*
X0Y544D02*
X7Y544D01*
X2951Y544D02*
X2958Y544D01*
X0Y543D02*
X7Y543D01*
X2951Y543D02*
X2958Y543D01*
X0Y542D02*
X7Y542D01*
X2951Y542D02*
X2958Y542D01*
X0Y541D02*
X7Y541D01*
X2951Y541D02*
X2958Y541D01*
X0Y540D02*
X7Y540D01*
X2951Y540D02*
X2958Y540D01*
X0Y539D02*
X7Y539D01*
X2951Y539D02*
X2958Y539D01*
X0Y538D02*
X7Y538D01*
X2951Y538D02*
X2958Y538D01*
X0Y537D02*
X7Y537D01*
X2951Y537D02*
X2958Y537D01*
X0Y536D02*
X7Y536D01*
X2951Y536D02*
X2958Y536D01*
X0Y535D02*
X7Y535D01*
X2951Y535D02*
X2958Y535D01*
X0Y534D02*
X7Y534D01*
X2951Y534D02*
X2958Y534D01*
X0Y533D02*
X7Y533D01*
X2951Y533D02*
X2958Y533D01*
X0Y532D02*
X7Y532D01*
X2951Y532D02*
X2958Y532D01*
X0Y531D02*
X7Y531D01*
X2951Y531D02*
X2958Y531D01*
X0Y530D02*
X7Y530D01*
X2951Y530D02*
X2958Y530D01*
X0Y529D02*
X7Y529D01*
X2951Y529D02*
X2958Y529D01*
X0Y528D02*
X7Y528D01*
X2951Y528D02*
X2958Y528D01*
X0Y527D02*
X7Y527D01*
X2951Y527D02*
X2958Y527D01*
X0Y526D02*
X7Y526D01*
X2951Y526D02*
X2958Y526D01*
X0Y525D02*
X7Y525D01*
X2951Y525D02*
X2958Y525D01*
X0Y524D02*
X7Y524D01*
X2951Y524D02*
X2958Y524D01*
X0Y523D02*
X7Y523D01*
X2951Y523D02*
X2958Y523D01*
X0Y522D02*
X7Y522D01*
X2951Y522D02*
X2958Y522D01*
X0Y521D02*
X7Y521D01*
X2951Y521D02*
X2958Y521D01*
X0Y520D02*
X7Y520D01*
X2951Y520D02*
X2958Y520D01*
X0Y519D02*
X7Y519D01*
X2951Y519D02*
X2958Y519D01*
X0Y518D02*
X7Y518D01*
X2951Y518D02*
X2958Y518D01*
X0Y517D02*
X7Y517D01*
X2951Y517D02*
X2958Y517D01*
X0Y516D02*
X7Y516D01*
X2951Y516D02*
X2958Y516D01*
X0Y515D02*
X7Y515D01*
X2951Y515D02*
X2958Y515D01*
X0Y514D02*
X7Y514D01*
X2951Y514D02*
X2958Y514D01*
X0Y513D02*
X7Y513D01*
X2951Y513D02*
X2958Y513D01*
X0Y512D02*
X7Y512D01*
X2951Y512D02*
X2958Y512D01*
X0Y511D02*
X7Y511D01*
X2951Y511D02*
X2958Y511D01*
X0Y510D02*
X7Y510D01*
X2951Y510D02*
X2958Y510D01*
X0Y509D02*
X7Y509D01*
X2951Y509D02*
X2958Y509D01*
X0Y508D02*
X7Y508D01*
X2951Y508D02*
X2958Y508D01*
X0Y507D02*
X7Y507D01*
X2951Y507D02*
X2958Y507D01*
X0Y506D02*
X7Y506D01*
X2951Y506D02*
X2958Y506D01*
X0Y505D02*
X7Y505D01*
X2951Y505D02*
X2958Y505D01*
X0Y504D02*
X7Y504D01*
X2951Y504D02*
X2958Y504D01*
X0Y503D02*
X7Y503D01*
X2951Y503D02*
X2958Y503D01*
X0Y502D02*
X7Y502D01*
X2951Y502D02*
X2958Y502D01*
X0Y501D02*
X7Y501D01*
X2951Y501D02*
X2958Y501D01*
X0Y500D02*
X7Y500D01*
X2951Y500D02*
X2958Y500D01*
X0Y499D02*
X7Y499D01*
X2951Y499D02*
X2958Y499D01*
X0Y498D02*
X7Y498D01*
X2951Y498D02*
X2958Y498D01*
X0Y497D02*
X7Y497D01*
X2951Y497D02*
X2958Y497D01*
X0Y496D02*
X7Y496D01*
X2951Y496D02*
X2958Y496D01*
X0Y495D02*
X7Y495D01*
X2951Y495D02*
X2958Y495D01*
X0Y494D02*
X7Y494D01*
X2951Y494D02*
X2958Y494D01*
X0Y493D02*
X7Y493D01*
X2951Y493D02*
X2958Y493D01*
X0Y492D02*
X7Y492D01*
X2951Y492D02*
X2958Y492D01*
X0Y491D02*
X7Y491D01*
X2951Y491D02*
X2958Y491D01*
X0Y490D02*
X7Y490D01*
X2951Y490D02*
X2958Y490D01*
X0Y489D02*
X7Y489D01*
X2951Y489D02*
X2958Y489D01*
X0Y488D02*
X7Y488D01*
X2951Y488D02*
X2958Y488D01*
X0Y487D02*
X7Y487D01*
X2951Y487D02*
X2958Y487D01*
X0Y486D02*
X7Y486D01*
X2951Y486D02*
X2958Y486D01*
X0Y485D02*
X7Y485D01*
X2951Y485D02*
X2958Y485D01*
X0Y484D02*
X7Y484D01*
X2951Y484D02*
X2958Y484D01*
X0Y483D02*
X7Y483D01*
X2951Y483D02*
X2958Y483D01*
X0Y482D02*
X7Y482D01*
X2951Y482D02*
X2958Y482D01*
X0Y481D02*
X7Y481D01*
X2951Y481D02*
X2958Y481D01*
X0Y480D02*
X7Y480D01*
X2951Y480D02*
X2958Y480D01*
X0Y479D02*
X7Y479D01*
X2951Y479D02*
X2958Y479D01*
X0Y478D02*
X7Y478D01*
X2951Y478D02*
X2958Y478D01*
X0Y477D02*
X7Y477D01*
X2951Y477D02*
X2958Y477D01*
X0Y476D02*
X7Y476D01*
X2951Y476D02*
X2958Y476D01*
X0Y475D02*
X7Y475D01*
X2951Y475D02*
X2958Y475D01*
X0Y474D02*
X7Y474D01*
X2951Y474D02*
X2958Y474D01*
X0Y473D02*
X7Y473D01*
X2951Y473D02*
X2958Y473D01*
X0Y472D02*
X7Y472D01*
X2951Y472D02*
X2958Y472D01*
X0Y471D02*
X7Y471D01*
X2951Y471D02*
X2958Y471D01*
X0Y470D02*
X7Y470D01*
X2951Y470D02*
X2958Y470D01*
X0Y469D02*
X7Y469D01*
X2951Y469D02*
X2958Y469D01*
X0Y468D02*
X7Y468D01*
X2951Y468D02*
X2958Y468D01*
X0Y467D02*
X7Y467D01*
X2951Y467D02*
X2958Y467D01*
X0Y466D02*
X7Y466D01*
X2951Y466D02*
X2958Y466D01*
X0Y465D02*
X7Y465D01*
X2951Y465D02*
X2958Y465D01*
X0Y464D02*
X7Y464D01*
X2951Y464D02*
X2958Y464D01*
X0Y463D02*
X7Y463D01*
X2951Y463D02*
X2958Y463D01*
X0Y462D02*
X7Y462D01*
X2951Y462D02*
X2958Y462D01*
X0Y461D02*
X7Y461D01*
X2951Y461D02*
X2958Y461D01*
X0Y460D02*
X7Y460D01*
X2951Y460D02*
X2958Y460D01*
X0Y459D02*
X7Y459D01*
X2951Y459D02*
X2958Y459D01*
X0Y458D02*
X7Y458D01*
X2951Y458D02*
X2958Y458D01*
X0Y457D02*
X7Y457D01*
X2951Y457D02*
X2958Y457D01*
X0Y456D02*
X7Y456D01*
X2951Y456D02*
X2958Y456D01*
X0Y455D02*
X7Y455D01*
X2951Y455D02*
X2958Y455D01*
X0Y454D02*
X7Y454D01*
X2951Y454D02*
X2958Y454D01*
X0Y453D02*
X7Y453D01*
X2951Y453D02*
X2958Y453D01*
X0Y452D02*
X7Y452D01*
X2951Y452D02*
X2958Y452D01*
X0Y451D02*
X7Y451D01*
X2951Y451D02*
X2958Y451D01*
X0Y450D02*
X7Y450D01*
X2951Y450D02*
X2958Y450D01*
X0Y449D02*
X7Y449D01*
X2951Y449D02*
X2958Y449D01*
X0Y448D02*
X7Y448D01*
X2951Y448D02*
X2958Y448D01*
X0Y447D02*
X7Y447D01*
X2951Y447D02*
X2958Y447D01*
X0Y446D02*
X7Y446D01*
X2951Y446D02*
X2958Y446D01*
X0Y445D02*
X7Y445D01*
X2951Y445D02*
X2958Y445D01*
X0Y444D02*
X7Y444D01*
X2951Y444D02*
X2958Y444D01*
X0Y443D02*
X7Y443D01*
X2951Y443D02*
X2958Y443D01*
X0Y442D02*
X7Y442D01*
X2951Y442D02*
X2958Y442D01*
X0Y441D02*
X7Y441D01*
X2951Y441D02*
X2958Y441D01*
X0Y440D02*
X7Y440D01*
X2951Y440D02*
X2958Y440D01*
X0Y439D02*
X7Y439D01*
X2951Y439D02*
X2958Y439D01*
X0Y438D02*
X7Y438D01*
X2951Y438D02*
X2958Y438D01*
X0Y437D02*
X7Y437D01*
X2951Y437D02*
X2958Y437D01*
X0Y436D02*
X7Y436D01*
X2951Y436D02*
X2958Y436D01*
X0Y435D02*
X7Y435D01*
X2951Y435D02*
X2958Y435D01*
X0Y434D02*
X7Y434D01*
X2951Y434D02*
X2958Y434D01*
X0Y433D02*
X7Y433D01*
X2951Y433D02*
X2958Y433D01*
X0Y432D02*
X7Y432D01*
X2951Y432D02*
X2958Y432D01*
X0Y431D02*
X7Y431D01*
X2951Y431D02*
X2958Y431D01*
X0Y430D02*
X7Y430D01*
X2951Y430D02*
X2958Y430D01*
X0Y429D02*
X7Y429D01*
X2951Y429D02*
X2958Y429D01*
X0Y428D02*
X7Y428D01*
X2951Y428D02*
X2958Y428D01*
X0Y427D02*
X7Y427D01*
X2951Y427D02*
X2958Y427D01*
X0Y426D02*
X7Y426D01*
X2951Y426D02*
X2958Y426D01*
X0Y425D02*
X7Y425D01*
X2951Y425D02*
X2958Y425D01*
X0Y424D02*
X7Y424D01*
X2951Y424D02*
X2958Y424D01*
X0Y423D02*
X7Y423D01*
X2951Y423D02*
X2958Y423D01*
X0Y422D02*
X7Y422D01*
X2951Y422D02*
X2958Y422D01*
X0Y421D02*
X7Y421D01*
X2951Y421D02*
X2958Y421D01*
X0Y420D02*
X7Y420D01*
X2951Y420D02*
X2958Y420D01*
X0Y419D02*
X7Y419D01*
X2951Y419D02*
X2958Y419D01*
X0Y418D02*
X7Y418D01*
X2951Y418D02*
X2958Y418D01*
X0Y417D02*
X7Y417D01*
X2951Y417D02*
X2958Y417D01*
X0Y416D02*
X7Y416D01*
X2951Y416D02*
X2958Y416D01*
X0Y415D02*
X7Y415D01*
X2951Y415D02*
X2958Y415D01*
X0Y414D02*
X7Y414D01*
X2951Y414D02*
X2958Y414D01*
X0Y413D02*
X7Y413D01*
X2951Y413D02*
X2958Y413D01*
X0Y412D02*
X7Y412D01*
X2951Y412D02*
X2958Y412D01*
X0Y411D02*
X7Y411D01*
X2951Y411D02*
X2958Y411D01*
X0Y410D02*
X7Y410D01*
X2951Y410D02*
X2958Y410D01*
X0Y409D02*
X7Y409D01*
X2951Y409D02*
X2958Y409D01*
X0Y408D02*
X7Y408D01*
X2951Y408D02*
X2958Y408D01*
X0Y407D02*
X7Y407D01*
X2951Y407D02*
X2958Y407D01*
X0Y406D02*
X7Y406D01*
X2951Y406D02*
X2958Y406D01*
X0Y405D02*
X7Y405D01*
X2951Y405D02*
X2958Y405D01*
X0Y404D02*
X7Y404D01*
X2951Y404D02*
X2958Y404D01*
X0Y403D02*
X7Y403D01*
X2951Y403D02*
X2958Y403D01*
X0Y402D02*
X7Y402D01*
X2951Y402D02*
X2958Y402D01*
X0Y401D02*
X7Y401D01*
X2951Y401D02*
X2958Y401D01*
X0Y400D02*
X7Y400D01*
X2951Y400D02*
X2958Y400D01*
X0Y399D02*
X7Y399D01*
X2951Y399D02*
X2958Y399D01*
X0Y398D02*
X7Y398D01*
X2951Y398D02*
X2958Y398D01*
X0Y397D02*
X7Y397D01*
X2951Y397D02*
X2958Y397D01*
X0Y396D02*
X7Y396D01*
X2951Y396D02*
X2958Y396D01*
X0Y395D02*
X7Y395D01*
X2951Y395D02*
X2958Y395D01*
X0Y394D02*
X7Y394D01*
X2951Y394D02*
X2958Y394D01*
X0Y393D02*
X7Y393D01*
X2951Y393D02*
X2958Y393D01*
X0Y392D02*
X7Y392D01*
X2951Y392D02*
X2958Y392D01*
X0Y391D02*
X7Y391D01*
X2951Y391D02*
X2958Y391D01*
X0Y390D02*
X7Y390D01*
X2951Y390D02*
X2958Y390D01*
X0Y389D02*
X7Y389D01*
X2951Y389D02*
X2958Y389D01*
X0Y388D02*
X7Y388D01*
X2951Y388D02*
X2958Y388D01*
X0Y387D02*
X7Y387D01*
X2951Y387D02*
X2958Y387D01*
X0Y386D02*
X7Y386D01*
X2951Y386D02*
X2958Y386D01*
X0Y385D02*
X7Y385D01*
X2951Y385D02*
X2958Y385D01*
X0Y384D02*
X7Y384D01*
X2951Y384D02*
X2958Y384D01*
X0Y383D02*
X7Y383D01*
X2951Y383D02*
X2958Y383D01*
X0Y382D02*
X7Y382D01*
X2951Y382D02*
X2958Y382D01*
X0Y381D02*
X7Y381D01*
X2951Y381D02*
X2958Y381D01*
X0Y380D02*
X7Y380D01*
X2951Y380D02*
X2958Y380D01*
X0Y379D02*
X7Y379D01*
X2951Y379D02*
X2958Y379D01*
X0Y378D02*
X7Y378D01*
X2951Y378D02*
X2958Y378D01*
X0Y377D02*
X7Y377D01*
X2951Y377D02*
X2958Y377D01*
X0Y376D02*
X7Y376D01*
X2951Y376D02*
X2958Y376D01*
X0Y375D02*
X7Y375D01*
X2951Y375D02*
X2958Y375D01*
X0Y374D02*
X7Y374D01*
X2951Y374D02*
X2958Y374D01*
X0Y373D02*
X7Y373D01*
X2951Y373D02*
X2958Y373D01*
X0Y372D02*
X7Y372D01*
X2951Y372D02*
X2958Y372D01*
X0Y371D02*
X7Y371D01*
X2951Y371D02*
X2958Y371D01*
X1Y370D02*
X8Y370D01*
X2950Y370D02*
X2957Y370D01*
X1Y369D02*
X8Y369D01*
X2950Y369D02*
X2957Y369D01*
X1Y368D02*
X8Y368D01*
X2950Y368D02*
X2957Y368D01*
X1Y367D02*
X8Y367D01*
X2950Y367D02*
X2957Y367D01*
X1Y366D02*
X8Y366D01*
X2950Y366D02*
X2957Y366D01*
X1Y365D02*
X8Y365D01*
X2950Y365D02*
X2957Y365D01*
X1Y364D02*
X8Y364D01*
X2950Y364D02*
X2957Y364D01*
X1Y363D02*
X8Y363D01*
X2950Y363D02*
X2957Y363D01*
X1Y362D02*
X8Y362D01*
X2950Y362D02*
X2957Y362D01*
X1Y361D02*
X8Y361D01*
X2950Y361D02*
X2957Y361D01*
X1Y360D02*
X8Y360D01*
X2950Y360D02*
X2957Y360D01*
X1Y359D02*
X8Y359D01*
X2950Y359D02*
X2957Y359D01*
X1Y358D02*
X8Y358D01*
X2950Y358D02*
X2957Y358D01*
X1Y357D02*
X8Y357D01*
X2950Y357D02*
X2957Y357D01*
X2Y356D02*
X9Y356D01*
X2949Y356D02*
X2956Y356D01*
X2Y355D02*
X9Y355D01*
X2949Y355D02*
X2956Y355D01*
X2Y354D02*
X9Y354D01*
X2949Y354D02*
X2956Y354D01*
X2Y353D02*
X9Y353D01*
X2949Y353D02*
X2956Y353D01*
X2Y352D02*
X9Y352D01*
X2949Y352D02*
X2956Y352D01*
X2Y351D02*
X9Y351D01*
X2949Y351D02*
X2956Y351D01*
X2Y350D02*
X9Y350D01*
X2949Y350D02*
X2956Y350D01*
X2Y349D02*
X9Y349D01*
X2949Y349D02*
X2956Y349D01*
X2Y348D02*
X9Y348D01*
X2949Y348D02*
X2956Y348D01*
X2Y347D02*
X9Y347D01*
X2949Y347D02*
X2956Y347D01*
X3Y346D02*
X10Y346D01*
X2948Y346D02*
X2955Y346D01*
X3Y345D02*
X10Y345D01*
X2948Y345D02*
X2955Y345D01*
X3Y344D02*
X10Y344D01*
X2948Y344D02*
X2955Y344D01*
X3Y343D02*
X10Y343D01*
X2948Y343D02*
X2955Y343D01*
X3Y342D02*
X10Y342D01*
X2948Y342D02*
X2955Y342D01*
X3Y341D02*
X10Y341D01*
X2948Y341D02*
X2955Y341D01*
X3Y340D02*
X10Y340D01*
X2948Y340D02*
X2955Y340D01*
X3Y339D02*
X10Y339D01*
X2948Y339D02*
X2955Y339D01*
X4Y338D02*
X11Y338D01*
X2947Y338D02*
X2954Y338D01*
X4Y337D02*
X11Y337D01*
X2947Y337D02*
X2954Y337D01*
X4Y336D02*
X11Y336D01*
X2947Y336D02*
X2954Y336D01*
X4Y335D02*
X11Y335D01*
X2947Y335D02*
X2954Y335D01*
X4Y334D02*
X11Y334D01*
X2947Y334D02*
X2954Y334D01*
X4Y333D02*
X11Y333D01*
X2947Y333D02*
X2954Y333D01*
X4Y332D02*
X11Y332D01*
X2947Y332D02*
X2954Y332D01*
X5Y331D02*
X12Y331D01*
X2946Y331D02*
X2953Y331D01*
X5Y330D02*
X12Y330D01*
X2946Y330D02*
X2953Y330D01*
X5Y329D02*
X12Y329D01*
X2946Y329D02*
X2953Y329D01*
X5Y328D02*
X12Y328D01*
X2946Y328D02*
X2953Y328D01*
X5Y327D02*
X12Y327D01*
X2946Y327D02*
X2953Y327D01*
X5Y326D02*
X12Y326D01*
X2946Y326D02*
X2953Y326D01*
X6Y325D02*
X13Y325D01*
X2945Y325D02*
X2952Y325D01*
X6Y324D02*
X13Y324D01*
X2945Y324D02*
X2952Y324D01*
X6Y323D02*
X13Y323D01*
X2945Y323D02*
X2952Y323D01*
X6Y322D02*
X13Y322D01*
X2945Y322D02*
X2952Y322D01*
X6Y321D02*
X13Y321D01*
X2945Y321D02*
X2952Y321D01*
X6Y320D02*
X13Y320D01*
X2945Y320D02*
X2952Y320D01*
X7Y319D02*
X14Y319D01*
X2944Y319D02*
X2951Y319D01*
X7Y318D02*
X14Y318D01*
X2944Y318D02*
X2951Y318D01*
X7Y317D02*
X14Y317D01*
X2944Y317D02*
X2951Y317D01*
X7Y316D02*
X14Y316D01*
X2944Y316D02*
X2951Y316D01*
X7Y315D02*
X14Y315D01*
X2944Y315D02*
X2951Y315D01*
X8Y314D02*
X15Y314D01*
X2943Y314D02*
X2950Y314D01*
X8Y313D02*
X15Y313D01*
X2943Y313D02*
X2950Y313D01*
X8Y312D02*
X15Y312D01*
X2943Y312D02*
X2950Y312D01*
X8Y311D02*
X15Y311D01*
X2943Y311D02*
X2950Y311D01*
X8Y310D02*
X15Y310D01*
X2943Y310D02*
X2950Y310D01*
X9Y309D02*
X16Y309D01*
X2942Y309D02*
X2949Y309D01*
X9Y308D02*
X16Y308D01*
X2942Y308D02*
X2949Y308D01*
X9Y307D02*
X16Y307D01*
X2942Y307D02*
X2949Y307D01*
X9Y306D02*
X16Y306D01*
X2942Y306D02*
X2949Y306D01*
X9Y305D02*
X16Y305D01*
X2941Y305D02*
X2949Y305D01*
X10Y304D02*
X17Y304D01*
X2941Y304D02*
X2948Y304D01*
X10Y303D02*
X17Y303D01*
X2941Y303D02*
X2948Y303D01*
X10Y302D02*
X17Y302D01*
X2941Y302D02*
X2948Y302D01*
X10Y301D02*
X17Y301D01*
X2941Y301D02*
X2948Y301D01*
X11Y300D02*
X18Y300D01*
X2940Y300D02*
X2947Y300D01*
X11Y299D02*
X18Y299D01*
X2940Y299D02*
X2947Y299D01*
X11Y298D02*
X18Y298D01*
X2940Y298D02*
X2947Y298D01*
X11Y297D02*
X18Y297D01*
X2940Y297D02*
X2947Y297D01*
X12Y296D02*
X19Y296D01*
X2939Y296D02*
X2946Y296D01*
X12Y295D02*
X19Y295D01*
X2939Y295D02*
X2946Y295D01*
X12Y294D02*
X19Y294D01*
X2939Y294D02*
X2946Y294D01*
X12Y293D02*
X19Y293D01*
X2939Y293D02*
X2946Y293D01*
X13Y292D02*
X20Y292D01*
X2938Y292D02*
X2945Y292D01*
X13Y291D02*
X20Y291D01*
X2938Y291D02*
X2945Y291D01*
X13Y290D02*
X20Y290D01*
X2938Y290D02*
X2945Y290D01*
X13Y289D02*
X20Y289D01*
X2937Y289D02*
X2945Y289D01*
X14Y288D02*
X21Y288D01*
X2937Y288D02*
X2944Y288D01*
X14Y287D02*
X21Y287D01*
X2937Y287D02*
X2944Y287D01*
X14Y286D02*
X21Y286D01*
X2937Y286D02*
X2944Y286D01*
X14Y285D02*
X22Y285D01*
X2936Y285D02*
X2943Y285D01*
X15Y284D02*
X22Y284D01*
X2936Y284D02*
X2943Y284D01*
X15Y283D02*
X22Y283D01*
X2936Y283D02*
X2943Y283D01*
X15Y282D02*
X22Y282D01*
X2935Y282D02*
X2943Y282D01*
X16Y281D02*
X23Y281D01*
X2935Y281D02*
X2942Y281D01*
X16Y280D02*
X23Y280D01*
X2935Y280D02*
X2942Y280D01*
X16Y279D02*
X23Y279D01*
X2935Y279D02*
X2942Y279D01*
X17Y278D02*
X24Y278D01*
X2934Y278D02*
X2941Y278D01*
X17Y277D02*
X24Y277D01*
X2934Y277D02*
X2941Y277D01*
X17Y276D02*
X24Y276D01*
X2934Y276D02*
X2941Y276D01*
X17Y275D02*
X25Y275D01*
X2933Y275D02*
X2941Y275D01*
X18Y274D02*
X25Y274D01*
X2933Y274D02*
X2940Y274D01*
X18Y273D02*
X25Y273D01*
X2933Y273D02*
X2940Y273D01*
X18Y272D02*
X26Y272D01*
X2932Y272D02*
X2940Y272D01*
X19Y271D02*
X26Y271D01*
X2932Y271D02*
X2939Y271D01*
X19Y270D02*
X26Y270D01*
X2932Y270D02*
X2939Y270D01*
X19Y269D02*
X27Y269D01*
X2931Y269D02*
X2939Y269D01*
X20Y268D02*
X27Y268D01*
X2931Y268D02*
X2938Y268D01*
X20Y267D02*
X27Y267D01*
X2931Y267D02*
X2938Y267D01*
X20Y266D02*
X28Y266D01*
X2930Y266D02*
X2938Y266D01*
X21Y265D02*
X28Y265D01*
X2930Y265D02*
X2937Y265D01*
X21Y264D02*
X28Y264D01*
X2930Y264D02*
X2937Y264D01*
X21Y263D02*
X29Y263D01*
X2929Y263D02*
X2937Y263D01*
X22Y262D02*
X29Y262D01*
X2929Y262D02*
X2936Y262D01*
X22Y261D02*
X29Y261D01*
X2929Y261D02*
X2936Y261D01*
X22Y260D02*
X30Y260D01*
X2928Y260D02*
X2936Y260D01*
X23Y259D02*
X30Y259D01*
X2928Y259D02*
X2935Y259D01*
X23Y258D02*
X30Y258D01*
X2928Y258D02*
X2935Y258D01*
X24Y257D02*
X31Y257D01*
X2927Y257D02*
X2934Y257D01*
X24Y256D02*
X31Y256D01*
X2927Y256D02*
X2934Y256D01*
X24Y255D02*
X32Y255D01*
X2926Y255D02*
X2934Y255D01*
X25Y254D02*
X32Y254D01*
X2926Y254D02*
X2933Y254D01*
X25Y253D02*
X32Y253D01*
X2926Y253D02*
X2933Y253D01*
X25Y252D02*
X33Y252D01*
X2925Y252D02*
X2933Y252D01*
X26Y251D02*
X33Y251D01*
X2925Y251D02*
X2932Y251D01*
X26Y250D02*
X33Y250D01*
X2925Y250D02*
X2932Y250D01*
X27Y249D02*
X34Y249D01*
X2924Y249D02*
X2931Y249D01*
X27Y248D02*
X34Y248D01*
X2924Y248D02*
X2931Y248D01*
X27Y247D02*
X35Y247D01*
X2923Y247D02*
X2931Y247D01*
X28Y246D02*
X35Y246D01*
X2923Y246D02*
X2930Y246D01*
X28Y245D02*
X35Y245D01*
X2923Y245D02*
X2930Y245D01*
X29Y244D02*
X36Y244D01*
X2922Y244D02*
X2929Y244D01*
X29Y243D02*
X36Y243D01*
X2922Y243D02*
X2929Y243D01*
X29Y242D02*
X37Y242D01*
X2921Y242D02*
X2929Y242D01*
X30Y241D02*
X37Y241D01*
X2921Y241D02*
X2928Y241D01*
X30Y240D02*
X38Y240D01*
X2920Y240D02*
X2928Y240D01*
X31Y239D02*
X38Y239D01*
X2920Y239D02*
X2927Y239D01*
X31Y238D02*
X38Y238D01*
X2920Y238D02*
X2927Y238D01*
X31Y237D02*
X39Y237D01*
X2919Y237D02*
X2926Y237D01*
X32Y236D02*
X39Y236D01*
X2919Y236D02*
X2926Y236D01*
X32Y235D02*
X40Y235D01*
X2918Y235D02*
X2926Y235D01*
X33Y234D02*
X40Y234D01*
X2918Y234D02*
X2925Y234D01*
X33Y233D02*
X41Y233D01*
X2917Y233D02*
X2925Y233D01*
X34Y232D02*
X41Y232D01*
X2917Y232D02*
X2924Y232D01*
X34Y231D02*
X42Y231D01*
X2916Y231D02*
X2924Y231D01*
X35Y230D02*
X42Y230D01*
X2916Y230D02*
X2923Y230D01*
X35Y229D02*
X42Y229D01*
X2916Y229D02*
X2923Y229D01*
X36Y228D02*
X43Y228D01*
X2915Y228D02*
X2922Y228D01*
X36Y227D02*
X43Y227D01*
X2915Y227D02*
X2922Y227D01*
X36Y226D02*
X44Y226D01*
X2914Y226D02*
X2922Y226D01*
X37Y225D02*
X44Y225D01*
X2914Y225D02*
X2921Y225D01*
X37Y224D02*
X45Y224D01*
X2913Y224D02*
X2921Y224D01*
X38Y223D02*
X45Y223D01*
X2913Y223D02*
X2920Y223D01*
X38Y222D02*
X46Y222D01*
X2912Y222D02*
X2920Y222D01*
X39Y221D02*
X46Y221D01*
X2912Y221D02*
X2919Y221D01*
X39Y220D02*
X47Y220D01*
X2911Y220D02*
X2919Y220D01*
X40Y219D02*
X47Y219D01*
X2911Y219D02*
X2918Y219D01*
X40Y218D02*
X48Y218D01*
X2910Y218D02*
X2918Y218D01*
X41Y217D02*
X48Y217D01*
X2910Y217D02*
X2917Y217D01*
X41Y216D02*
X49Y216D01*
X2909Y216D02*
X2917Y216D01*
X42Y215D02*
X49Y215D01*
X2909Y215D02*
X2916Y215D01*
X42Y214D02*
X50Y214D01*
X2908Y214D02*
X2916Y214D01*
X43Y213D02*
X50Y213D01*
X2908Y213D02*
X2915Y213D01*
X43Y212D02*
X51Y212D01*
X2907Y212D02*
X2915Y212D01*
X44Y211D02*
X51Y211D01*
X2907Y211D02*
X2914Y211D01*
X44Y210D02*
X52Y210D01*
X2906Y210D02*
X2914Y210D01*
X45Y209D02*
X52Y209D01*
X2906Y209D02*
X2913Y209D01*
X45Y208D02*
X53Y208D01*
X2905Y208D02*
X2913Y208D01*
X46Y207D02*
X54Y207D01*
X2904Y207D02*
X2912Y207D01*
X46Y206D02*
X54Y206D01*
X2904Y206D02*
X2911Y206D01*
X47Y205D02*
X55Y205D01*
X2903Y205D02*
X2911Y205D01*
X48Y204D02*
X55Y204D01*
X2903Y204D02*
X2910Y204D01*
X48Y203D02*
X56Y203D01*
X2902Y203D02*
X2910Y203D01*
X49Y202D02*
X56Y202D01*
X2902Y202D02*
X2909Y202D01*
X49Y201D02*
X57Y201D01*
X2901Y201D02*
X2909Y201D01*
X50Y200D02*
X57Y200D01*
X2900Y200D02*
X2908Y200D01*
X50Y199D02*
X58Y199D01*
X2900Y199D02*
X2908Y199D01*
X51Y198D02*
X59Y198D01*
X2899Y198D02*
X2907Y198D01*
X51Y197D02*
X59Y197D01*
X2899Y197D02*
X2906Y197D01*
X52Y196D02*
X60Y196D01*
X2898Y196D02*
X2906Y196D01*
X53Y195D02*
X60Y195D01*
X2898Y195D02*
X2905Y195D01*
X53Y194D02*
X61Y194D01*
X2897Y194D02*
X2905Y194D01*
X54Y193D02*
X62Y193D01*
X2896Y193D02*
X2904Y193D01*
X54Y192D02*
X62Y192D01*
X2896Y192D02*
X2904Y192D01*
X55Y191D02*
X63Y191D01*
X2895Y191D02*
X2903Y191D01*
X56Y190D02*
X63Y190D01*
X2895Y190D02*
X2902Y190D01*
X56Y189D02*
X64Y189D01*
X2894Y189D02*
X2902Y189D01*
X57Y188D02*
X65Y188D01*
X2893Y188D02*
X2901Y188D01*
X57Y187D02*
X65Y187D01*
X2893Y187D02*
X2901Y187D01*
X58Y186D02*
X66Y186D01*
X2892Y186D02*
X2900Y186D01*
X59Y185D02*
X67Y185D01*
X2891Y185D02*
X2899Y185D01*
X59Y184D02*
X67Y184D01*
X2891Y184D02*
X2899Y184D01*
X60Y183D02*
X68Y183D01*
X2890Y183D02*
X2898Y183D01*
X61Y182D02*
X68Y182D01*
X2889Y182D02*
X2897Y182D01*
X61Y181D02*
X69Y181D01*
X2889Y181D02*
X2897Y181D01*
X62Y180D02*
X70Y180D01*
X2888Y180D02*
X2896Y180D01*
X63Y179D02*
X70Y179D01*
X2888Y179D02*
X2895Y179D01*
X63Y178D02*
X71Y178D01*
X2887Y178D02*
X2895Y178D01*
X64Y177D02*
X72Y177D01*
X2886Y177D02*
X2894Y177D01*
X64Y176D02*
X72Y176D01*
X2886Y176D02*
X2893Y176D01*
X65Y175D02*
X73Y175D01*
X2885Y175D02*
X2893Y175D01*
X66Y174D02*
X74Y174D01*
X2884Y174D02*
X2892Y174D01*
X66Y173D02*
X75Y173D01*
X2883Y173D02*
X2892Y173D01*
X67Y172D02*
X75Y172D01*
X2883Y172D02*
X2891Y172D01*
X68Y171D02*
X76Y171D01*
X2882Y171D02*
X2890Y171D01*
X69Y170D02*
X77Y170D01*
X2881Y170D02*
X2889Y170D01*
X69Y169D02*
X77Y169D01*
X2881Y169D02*
X2889Y169D01*
X70Y168D02*
X78Y168D01*
X2880Y168D02*
X2888Y168D01*
X71Y167D02*
X79Y167D01*
X2879Y167D02*
X2887Y167D01*
X71Y166D02*
X80Y166D01*
X2878Y166D02*
X2887Y166D01*
X72Y165D02*
X80Y165D01*
X2878Y165D02*
X2886Y165D01*
X73Y164D02*
X81Y164D01*
X2877Y164D02*
X2885Y164D01*
X73Y163D02*
X82Y163D01*
X2876Y163D02*
X2885Y163D01*
X74Y162D02*
X82Y162D01*
X2876Y162D02*
X2884Y162D01*
X75Y161D02*
X83Y161D01*
X2875Y161D02*
X2883Y161D01*
X76Y160D02*
X84Y160D01*
X2874Y160D02*
X2882Y160D01*
X76Y159D02*
X85Y159D01*
X2873Y159D02*
X2882Y159D01*
X77Y158D02*
X85Y158D01*
X2872Y158D02*
X2881Y158D01*
X78Y157D02*
X86Y157D01*
X2872Y157D02*
X2880Y157D01*
X79Y156D02*
X87Y156D01*
X2871Y156D02*
X2879Y156D01*
X79Y155D02*
X88Y155D01*
X2870Y155D02*
X2879Y155D01*
X80Y154D02*
X89Y154D01*
X2869Y154D02*
X2878Y154D01*
X81Y153D02*
X89Y153D01*
X2869Y153D02*
X2877Y153D01*
X82Y152D02*
X90Y152D01*
X2868Y152D02*
X2876Y152D01*
X82Y151D02*
X91Y151D01*
X2867Y151D02*
X2876Y151D01*
X83Y150D02*
X92Y150D01*
X2866Y150D02*
X2875Y150D01*
X84Y149D02*
X93Y149D01*
X2865Y149D02*
X2874Y149D01*
X85Y148D02*
X93Y148D01*
X2865Y148D02*
X2873Y148D01*
X86Y147D02*
X94Y147D01*
X2864Y147D02*
X2872Y147D01*
X86Y146D02*
X95Y146D01*
X2863Y146D02*
X2872Y146D01*
X87Y145D02*
X96Y145D01*
X2862Y145D02*
X2871Y145D01*
X88Y144D02*
X97Y144D01*
X2861Y144D02*
X2870Y144D01*
X89Y143D02*
X98Y143D01*
X2860Y143D02*
X2869Y143D01*
X90Y142D02*
X98Y142D01*
X2860Y142D02*
X2868Y142D01*
X91Y141D02*
X99Y141D01*
X2859Y141D02*
X2867Y141D01*
X91Y140D02*
X100Y140D01*
X2858Y140D02*
X2867Y140D01*
X92Y139D02*
X101Y139D01*
X2857Y139D02*
X2866Y139D01*
X93Y138D02*
X102Y138D01*
X2856Y138D02*
X2865Y138D01*
X94Y137D02*
X103Y137D01*
X2855Y137D02*
X2864Y137D01*
X95Y136D02*
X104Y136D01*
X2854Y136D02*
X2863Y136D01*
X96Y135D02*
X105Y135D01*
X2853Y135D02*
X2862Y135D01*
X97Y134D02*
X105Y134D01*
X2853Y134D02*
X2861Y134D01*
X97Y133D02*
X106Y133D01*
X2852Y133D02*
X2861Y133D01*
X98Y132D02*
X107Y132D01*
X2851Y132D02*
X2860Y132D01*
X99Y131D02*
X108Y131D01*
X2850Y131D02*
X2859Y131D01*
X100Y130D02*
X109Y130D01*
X2849Y130D02*
X2858Y130D01*
X101Y129D02*
X110Y129D01*
X2848Y129D02*
X2857Y129D01*
X102Y128D02*
X111Y128D01*
X2847Y128D02*
X2856Y128D01*
X103Y127D02*
X112Y127D01*
X2846Y127D02*
X2855Y127D01*
X104Y126D02*
X113Y126D01*
X2845Y126D02*
X2854Y126D01*
X105Y125D02*
X114Y125D01*
X2844Y125D02*
X2853Y125D01*
X106Y124D02*
X115Y124D01*
X2843Y124D02*
X2852Y124D01*
X107Y123D02*
X116Y123D01*
X2842Y123D02*
X2851Y123D01*
X107Y122D02*
X117Y122D01*
X2841Y122D02*
X2850Y122D01*
X108Y121D02*
X118Y121D01*
X2840Y121D02*
X2850Y121D01*
X109Y120D02*
X119Y120D01*
X2839Y120D02*
X2849Y120D01*
X110Y119D02*
X120Y119D01*
X2838Y119D02*
X2848Y119D01*
X111Y118D02*
X121Y118D01*
X2837Y118D02*
X2847Y118D01*
X112Y117D02*
X122Y117D01*
X2836Y117D02*
X2846Y117D01*
X113Y116D02*
X123Y116D01*
X2835Y116D02*
X2845Y116D01*
X114Y115D02*
X124Y115D01*
X2834Y115D02*
X2844Y115D01*
X115Y114D02*
X125Y114D01*
X2833Y114D02*
X2843Y114D01*
X116Y113D02*
X126Y113D01*
X2832Y113D02*
X2842Y113D01*
X117Y112D02*
X127Y112D01*
X2831Y112D02*
X2841Y112D01*
X118Y111D02*
X128Y111D01*
X2830Y111D02*
X2840Y111D01*
X119Y110D02*
X129Y110D01*
X2829Y110D02*
X2839Y110D01*
X120Y109D02*
X130Y109D01*
X2828Y109D02*
X2838Y109D01*
X122Y108D02*
X131Y108D01*
X2827Y108D02*
X2836Y108D01*
X123Y107D02*
X133Y107D01*
X2825Y107D02*
X2835Y107D01*
X124Y106D02*
X134Y106D01*
X2824Y106D02*
X2834Y106D01*
X125Y105D02*
X135Y105D01*
X2823Y105D02*
X2833Y105D01*
X126Y104D02*
X136Y104D01*
X2822Y104D02*
X2832Y104D01*
X127Y103D02*
X137Y103D01*
X2821Y103D02*
X2831Y103D01*
X128Y102D02*
X138Y102D01*
X2820Y102D02*
X2830Y102D01*
X129Y101D02*
X139Y101D01*
X2819Y101D02*
X2829Y101D01*
X130Y100D02*
X141Y100D01*
X2817Y100D02*
X2828Y100D01*
X131Y99D02*
X142Y99D01*
X2816Y99D02*
X2827Y99D01*
X132Y98D02*
X143Y98D01*
X2815Y98D02*
X2825Y98D01*
X134Y97D02*
X144Y97D01*
X2814Y97D02*
X2824Y97D01*
X135Y96D02*
X145Y96D01*
X2813Y96D02*
X2823Y96D01*
X136Y95D02*
X146Y95D01*
X2811Y95D02*
X2822Y95D01*
X137Y94D02*
X148Y94D01*
X2810Y94D02*
X2821Y94D01*
X138Y93D02*
X149Y93D01*
X2809Y93D02*
X2820Y93D01*
X139Y92D02*
X150Y92D01*
X2808Y92D02*
X2818Y92D01*
X141Y91D02*
X151Y91D01*
X2807Y91D02*
X2817Y91D01*
X142Y90D02*
X153Y90D01*
X2805Y90D02*
X2816Y90D01*
X143Y89D02*
X154Y89D01*
X2804Y89D02*
X2815Y89D01*
X144Y88D02*
X155Y88D01*
X2803Y88D02*
X2814Y88D01*
X146Y87D02*
X157Y87D01*
X2801Y87D02*
X2812Y87D01*
X147Y86D02*
X158Y86D01*
X2800Y86D02*
X2811Y86D01*
X148Y85D02*
X159Y85D01*
X2799Y85D02*
X2810Y85D01*
X149Y84D02*
X161Y84D01*
X2797Y84D02*
X2809Y84D01*
X151Y83D02*
X162Y83D01*
X2796Y83D02*
X2807Y83D01*
X152Y82D02*
X163Y82D01*
X2795Y82D02*
X2806Y82D01*
X153Y81D02*
X165Y81D01*
X2793Y81D02*
X2805Y81D01*
X155Y80D02*
X166Y80D01*
X2792Y80D02*
X2803Y80D01*
X156Y79D02*
X167Y79D01*
X2790Y79D02*
X2802Y79D01*
X157Y78D02*
X169Y78D01*
X2789Y78D02*
X2801Y78D01*
X159Y77D02*
X170Y77D01*
X2788Y77D02*
X2799Y77D01*
X160Y76D02*
X172Y76D01*
X2786Y76D02*
X2798Y76D01*
X161Y75D02*
X173Y75D01*
X2785Y75D02*
X2797Y75D01*
X163Y74D02*
X175Y74D01*
X2783Y74D02*
X2795Y74D01*
X164Y73D02*
X176Y73D01*
X2782Y73D02*
X2794Y73D01*
X165Y72D02*
X178Y72D01*
X2780Y72D02*
X2792Y72D01*
X167Y71D02*
X179Y71D01*
X2779Y71D02*
X2791Y71D01*
X168Y70D02*
X181Y70D01*
X2777Y70D02*
X2790Y70D01*
X170Y69D02*
X182Y69D01*
X2776Y69D02*
X2788Y69D01*
X171Y68D02*
X184Y68D01*
X2774Y68D02*
X2787Y68D01*
X173Y67D02*
X186Y67D01*
X2772Y67D02*
X2785Y67D01*
X174Y66D02*
X187Y66D01*
X2771Y66D02*
X2784Y66D01*
X176Y65D02*
X189Y65D01*
X2769Y65D02*
X2782Y65D01*
X177Y64D02*
X190Y64D01*
X2768Y64D02*
X2781Y64D01*
X179Y63D02*
X192Y63D01*
X2766Y63D02*
X2779Y63D01*
X180Y62D02*
X194Y62D01*
X2764Y62D02*
X2778Y62D01*
X182Y61D02*
X195Y61D01*
X2763Y61D02*
X2776Y61D01*
X184Y60D02*
X197Y60D01*
X2761Y60D02*
X2774Y60D01*
X185Y59D02*
X199Y59D01*
X2759Y59D02*
X2773Y59D01*
X187Y58D02*
X201Y58D01*
X2757Y58D02*
X2771Y58D01*
X188Y57D02*
X202Y57D01*
X2755Y57D02*
X2770Y57D01*
X190Y56D02*
X204Y56D01*
X2754Y56D02*
X2768Y56D01*
X192Y55D02*
X206Y55D01*
X2752Y55D02*
X2766Y55D01*
X193Y54D02*
X208Y54D01*
X2750Y54D02*
X2764Y54D01*
X195Y53D02*
X210Y53D01*
X2748Y53D02*
X2763Y53D01*
X197Y52D02*
X212Y52D01*
X2746Y52D02*
X2761Y52D01*
X199Y51D02*
X214Y51D01*
X2744Y51D02*
X2759Y51D01*
X201Y50D02*
X216Y50D01*
X2742Y50D02*
X2757Y50D01*
X202Y49D02*
X218Y49D01*
X2740Y49D02*
X2756Y49D01*
X204Y48D02*
X220Y48D01*
X2738Y48D02*
X2754Y48D01*
X206Y47D02*
X222Y47D01*
X2736Y47D02*
X2752Y47D01*
X208Y46D02*
X224Y46D01*
X2734Y46D02*
X2750Y46D01*
X210Y45D02*
X226Y45D01*
X2732Y45D02*
X2748Y45D01*
X212Y44D02*
X228Y44D01*
X2730Y44D02*
X2746Y44D01*
X214Y43D02*
X230Y43D01*
X2728Y43D02*
X2744Y43D01*
X216Y42D02*
X233Y42D01*
X2725Y42D02*
X2742Y42D01*
X218Y41D02*
X235Y41D01*
X2723Y41D02*
X2740Y41D01*
X220Y40D02*
X237Y40D01*
X2721Y40D02*
X2738Y40D01*
X222Y39D02*
X239Y39D01*
X2718Y39D02*
X2736Y39D01*
X224Y38D02*
X242Y38D01*
X2716Y38D02*
X2734Y38D01*
X226Y37D02*
X244Y37D01*
X2714Y37D02*
X2732Y37D01*
X228Y36D02*
X247Y36D01*
X2711Y36D02*
X2730Y36D01*
X230Y35D02*
X249Y35D01*
X2709Y35D02*
X2728Y35D01*
X233Y34D02*
X252Y34D01*
X2706Y34D02*
X2725Y34D01*
X235Y33D02*
X255Y33D01*
X2703Y33D02*
X2723Y33D01*
X237Y32D02*
X257Y32D01*
X2701Y32D02*
X2721Y32D01*
X240Y31D02*
X260Y31D01*
X2698Y31D02*
X2718Y31D01*
X242Y30D02*
X263Y30D01*
X2695Y30D02*
X2716Y30D01*
X245Y29D02*
X266Y29D01*
X2692Y29D02*
X2713Y29D01*
X247Y28D02*
X269Y28D01*
X2689Y28D02*
X2711Y28D01*
X250Y27D02*
X272Y27D01*
X2686Y27D02*
X2708Y27D01*
X252Y26D02*
X275Y26D01*
X2683Y26D02*
X2706Y26D01*
X255Y25D02*
X279Y25D01*
X2679Y25D02*
X2703Y25D01*
X258Y24D02*
X282Y24D01*
X2676Y24D02*
X2700Y24D01*
X261Y23D02*
X286Y23D01*
X2672Y23D02*
X2697Y23D01*
X263Y22D02*
X290Y22D01*
X2668Y22D02*
X2694Y22D01*
X267Y21D02*
X293Y21D01*
X2665Y21D02*
X2691Y21D01*
X270Y20D02*
X298Y20D01*
X2660Y20D02*
X2688Y20D01*
X273Y19D02*
X302Y19D01*
X2656Y19D02*
X2685Y19D01*
X276Y18D02*
X306Y18D01*
X2652Y18D02*
X2682Y18D01*
X279Y17D02*
X311Y17D01*
X2647Y17D02*
X2679Y17D01*
X283Y16D02*
X316Y16D01*
X2642Y16D02*
X2675Y16D01*
X286Y15D02*
X322Y15D01*
X2636Y15D02*
X2672Y15D01*
X290Y14D02*
X328Y14D01*
X2630Y14D02*
X2668Y14D01*
X294Y13D02*
X335Y13D01*
X2623Y13D02*
X2664Y13D01*
X298Y12D02*
X343Y12D01*
X2615Y12D02*
X2660Y12D01*
X302Y11D02*
X353Y11D01*
X2605Y11D02*
X2655Y11D01*
X307Y10D02*
X367Y10D01*
X2591Y10D02*
X2651Y10D01*
X312Y9D02*
X2646Y9D01*
X317Y8D02*
X2641Y8D01*
X323Y7D02*
X2635Y7D01*
X329Y6D02*
X2629Y6D01*
X336Y5D02*
X2622Y5D01*
X344Y4D02*
X2614Y4D01*
X354Y3D02*
X2604Y3D01*
X368Y2D02*
X2590Y2D01*
D02*
G04 End of Silk0*
M02*